*
*
G04 PADS 9.5 Build Number: 522968 generated Gerber (RS-274-X) file*
G04 PC Version=2.1*
*
%IN "audio_player.pcb"*%
*
%MOIN*%
*
%FSLAX35Y35*%
*
*
*
*
G04 PC Standard Apertures*
*
*
G04 Thermal Relief Aperture macro.*
%AMTER*
1,1,$1,0,0*
1,0,$1-$2,0,0*
21,0,$3,$4,0,0,45*
21,0,$3,$4,0,0,135*
%
*
*
G04 Annular Aperture macro.*
%AMANN*
1,1,$1,0,0*
1,0,$2,0,0*
%
*
*
G04 Odd Aperture macro.*
%AMODD*
1,1,$1,0,0*
1,0,$1-0.005,0,0*
%
*
*
G04 PC Custom Aperture Macros*
*
*
*
*
*
*
G04 PC Aperture Table*
*
%ADD010C,0.001*%
%ADD020C,0.06*%
%ADD024R,0.06X0.06*%
%ADD048C,0.008*%
%ADD049C,0.04*%
%ADD051C,0.02*%
%ADD052C,0.03*%
%ADD055C,0.01*%
%ADD112C,0.03937*%
%ADD134C,0.024*%
%ADD154O,0.06299X0.05118*%
%ADD172O,0.07874X0.06*%
%ADD178O,0.08268X0.03937*%
%ADD179O,0.07087X0.03937*%
%ADD180C,0.19685*%
%ADD240C,0.05906*%
*
*
*
*
G04 PC Circuitry*
G04 Layer Name audio_player.pcb - circuitry*
%LPD*%
*
*
G04 PC Custom Flashes*
G04 Layer Name audio_player.pcb - flashes*
%LPD*%
*
*
G04 PC Circuitry*
G04 Layer Name audio_player.pcb - circuitry*
%LPD*%
*
G54D10*
G54D20*
G01X123000Y166600D03*
Y156600D03*
Y146600D03*
G54D24*
Y176600D03*
G54D48*
Y156600D02*
X114400Y165200D01*
Y183200*
X225935Y136606D02*
X234417D01*
X282900Y132100D02*
X294900Y144100D01*
X300700*
X282900Y132100D02*
X181013D01*
X142963Y170150*
Y272571*
X284895Y129100D02*
X296855Y141061D01*
X304832*
X284895Y129100D02*
X179668D01*
X138193Y170575*
Y272600*
X262100Y158900D02*
Y162100D01*
X262200Y162200*
Y165300*
X352923Y150692D02*
X362250Y160019D01*
X362288*
X371615Y169346*
X416300Y131500D02*
X431600Y146800D01*
X431700*
X433200Y148300*
Y148400*
X461362Y176562*
Y179660*
X416300Y131500D02*
X406140D01*
X403365Y134275*
X399917*
X399872Y129319D02*
X416471D01*
X463800Y176648*
Y181662*
X389276Y159692D02*
X409676D01*
X415517Y165533*
X415517D02*
X433714D01*
X463024Y164252D02*
X465189D01*
X114400Y183200D02*
Y184700D01*
X131100Y201400*
Y286700*
X133141Y288741*
X140270*
X116000Y176100D02*
Y181200D01*
X134300Y199500*
Y282843*
X135700Y284243*
X145044*
X123000Y166600D02*
X116000Y173600D01*
Y176100*
X202959Y193679D02*
X197427D01*
X169500Y221606*
Y274600*
X201373Y203140D02*
X196545Y203198D01*
X335200Y195300D02*
X340900Y201000D01*
X353300*
X303000Y193600D02*
X310000D01*
X321700Y205300*
X403534Y200752D02*
Y210486D01*
X421200Y228153*
Y265241*
X422477Y266518*
Y270541*
X403059Y184247D02*
X432571Y213759D01*
Y274993*
X445000Y189000D02*
Y292374D01*
X442049Y295326*
Y302500*
X463800Y181662D02*
X461333Y184128D01*
X204500Y211700D02*
X194400Y221800D01*
Y267500*
X205000Y227500D02*
X197994Y234506D01*
Y307018*
X211162Y232420D02*
X224845Y246103D01*
X248791*
X220291Y232222D02*
X231390Y243321D01*
X288700Y236723D02*
Y274051D01*
X295100Y233100D02*
Y268800D01*
X282700Y241000D02*
Y271431D01*
X312577Y207804D02*
X304681Y215700D01*
X301300*
X342500Y207400D02*
Y211200D01*
X337700Y216000*
X389237Y214280D02*
X404711D01*
X418500Y228069*
Y291128*
X410114Y226761D02*
Y230705D01*
X410106Y230713*
Y234657*
X418558Y211920D02*
Y215193D01*
X424951Y221585*
X410130Y208393D02*
X413656Y211920D01*
X418558*
X204214Y247040D02*
X211953D01*
X215113Y250200*
X257189*
X261929Y245460*
X305800Y255200D02*
Y273953D01*
X318741Y259140D02*
Y267881D01*
X318733Y267889*
Y276630*
X337386Y262469D02*
Y270285D01*
X337386*
Y275469*
X210300Y316343D02*
X180693D01*
X180690Y316346*
X151083*
X269287Y316300D02*
X239815D01*
X239772Y316343*
X210300*
X418500Y291128D02*
X414316Y295312D01*
G54D49*
X444000Y324409D03*
X119685D03*
Y131496D03*
X332612Y121370D02*
X324842Y113600D01*
X174282*
X142951Y144931*
X332612Y121370D02*
Y176088D01*
X326300Y182400*
G54D51*
X458676Y137552D02*
X452941D01*
X441340Y149154*
X455968Y130179D02*
Y130208D01*
X465189D02*
Y130236D01*
G54D52*
X292305Y127336D02*
X287269Y122300D01*
X177300*
X123000Y176600*
X375200Y115000D02*
Y124334D01*
X376155Y125289*
Y133772*
X292305Y127336D02*
X304403D01*
X313000Y135933*
Y151900*
Y174545*
X304945Y182600*
X261600*
X313000Y151900D02*
X291694D01*
X291688Y151906*
X270681*
X376155Y133772D02*
Y146571D01*
X389276Y159692*
X417790Y143134D02*
Y150766D01*
X417812Y150788*
Y158420*
X458676Y137552D02*
Y147042D01*
X458665Y147053*
Y156543*
X261600Y182600D02*
Y213000D01*
X269287Y220687*
Y316300*
X424951Y221585D02*
Y263351D01*
X427500Y265900*
Y282000*
Y309900*
X269287Y316300D02*
X328093D01*
X388000*
X408683*
X427500Y309900D02*
X421100Y316300D01*
X408683*
G54D55*
X455968Y130208D02*
X465189D01*
X463024Y164252D02*
X457366Y164280D01*
X475845Y206299D02*
G75*
G03X475845I-3618J0D01*
G01Y237795D02*
G03X475845I-3618J0D01*
G01X476514Y290945D02*
G03X476514I-3717J0D01*
G01Y310630D02*
G03X476514I-3717J0D01*
G01X447418Y351969D02*
G03X447418I-3914J0D01*
G01X388363D02*
G03X388363I-3914J0D01*
G01X329308D02*
G03X329308I-3914J0D01*
G01X270252D02*
G03X270252I-3913J0D01*
G01X211197D02*
G03X211197I-3914J0D01*
G01X152142D02*
G03X152142I-3914J0D01*
G01X125185Y324409D02*
G03X125185I-5500J0D01*
G01Y131496D02*
G03X125185I-5500J0D01*
G01X389653Y115000D02*
G03X389653I-4453J0D01*
G01X483327Y168220D02*
Y341159D01*
G03X482372Y341366I-500J0*
G01X467350Y356387D02*
G03X482372Y341366I4697J-10324D01*
G01X467350Y356387D02*
G03X467143Y357342I-207J455D01*
G01X467143D02*
X118683D01*
X118683D02*
G03X118476Y356387I0J-500D01*
G01X103455Y341366D02*
G03X118476Y356387I10325J4697D01*
G01X103455Y341366D02*
G03X102500Y341159I-455J-207D01*
G01Y284800*
G03X103000Y284300I500J0*
G01X125500*
X128000Y281800D02*
G03X125500Y284300I-2500J0D01*
G01X128000Y281800D02*
Y208100D01*
X125500Y205600D02*
G03X128000Y208100I0J2500D01*
G01X125500Y205600D02*
X103000D01*
G03X102500Y205100I0J-500*
G01Y118683*
G03X103455Y118476I500J0*
G01X118476Y103455D02*
G03X103455Y118476I-4696J10325D01*
G01X118476Y103455D02*
G03X118683Y102500I207J-455D01*
G01X467143*
G03X467350Y103455I0J500*
G01X482372Y118476D02*
G03X467350Y103455I-10325J-4696D01*
G01X482372Y118476D02*
G03X483327Y118683I455J207D01*
G01Y126268*
G03X482827Y126768I-500J-0*
G01X479953*
Y133705D02*
G03Y126768I-0J-3469D01*
G01Y133705D02*
X482827D01*
G03X483327Y134205I-0J500*
G01Y160283*
G03X482827Y160783I-500J0*
G01X479953*
Y167720D02*
G03Y160783I-0J-3468D01*
G01Y167720D02*
X482827D01*
G03X483327Y168220I-0J500*
G01X467354Y126768D02*
G03X469342Y133079I0J3468D01*
G01X467354Y126768D02*
X463024D01*
Y133705D02*
G03Y126768I-0J-3469D01*
G01Y133705D02*
X464157D01*
G03X464595Y134447I0J500*
G01X469269Y133835D02*
G03X464595Y134447I-2112J2031D01*
G01X469269Y133835D02*
G03X469342Y133079I360J-347D01*
G01Y161410D02*
G03X467354Y167720I-1988J2842D01*
G01X469342Y161410D02*
G03X469269Y160653I287J-410D01*
G01X464595Y160041D02*
G03X469269Y160653I2562J-1419D01*
G01X464595Y160041D02*
G03X464157Y160783I-438J242D01*
G01X463024*
Y167720D02*
G03Y160783I-0J-3468D01*
G01Y167720D02*
X467354D01*
X475845Y206299D02*
G03X475845I-3618J0D01*
G01Y237795D02*
G03X475845I-3618J0D01*
G01X476514Y290945D02*
G03X476514I-3717J0D01*
G01Y310630D02*
G03X476514I-3717J0D01*
G01X465700Y181662D02*
Y176648D01*
X465144Y175304D02*
G03X465700Y176648I-1344J1344D01*
G01X465144Y175304D02*
X442275Y152436D01*
G03X442427Y151625I354J-353*
G01X443794Y150279D02*
G03X442427Y151625I-2454J-1125D01*
G01X443794Y150279D02*
G03X443895Y150134I454J209D01*
G01X453830Y140198*
G03X454184Y140052I354J354*
G01X455176*
G03X455676Y140552I0J500*
G01Y146778*
G03X455675Y146818I-500J0*
G01X455665Y147053D02*
G03X455675Y146818I3000J-0D01*
G01X455665Y147053D02*
Y156543D01*
X461665D02*
G03X455665I-3000J-0D01*
G01X461665D02*
Y147316D01*
G03X461667Y147277I500J0*
G01X461676Y147042D02*
G03X461667Y147277I-3000J-0D01*
G01X461676Y147042D02*
Y137552D01*
X457131Y134980D02*
G03X461676Y137552I1545J2572D01*
G01X457131Y134980D02*
G03X456873Y135052I-258J-428D01*
G01X452941*
X451174Y135784D02*
G03X452941Y135052I1767J1768D01*
G01X451174Y135784D02*
X440359Y146598D01*
G03X440214Y146699I-353J-353*
G01X438868Y148066D02*
G03X440214Y146699I2472J1088D01*
G01X438868Y148066D02*
G03X438057Y148218I-457J-202D01*
G01X417815Y127976*
X416471Y127419D02*
G03X417815Y127976I0J1900D01*
G01X416471Y127419D02*
X401989D01*
G03X401658Y127294I-0J-500*
G01X398183Y131425D02*
G03X401658Y127294I1689J-2106D01*
G01X398183Y131425D02*
G03X398190Y132200I-313J390D01*
G01X401703Y136300D02*
G03X398190Y132200I-1786J-2025D01*
G01X401703Y136300D02*
G03X402034Y136175I331J375D01*
G01X403365*
X404709Y135618D02*
G03X403365Y136175I-1344J-1343D01*
G01X404709Y135618D02*
X406781Y133546D01*
G03X407134Y133400I353J354*
G01X415306*
G03X415659Y133546I-0J500*
G01X430256Y148144*
X430620Y148428D02*
G03X430256Y148144I980J-1628D01*
G01X430620Y148428D02*
G03X430715Y148502I-258J428D01*
G01X431498Y149285*
G03X431572Y149380I-354J353*
G01X431856Y149744D02*
G03X431572Y149380I1344J-1344D01*
G01X431856Y149744D02*
X459310Y177197D01*
G03X459332Y177880I-354J353*
G01X459417Y181532D02*
G03X459332Y177880I1945J-1872D01*
G01X459417Y181532D02*
G03X459413Y182231I-360J347D01*
G01X464028Y184297D02*
G03X459413Y182231I-2695J-169D01*
G01X464028Y184297D02*
G03X464174Y183975I499J32D01*
G01X465144Y183005*
X465700Y181662D02*
G03X465144Y183005I-1900J-0D01*
G01X442975Y190786D02*
G03X447025I2025J-1786D01*
G01X442975D02*
G03X443100Y191117I-375J331D01*
G01Y291380*
G03X442954Y291734I-500J0*
G01X440705Y293982*
X440149Y295326D02*
G03X440705Y293982I1900J-0D01*
G01X440149Y295326D02*
Y300384D01*
G03X440024Y300715I-500J-0*
G01X444074D02*
G03X440024I-2025J1785D01*
G01X444074D02*
G03X443949Y300384I375J-331D01*
G01Y296320*
G03X444095Y295967I500J0*
G01X446344Y293718*
X446900Y292374D02*
G03X446344Y293718I-1900J0D01*
G01X446900Y292374D02*
Y191117D01*
G03X447025Y190786I500J-0*
G01X451969Y330193D02*
G03Y338311I-0J4059D01*
G01Y330193D02*
X450787D01*
X447808Y331495D02*
G03X450787Y330193I2979J2757D01*
G01X447808Y331495D02*
G03X447074I-367J-339D01*
G01X445742Y330542D02*
G03X447074Y331495I-1648J3710D01*
G01X445742Y330542D02*
G03X445783Y329612I203J-457D01*
G01X441772Y329438D02*
G03X445783Y329612I2228J-5029D01*
G01X441772Y329438D02*
G03X441717Y330373I-202J457D01*
G01X439934Y331495D02*
G03X441717Y330373I2979J2757D01*
G01X439934Y331495D02*
G03X439200I-367J-339D01*
G01X436220Y330193D02*
G03X439200Y331495I0J4059D01*
G01X436220Y330193D02*
X435039D01*
Y338311D02*
G03Y330193I0J-4059D01*
G01Y338311D02*
X436220D01*
X439200Y337009D02*
G03X436220Y338311I-2980J-2757D01*
G01X439200Y337009D02*
G03X439934I367J339D01*
G01X442913Y338311D02*
G03X439934Y337009I0J-4059D01*
G01X442913Y338311D02*
X444094D01*
X447074Y337009D02*
G03X444094Y338311I-2980J-2757D01*
G01X447074Y337009D02*
G03X447808I367J339D01*
G01X450787Y338311D02*
G03X447808Y337009I0J-4059D01*
G01X450787Y338311D02*
X451969D01*
X447418Y351969D02*
G03X447418I-3914J0D01*
G01X392913Y330193D02*
G03Y338311I0J4059D01*
G01Y330193D02*
X391732D01*
X388753Y331495D02*
G03X391732Y330193I2979J2757D01*
G01X388753Y331495D02*
G03X388019I-367J-339D01*
G01X385039Y330193D02*
G03X388019Y331495I0J4059D01*
G01X385039Y330193D02*
X383858D01*
X380879Y331495D02*
G03X383858Y330193I2979J2757D01*
G01X380879Y331495D02*
G03X380145I-367J-339D01*
G01X377165Y330193D02*
G03X380145Y331495I0J4059D01*
G01X377165Y330193D02*
X375984D01*
Y338311D02*
G03Y330193I0J-4059D01*
G01Y338311D02*
X377165D01*
X380145Y337009D02*
G03X377165Y338311I-2980J-2757D01*
G01X380145Y337009D02*
G03X380879I367J339D01*
G01X383858Y338311D02*
G03X380879Y337009I0J-4059D01*
G01X383858Y338311D02*
X385039D01*
X388019Y337009D02*
G03X385039Y338311I-2980J-2757D01*
G01X388019Y337009D02*
G03X388753I367J339D01*
G01X391732Y338311D02*
G03X388753Y337009I0J-4059D01*
G01X391732Y338311D02*
X392913D01*
X388363Y351969D02*
G03X388363I-3914J0D01*
G01X333858Y330193D02*
G03Y338311I0J4059D01*
G01Y330193D02*
X332677D01*
X329698Y331495D02*
G03X332677Y330193I2979J2757D01*
G01X329698Y331495D02*
G03X328964I-367J-339D01*
G01X325984Y330193D02*
G03X328964Y331495I0J4059D01*
G01X325984Y330193D02*
X324803D01*
X321824Y331495D02*
G03X324803Y330193I2979J2757D01*
G01X321824Y331495D02*
G03X321090I-367J-339D01*
G01X318110Y330193D02*
G03X321090Y331495I0J4059D01*
G01X318110Y330193D02*
X316929D01*
Y338311D02*
G03Y330193I0J-4059D01*
G01Y338311D02*
X318110D01*
X321090Y337009D02*
G03X318110Y338311I-2980J-2757D01*
G01X321090Y337009D02*
G03X321824I367J339D01*
G01X324803Y338311D02*
G03X321824Y337009I0J-4059D01*
G01X324803Y338311D02*
X325984D01*
X328964Y337009D02*
G03X325984Y338311I-2980J-2757D01*
G01X328964Y337009D02*
G03X329698I367J339D01*
G01X332677Y338311D02*
G03X329698Y337009I0J-4059D01*
G01X332677Y338311D02*
X333858D01*
X329308Y351969D02*
G03X329308I-3914J0D01*
G01X274803Y330193D02*
G03Y338311I0J4059D01*
G01Y330193D02*
X273622D01*
X270643Y331495D02*
G03X273622Y330193I2979J2757D01*
G01X270643Y331495D02*
G03X269909I-367J-339D01*
G01X266929Y330193D02*
G03X269909Y331495I0J4059D01*
G01X266929Y330193D02*
X265748D01*
X262769Y331495D02*
G03X265748Y330193I2979J2757D01*
G01X262769Y331495D02*
G03X262035I-367J-339D01*
G01X259055Y330193D02*
G03X262035Y331495I0J4059D01*
G01X259055Y330193D02*
X257874D01*
Y338311D02*
G03Y330193I0J-4059D01*
G01Y338311D02*
X259055D01*
X262035Y337009D02*
G03X259055Y338311I-2980J-2757D01*
G01X262035Y337009D02*
G03X262769I367J339D01*
G01X265748Y338311D02*
G03X262769Y337009I0J-4059D01*
G01X265748Y338311D02*
X266929D01*
X269909Y337009D02*
G03X266929Y338311I-2980J-2757D01*
G01X269909Y337009D02*
G03X270643I367J339D01*
G01X273622Y338311D02*
G03X270643Y337009I0J-4059D01*
G01X273622Y338311D02*
X274803D01*
X270252Y351969D02*
G03X270252I-3913J0D01*
G01X215748Y330193D02*
G03Y338311I0J4059D01*
G01Y330193D02*
X214567D01*
X211587Y331495D02*
G03X214567Y330193I2980J2757D01*
G01X211587Y331495D02*
G03X210853I-367J-339D01*
G01X207874Y330193D02*
G03X210853Y331495I0J4059D01*
G01X207874Y330193D02*
X206693D01*
X203713Y331495D02*
G03X206693Y330193I2980J2757D01*
G01X203713Y331495D02*
G03X202979I-367J-339D01*
G01X200000Y330193D02*
G03X202979Y331495I0J4059D01*
G01X200000Y330193D02*
X198819D01*
Y338311D02*
G03Y330193I-0J-4059D01*
G01Y338311D02*
X200000D01*
X202979Y337009D02*
G03X200000Y338311I-2979J-2757D01*
G01X202979Y337009D02*
G03X203713I367J339D01*
G01X206693Y338311D02*
G03X203713Y337009I-0J-4059D01*
G01X206693Y338311D02*
X207874D01*
X210853Y337009D02*
G03X207874Y338311I-2979J-2757D01*
G01X210853Y337009D02*
G03X211587I367J339D01*
G01X214567Y338311D02*
G03X211587Y337009I-0J-4059D01*
G01X214567Y338311D02*
X215748D01*
X211197Y351969D02*
G03X211197I-3914J0D01*
G01X156693Y330193D02*
G03Y338311I-0J4059D01*
G01Y330193D02*
X155512D01*
X152532Y331495D02*
G03X155512Y330193I2980J2757D01*
G01X152532Y331495D02*
G03X151798I-367J-339D01*
G01X148819Y330193D02*
G03X151798Y331495I-0J4059D01*
G01X148819Y330193D02*
X147638D01*
X144658Y331495D02*
G03X147638Y330193I2980J2757D01*
G01X144658Y331495D02*
G03X143924I-367J-339D01*
G01X140945Y330193D02*
G03X143924Y331495I-0J4059D01*
G01X140945Y330193D02*
X139764D01*
Y338311D02*
G03Y330193I-0J-4059D01*
G01Y338311D02*
X140945D01*
X143924Y337009D02*
G03X140945Y338311I-2979J-2757D01*
G01X143924Y337009D02*
G03X144658I367J339D01*
G01X147638Y338311D02*
G03X144658Y337009I-0J-4059D01*
G01X147638Y338311D02*
X148819D01*
X151798Y337009D02*
G03X148819Y338311I-2979J-2757D01*
G01X151798Y337009D02*
G03X152532I367J339D01*
G01X155512Y338311D02*
G03X152532Y337009I-0J-4059D01*
G01X155512Y338311D02*
X156693D01*
X152142Y351969D02*
G03X152142I-3914J0D01*
G01X125185Y324409D02*
G03X125185I-5500J0D01*
G01X201173Y191654D02*
G03Y195704I1786J2025D01*
G01Y191654D02*
G03X200843Y191779I-330J-375D01*
G01X197427*
X196083Y192336D02*
G03X197427Y191779I1344J1343D01*
G01X196083Y192336D02*
X168156Y220262D01*
X167600Y221606D02*
G03X168156Y220262I1900J-0D01*
G01X167600Y221606D02*
Y272483D01*
G03X167475Y272814I-500J0*
G01X171525D02*
G03X167475I-2025J1786D01*
G01X171525D02*
G03X171400Y272483I375J-331D01*
G01Y222600*
G03X171546Y222246I500J0*
G01X198067Y195726*
G03X198421Y195579I354J353*
G01X200843*
G03X201173Y195704I-0J500*
G01X199563Y201137D02*
G03X199611Y205186I1810J2003D01*
G01X199563Y201137D02*
G03X199234Y201265I-335J-371D01*
G01X199234D02*
X198639Y201273D01*
G03X198307Y201152I-6J-500*
G01X198355Y205201D02*
G03X198307Y201152I-1810J-2003D01*
G01X198355Y205201D02*
G03X198684Y205072I335J371D01*
G01X199279Y205065*
G03X199611Y205186I6J500*
G01X202305Y227331D02*
G03X205169Y230195I2695J169D01*
G01X202305Y227331D02*
G03X202160Y227653I-499J-31D01*
G01X197154Y232659*
G03X196300Y232306I-354J-353*
G01Y222794*
G03X196446Y222441I500J0*
G01X204347Y214540*
G03X204669Y214395I353J354*
G01X201805Y211531D02*
G03X204669Y214395I2695J169D01*
G01X201805Y211531D02*
G03X201660Y211853I-499J-31D01*
G01X193056Y220456*
X192500Y221800D02*
G03X193056Y220456I1900J0D01*
G01X192500Y221800D02*
Y265383D01*
G03X192375Y265714I-500J0*
G01X195407Y270005D02*
G03X192375Y265714I-1007J-2505D01*
G01X195407Y270005D02*
G03X196094Y270469I187J464D01*
G01Y304902*
G03X195969Y305232I-500J-0*
G01X200019D02*
G03X195969I-2025J1786D01*
G01X200019D02*
G03X199894Y304902I375J-330D01*
G01Y235501*
G03X200040Y235147I500J-0*
G01X204847Y230340*
G03X205169Y230195I353J354*
G01X259234Y245290D02*
G03X262098Y248154I2695J170D01*
G01X259234Y245290D02*
G03X259089Y245613I-499J-31D01*
G01X256548Y248154*
G03X256195Y248300I-353J-354*
G01X251504*
G03X251080Y247535I-0J-500*
G01X247005Y244078D02*
G03X251080Y247535I1786J2025D01*
G01X247005Y244078D02*
G03X246674Y244203I-331J-375D01*
G01X234568*
G03X234071Y243644I-0J-500*
G01X231560Y240627D02*
G03X234071Y243644I-170J2694D01*
G01X231560Y240627D02*
G03X231237Y240481I31J-499D01*
G01X223131Y232375*
G03X222985Y232053I354J-354*
G01X220122Y234917D02*
G03X222985Y232053I169J-2695D01*
G01X220122Y234917D02*
G03X220444Y235062I-32J499D01*
G01X228550Y243168*
G03X228696Y243491I-353J354*
G01X228710Y243644D02*
G03X228696Y243491I2680J-323D01*
G01X228710Y243644D02*
G03X228213Y244203I-497J59D01*
G01X225839*
G03X225486Y244057I0J-500*
G01X214002Y232573*
G03X213856Y232251I353J-353*
G01X210993Y235115D02*
G03X213856Y232251I169J-2695D01*
G01X210993Y235115D02*
G03X211315Y235260I-32J499D01*
G01X223501Y247446*
G03X223148Y248300I-353J354*
G01X216107*
G03X215753Y248154I-0J-500*
G01X213296Y245696*
X211953Y245140D02*
G03X213296Y245696I-0J1900D01*
G01X211953Y245140D02*
X206330D01*
G03X206000Y245015I0J-500*
G01Y249065D02*
G03Y245015I-1786J-2025D01*
G01Y249065D02*
G03X206330Y248940I330J375D01*
G01X210959*
G03X211312Y249086I-0J500*
G01X213769Y251544*
X215113Y252100D02*
G03X213769Y251544I-0J-1900D01*
G01X215113Y252100D02*
X257189D01*
X258532Y251544D02*
G03X257189Y252100I-1343J-1344D01*
G01X258532Y251544D02*
X261776Y248300D01*
G03X262098Y248154I353J353*
G01X371784Y166651D02*
G03X368920Y169515I-169J2695D01*
G01X371784Y166651D02*
G03X371462Y166505I31J-499D01*
G01X363632Y158675*
X363415Y158489D02*
G03X363632Y158675I-1127J1530D01*
G01X363415Y158489D02*
G03X363358Y158440I297J-403D01*
G01X355763Y150845*
G03X355618Y150523I354J-354*
G01X352754Y153386D02*
G03X355618Y150523I169J-2694D01*
G01X352754Y153386D02*
G03X353076Y153532I-32J499D01*
G01X360906Y161362*
X361123Y161548D02*
G03X360906Y161362I1127J-1529D01*
G01X361123Y161548D02*
G03X361180Y161597I-297J403D01*
G01X368775Y169192*
G03X368920Y169515I-354J354*
G01X377400Y212400D02*
Y193300D01*
X376900Y192800D02*
G03X377400Y193300I0J500D01*
G01X376900Y192800D02*
X358800D01*
X358300Y193300D02*
G03X358800Y192800I500J0D01*
G01X358300Y193300D02*
Y212400D01*
X358800Y212900D02*
G03X358300Y212400I0J-500D01*
G01X358800Y212900D02*
X376900D01*
X377400Y212400D02*
G03X376900Y212900I-500J0D01*
G01X336112Y176088D02*
Y121370D01*
X335087Y118895D02*
G03X336112Y121370I-2475J2475D01*
G01X335087Y118895D02*
X327317Y111125D01*
X324842Y110100D02*
G03X327317Y111125I0J3500D01*
G01X324842Y110100D02*
X174282D01*
X171807Y111125D02*
G03X174282Y110100I2475J2475D01*
G01X171807Y111125D02*
X140476Y142457D01*
X145426Y147406D02*
G03X140476Y142457I-2475J-2475D01*
G01X145426Y147406D02*
X175585Y117246D01*
X175586D02*
G03X175939Y117100I353J354D01*
G01X323185*
G03X323539Y117246I0J500*
G01X328965Y122673*
G03X329112Y123026I-353J353*
G01Y174431*
G03X328965Y174785I-500J0*
G01X323825Y179925*
X328775Y184875D02*
G03X323825Y179925I-2475J-2475D01*
G01X328775Y184875D02*
X335087Y178563D01*
X336112Y176088D02*
G03X335087Y178563I-3500J0D01*
G01X351514Y198975D02*
G03Y203025I1786J2025D01*
G01Y198975D02*
G03X351183Y199100I-331J-375D01*
G01X341894*
G03X341541Y198954I0J-500*
G01X338040Y195453*
G03X337895Y195131I354J-353*
G01X335031Y197995D02*
G03X337895Y195131I169J-2695D01*
G01X335031Y197995D02*
G03X335353Y198140I-31J499D01*
G01X339556Y202344*
X340900Y202900D02*
G03X339556Y202344I0J-1900D01*
G01X340900Y202900D02*
X351183D01*
G03X351514Y203025I0J500*
G01X340475Y209186D02*
G03X344525I2025J-1786D01*
G01X340475D02*
G03X340600Y209517I-375J331D01*
G01Y210206*
G03X340454Y210559I-500J-0*
G01X337853Y213160*
G03X337531Y213305I-353J-354*
G01X340395Y216169D02*
G03X337531Y213305I-2695J-169D01*
G01X340395Y216169D02*
G03X340540Y215847I499J31D01*
G01X343844Y212544*
X344400Y211200D02*
G03X343844Y212544I-1900J0D01*
G01X344400Y211200D02*
Y209517D01*
G03X344525Y209186I500J-0*
G01X335361Y264254D02*
G03X339411I2025J-1785D01*
G01X335361D02*
G03X335486Y264585I-375J331D01*
G01Y270269*
Y270272*
Y270285D02*
G03Y270272I1900J-0D01*
G01Y270285D02*
Y273353D01*
G03X335361Y273683I-500J-0*
G01X339411D02*
G03X335361I-2025J1786D01*
G01X339411D02*
G03X339286Y273353I375J-330D01*
G01Y270300*
Y270297*
Y270285D02*
G03Y270297I-1900J-0D01*
G01Y270285D02*
Y264585D01*
G03X339411Y264254I500J0*
G01X125185Y131496D02*
G03X125185I-5500J0D01*
G01X122987Y151100D02*
G03X123013I13J-4500D01*
G01X122987D02*
G03X123000I-1J500D01*
X123013I14J500*
G01X321869Y202605D02*
G03X319005Y205469I-169J2695D01*
G01X321869Y202605D02*
G03X321547Y202460I31J-499D01*
G01X311344Y192256*
X310000Y191700D02*
G03X311344Y192256I0J1900D01*
G01X310000Y191700D02*
X305117D01*
G03X304786Y191575I-0J-500*
G01Y195625D02*
G03Y191575I-1786J-2025D01*
G01Y195625D02*
G03X305117Y195500I331J375D01*
G01X309006*
G03X309359Y195646I-0J500*
G01X318860Y205147*
G03X319005Y205469I-354J353*
G01X316716Y260926D02*
G03X320766I2025J-1786D01*
G01X316716D02*
G03X316841Y261257I-375J331D01*
G01Y267697*
G03X316839Y267737I-500J-0*
G01X316833Y267889D02*
G03X316839Y267737I1900J-0D01*
G01X316833Y267889D02*
Y274513D01*
G03X316708Y274844I-500J0*
G01X320758D02*
G03X316708I-2025J1786D01*
G01X320758D02*
G03X320633Y274513I375J-331D01*
G01Y268073*
G03X320635Y268033I500J0*
G01X320641Y267881D02*
G03X320635Y268033I-1900J0D01*
G01X320641Y267881D02*
Y261257D01*
G03X320766Y260926I500J-0*
G01X309883Y207634D02*
G03X312746Y210498I2694J170D01*
G01X309883Y207634D02*
G03X309737Y207957I-499J-31D01*
G01X304040Y213654*
G03X303687Y213800I-353J-354*
G01X303417*
G03X303086Y213675I-0J-500*
G01X299528Y213663D02*
G03X303086Y213675I1772J2037D01*
G01X299528Y213663D02*
G03X298700Y213285I-328J-378D01*
G01Y193300*
X298200Y192800D02*
G03X298700Y193300I0J500D01*
G01X298200Y192800D02*
X279100D01*
X278600Y193300D02*
G03X279100Y192800I500J0D01*
G01X278600Y193300D02*
Y214000D01*
X279100Y214500D02*
G03X278600Y214000I0J-500D01*
G01X279100Y214500D02*
X298177D01*
G03X298665Y215109I0J500*
G01X303086Y217725D02*
G03X298665Y215109I-1786J-2025D01*
G01X303086Y217725D02*
G03X303417Y217600I331J375D01*
G01X304681*
X306024Y217044D02*
G03X304681Y217600I-1343J-1344D01*
G01X306024Y217044D02*
X312424Y210644D01*
G03X312746Y210498I354J353*
G01X307825Y272167D02*
G03X303775I-2025J1786D01*
G01X307825D02*
G03X307700Y271836I375J-331D01*
G01Y257317*
G03X307825Y256986I500J-0*
G01X303775D02*
G03X307825I2025J-1786D01*
G01X303775D02*
G03X303900Y257317I-375J331D01*
G01Y271836*
G03X303775Y272167I-500J0*
G01X297125Y267014D02*
G03X293075I-2025J1786D01*
G01X297125D02*
G03X297000Y266683I375J-331D01*
G01Y235217*
G03X297125Y234886I500J-0*
G01X293075D02*
G03X297125I2025J-1786D01*
G01X293075D02*
G03X293200Y235217I-375J331D01*
G01Y266683*
G03X293075Y267014I-500J0*
G01X290725Y272266D02*
G03X286675I-2025J1785D01*
G01X290725D02*
G03X290600Y271935I375J-331D01*
G01Y238840*
G03X290725Y238509I500J-0*
G01X286675D02*
G03X290725I2025J-1786D01*
G01X286675D02*
G03X286800Y238840I-375J331D01*
G01Y271935*
G03X286675Y272266I-500J-0*
G01X284725Y269645D02*
G03X280675I-2025J1786D01*
G01X284725D02*
G03X284600Y269314I375J-331D01*
G01Y243117*
G03X284725Y242786I500J-0*
G01X280675D02*
G03X284725I2025J-1786D01*
G01X280675D02*
G03X280800Y243117I-375J331D01*
G01Y269314*
G03X280675Y269645I-500J0*
G01X420812Y158420D02*
Y150788D01*
X420793Y150450D02*
G03X420812Y150788I-2981J338D01*
G01X420793Y150450D02*
G03X420790Y150394I497J-56D01*
G01Y143134*
X414790D02*
G03X420790I3000J-0D01*
G01X414790D02*
Y150766D01*
X414809Y151104D02*
G03X414790Y150766I2981J-338D01*
G01X414809Y151104D02*
G03X414812Y151160I-497J56D01*
G01Y158420*
X420812D02*
G03X414812I-3000J0D01*
G01X389653Y115000D02*
G03X389653I-4453J0D01*
G01X431928Y163508D02*
G03Y167558I1786J2025D01*
G01Y163508D02*
G03X431597Y163633I-331J-375D01*
G01X416511*
G03X416157Y163486I-0J-500*
G01X411019Y158349*
X409676Y157792D02*
G03X411019Y158349I-0J1900D01*
G01X409676Y157792D02*
X391824D01*
G03X391460Y157635I-0J-500*
G01X391397Y157571D02*
G03X391460Y157635I-2121J2121D01*
G01X391397Y157571D02*
X379301Y145475D01*
G03X379155Y145121I354J-354*
G01Y133772*
Y125289*
X378336Y123229D02*
G03X379155Y125289I-2181J2060D01*
G01X378336Y123229D02*
G03X378200Y122886I364J-343D01*
G01Y118504*
G03X378347Y118150I500J0*
G01X372053D02*
G03X378347I3147J-3150D01*
G01X372053D02*
G03X372200Y118504I-353J354D01*
G01Y124334*
X373019Y126393D02*
G03X372200Y124334I2181J-2059D01*
G01X373019Y126393D02*
G03X373155Y126736I-364J343D01*
G01Y133772*
Y146571*
X374034Y148692D02*
G03X373155Y146571I2121J-2121D01*
G01X374034Y148692D02*
X387155Y161813D01*
X391460Y161749D02*
G03X387155Y161813I-2184J-2057D01*
G01X391460Y161749D02*
G03X391824Y161592I364J343D01*
G01X408682*
G03X409035Y161739I-0J500*
G01X414173Y166876*
X415517Y167433D02*
G03X414173Y166876I-0J-1900D01*
G01X415517Y167433D02*
X431597D01*
G03X431928Y167558I0J500*
G01X434596Y273207D02*
G03X431245Y277345I-2025J1786D01*
G01X434596Y273207D02*
G03X434471Y272876I375J-331D01*
G01Y213759*
X433914Y212416D02*
G03X434471Y213759I-1343J1343D01*
G01X433914Y212416D02*
X405899Y184400D01*
G03X405753Y184078I353J-353*
G01X402890Y186942D02*
G03X405753Y184078I169J-2695D01*
G01X402890Y186942D02*
G03X403212Y187088I-32J499D01*
G01X430524Y214400*
G03X430671Y214753I-353J353*
G01Y263638*
G03X429789Y263961I-500J-0*
G01X429621Y263779D02*
G03X429789Y263961I-2121J2121D01*
G01X429621Y263779D02*
X428097Y262255D01*
G03X427951Y261901I354J-354*
G01Y221585*
X424862Y218587D02*
G03X427951Y221585I89J2998D01*
G01X424862Y218587D02*
G03X424493Y218440I-15J-500D01*
G01X420605Y214552*
G03X420458Y214198I353J-354*
G01Y214036*
G03X420583Y213706I500J0*
G01X416772Y209895D02*
G03X420583Y213706I1786J2025D01*
G01X416772Y209895D02*
G03X416442Y210020I-330J-375D01*
G01X414650*
G03X414297Y209873I0J-500*
G01X412970Y208547*
G03X412824Y208224I353J-354*
G01X409961Y211088D02*
G03X412824Y208224I169J-2695D01*
G01X409961Y211088D02*
G03X410283Y211234I-32J499D01*
G01X412313Y213263*
X413656Y213820D02*
G03X412313Y213263I0J-1900D01*
G01X413656Y213820D02*
X416158D01*
G03X416658Y214320I0J500*
G01Y215193*
X417215Y216536D02*
G03X416658Y215193I1343J-1343D01*
G01X417215Y216536D02*
X421806Y221127D01*
G03X421952Y221496I-354J354*
G01X421951Y221585D02*
G03X421952Y221496I3000J0D01*
G01X421951Y221585D02*
Y225010D01*
G03X421097Y225363I-500J-0*
G01X405580Y209846*
G03X405434Y209492I354J-354*
G01Y202869*
G03X405559Y202538I500J-0*
G01X401509D02*
G03X405559I2025J-1786D01*
G01X401509D02*
G03X401634Y202869I-375J331D01*
G01Y210486*
X401987Y211589D02*
G03X401634Y210486I1547J-1103D01*
G01X401987Y211589D02*
G03X401580Y212380I-407J291D01*
G01X391354*
G03X391023Y212255I-0J-500*
G01Y216305D02*
G03Y212255I-1786J-2025D01*
G01Y216305D02*
G03X391354Y216180I331J375D01*
G01X403717*
G03X404070Y216326I-0J500*
G01X410996Y223251*
G03X410560Y224098I-354J354*
G01X408089Y228547D02*
G03X410560Y224098I2025J-1786D01*
G01X408089Y228547D02*
G03X408214Y228878I-375J331D01*
G01Y230517*
G03X408212Y230558I-500J-0*
G01X408206Y230713D02*
G03X408212Y230558I1900J0D01*
G01X408206Y230713D02*
Y232541D01*
G03X408081Y232871I-500J-0*
G01X412131D02*
G03X408081I-2025J1786D01*
G01X412131D02*
G03X412006Y232541I375J-330D01*
G01Y230902*
G03X412008Y230861I500J-0*
G01X412014Y230705D02*
G03X412008Y230861I-1900J0D01*
G01X412014Y230705D02*
Y228878D01*
G03X412139Y228547I500J-0*
G01X412777Y226316D02*
G03X412139Y228547I-2663J445D01*
G01X412777Y226316D02*
G03X413624Y225880I493J-83D01*
G01X416454Y228709*
G03X416600Y229063I-354J354*
G01Y290134*
G03X416454Y290488I-500J0*
G01X414469Y292472*
G03X414147Y292617I-353J-354*
G01X417011Y295481D02*
G03X414147Y292617I-2695J-169D01*
G01X417011Y295481D02*
G03X417157Y295159I499J31D01*
G01X419844Y292472*
X420400Y291128D02*
G03X419844Y292472I-1900J0D01*
G01X420400Y291128D02*
Y273326D01*
G03X421146Y272891I500J-0*
G01X423762Y272916D02*
G03X421146Y272891I-1285J-2375D01*
G01X423762Y272916D02*
G03X424500Y273355I238J439D01*
G01Y282000*
Y308450*
G03X424354Y308804I-500J0*
G01X420004Y313154*
G03X419650Y313300I-354J-354*
G01X408683*
X388000*
X328093*
X272787*
G03X272287Y312800I0J-500*
G01Y220687*
X271409Y218566D02*
G03X272287Y220687I-2122J2121D01*
G01X271409Y218566D02*
X264746Y211904D01*
G03X264600Y211550I354J-354*
G01Y186100*
G03X265100Y185600I500J0*
G01X304945*
X307066Y184721D02*
G03X304945Y185600I-2121J-2121D01*
G01X307066Y184721D02*
X315121Y176666D01*
X316000Y174545D02*
G03X315121Y176666I-3000J0D01*
G01X316000Y174545D02*
Y151900D01*
Y135933*
X315121Y133812D02*
G03X316000Y135933I-2121J2121D01*
G01X315121Y133812D02*
X306524Y125214D01*
X304403Y124336D02*
G03X306524Y125215I-0J3000D01*
G01X304403Y124336D02*
X293754D01*
G03X293401Y124189I0J-500*
G01X289390Y120179*
X287269Y119300D02*
G03X289390Y120179I-0J3000D01*
G01X287269Y119300D02*
X177300D01*
X175179Y120179D02*
G03X177300Y119300I2121J2121D01*
G01X175179Y120179D02*
X128353Y167004D01*
G03X127500Y166645I-353J-354*
G01X123013Y162100D02*
G03X127500Y166645I-13J4500D01*
G01X123013Y162100D02*
G03X123000I1J-500D01*
X122987I-14J-500*
G01X121162Y162492D02*
G03X122987Y162100I1838J4108D01*
G01X121162Y162492D02*
G03X120605Y161682I-204J-456D01*
G01X121242Y161045*
G03X121736Y160919I353J354*
G01X122987Y161100D02*
G03X121736Y160919I13J-4500D01*
G01X122987Y161100D02*
G03X123000I-1J500D01*
X123013I14J500*
G01Y152100D02*
G03Y161100I-13J4500D01*
G01Y152100D02*
G03X123000I1J-500D01*
X122987I-14J-500*
G01X118681Y157864D02*
G03X122987Y152100I4319J-1264D01*
G01X118681Y157864D02*
G03X118555Y158358I-480J141D01*
G01X113056Y163856*
X112500Y165200D02*
G03X113056Y163856I1900J0D01*
G01X112500Y165200D02*
Y183200D01*
Y184700*
X113056Y186044D02*
G03X112500Y184700I1344J-1344D01*
G01X113056Y186044D02*
X129054Y202041D01*
G03X129200Y202394I-354J353*
G01Y286700*
X129756Y288044D02*
G03X129200Y286700I1344J-1344D01*
G01X129756Y288044D02*
X131798Y290085D01*
X133141Y290641D02*
G03X131798Y290085I0J-1900D01*
G01X133141Y290641D02*
X138154D01*
G03X138485Y290766I-0J500*
G01X142309Y286971D02*
G03X138485Y290766I-2039J1770D01*
G01X142309Y286971D02*
G03X142686Y286143I377J-328D01*
G01X142927*
G03X143258Y286268I0J500*
G01Y282218D02*
G03Y286268I1786J2025D01*
G01Y282218D02*
G03X142927Y282343I-331J-375D01*
G01X136700*
G03X136200Y281843I0J-500*
G01Y275431*
G03X136933Y274988I500J-0*
G01X140216Y274388D02*
G03X136933Y274988I-2023J-1788D01*
G01X140216Y274388D02*
G03X140961Y274383I375J331D01*
G01X144988Y270785D02*
G03X140961Y274383I-2025J1786D01*
G01X144988Y270785D02*
G03X144863Y270455I375J-330D01*
G01Y171144*
G03X145009Y170791I500J0*
G01X179092Y136708*
G03X179927Y137196I353J354*
G01X184250Y142900D02*
G03X179927Y137196I13J-4500D01*
G01X184250Y142900D02*
G03Y143900I-1J500D01*
G01X184263Y152900D02*
G03X184250Y143900I-0J-4500D01*
G01X184263Y152900D02*
X186137D01*
X186150Y143900D02*
G03X186137Y152900I-13J4500D01*
G01X186150Y143900D02*
G03Y142900I1J-500D01*
G01X188953Y134890D02*
G03X186150Y142900I-2816J3510D01*
G01X188953Y134890D02*
G03X189266Y134000I313J-390D01*
G01X223526*
G03X223903Y134829I0J500*
G01X227721Y138631D02*
G03X223903Y134829I-1786J-2025D01*
G01X227721Y138631D02*
G03X228052Y138506I331J375D01*
G01X232300*
G03X232631Y138631I0J500*
G01X236450Y134829D02*
G03X232631Y138631I-2033J1777D01*
G01X236450Y134829D02*
G03X236826Y134000I376J-329D01*
G01X281906*
G03X282259Y134146I-0J500*
G01X293556Y145444*
X294900Y146000D02*
G03X293556Y145444I0J-1900D01*
G01X294900Y146000D02*
X298583D01*
G03X298914Y146125I0J500*
G01X303400Y144119D02*
G03X298914Y146125I-2700J-19D01*
G01X303400Y144119D02*
G03X304046Y143644I500J3D01*
G01X303046Y139036D02*
G03X304046Y143644I1786J2025D01*
G01X303046Y139036D02*
G03X302715Y139161I-331J-375D01*
G01X297850*
G03X297496Y139014I-0J-500*
G01X286238Y127756*
X284895Y127200D02*
G03X286238Y127756I-0J1900D01*
G01X284895Y127200D02*
X179668D01*
X178324Y127756D02*
G03X179668Y127200I1344J1344D01*
G01X178324Y127756D02*
X136849Y169232D01*
X136293Y170575D02*
G03X136849Y169232I1900J0D01*
G01X136293Y170575D02*
Y197598D01*
G03X135439Y197952I-500J0*
G01X119429Y181942*
G03X119837Y181091I353J-354*
G01X120000Y181100D02*
G03X119837Y181091I0J-1500D01*
G01X120000Y181100D02*
X126000D01*
X127500Y179600D02*
G03X126000Y181100I-1500J0D01*
G01X127500Y179600D02*
Y176550D01*
G03X127646Y176196I500J-0*
G01X178396Y125446*
G03X178750Y125300I354J354*
G01X285819*
G03X286173Y125446I0J500*
G01X290183Y129457*
X292305Y130336D02*
G03X290183Y129457I-0J-3000D01*
G01X292305Y130336D02*
X302953D01*
G03X303307Y130482I0J500*
G01X309854Y137029*
G03X310000Y137383I-354J354*
G01Y148400*
G03X309500Y148900I-500J-0*
G01X291694*
X291517Y148905D02*
G03X291694Y148900I177J2995D01*
G01X291517Y148905D02*
G03X291487Y148906I-30J-499D01*
G01X270681*
Y154906D02*
G03Y148906I0J-3000D01*
G01Y154906D02*
X291688D01*
X291865Y154901D02*
G03X291688Y154906I-177J-2995D01*
G01X291865Y154901D02*
G03X291894Y154900I29J499D01*
G01X309500*
G03X310000Y155400I-0J500*
G01Y173095*
G03X309854Y173449I-500J0*
G01X303849Y179454*
G03X303495Y179600I-354J-354*
G01X261600*
X258600Y182600D02*
G03X261600Y179600I3000J0D01*
G01X258600Y182600D02*
Y213000D01*
X259479Y215121D02*
G03X258600Y213000I2121J-2121D01*
G01X259479Y215121D02*
X266141Y221783D01*
G03X266287Y222137I-354J354*
G01Y313900*
G03X265787Y314400I-500J-0*
G01X239815*
X239457Y314434D02*
G03X239815Y314400I358J1866D01*
G01X239457Y314434D02*
G03X239363Y314443I-94J-491D01*
G01X212417*
G03X212086Y314318I-0J-500*
G01X208514D02*
G03X212086I1786J2025D01*
G01X208514D02*
G03X208184Y314443I-330J-375D01*
G01X180693*
X180603Y314445D02*
G03X180693Y314443I90J1898D01*
G01X180603Y314445D02*
G03X180579Y314446I-24J-499D01*
G01X153200*
G03X152869Y314321I-0J-500*
G01Y318371D02*
G03Y314321I-1786J-2025D01*
G01Y318371D02*
G03X153200Y318246I331J375D01*
G01X180690*
X180780Y318244D02*
G03X180690Y318246I-90J-1898D01*
G01X180780Y318244D02*
G03X180804Y318243I24J499D01*
G01X208184*
G03X208514Y318368I-0J500*
G01X212086D02*
G03X208514I-1786J-2025D01*
G01X212086D02*
G03X212417Y318243I331J375D01*
G01X239772*
X240130Y318209D02*
G03X239772Y318243I-358J-1866D01*
G01X240130Y318209D02*
G03X240225Y318200I95J491D01*
G01X266740*
G03X267104Y318357I-0J500*
G01X269287Y319300D02*
G03X267104Y318357I0J-3000D01*
G01X269287Y319300D02*
X328093D01*
X388000*
X408683*
X421100*
X423221Y318421D02*
G03X421100Y319300I-2121J-2121D01*
G01X423221Y318421D02*
X429621Y312021D01*
X430500Y309900D02*
G03X429621Y312021I-3000J0D01*
G01X430500Y309900D02*
Y282000D01*
Y277781*
G03X431245Y277345I500J0*
G01X481987Y340599D02*
X483327D01*
X481436Y339699D02*
X483327D01*
X480758Y338799D02*
X483327D01*
X479921Y337899D02*
X483327D01*
X478866Y336999D02*
X483327D01*
X477466Y336099D02*
X483327D01*
X475306Y335199D02*
X483327D01*
X456027Y334299D02*
X483327D01*
X455937Y333399D02*
X483327D01*
X455629Y332499D02*
X483327D01*
X455040Y331599D02*
X483327D01*
X453931Y330699D02*
X483327D01*
X445536Y329799D02*
X483327D01*
X447178Y328899D02*
X483327D01*
X448167Y327999D02*
X483327D01*
X448798Y327099D02*
X483327D01*
X449201Y326199D02*
X483327D01*
X449428Y325299D02*
X483327D01*
X449500Y324399D02*
X483327D01*
X449424Y323499D02*
X483327D01*
X449193Y322599D02*
X483327D01*
X448786Y321699D02*
X483327D01*
X448149Y320799D02*
X483327D01*
X447147Y319899D02*
X483327D01*
X444987Y318999D02*
X483327D01*
X423544Y318099D02*
X483327D01*
X424444Y317199D02*
X483327D01*
X425344Y316299D02*
X483327D01*
X426244Y315399D02*
X483327D01*
X427144Y314499D02*
X483327D01*
X475033Y313599D02*
X483327D01*
X475885Y312699D02*
X483327D01*
X476325Y311799D02*
X483327D01*
X476504Y310899D02*
X483327D01*
X476460Y309999D02*
X483327D01*
X476184Y309099D02*
X483327D01*
X475608Y308199D02*
X483327D01*
X474446Y307299D02*
X483327D01*
X430500Y306399D02*
X483327D01*
X430500Y305499D02*
X483327D01*
X443748Y304599D02*
X483327D01*
X444468Y303699D02*
X483327D01*
X444732Y302799D02*
X483327D01*
X444681Y301899D02*
X483327D01*
X444292Y300999D02*
X483327D01*
X443949Y300099D02*
X483327D01*
X443949Y299199D02*
X483327D01*
X443949Y298299D02*
X483327D01*
X443949Y297399D02*
X483327D01*
X443949Y296499D02*
X483327D01*
X444463Y295599D02*
X483327D01*
X445363Y294699D02*
X483327D01*
X475178Y293799D02*
X483327D01*
X475959Y292899D02*
X483327D01*
X476361Y291999D02*
X483327D01*
X476511Y291099D02*
X483327D01*
X476438Y290199D02*
X483327D01*
X476129Y289299D02*
X483327D01*
X475505Y288399D02*
X483327D01*
X474189Y287499D02*
X483327D01*
X446900Y286599D02*
X483327D01*
X446900Y285699D02*
X483327D01*
X446900Y284799D02*
X483327D01*
X446900Y283899D02*
X483327D01*
X446900Y282999D02*
X483327D01*
X446900Y282099D02*
X483327D01*
X446900Y281199D02*
X483327D01*
X446900Y280299D02*
X483327D01*
X446900Y279399D02*
X483327D01*
X446900Y278499D02*
X483327D01*
X446900Y277599D02*
X483327D01*
X446900Y276699D02*
X483327D01*
X446900Y275799D02*
X483327D01*
X446900Y274899D02*
X483327D01*
X446900Y273999D02*
X483327D01*
X446900Y273099D02*
X483327D01*
X446900Y272199D02*
X483327D01*
X446900Y271299D02*
X483327D01*
X446900Y270399D02*
X483327D01*
X446900Y269499D02*
X483327D01*
X446900Y268599D02*
X483327D01*
X446900Y267699D02*
X483327D01*
X446900Y266799D02*
X483327D01*
X446900Y265899D02*
X483327D01*
X446900Y264999D02*
X483327D01*
X446900Y264099D02*
X483327D01*
X446900Y263199D02*
X483327D01*
X446900Y262299D02*
X483327D01*
X446900Y261399D02*
X483327D01*
X446900Y260499D02*
X483327D01*
X446900Y259599D02*
X483327D01*
X446900Y258699D02*
X483327D01*
X446900Y257799D02*
X483327D01*
X446900Y256899D02*
X483327D01*
X446900Y255999D02*
X483327D01*
X446900Y255099D02*
X483327D01*
X446900Y254199D02*
X483327D01*
X446900Y253299D02*
X483327D01*
X446900Y252399D02*
X483327D01*
X446900Y251499D02*
X483327D01*
X446900Y250599D02*
X483327D01*
X446900Y249699D02*
X483327D01*
X446900Y248799D02*
X483327D01*
X446900Y247899D02*
X483327D01*
X446900Y246999D02*
X483327D01*
X446900Y246099D02*
X483327D01*
X446900Y245199D02*
X483327D01*
X446900Y244299D02*
X483327D01*
X446900Y243399D02*
X483327D01*
X446900Y242499D02*
X483327D01*
X446900Y241599D02*
X483327D01*
X474386Y240699D02*
X483327D01*
X475240Y239799D02*
X483327D01*
X475673Y238899D02*
X483327D01*
X475840Y237999D02*
X483327D01*
X475778Y237099D02*
X483327D01*
X475474Y236199D02*
X483327D01*
X474846Y235299D02*
X483327D01*
X473475Y234399D02*
X483327D01*
X446900Y233499D02*
X483327D01*
X446900Y232599D02*
X483327D01*
X446900Y231699D02*
X483327D01*
X446900Y230799D02*
X483327D01*
X446900Y229899D02*
X483327D01*
X446900Y228999D02*
X483327D01*
X446900Y228099D02*
X483327D01*
X446900Y227199D02*
X483327D01*
X446900Y226299D02*
X483327D01*
X446900Y225399D02*
X483327D01*
X446900Y224499D02*
X483327D01*
X446900Y223599D02*
X483327D01*
X446900Y222699D02*
X483327D01*
X446900Y221799D02*
X483327D01*
X446900Y220899D02*
X483327D01*
X446900Y219999D02*
X483327D01*
X446900Y219099D02*
X483327D01*
X446900Y218199D02*
X483327D01*
X446900Y217299D02*
X483327D01*
X446900Y216399D02*
X483327D01*
X446900Y215499D02*
X483327D01*
X446900Y214599D02*
X483327D01*
X446900Y213699D02*
X483327D01*
X446900Y212799D02*
X483327D01*
X446900Y211899D02*
X483327D01*
X446900Y210999D02*
X483327D01*
X446900Y210099D02*
X483327D01*
X474392Y209199D02*
X483327D01*
X475243Y208299D02*
X483327D01*
X475674Y207399D02*
X483327D01*
X475840Y206499D02*
X483327D01*
X475777Y205599D02*
X483327D01*
X475472Y204699D02*
X483327D01*
X474842Y203799D02*
X483327D01*
X473464Y202899D02*
X483327D01*
X446900Y201999D02*
X483327D01*
X446900Y201099D02*
X483327D01*
X446900Y200199D02*
X483327D01*
X446900Y199299D02*
X483327D01*
X446900Y198399D02*
X483327D01*
X446900Y197499D02*
X483327D01*
X446900Y196599D02*
X483327D01*
X446900Y195699D02*
X483327D01*
X446900Y194799D02*
X483327D01*
X446900Y193899D02*
X483327D01*
X446900Y192999D02*
X483327D01*
X446900Y192099D02*
X483327D01*
X446900Y191199D02*
X483327D01*
X447367Y190299D02*
X483327D01*
X447670Y189399D02*
X483327D01*
X447653Y188499D02*
X483327D01*
X447308Y187599D02*
X483327D01*
X462160Y186699D02*
X483327D01*
X463455Y185799D02*
X483327D01*
X463921Y184899D02*
X483327D01*
X464151Y183999D02*
X483327D01*
X465050Y183099D02*
X483327D01*
X465623Y182199D02*
X483327D01*
X465700Y181299D02*
X483327D01*
X465700Y180399D02*
X483327D01*
X465700Y179499D02*
X483327D01*
X465700Y178599D02*
X483327D01*
X465700Y177699D02*
X483327D01*
X465700Y176799D02*
X483327D01*
X465546Y175899D02*
X483327D01*
X464838Y174999D02*
X483327D01*
X463938Y174099D02*
X483327D01*
X463038Y173199D02*
X483327D01*
X462138Y172299D02*
X483327D01*
X461238Y171399D02*
X483327D01*
X460338Y170499D02*
X483327D01*
X459438Y169599D02*
X483327D01*
X458538Y168699D02*
X483327D01*
X469882Y159699D02*
X483327D01*
X470082Y158799D02*
X483327D01*
X469996Y157899D02*
X483327D01*
X469596Y156999D02*
X483327D01*
X468646Y156099D02*
X483327D01*
X461665Y155199D02*
X483327D01*
X461665Y154299D02*
X483327D01*
X461665Y153399D02*
X483327D01*
X461665Y152499D02*
X483327D01*
X461665Y151599D02*
X483327D01*
X461665Y150699D02*
X483327D01*
X461665Y149799D02*
X483327D01*
X461665Y148899D02*
X483327D01*
X461665Y147999D02*
X483327D01*
X461676Y147099D02*
X483327D01*
X461676Y146199D02*
X483327D01*
X461676Y145299D02*
X483327D01*
X461676Y144399D02*
X483327D01*
X461676Y143499D02*
X483327D01*
X461676Y142599D02*
X483327D01*
X461676Y141699D02*
X483327D01*
X461676Y140799D02*
X483327D01*
X461676Y139899D02*
X483327D01*
X461676Y138999D02*
X483327D01*
X469054Y138099D02*
X483327D01*
X469766Y137199D02*
X483327D01*
X470055Y136299D02*
X483327D01*
X470049Y135399D02*
X483327D01*
X469748Y134499D02*
X483327D01*
X379155Y125499D02*
X483327D01*
X475453Y124599D02*
X483327D01*
X477548Y123699D02*
X483327D01*
X478925Y122799D02*
X483327D01*
X479968Y121899D02*
X483327D01*
X480796Y120999D02*
X483327D01*
X481466Y120099D02*
X483327D01*
X482011Y119199D02*
X483327D01*
X379155Y126399D02*
X483309D01*
X469320Y160599D02*
X483215D01*
X482460Y341499D02*
X483194D01*
X482507Y118299D02*
X483146D01*
X457638Y167799D02*
X483095D01*
X469141Y133599D02*
X479102D01*
X469199Y127299D02*
X478108D01*
X469464Y161499D02*
X477843D01*
X469596Y166899D02*
X477711D01*
X469797Y132699D02*
X477510D01*
X470161Y128199D02*
X477146D01*
X470286Y162399D02*
X477021D01*
X470351Y165999D02*
X476956D01*
X470451Y131799D02*
X476856D01*
X470631Y129099D02*
X476676D01*
X470689Y163299D02*
X476618D01*
X470718Y165099D02*
X476589D01*
X470759Y130899D02*
X476548D01*
X470815Y129999D02*
X476492D01*
X470822Y164199D02*
X476485D01*
X446900Y287499D02*
X471404D01*
X430500Y307299D02*
X471148D01*
X446900Y202899D02*
X470990D01*
X446900Y234399D02*
X470979D01*
X428044Y313599D02*
X470560D01*
X446263Y293799D02*
X470415D01*
X446900Y288399D02*
X470089D01*
X446900Y240699D02*
X470067D01*
X446900Y209199D02*
X470062D01*
X430500Y308199D02*
X469985D01*
X428944Y312699D02*
X469709D01*
X446826Y292899D02*
X469635D01*
X446900Y203799D02*
X469611D01*
X446900Y235299D02*
X469607D01*
X446900Y289299D02*
X469464D01*
X430500Y309099D02*
X469410D01*
X429823Y311799D02*
X469268D01*
X446900Y291999D02*
X469232D01*
X446900Y239799D02*
X469213D01*
X446900Y208299D02*
X469211D01*
X446900Y290199D02*
X469156D01*
X430498Y309999D02*
X469134D01*
X430329Y310899D02*
X469090D01*
X446900Y291099D02*
X469083D01*
X446900Y204699D02*
X468981D01*
X446900Y236199D02*
X468980D01*
X455916Y335199D02*
X468788D01*
X446900Y238899D02*
X468781D01*
X446900Y207399D02*
X468779D01*
X446900Y205599D02*
X468677D01*
X446900Y237099D02*
X468676D01*
X379075Y124599D02*
X468642D01*
X446900Y237999D02*
X468614D01*
X446900Y206499D02*
X468614D01*
X118183Y102999D02*
X467643D01*
X118185Y356799D02*
X467641D01*
X455583Y336099D02*
X466628D01*
X378699Y123699D02*
X466546D01*
X119349Y103899D02*
X466477D01*
X119429Y355899D02*
X466398D01*
X461665Y156099D02*
X465669D01*
X461676Y138099D02*
X465261D01*
X454957Y336999D02*
X465229D01*
X378200Y122799D02*
X465169D01*
X120708Y104799D02*
X465119D01*
X445981Y354999D02*
X465061D01*
X461631Y156999D02*
X464719D01*
X424338Y134499D02*
X464567D01*
X461655Y137199D02*
X464549D01*
X450438Y160599D02*
X464545D01*
X449538Y159699D02*
X464433D01*
X461342Y157899D02*
X464319D01*
X460765Y135399D02*
X464265D01*
X461402Y136299D02*
X464260D01*
X460643Y158799D02*
X464233D01*
X453751Y337899D02*
X464173D01*
X378200Y121899D02*
X464127D01*
X121739Y105699D02*
X464088D01*
X446787Y354099D02*
X464042D01*
X122491Y338799D02*
X463336D01*
X378200Y120999D02*
X463299D01*
X122560Y106599D02*
X463267D01*
X447219Y353199D02*
X463230D01*
X123168Y339699D02*
X462658D01*
X378200Y120099D02*
X462628D01*
X123224Y107499D02*
X462602D01*
X447404Y352299D02*
X462573D01*
X423438Y133599D02*
X462172D01*
X123719Y340599D02*
X462108D01*
X386683Y119199D02*
X462083D01*
X123765Y108399D02*
X462062D01*
X447376Y351399D02*
X462038D01*
X124163Y341499D02*
X461664D01*
X388191Y118299D02*
X461644D01*
X124199Y109299D02*
X461627D01*
X447131Y350499D02*
X461608D01*
X124514Y342399D02*
X461313D01*
X388951Y117399D02*
X461298D01*
X325668Y110199D02*
X461285D01*
X446619Y349599D02*
X461270D01*
X401663Y127299D02*
X461179D01*
X124780Y343299D02*
X461047D01*
X389393Y116499D02*
X461035D01*
X387346Y111099D02*
X461026D01*
X445655Y348699D02*
X461015D01*
X451338Y161499D02*
X460914D01*
X124968Y344199D02*
X460859D01*
X389612Y115599D02*
X460852D01*
X388489Y111999D02*
X460845D01*
X124988Y347799D02*
X460838D01*
X456738Y166899D02*
X460782D01*
X125081Y345099D02*
X460746D01*
X389643Y114699D02*
X460742D01*
X389126Y112899D02*
X460739D01*
X125091Y346899D02*
X460736D01*
X125122Y345999D02*
X460705D01*
X389488Y113799D02*
X460705D01*
X422538Y132699D02*
X460581D01*
X446412Y186699D02*
X460507D01*
X418038Y128199D02*
X460217D01*
X452238Y162399D02*
X460092D01*
X455838Y165999D02*
X460027D01*
X421638Y131799D02*
X459927D01*
X418938Y129099D02*
X459747D01*
X453138Y163299D02*
X459689D01*
X454938Y165099D02*
X459660D01*
X420738Y130899D02*
X459619D01*
X419838Y129999D02*
X459563D01*
X454038Y164199D02*
X459556D01*
X404817Y182199D02*
X459442D01*
X335719Y177699D02*
X459433D01*
X332351Y181299D02*
X459216D01*
X407297Y185799D02*
X459212D01*
X336039Y176799D02*
X458912D01*
X335051Y178599D02*
X458879D01*
X405502Y183099D02*
X458837D01*
X333251Y180399D02*
X458765D01*
X406397Y184899D02*
X458746D01*
X334151Y179499D02*
X458667D01*
X405747Y183999D02*
X458637D01*
X336112Y175899D02*
X458012D01*
X336112Y174999D02*
X457112D01*
X448638Y158799D02*
X456688D01*
X336112Y174099D02*
X456212D01*
X447738Y157899D02*
X455989D01*
X446838Y156999D02*
X455700D01*
X447830Y146199D02*
X455676D01*
X448730Y145299D02*
X455676D01*
X449630Y144399D02*
X455676D01*
X450530Y143499D02*
X455676D01*
X451430Y142599D02*
X455676D01*
X452330Y141699D02*
X455676D01*
X453230Y140799D02*
X455676D01*
X445938Y156099D02*
X455665D01*
X445038Y155199D02*
X455665D01*
X444138Y154299D02*
X455665D01*
X443238Y153399D02*
X455665D01*
X442338Y152499D02*
X455665D01*
X442485Y151599D02*
X455665D01*
X443554Y150699D02*
X455665D01*
X444230Y149799D02*
X455665D01*
X445130Y148899D02*
X455665D01*
X446030Y147999D02*
X455665D01*
X446930Y147099D02*
X455665D01*
X336112Y173199D02*
X455312D01*
X336112Y172299D02*
X454412D01*
X373369Y171399D02*
X453512D01*
X374056Y170499D02*
X452612D01*
X374303Y169599D02*
X451712D01*
X425238Y135399D02*
X451671D01*
X374236Y168699D02*
X450812D01*
X426138Y136299D02*
X450659D01*
X435182Y167799D02*
X449912D01*
X427038Y137199D02*
X449759D01*
X436043Y166899D02*
X449012D01*
X445877Y337899D02*
X449005D01*
X427938Y138099D02*
X448859D01*
X446057Y330699D02*
X448825D01*
X436374Y165999D02*
X448112D01*
X428838Y138999D02*
X447959D01*
X447083Y336999D02*
X447799D01*
X447209Y331599D02*
X447673D01*
X436379Y165099D02*
X447212D01*
X429738Y139899D02*
X447059D01*
X436061Y164199D02*
X446312D01*
X430638Y140799D02*
X446159D01*
X435230Y163299D02*
X445412D01*
X431538Y141699D02*
X445259D01*
X415069Y162399D02*
X444512D01*
X432438Y142599D02*
X444359D01*
X414169Y161499D02*
X443612D01*
X408197Y186699D02*
X443588D01*
X433338Y143499D02*
X443459D01*
X430500Y291099D02*
X443100D01*
X430500Y290199D02*
X443100D01*
X430500Y289299D02*
X443100D01*
X430500Y288399D02*
X443100D01*
X430500Y287499D02*
X443100D01*
X430500Y286599D02*
X443100D01*
X430500Y285699D02*
X443100D01*
X430500Y284799D02*
X443100D01*
X430500Y283899D02*
X443100D01*
X430500Y282999D02*
X443100D01*
X430500Y282099D02*
X443100D01*
X430500Y281199D02*
X443100D01*
X430500Y280299D02*
X443100D01*
X430500Y279399D02*
X443100D01*
X430500Y278499D02*
X443100D01*
X433278Y277599D02*
X443100D01*
X434664Y276699D02*
X443100D01*
X435148Y275799D02*
X443100D01*
X435269Y274899D02*
X443100D01*
X435081Y273999D02*
X443100D01*
X434523Y273099D02*
X443100D01*
X434471Y272199D02*
X443100D01*
X434471Y271299D02*
X443100D01*
X434471Y270399D02*
X443100D01*
X434471Y269499D02*
X443100D01*
X434471Y268599D02*
X443100D01*
X434471Y267699D02*
X443100D01*
X434471Y266799D02*
X443100D01*
X434471Y265899D02*
X443100D01*
X434471Y264999D02*
X443100D01*
X434471Y264099D02*
X443100D01*
X434471Y263199D02*
X443100D01*
X434471Y262299D02*
X443100D01*
X434471Y261399D02*
X443100D01*
X434471Y260499D02*
X443100D01*
X434471Y259599D02*
X443100D01*
X434471Y258699D02*
X443100D01*
X434471Y257799D02*
X443100D01*
X434471Y256899D02*
X443100D01*
X434471Y255999D02*
X443100D01*
X434471Y255099D02*
X443100D01*
X434471Y254199D02*
X443100D01*
X434471Y253299D02*
X443100D01*
X434471Y252399D02*
X443100D01*
X434471Y251499D02*
X443100D01*
X434471Y250599D02*
X443100D01*
X434471Y249699D02*
X443100D01*
X434471Y248799D02*
X443100D01*
X434471Y247899D02*
X443100D01*
X434471Y246999D02*
X443100D01*
X434471Y246099D02*
X443100D01*
X434471Y245199D02*
X443100D01*
X434471Y244299D02*
X443100D01*
X434471Y243399D02*
X443100D01*
X434471Y242499D02*
X443100D01*
X434471Y241599D02*
X443100D01*
X434471Y240699D02*
X443100D01*
X434471Y239799D02*
X443100D01*
X434471Y238899D02*
X443100D01*
X434471Y237999D02*
X443100D01*
X434471Y237099D02*
X443100D01*
X434471Y236199D02*
X443100D01*
X434471Y235299D02*
X443100D01*
X434471Y234399D02*
X443100D01*
X434471Y233499D02*
X443100D01*
X434471Y232599D02*
X443100D01*
X434471Y231699D02*
X443100D01*
X434471Y230799D02*
X443100D01*
X434471Y229899D02*
X443100D01*
X434471Y228999D02*
X443100D01*
X434471Y228099D02*
X443100D01*
X434471Y227199D02*
X443100D01*
X434471Y226299D02*
X443100D01*
X434471Y225399D02*
X443100D01*
X434471Y224499D02*
X443100D01*
X434471Y223599D02*
X443100D01*
X434471Y222699D02*
X443100D01*
X434471Y221799D02*
X443100D01*
X434471Y220899D02*
X443100D01*
X434471Y219999D02*
X443100D01*
X434471Y219099D02*
X443100D01*
X434471Y218199D02*
X443100D01*
X434471Y217299D02*
X443100D01*
X434471Y216399D02*
X443100D01*
X434471Y215499D02*
X443100D01*
X434471Y214599D02*
X443100D01*
X434470Y213699D02*
X443100D01*
X434210Y212799D02*
X443100D01*
X433397Y211899D02*
X443100D01*
X432497Y210999D02*
X443100D01*
X431597Y210099D02*
X443100D01*
X430697Y209199D02*
X443100D01*
X429797Y208299D02*
X443100D01*
X428897Y207399D02*
X443100D01*
X427997Y206499D02*
X443100D01*
X427097Y205599D02*
X443100D01*
X426197Y204699D02*
X443100D01*
X425297Y203799D02*
X443100D01*
X424397Y202899D02*
X443100D01*
X423497Y201999D02*
X443100D01*
X422597Y201099D02*
X443100D01*
X421697Y200199D02*
X443100D01*
X420797Y199299D02*
X443100D01*
X419897Y198399D02*
X443100D01*
X418997Y197499D02*
X443100D01*
X418097Y196599D02*
X443100D01*
X417197Y195699D02*
X443100D01*
X416297Y194799D02*
X443100D01*
X415397Y193899D02*
X443100D01*
X414497Y192999D02*
X443100D01*
X413597Y192099D02*
X443100D01*
X412697Y191199D02*
X443100D01*
X422410Y318999D02*
X443013D01*
X419875Y160599D02*
X442712D01*
X409097Y187599D02*
X442692D01*
X430500Y291999D02*
X442689D01*
X411797Y190299D02*
X442633D01*
X434238Y144399D02*
X442559D01*
X409997Y188499D02*
X442347D01*
X410897Y189399D02*
X442330D01*
X120783Y329799D02*
X442060D01*
X420526Y159699D02*
X441812D01*
X430500Y292899D02*
X441789D01*
X435138Y145299D02*
X441659D01*
X386600Y348699D02*
X441353D01*
X438003Y337899D02*
X441131D01*
X386926Y354999D02*
X441027D01*
X438183Y330699D02*
X440951D01*
X420788Y158799D02*
X440912D01*
X430500Y293799D02*
X440889D01*
X122832Y319899D02*
X440853D01*
X122863Y328899D02*
X440822D01*
X436038Y146199D02*
X440759D01*
X387564Y349599D02*
X440389D01*
X430500Y304599D02*
X440349D01*
X430500Y294699D02*
X440255D01*
X387732Y354099D02*
X440221D01*
X430500Y300099D02*
X440149D01*
X430500Y299199D02*
X440149D01*
X430500Y298299D02*
X440149D01*
X430500Y297399D02*
X440149D01*
X430500Y296499D02*
X440149D01*
X430500Y295599D02*
X440149D01*
X420812Y157899D02*
X440012D01*
X439209Y336999D02*
X439925D01*
X388076Y350499D02*
X439877D01*
X123834Y320799D02*
X439851D01*
X123852Y327999D02*
X439833D01*
X430500Y300999D02*
X439805D01*
X439335Y331599D02*
X439799D01*
X388164Y353199D02*
X439788D01*
X388321Y351399D02*
X439632D01*
X430500Y303699D02*
X439629D01*
X388349Y352299D02*
X439604D01*
X436938Y147099D02*
X439588D01*
X430500Y301899D02*
X439416D01*
X430500Y302799D02*
X439365D01*
X124471Y321699D02*
X439214D01*
X124483Y327099D02*
X439202D01*
X420812Y156999D02*
X439112D01*
X437838Y147999D02*
X438899D01*
X124878Y322599D02*
X438807D01*
X124886Y326199D02*
X438799D01*
X125109Y323499D02*
X438576D01*
X125113Y325299D02*
X438572D01*
X125185Y324399D02*
X438500D01*
X420812Y156099D02*
X438212D01*
X420812Y155199D02*
X437312D01*
X420812Y154299D02*
X436412D01*
X420812Y153399D02*
X435512D01*
X420812Y152499D02*
X434612D01*
X420812Y151599D02*
X433712D01*
X394696Y337899D02*
X433257D01*
X394876Y330699D02*
X433077D01*
X420811Y150699D02*
X432812D01*
X373828Y167799D02*
X432246D01*
X415969Y163299D02*
X432198D01*
X395902Y336999D02*
X432051D01*
X395985Y331599D02*
X431968D01*
X420790Y149799D02*
X431912D01*
X430534Y277599D02*
X431863D01*
X396528Y336099D02*
X431425D01*
X396574Y332499D02*
X431378D01*
X420790Y148899D02*
X431112D01*
X396861Y335199D02*
X431092D01*
X396882Y333399D02*
X431071D01*
X396972Y334299D02*
X430981D01*
X429041Y263199D02*
X430671D01*
X428141Y262299D02*
X430671D01*
X427951Y261399D02*
X430671D01*
X427951Y260499D02*
X430671D01*
X427951Y259599D02*
X430671D01*
X427951Y258699D02*
X430671D01*
X427951Y257799D02*
X430671D01*
X427951Y256899D02*
X430671D01*
X427951Y255999D02*
X430671D01*
X427951Y255099D02*
X430671D01*
X427951Y254199D02*
X430671D01*
X427951Y253299D02*
X430671D01*
X427951Y252399D02*
X430671D01*
X427951Y251499D02*
X430671D01*
X427951Y250599D02*
X430671D01*
X427951Y249699D02*
X430671D01*
X427951Y248799D02*
X430671D01*
X427951Y247899D02*
X430671D01*
X427951Y246999D02*
X430671D01*
X427951Y246099D02*
X430671D01*
X427951Y245199D02*
X430671D01*
X427951Y244299D02*
X430671D01*
X427951Y243399D02*
X430671D01*
X427951Y242499D02*
X430671D01*
X427951Y241599D02*
X430671D01*
X427951Y240699D02*
X430671D01*
X427951Y239799D02*
X430671D01*
X427951Y238899D02*
X430671D01*
X427951Y237999D02*
X430671D01*
X427951Y237099D02*
X430671D01*
X427951Y236199D02*
X430671D01*
X427951Y235299D02*
X430671D01*
X427951Y234399D02*
X430671D01*
X427951Y233499D02*
X430671D01*
X427951Y232599D02*
X430671D01*
X427951Y231699D02*
X430671D01*
X427951Y230799D02*
X430671D01*
X427951Y229899D02*
X430671D01*
X427951Y228999D02*
X430671D01*
X427951Y228099D02*
X430671D01*
X427951Y227199D02*
X430671D01*
X427951Y226299D02*
X430671D01*
X427951Y225399D02*
X430671D01*
X427951Y224499D02*
X430671D01*
X427951Y223599D02*
X430671D01*
X427951Y222699D02*
X430671D01*
X427951Y221799D02*
X430671D01*
X427871Y220899D02*
X430671D01*
X427497Y219999D02*
X430671D01*
X426629Y219099D02*
X430671D01*
X424251Y218199D02*
X430671D01*
X423351Y217299D02*
X430671D01*
X422451Y216399D02*
X430671D01*
X421551Y215499D02*
X430671D01*
X420651Y214599D02*
X430646D01*
X429977Y264099D02*
X430364D01*
X420790Y147999D02*
X430112D01*
X420589Y213699D02*
X429823D01*
X420790Y147099D02*
X429212D01*
X421111Y212799D02*
X428923D01*
X420790Y146199D02*
X428312D01*
X421258Y211899D02*
X428023D01*
X420790Y145299D02*
X427412D01*
X421096Y210999D02*
X427123D01*
X420790Y144399D02*
X426512D01*
X420552Y210099D02*
X426223D01*
X420790Y143499D02*
X425612D01*
X413622Y209199D02*
X425323D01*
X420741Y142599D02*
X424712D01*
X272287Y308199D02*
X424500D01*
X272287Y307299D02*
X424500D01*
X272287Y306399D02*
X424500D01*
X272287Y305499D02*
X424500D01*
X272287Y304599D02*
X424500D01*
X272287Y303699D02*
X424500D01*
X272287Y302799D02*
X424500D01*
X272287Y301899D02*
X424500D01*
X272287Y300999D02*
X424500D01*
X272287Y300099D02*
X424500D01*
X272287Y299199D02*
X424500D01*
X272287Y298299D02*
X424500D01*
X416030Y297399D02*
X424500D01*
X416741Y296499D02*
X424500D01*
X417001Y295599D02*
X424500D01*
X417616Y294699D02*
X424500D01*
X418516Y293799D02*
X424500D01*
X419416Y292899D02*
X424500D01*
X420189Y291999D02*
X424500D01*
X420400Y291099D02*
X424500D01*
X420400Y290199D02*
X424500D01*
X420400Y289299D02*
X424500D01*
X420400Y288399D02*
X424500D01*
X420400Y287499D02*
X424500D01*
X420400Y286599D02*
X424500D01*
X420400Y285699D02*
X424500D01*
X420400Y284799D02*
X424500D01*
X420400Y283899D02*
X424500D01*
X420400Y282999D02*
X424500D01*
X420400Y282099D02*
X424500D01*
X420400Y281199D02*
X424500D01*
X420400Y280299D02*
X424500D01*
X420400Y279399D02*
X424500D01*
X420400Y278499D02*
X424500D01*
X420400Y277599D02*
X424500D01*
X420400Y276699D02*
X424500D01*
X420400Y275799D02*
X424500D01*
X420400Y274899D02*
X424500D01*
X420400Y273999D02*
X424500D01*
X423342Y273099D02*
X424429D01*
X412835Y208299D02*
X424423D01*
X272287Y309099D02*
X424059D01*
X420424Y141699D02*
X423812D01*
X412640Y207399D02*
X423523D01*
X272287Y309999D02*
X423159D01*
X419673Y140799D02*
X422912D01*
X412053Y206499D02*
X422623D01*
X272287Y310899D02*
X422259D01*
X379155Y139899D02*
X422012D01*
X420233Y224499D02*
X421951D01*
X419333Y223599D02*
X421951D01*
X418433Y222699D02*
X421951D01*
X417533Y221799D02*
X421951D01*
X421137Y225399D02*
X421765D01*
X405434Y205599D02*
X421723D01*
X420454Y273099D02*
X421612D01*
X416633Y220899D02*
X421577D01*
X272287Y311799D02*
X421359D01*
X379155Y138999D02*
X421112D01*
X405434Y204699D02*
X420823D01*
X415733Y219999D02*
X420677D01*
X272287Y312699D02*
X420459D01*
X379155Y138099D02*
X420212D01*
X405434Y203799D02*
X419923D01*
X414833Y219099D02*
X419777D01*
X379155Y137199D02*
X419312D01*
X405434Y202899D02*
X419023D01*
X413933Y218199D02*
X418877D01*
X401704Y136299D02*
X418412D01*
X405929Y201999D02*
X418123D01*
X413033Y217299D02*
X417977D01*
X404929Y135399D02*
X417512D01*
X406211Y201099D02*
X417223D01*
X412133Y216399D02*
X417090D01*
X411233Y215499D02*
X416683D01*
X410333Y214599D02*
X416658D01*
X405829Y134499D02*
X416612D01*
X272287Y289299D02*
X416600D01*
X272287Y288399D02*
X416600D01*
X272287Y287499D02*
X416600D01*
X272287Y286599D02*
X416600D01*
X272287Y285699D02*
X416600D01*
X272287Y284799D02*
X416600D01*
X272287Y283899D02*
X416600D01*
X272287Y282999D02*
X416600D01*
X272287Y282099D02*
X416600D01*
X272287Y281199D02*
X416600D01*
X272287Y280299D02*
X416600D01*
X272287Y279399D02*
X416600D01*
X320682Y278499D02*
X416600D01*
X339046Y277599D02*
X416600D01*
X339790Y276699D02*
X416600D01*
X340066Y275799D02*
X416600D01*
X340025Y274899D02*
X416600D01*
X339650Y273999D02*
X416600D01*
X339286Y273099D02*
X416600D01*
X339286Y272199D02*
X416600D01*
X339286Y271299D02*
X416600D01*
X339286Y270399D02*
X416600D01*
X339286Y269499D02*
X416600D01*
X339286Y268599D02*
X416600D01*
X339286Y267699D02*
X416600D01*
X339286Y266799D02*
X416600D01*
X339286Y265899D02*
X416600D01*
X339286Y264999D02*
X416600D01*
X339538Y264099D02*
X416600D01*
X339985Y263199D02*
X416600D01*
X340081Y262299D02*
X416600D01*
X339865Y261399D02*
X416600D01*
X339233Y260499D02*
X416600D01*
X321402Y259599D02*
X416600D01*
X321405Y258699D02*
X416600D01*
X321084Y257799D02*
X416600D01*
X320247Y256899D02*
X416600D01*
X308379Y255999D02*
X416600D01*
X308498Y255099D02*
X416600D01*
X308307Y254199D02*
X416600D01*
X307717Y253299D02*
X416600D01*
X297000Y252399D02*
X416600D01*
X297000Y251499D02*
X416600D01*
X297000Y250599D02*
X416600D01*
X297000Y249699D02*
X416600D01*
X297000Y248799D02*
X416600D01*
X297000Y247899D02*
X416600D01*
X297000Y246999D02*
X416600D01*
X297000Y246099D02*
X416600D01*
X297000Y245199D02*
X416600D01*
X297000Y244299D02*
X416600D01*
X297000Y243399D02*
X416600D01*
X297000Y242499D02*
X416600D01*
X297000Y241599D02*
X416600D01*
X297000Y240699D02*
X416600D01*
X297000Y239799D02*
X416600D01*
X297000Y238899D02*
X416600D01*
X297000Y237999D02*
X416600D01*
X411259Y237099D02*
X416600D01*
X412323Y236199D02*
X416600D01*
X412729Y235299D02*
X416600D01*
X412794Y234399D02*
X416600D01*
X412545Y233499D02*
X416600D01*
X412009Y232599D02*
X416600D01*
X412006Y231699D02*
X416600D01*
X412012Y230799D02*
X416600D01*
X412014Y229899D02*
X416600D01*
X412014Y228999D02*
X416596D01*
X272287Y290199D02*
X416596D01*
X406176Y200199D02*
X416323D01*
X379155Y140799D02*
X415906D01*
X412460Y228099D02*
X415843D01*
X272287Y291099D02*
X415842D01*
X413269Y160599D02*
X415749D01*
X406729Y133599D02*
X415712D01*
X405809Y199299D02*
X415423D01*
X379155Y141699D02*
X415155D01*
X412369Y159699D02*
X415098D01*
X412778Y227199D02*
X414943D01*
X272287Y291999D02*
X414942D01*
X379155Y142599D02*
X414838D01*
X411469Y158799D02*
X414836D01*
X410303Y157899D02*
X414812D01*
X390825Y156999D02*
X414812D01*
X389925Y156099D02*
X414812D01*
X389025Y155199D02*
X414812D01*
X388125Y154299D02*
X414812D01*
X387225Y153399D02*
X414812D01*
X386325Y152499D02*
X414812D01*
X385425Y151599D02*
X414812D01*
X384525Y150699D02*
X414790D01*
X383625Y149799D02*
X414790D01*
X382725Y148899D02*
X414790D01*
X381825Y147999D02*
X414790D01*
X380925Y147099D02*
X414790D01*
X380025Y146199D02*
X414790D01*
X379188Y145299D02*
X414790D01*
X379155Y144399D02*
X414790D01*
X379155Y143499D02*
X414790D01*
X404857Y198399D02*
X414523D01*
X372756Y166899D02*
X414196D01*
X412775Y226299D02*
X414043D01*
X377400Y197499D02*
X413623D01*
X370955Y165999D02*
X413295D01*
X272287Y292899D02*
X413105D01*
X409433Y213699D02*
X412988D01*
X377400Y196599D02*
X412723D01*
X272287Y297399D02*
X412603D01*
X370055Y165099D02*
X412395D01*
X272287Y293799D02*
X412080D01*
X272287Y296499D02*
X411891D01*
X408533Y212799D02*
X411848D01*
X377400Y195699D02*
X411823D01*
X272287Y294699D02*
X411687D01*
X272287Y295599D02*
X411632D01*
X369155Y164199D02*
X411495D01*
X272287Y223599D02*
X411142D01*
X407633Y211899D02*
X410948D01*
X377400Y194799D02*
X410923D01*
X368255Y163299D02*
X410595D01*
X272287Y222699D02*
X410443D01*
X377400Y193899D02*
X410023D01*
X390570Y162399D02*
X409695D01*
X272287Y221799D02*
X409543D01*
X406733Y210999D02*
X409421D01*
X377299Y192999D02*
X409123D01*
X297000Y237099D02*
X408953D01*
X272287Y220899D02*
X408643D01*
X272287Y224499D02*
X408640D01*
X311165Y192099D02*
X408223D01*
X272287Y229899D02*
X408214D01*
X272287Y228999D02*
X408214D01*
X405434Y206499D02*
X408206D01*
X297408Y231699D02*
X408206D01*
X296512Y230799D02*
X408206D01*
X297753Y232599D02*
X408203D01*
X405833Y210099D02*
X408036D01*
X297000Y236199D02*
X407889D01*
X272287Y225399D02*
X407783D01*
X272287Y228099D02*
X407769D01*
X272207Y219999D02*
X407743D01*
X297770Y233499D02*
X407667D01*
X405434Y207399D02*
X407620D01*
X405434Y209199D02*
X407553D01*
X297000Y235299D02*
X407483D01*
X272287Y226299D02*
X407454D01*
X272287Y227199D02*
X407450D01*
X405434Y208299D02*
X407431D01*
X297467Y234399D02*
X407418D01*
X304234Y191199D02*
X407323D01*
X271832Y219099D02*
X406843D01*
X264600Y190299D02*
X406423D01*
X339267Y218199D02*
X405943D01*
X264600Y189399D02*
X405523D01*
X340067Y217299D02*
X405043D01*
X264600Y188499D02*
X404623D01*
X390911Y216399D02*
X404143D01*
X264600Y187599D02*
X403723D01*
X377400Y198399D02*
X402210D01*
X390510Y211899D02*
X402079D01*
X264600Y186699D02*
X401927D01*
X377400Y210999D02*
X401704D01*
X377400Y210099D02*
X401634D01*
X377400Y209199D02*
X401634D01*
X377400Y208299D02*
X401634D01*
X377400Y207399D02*
X401634D01*
X377400Y206499D02*
X401634D01*
X377400Y205599D02*
X401634D01*
X377400Y204699D02*
X401634D01*
X377400Y203799D02*
X401634D01*
X377400Y202899D02*
X401634D01*
X331451Y182199D02*
X401300D01*
X377400Y199299D02*
X401258D01*
X377400Y201999D02*
X401139D01*
X377400Y200199D02*
X400891D01*
X377400Y201099D02*
X400856D01*
X327136Y185799D02*
X400849D01*
X330551Y183099D02*
X400615D01*
X328751Y184899D02*
X400438D01*
X329651Y183999D02*
X400370D01*
X379155Y131799D02*
X398369D01*
X379155Y136299D02*
X398130D01*
X379155Y127299D02*
X398081D01*
X379155Y132699D02*
X397725D01*
X379155Y130899D02*
X397682D01*
X379155Y135399D02*
X397462D01*
X379155Y128199D02*
X397416D01*
X379155Y133599D02*
X397303D01*
X379155Y129999D02*
X397259D01*
X379155Y134499D02*
X397226D01*
X379155Y129099D02*
X397181D01*
X386822Y337899D02*
X389950D01*
X387002Y330699D02*
X389770D01*
X388028Y336999D02*
X388743D01*
X388154Y331599D02*
X388618D01*
X367355Y162399D02*
X387982D01*
X377400Y211899D02*
X387964D01*
X340370Y216399D02*
X387564D01*
X377202Y212799D02*
X386980D01*
X366455Y161499D02*
X386840D01*
X340888Y215499D02*
X386828D01*
X342688Y213699D02*
X386601D01*
X341788Y214599D02*
X386556D01*
X365555Y160599D02*
X385940D01*
X364655Y159699D02*
X385040D01*
X363755Y158799D02*
X384140D01*
X378200Y119199D02*
X383717D01*
X362817Y157899D02*
X383240D01*
X377346Y111099D02*
X383054D01*
X361917Y156999D02*
X382340D01*
X327545Y348699D02*
X382298D01*
X378244Y118299D02*
X382209D01*
X378948Y337899D02*
X382076D01*
X327871Y354999D02*
X381972D01*
X378489Y111999D02*
X381911D01*
X379128Y330699D02*
X381896D01*
X378951Y117399D02*
X381449D01*
X361017Y156099D02*
X381440D01*
X328508Y349599D02*
X381334D01*
X379126Y112899D02*
X381274D01*
X328677Y354099D02*
X381166D01*
X379393Y116499D02*
X381007D01*
X379488Y113799D02*
X380912D01*
X380154Y336999D02*
X380869D01*
X329021Y350499D02*
X380821D01*
X379612Y115599D02*
X380788D01*
X379643Y114699D02*
X380757D01*
X380280Y331599D02*
X380744D01*
X329109Y353199D02*
X380733D01*
X329266Y351399D02*
X380577D01*
X329294Y352299D02*
X380549D01*
X360117Y155199D02*
X380540D01*
X359217Y154299D02*
X379640D01*
X358317Y153399D02*
X378740D01*
X357417Y152499D02*
X377840D01*
X356517Y151599D02*
X376940D01*
X355662Y150699D02*
X376040D01*
X355471Y149799D02*
X375140D01*
X354942Y148899D02*
X374240D01*
X335641Y337899D02*
X374202D01*
X335820Y330699D02*
X374022D01*
X353117Y147999D02*
X373517D01*
X336112Y147099D02*
X373202D01*
X336112Y146199D02*
X373155D01*
X336112Y145299D02*
X373155D01*
X336112Y144399D02*
X373155D01*
X336112Y143499D02*
X373155D01*
X336112Y142599D02*
X373155D01*
X336112Y141699D02*
X373155D01*
X336112Y140799D02*
X373155D01*
X336112Y139899D02*
X373155D01*
X336112Y138999D02*
X373155D01*
X336112Y138099D02*
X373155D01*
X336112Y137199D02*
X373155D01*
X336112Y136299D02*
X373155D01*
X336112Y135399D02*
X373155D01*
X336112Y134499D02*
X373155D01*
X336112Y133599D02*
X373155D01*
X336112Y132699D02*
X373155D01*
X336112Y131799D02*
X373155D01*
X336112Y130899D02*
X373155D01*
X336112Y129999D02*
X373155D01*
X336112Y129099D02*
X373155D01*
X336112Y128199D02*
X373155D01*
X336112Y127299D02*
X373155D01*
X327290Y111099D02*
X373054D01*
X336112Y126399D02*
X373024D01*
X336847Y336999D02*
X372996D01*
X336930Y331599D02*
X372912D01*
X336112Y125499D02*
X372435D01*
X337473Y336099D02*
X372370D01*
X337519Y332499D02*
X372323D01*
X336112Y124599D02*
X372212D01*
X336112Y123699D02*
X372200D01*
X336112Y122799D02*
X372200D01*
X336112Y121899D02*
X372200D01*
X336092Y120999D02*
X372200D01*
X335873Y120099D02*
X372200D01*
X335357Y119199D02*
X372200D01*
X334491Y118299D02*
X372156D01*
X337805Y335199D02*
X372037D01*
X337827Y333399D02*
X372016D01*
X337917Y334299D02*
X371925D01*
X328191Y111999D02*
X371911D01*
X333591Y117399D02*
X371449D01*
X329091Y112899D02*
X371274D01*
X332691Y116499D02*
X371007D01*
X329991Y113799D02*
X370912D01*
X331791Y115599D02*
X370788D01*
X330891Y114699D02*
X370757D01*
X336112Y171399D02*
X369862D01*
X336112Y170499D02*
X369174D01*
X336112Y169599D02*
X368927D01*
X336112Y168699D02*
X368281D01*
X336112Y167799D02*
X367381D01*
X336112Y166899D02*
X366481D01*
X336112Y165999D02*
X365581D01*
X336112Y165099D02*
X364681D01*
X336112Y164199D02*
X363781D01*
X336112Y163299D02*
X362881D01*
X336112Y162399D02*
X361981D01*
X336112Y161499D02*
X361058D01*
X336112Y160599D02*
X360143D01*
X336112Y159699D02*
X359243D01*
X343588Y212799D02*
X358498D01*
X336612Y192999D02*
X358401D01*
X336112Y158799D02*
X358343D01*
X344267Y211899D02*
X358300D01*
X344400Y210999D02*
X358300D01*
X344400Y210099D02*
X358300D01*
X344514Y209199D02*
X358300D01*
X345046Y208299D02*
X358300D01*
X345200Y207399D02*
X358300D01*
X345045Y206499D02*
X358300D01*
X344511Y205599D02*
X358300D01*
X324332Y204699D02*
X358300D01*
X323944Y203799D02*
X358300D01*
X355220Y202899D02*
X358300D01*
X355809Y201999D02*
X358300D01*
X355998Y201099D02*
X358300D01*
X355878Y200199D02*
X358300D01*
X355397Y199299D02*
X358300D01*
X354023Y198399D02*
X358300D01*
X340086Y197499D02*
X358300D01*
X339186Y196599D02*
X358300D01*
X338286Y195699D02*
X358300D01*
X337853Y194799D02*
X358300D01*
X337508Y193899D02*
X358300D01*
X336112Y157899D02*
X357443D01*
X336112Y156999D02*
X356543D01*
X336112Y156099D02*
X355643D01*
X336112Y155199D02*
X354743D01*
X336112Y154299D02*
X353843D01*
X336112Y153399D02*
X352837D01*
X336112Y147999D02*
X352728D01*
X340986Y198399D02*
X352577D01*
X336112Y152499D02*
X350917D01*
X336112Y148899D02*
X350904D01*
X336112Y151599D02*
X350380D01*
X336112Y149799D02*
X350375D01*
X336112Y150699D02*
X350223D01*
X322934Y202899D02*
X340829D01*
X313999Y210099D02*
X340600D01*
X324383Y205599D02*
X340489D01*
X314889Y209199D02*
X340486D01*
X312069Y210999D02*
X340014D01*
X324119Y206499D02*
X339955D01*
X315232Y208299D02*
X339954D01*
X323399Y207399D02*
X339800D01*
X321086Y201999D02*
X339212D01*
X311169Y211899D02*
X339114D01*
X320186Y201099D02*
X338312D01*
X310269Y212799D02*
X338214D01*
X319286Y200199D02*
X337412D01*
X318386Y199299D02*
X336512D01*
X309369Y213699D02*
X336288D01*
X302323Y218199D02*
X336133D01*
X321254Y277599D02*
X335726D01*
X317486Y198399D02*
X335612D01*
X321074Y260499D02*
X335539D01*
X320633Y269499D02*
X335486D01*
X320633Y268599D02*
X335486D01*
X320641Y267699D02*
X335486D01*
X320641Y266799D02*
X335486D01*
X320641Y265899D02*
X335486D01*
X320641Y264999D02*
X335486D01*
X320633Y273099D02*
X335486D01*
X320633Y272199D02*
X335486D01*
X320633Y271299D02*
X335486D01*
X320633Y270399D02*
X335486D01*
X308469Y214599D02*
X335392D01*
X305708Y217299D02*
X335333D01*
X320641Y264099D02*
X335234D01*
X320633Y273999D02*
X335122D01*
X307569Y215499D02*
X335047D01*
X306669Y216399D02*
X335030D01*
X321433Y276699D02*
X334982D01*
X320641Y261399D02*
X334907D01*
X320641Y263199D02*
X334787D01*
X320806Y274899D02*
X334747D01*
X321302Y275799D02*
X334706D01*
X320641Y262299D02*
X334691D01*
X312086Y192999D02*
X333788D01*
X316586Y197499D02*
X333633D01*
X312986Y193899D02*
X332892D01*
X315686Y196599D02*
X332833D01*
X313886Y194799D02*
X332547D01*
X314786Y195699D02*
X332530D01*
X327767Y337899D02*
X330895D01*
X327946Y330699D02*
X330715D01*
X328973Y336999D02*
X329688D01*
X329099Y331599D02*
X329563D01*
X316000Y174099D02*
X329112D01*
X316000Y173199D02*
X329112D01*
X316000Y172299D02*
X329112D01*
X316000Y171399D02*
X329112D01*
X316000Y170499D02*
X329112D01*
X316000Y169599D02*
X329112D01*
X316000Y168699D02*
X329112D01*
X316000Y167799D02*
X329112D01*
X316000Y166899D02*
X329112D01*
X316000Y165999D02*
X329112D01*
X316000Y165099D02*
X329112D01*
X316000Y164199D02*
X329112D01*
X316000Y163299D02*
X329112D01*
X316000Y162399D02*
X329112D01*
X316000Y161499D02*
X329112D01*
X316000Y160599D02*
X329112D01*
X316000Y159699D02*
X329112D01*
X316000Y158799D02*
X329112D01*
X316000Y157899D02*
X329112D01*
X316000Y156999D02*
X329112D01*
X316000Y156099D02*
X329112D01*
X316000Y155199D02*
X329112D01*
X316000Y154299D02*
X329112D01*
X316000Y153399D02*
X329112D01*
X316000Y152499D02*
X329112D01*
X316000Y151599D02*
X329112D01*
X316000Y150699D02*
X329112D01*
X316000Y149799D02*
X329112D01*
X316000Y148899D02*
X329112D01*
X316000Y147999D02*
X329112D01*
X316000Y147099D02*
X329112D01*
X316000Y146199D02*
X329112D01*
X316000Y145299D02*
X329112D01*
X316000Y144399D02*
X329112D01*
X316000Y143499D02*
X329112D01*
X316000Y142599D02*
X329112D01*
X316000Y141699D02*
X329112D01*
X316000Y140799D02*
X329112D01*
X316000Y139899D02*
X329112D01*
X316000Y138999D02*
X329112D01*
X316000Y138099D02*
X329112D01*
X316000Y137199D02*
X329112D01*
X316000Y136299D02*
X329112D01*
X315952Y135399D02*
X329112D01*
X315635Y134499D02*
X329112D01*
X314908Y133599D02*
X329112D01*
X314008Y132699D02*
X329112D01*
X313108Y131799D02*
X329112D01*
X312208Y130899D02*
X329112D01*
X311308Y129999D02*
X329112D01*
X310408Y129099D02*
X329112D01*
X309508Y128199D02*
X329112D01*
X308608Y127299D02*
X329112D01*
X307708Y126399D02*
X329112D01*
X306808Y125499D02*
X329112D01*
X305631Y124599D02*
X329112D01*
X292910Y123699D02*
X329112D01*
X292010Y122799D02*
X329057D01*
X315966Y174999D02*
X328752D01*
X291110Y121899D02*
X328191D01*
X315677Y175899D02*
X327852D01*
X290210Y120999D02*
X327291D01*
X314989Y176799D02*
X326952D01*
X289307Y120099D02*
X326391D01*
X314089Y177699D02*
X326052D01*
X173633Y119199D02*
X325491D01*
X264701Y185799D02*
X325464D01*
X313189Y178599D02*
X325152D01*
X174533Y118299D02*
X324591D01*
X312289Y179499D02*
X324252D01*
X306873Y184899D02*
X323849D01*
X175433Y117399D02*
X323691D01*
X311389Y180399D02*
X323429D01*
X268489Y348699D02*
X323243D01*
X307789Y183999D02*
X323186D01*
X319893Y337899D02*
X323021D01*
X310489Y181299D02*
X322978D01*
X268816Y354999D02*
X322917D01*
X308689Y183099D02*
X322870D01*
X320072Y330699D02*
X322841D01*
X309589Y182199D02*
X322806D01*
X269453Y349599D02*
X322279D01*
X269622Y354099D02*
X322110D01*
X321099Y336999D02*
X321814D01*
X269966Y350499D02*
X321766D01*
X321225Y331599D02*
X321689D01*
X270054Y353199D02*
X321678D01*
X270211Y351399D02*
X321522D01*
X270238Y352299D02*
X321494D01*
X315247Y207399D02*
X320001D01*
X314941Y206499D02*
X319281D01*
X314136Y205599D02*
X319017D01*
X298700Y204699D02*
X318412D01*
X298700Y203799D02*
X317512D01*
X307899Y256899D02*
X317236D01*
X307700Y266799D02*
X316841D01*
X307700Y265899D02*
X316841D01*
X307700Y264999D02*
X316841D01*
X307700Y264099D02*
X316841D01*
X307700Y263199D02*
X316841D01*
X307700Y262299D02*
X316841D01*
X307700Y261399D02*
X316841D01*
X307700Y267699D02*
X316841D01*
X308500Y273999D02*
X316833D01*
X308361Y273099D02*
X316833D01*
X307852Y272199D02*
X316833D01*
X307700Y271299D02*
X316833D01*
X307700Y270399D02*
X316833D01*
X307700Y269499D02*
X316833D01*
X307700Y268599D02*
X316833D01*
X272287Y278499D02*
X316785D01*
X308329Y274899D02*
X316661D01*
X298700Y202899D02*
X316612D01*
X307700Y260499D02*
X316408D01*
X307700Y257799D02*
X316398D01*
X272287Y277599D02*
X316213D01*
X307771Y275799D02*
X316164D01*
X307700Y259599D02*
X316080D01*
X307700Y258699D02*
X316077D01*
X289231Y276699D02*
X316034D01*
X298700Y201999D02*
X315712D01*
X276586Y337899D02*
X315147D01*
X276765Y330699D02*
X314967D01*
X298700Y201099D02*
X314812D01*
X277792Y336999D02*
X313941D01*
X298700Y200199D02*
X313912D01*
X277875Y331599D02*
X313857D01*
X278418Y336099D02*
X313314D01*
X278464Y332499D02*
X313268D01*
X298700Y199299D02*
X313012D01*
X278750Y335199D02*
X312982D01*
X278772Y333399D02*
X312961D01*
X278862Y334299D02*
X312870D01*
X298700Y198399D02*
X312112D01*
X298700Y197499D02*
X311212D01*
X298700Y205599D02*
X311019D01*
X298700Y196599D02*
X310312D01*
X298700Y206499D02*
X310214D01*
X144863Y172299D02*
X310000D01*
X144863Y171399D02*
X310000D01*
X145301Y170499D02*
X310000D01*
X146201Y169599D02*
X310000D01*
X147101Y168699D02*
X310000D01*
X148001Y167799D02*
X310000D01*
X148901Y166899D02*
X310000D01*
X149801Y165999D02*
X310000D01*
X150701Y165099D02*
X310000D01*
X151601Y164199D02*
X310000D01*
X152501Y163299D02*
X310000D01*
X153401Y162399D02*
X310000D01*
X154301Y161499D02*
X310000D01*
X155201Y160599D02*
X310000D01*
X156101Y159699D02*
X310000D01*
X157001Y158799D02*
X310000D01*
X157901Y157899D02*
X310000D01*
X158801Y156999D02*
X310000D01*
X159701Y156099D02*
X310000D01*
X190619Y147999D02*
X310000D01*
X190445Y147099D02*
X310000D01*
X302399Y146199D02*
X310000D01*
X303119Y145299D02*
X310000D01*
X303383Y144399D02*
X310000D01*
X305993Y143499D02*
X310000D01*
X307051Y142599D02*
X310000D01*
X307456Y141699D02*
X310000D01*
X307519Y140799D02*
X310000D01*
X307269Y139899D02*
X310000D01*
X306575Y138999D02*
X310000D01*
X296580Y138099D02*
X310000D01*
X144863Y173199D02*
X309989D01*
X295680Y137199D02*
X309965D01*
X160601Y155199D02*
X309958D01*
X298700Y207399D02*
X309908D01*
X190609Y148899D02*
X309536D01*
X304699Y195699D02*
X309412D01*
X298700Y208299D02*
X309395D01*
X144863Y174099D02*
X309204D01*
X294780Y136299D02*
X309123D01*
X298700Y209199D02*
X308495D01*
X144863Y174999D02*
X308304D01*
X293880Y135399D02*
X308223D01*
X298700Y210099D02*
X307595D01*
X144863Y175899D02*
X307404D01*
X292980Y134499D02*
X307323D01*
X298700Y210999D02*
X306695D01*
X144863Y176799D02*
X306504D01*
X292080Y133599D02*
X306423D01*
X298700Y211899D02*
X305795D01*
X144863Y177699D02*
X305604D01*
X291180Y132699D02*
X305523D01*
X298700Y212799D02*
X304895D01*
X144863Y178599D02*
X304704D01*
X290280Y131799D02*
X304623D01*
X303115Y213699D02*
X303988D01*
X296123Y271299D02*
X303900D01*
X297276Y270399D02*
X303900D01*
X297708Y269499D02*
X303900D01*
X297793Y268599D02*
X303900D01*
X297565Y267699D02*
X303900D01*
X297013Y266799D02*
X303900D01*
X297000Y265899D02*
X303900D01*
X297000Y264999D02*
X303900D01*
X297000Y264099D02*
X303900D01*
X297000Y263199D02*
X303900D01*
X297000Y262299D02*
X303900D01*
X297000Y261399D02*
X303900D01*
X297000Y260499D02*
X303900D01*
X297000Y259599D02*
X303900D01*
X297000Y258699D02*
X303900D01*
X297000Y257799D02*
X303900D01*
X297000Y253299D02*
X303883D01*
X290758Y275799D02*
X303829D01*
X144863Y179499D02*
X303797D01*
X290675Y272199D02*
X303748D01*
X289380Y130899D02*
X303723D01*
X297000Y256899D02*
X303701D01*
X297000Y254199D02*
X303293D01*
X291264Y274899D02*
X303271D01*
X291226Y273099D02*
X303239D01*
X297000Y255999D02*
X303221D01*
X297000Y255099D02*
X303102D01*
X291400Y273999D02*
X303100D01*
X297480Y138999D02*
X303089D01*
X264600Y191199D02*
X301766D01*
X298700Y195699D02*
X301301D01*
X264600Y192099D02*
X300756D01*
X298700Y194799D02*
X300581D01*
X298599Y192999D02*
X300368D01*
X298700Y193899D02*
X300317D01*
X271041Y218199D02*
X300277D01*
X298919Y213699D02*
X299481D01*
X270141Y217299D02*
X299124D01*
X190062Y146199D02*
X299001D01*
X269241Y216399D02*
X298692D01*
X268341Y215499D02*
X298607D01*
X267441Y214599D02*
X298476D01*
X290600Y271299D02*
X294077D01*
X272287Y230799D02*
X293688D01*
X189398Y145299D02*
X293412D01*
X290600Y265899D02*
X293200D01*
X290600Y264999D02*
X293200D01*
X290600Y264099D02*
X293200D01*
X290600Y263199D02*
X293200D01*
X290600Y262299D02*
X293200D01*
X290600Y261399D02*
X293200D01*
X290600Y260499D02*
X293200D01*
X290600Y259599D02*
X293200D01*
X290600Y258699D02*
X293200D01*
X290600Y257799D02*
X293200D01*
X290600Y256899D02*
X293200D01*
X290600Y255999D02*
X293200D01*
X290600Y255099D02*
X293200D01*
X290600Y254199D02*
X293200D01*
X290600Y253299D02*
X293200D01*
X290600Y252399D02*
X293200D01*
X290600Y251499D02*
X293200D01*
X290600Y250599D02*
X293200D01*
X290600Y249699D02*
X293200D01*
X290600Y248799D02*
X293200D01*
X290600Y247899D02*
X293200D01*
X290600Y246999D02*
X293200D01*
X290600Y246099D02*
X293200D01*
X290600Y245199D02*
X293200D01*
X290600Y244299D02*
X293200D01*
X290600Y243399D02*
X293200D01*
X290600Y242499D02*
X293200D01*
X290600Y241599D02*
X293200D01*
X290600Y240699D02*
X293200D01*
X290600Y239799D02*
X293200D01*
X290600Y238899D02*
X293200D01*
X291080Y237999D02*
X293200D01*
X291374Y237099D02*
X293200D01*
X291349Y236199D02*
X293200D01*
X290994Y235299D02*
X293200D01*
X290600Y266799D02*
X293187D01*
X290600Y270399D02*
X292924D01*
X272287Y231699D02*
X292792D01*
X290073Y234399D02*
X292733D01*
X290600Y267699D02*
X292635D01*
X188196Y144399D02*
X292512D01*
X290600Y269499D02*
X292492D01*
X272287Y232599D02*
X292447D01*
X272287Y233499D02*
X292430D01*
X290600Y268599D02*
X292407D01*
X185661Y143499D02*
X291612D01*
X288480Y129999D02*
X290923D01*
X187756Y142599D02*
X290712D01*
X287580Y129099D02*
X289825D01*
X189198Y141699D02*
X289812D01*
X286680Y128199D02*
X288925D01*
X189944Y140799D02*
X288912D01*
X272287Y276699D02*
X288169D01*
X285499Y127299D02*
X288025D01*
X190380Y139899D02*
X288012D01*
X272287Y234399D02*
X287327D01*
X177444Y126399D02*
X287125D01*
X235669Y138999D02*
X287112D01*
X285397Y271299D02*
X286800D01*
X285195Y270399D02*
X286800D01*
X284635Y269499D02*
X286800D01*
X284600Y268599D02*
X286800D01*
X284600Y267699D02*
X286800D01*
X284600Y266799D02*
X286800D01*
X284600Y265899D02*
X286800D01*
X284600Y264999D02*
X286800D01*
X284600Y264099D02*
X286800D01*
X284600Y263199D02*
X286800D01*
X284600Y262299D02*
X286800D01*
X284600Y261399D02*
X286800D01*
X284600Y260499D02*
X286800D01*
X284600Y259599D02*
X286800D01*
X284600Y258699D02*
X286800D01*
X284600Y257799D02*
X286800D01*
X284600Y256899D02*
X286800D01*
X284600Y255999D02*
X286800D01*
X284600Y255099D02*
X286800D01*
X284600Y254199D02*
X286800D01*
X284600Y253299D02*
X286800D01*
X284600Y252399D02*
X286800D01*
X284600Y251499D02*
X286800D01*
X284600Y250599D02*
X286800D01*
X284600Y249699D02*
X286800D01*
X284600Y248799D02*
X286800D01*
X284600Y247899D02*
X286800D01*
X284600Y246999D02*
X286800D01*
X284600Y246099D02*
X286800D01*
X284600Y245199D02*
X286800D01*
X284600Y244299D02*
X286800D01*
X284600Y243399D02*
X286800D01*
X284946Y242499D02*
X286800D01*
X285333Y241599D02*
X286800D01*
X285383Y240699D02*
X286800D01*
X285118Y239799D02*
X286800D01*
X284395Y238899D02*
X286800D01*
X285288Y272199D02*
X286725D01*
X272287Y275799D02*
X286642D01*
X272287Y235299D02*
X286406D01*
X272287Y237999D02*
X286320D01*
X178344Y125499D02*
X286225D01*
X236667Y138099D02*
X286212D01*
X284823Y273099D02*
X286174D01*
X272287Y274899D02*
X286136D01*
X272287Y236199D02*
X286051D01*
X272287Y237099D02*
X286026D01*
X283534Y273999D02*
X286000D01*
X237051Y137199D02*
X285312D01*
X237099Y136299D02*
X284412D01*
X236832Y135399D02*
X283512D01*
X236326Y134499D02*
X282612D01*
X272287Y273999D02*
X281866D01*
X272287Y238899D02*
X281005D01*
X272287Y268599D02*
X280800D01*
X272287Y267699D02*
X280800D01*
X272287Y266799D02*
X280800D01*
X272287Y265899D02*
X280800D01*
X272287Y264999D02*
X280800D01*
X272287Y264099D02*
X280800D01*
X272287Y263199D02*
X280800D01*
X272287Y262299D02*
X280800D01*
X272287Y261399D02*
X280800D01*
X272287Y260499D02*
X280800D01*
X272287Y259599D02*
X280800D01*
X272287Y258699D02*
X280800D01*
X272287Y257799D02*
X280800D01*
X272287Y256899D02*
X280800D01*
X272287Y255999D02*
X280800D01*
X272287Y255099D02*
X280800D01*
X272287Y254199D02*
X280800D01*
X272287Y253299D02*
X280800D01*
X272287Y252399D02*
X280800D01*
X272287Y251499D02*
X280800D01*
X272287Y250599D02*
X280800D01*
X272287Y249699D02*
X280800D01*
X272287Y248799D02*
X280800D01*
X272287Y247899D02*
X280800D01*
X272287Y246999D02*
X280800D01*
X272287Y246099D02*
X280800D01*
X272287Y245199D02*
X280800D01*
X272287Y244299D02*
X280800D01*
X272287Y243399D02*
X280800D01*
X272287Y269499D02*
X280765D01*
X272287Y273099D02*
X280577D01*
X272287Y242499D02*
X280454D01*
X272287Y239799D02*
X280282D01*
X272287Y270399D02*
X280205D01*
X272287Y272199D02*
X280112D01*
X272287Y241599D02*
X280067D01*
X272287Y240699D02*
X280017D01*
X272287Y271299D02*
X280003D01*
X264600Y192999D02*
X278701D01*
X266541Y213699D02*
X278600D01*
X265641Y212799D02*
X278600D01*
X264741Y211899D02*
X278600D01*
X264600Y210999D02*
X278600D01*
X264600Y210099D02*
X278600D01*
X264600Y209199D02*
X278600D01*
X264600Y208299D02*
X278600D01*
X264600Y207399D02*
X278600D01*
X264600Y206499D02*
X278600D01*
X264600Y205599D02*
X278600D01*
X264600Y204699D02*
X278600D01*
X264600Y203799D02*
X278600D01*
X264600Y202899D02*
X278600D01*
X264600Y201999D02*
X278600D01*
X264600Y201099D02*
X278600D01*
X264600Y200199D02*
X278600D01*
X264600Y199299D02*
X278600D01*
X264600Y198399D02*
X278600D01*
X264600Y197499D02*
X278600D01*
X264600Y196599D02*
X278600D01*
X264600Y195699D02*
X278600D01*
X264600Y194799D02*
X278600D01*
X264600Y193899D02*
X278600D01*
X268712Y337899D02*
X271839D01*
X268891Y330699D02*
X271660D01*
X269918Y336999D02*
X270633D01*
X270044Y331599D02*
X270508D01*
X161501Y154299D02*
X268872D01*
X190414Y149799D02*
X268546D01*
X162401Y153399D02*
X268079D01*
X210788Y318999D02*
X267977D01*
X190006Y150699D02*
X267935D01*
X187995Y152499D02*
X267741D01*
X189302Y151599D02*
X267697D01*
X102500Y313599D02*
X266287D01*
X102500Y312699D02*
X266287D01*
X102500Y311799D02*
X266287D01*
X102500Y310899D02*
X266287D01*
X102500Y309999D02*
X266287D01*
X199715Y309099D02*
X266287D01*
X200422Y308199D02*
X266287D01*
X200679Y307299D02*
X266287D01*
X200622Y306399D02*
X266287D01*
X200225Y305499D02*
X266287D01*
X199894Y304599D02*
X266287D01*
X199894Y303699D02*
X266287D01*
X199894Y302799D02*
X266287D01*
X199894Y301899D02*
X266287D01*
X199894Y300999D02*
X266287D01*
X199894Y300099D02*
X266287D01*
X199894Y299199D02*
X266287D01*
X199894Y298299D02*
X266287D01*
X199894Y297399D02*
X266287D01*
X199894Y296499D02*
X266287D01*
X199894Y295599D02*
X266287D01*
X199894Y294699D02*
X266287D01*
X199894Y293799D02*
X266287D01*
X199894Y292899D02*
X266287D01*
X199894Y291999D02*
X266287D01*
X199894Y291099D02*
X266287D01*
X199894Y290199D02*
X266287D01*
X199894Y289299D02*
X266287D01*
X199894Y288399D02*
X266287D01*
X199894Y287499D02*
X266287D01*
X199894Y286599D02*
X266287D01*
X199894Y285699D02*
X266287D01*
X199894Y284799D02*
X266287D01*
X199894Y283899D02*
X266287D01*
X199894Y282999D02*
X266287D01*
X199894Y282099D02*
X266287D01*
X199894Y281199D02*
X266287D01*
X199894Y280299D02*
X266287D01*
X199894Y279399D02*
X266287D01*
X199894Y278499D02*
X266287D01*
X199894Y277599D02*
X266287D01*
X199894Y276699D02*
X266287D01*
X199894Y275799D02*
X266287D01*
X199894Y274899D02*
X266287D01*
X199894Y273999D02*
X266287D01*
X199894Y273099D02*
X266287D01*
X199894Y272199D02*
X266287D01*
X199894Y271299D02*
X266287D01*
X199894Y270399D02*
X266287D01*
X199894Y269499D02*
X266287D01*
X199894Y268599D02*
X266287D01*
X199894Y267699D02*
X266287D01*
X199894Y266799D02*
X266287D01*
X199894Y265899D02*
X266287D01*
X199894Y264999D02*
X266287D01*
X199894Y264099D02*
X266287D01*
X199894Y263199D02*
X266287D01*
X199894Y262299D02*
X266287D01*
X199894Y261399D02*
X266287D01*
X199894Y260499D02*
X266287D01*
X199894Y259599D02*
X266287D01*
X199894Y258699D02*
X266287D01*
X199894Y257799D02*
X266287D01*
X199894Y256899D02*
X266287D01*
X199894Y255999D02*
X266287D01*
X199894Y255099D02*
X266287D01*
X199894Y254199D02*
X266287D01*
X199894Y253299D02*
X266287D01*
X199894Y252399D02*
X266287D01*
X258577Y251499D02*
X266287D01*
X259477Y250599D02*
X266287D01*
X260377Y249699D02*
X266287D01*
X261277Y248799D02*
X266287D01*
X263087Y247899D02*
X266287D01*
X264147Y246999D02*
X266287D01*
X264552Y246099D02*
X266287D01*
X264616Y245199D02*
X266287D01*
X264367Y244299D02*
X266287D01*
X263674Y243399D02*
X266287D01*
X233962Y242499D02*
X266287D01*
X233469Y241599D02*
X266287D01*
X232032Y240699D02*
X266287D01*
X230555Y239799D02*
X266287D01*
X229655Y238899D02*
X266287D01*
X228755Y237999D02*
X266287D01*
X227855Y237099D02*
X266287D01*
X226955Y236199D02*
X266287D01*
X226055Y235299D02*
X266287D01*
X225155Y234399D02*
X266287D01*
X224255Y233499D02*
X266287D01*
X223355Y232599D02*
X266287D01*
X222940Y231699D02*
X266287D01*
X222585Y230799D02*
X266287D01*
X221667Y229899D02*
X266287D01*
X207246Y228999D02*
X266287D01*
X207633Y228099D02*
X266287D01*
X207683Y227199D02*
X266287D01*
X207418Y226299D02*
X266287D01*
X206695Y225399D02*
X266287D01*
X196300Y224499D02*
X266287D01*
X196300Y223599D02*
X266287D01*
X196309Y222699D02*
X266287D01*
X197088Y221799D02*
X266155D01*
X197988Y220899D02*
X265256D01*
X198888Y219999D02*
X264356D01*
X209434Y348699D02*
X264188D01*
X260838Y337899D02*
X263965D01*
X209761Y354999D02*
X263862D01*
X261017Y330699D02*
X263786D01*
X199788Y219099D02*
X263456D01*
X210398Y349599D02*
X263224D01*
X210567Y354099D02*
X263055D01*
X262044Y336999D02*
X262759D01*
X210911Y350499D02*
X262711D01*
X262170Y331599D02*
X262634D01*
X210999Y353199D02*
X262623D01*
X200688Y218199D02*
X262556D01*
X211156Y351399D02*
X262466D01*
X211183Y352299D02*
X262439D01*
X201588Y217299D02*
X261656D01*
X202488Y216399D02*
X260756D01*
X234089Y243399D02*
X260185D01*
X203388Y215499D02*
X259856D01*
X144863Y180399D02*
X259562D01*
X250799Y244299D02*
X259491D01*
X251335Y245199D02*
X259242D01*
X204288Y214599D02*
X259061D01*
X144863Y181299D02*
X258897D01*
X206315Y213699D02*
X258682D01*
X144863Y182199D02*
X258627D01*
X251491Y246099D02*
X258603D01*
X206966Y212799D02*
X258600D01*
X207193Y211899D02*
X258600D01*
X207107Y210999D02*
X258600D01*
X206674Y210099D02*
X258600D01*
X205517Y209199D02*
X258600D01*
X185494Y208299D02*
X258600D01*
X186394Y207399D02*
X258600D01*
X187294Y206499D02*
X258600D01*
X202489Y205599D02*
X258600D01*
X203578Y204699D02*
X258600D01*
X203991Y203799D02*
X258600D01*
X204062Y202899D02*
X258600D01*
X203820Y201999D02*
X258600D01*
X203140Y201099D02*
X258600D01*
X193594Y200199D02*
X258600D01*
X194494Y199299D02*
X258600D01*
X195394Y198399D02*
X258600D01*
X196294Y197499D02*
X258600D01*
X197194Y196599D02*
X258600D01*
X204752Y195699D02*
X258600D01*
X205416Y194799D02*
X258600D01*
X205650Y193899D02*
X258600D01*
X205572Y192999D02*
X258600D01*
X205148Y192099D02*
X258600D01*
X204025Y191199D02*
X258600D01*
X144863Y190299D02*
X258600D01*
X144863Y189399D02*
X258600D01*
X144863Y188499D02*
X258600D01*
X144863Y187599D02*
X258600D01*
X144863Y186699D02*
X258600D01*
X144863Y185799D02*
X258600D01*
X144863Y184899D02*
X258600D01*
X144863Y183999D02*
X258600D01*
X144863Y183099D02*
X258600D01*
X251338Y246999D02*
X257703D01*
X251014Y247899D02*
X256803D01*
X217531Y337899D02*
X256091D01*
X217710Y330699D02*
X255912D01*
X218737Y336999D02*
X254885D01*
X218820Y331599D02*
X254802D01*
X219363Y336099D02*
X254259D01*
X219409Y332499D02*
X254213D01*
X219695Y335199D02*
X253927D01*
X219716Y333399D02*
X253906D01*
X219807Y334299D02*
X253815D01*
X227187Y138999D02*
X233165D01*
X224827Y243399D02*
X228681D01*
X223927Y242499D02*
X227881D01*
X223027Y241599D02*
X226981D01*
X222127Y240699D02*
X226081D01*
X221227Y239799D02*
X225181D01*
X190597Y138999D02*
X224684D01*
X220327Y238899D02*
X224281D01*
X188766Y134499D02*
X224026D01*
X190627Y138099D02*
X223685D01*
X215499Y247899D02*
X223638D01*
X189490Y135399D02*
X223520D01*
X219427Y237999D02*
X223381D01*
X190474Y137199D02*
X223301D01*
X190116Y136299D02*
X223253D01*
X214599Y246999D02*
X223053D01*
X218527Y237099D02*
X222481D01*
X213699Y246099D02*
X222153D01*
X217627Y236199D02*
X221581D01*
X212422Y245199D02*
X221253D01*
X216727Y235299D02*
X220681D01*
X199894Y244299D02*
X220353D01*
X199894Y243399D02*
X219453D01*
X212128Y229899D02*
X218915D01*
X215827Y234399D02*
X218694D01*
X199894Y242499D02*
X218553D01*
X213321Y230799D02*
X217996D01*
X214927Y233499D02*
X217912D01*
X199894Y241599D02*
X217653D01*
X213764Y231699D02*
X217642D01*
X214027Y232599D02*
X217617D01*
X199894Y240699D02*
X216753D01*
X199894Y239799D02*
X215853D01*
X199894Y238899D02*
X214953D01*
X199894Y237999D02*
X214053D01*
X199894Y251499D02*
X213725D01*
X199894Y237099D02*
X213153D01*
X199894Y250599D02*
X212825D01*
X209657Y337899D02*
X212784D01*
X209836Y330699D02*
X212605D01*
X199894Y236199D02*
X212253D01*
X204684Y249699D02*
X211925D01*
X210863Y336999D02*
X211578D01*
X210988Y331599D02*
X211452D01*
X199936Y235299D02*
X211353D01*
X206240Y229899D02*
X210196D01*
X151585Y318999D02*
X209813D01*
X200788Y234399D02*
X209325D01*
X204388Y230799D02*
X209003D01*
X201688Y233499D02*
X208687D01*
X203488Y231699D02*
X208560D01*
X202588Y232599D02*
X208468D01*
X150379Y348699D02*
X205133D01*
X201783Y337899D02*
X204910D01*
X150705Y354999D02*
X204806D01*
X201962Y330699D02*
X204731D01*
X151343Y349599D02*
X204169D01*
X151512Y354099D02*
X204000D01*
X199894Y249699D02*
X203743D01*
X202989Y336999D02*
X203704D01*
X151856Y350499D02*
X203656D01*
X203114Y331599D02*
X203578D01*
X151944Y353199D02*
X203568D01*
X184594Y209199D02*
X203483D01*
X152100Y351399D02*
X203411D01*
X152128Y352299D02*
X203384D01*
X196300Y225399D02*
X203305D01*
X196300Y226299D02*
X202582D01*
X183694Y210099D02*
X202326D01*
X196300Y227199D02*
X202317D01*
X199894Y245199D02*
X202239D01*
X199894Y248799D02*
X202165D01*
X144863Y191199D02*
X201893D01*
X182794Y210999D02*
X201893D01*
X196300Y228099D02*
X201714D01*
X199894Y246099D02*
X201683D01*
X199894Y247899D02*
X201654D01*
X181894Y211899D02*
X201614D01*
X199894Y246999D02*
X201514D01*
X198097Y195699D02*
X201167D01*
X196300Y228999D02*
X200814D01*
X180994Y212799D02*
X200714D01*
X197780Y205599D02*
X200257D01*
X196300Y229899D02*
X199914D01*
X180094Y213699D02*
X199814D01*
X198243Y201099D02*
X199606D01*
X196300Y230799D02*
X199014D01*
X179194Y214599D02*
X198914D01*
X196300Y231699D02*
X198114D01*
X178294Y215499D02*
X198014D01*
X196395Y232599D02*
X197214D01*
X177394Y216399D02*
X197114D01*
X158475Y337899D02*
X197036D01*
X158655Y330699D02*
X196857D01*
X144863Y192099D02*
X196372D01*
X102500Y309099D02*
X196272D01*
X176494Y217299D02*
X196214D01*
X102500Y304599D02*
X196094D01*
X102500Y303699D02*
X196094D01*
X102500Y302799D02*
X196094D01*
X102500Y301899D02*
X196094D01*
X102500Y300999D02*
X196094D01*
X102500Y300099D02*
X196094D01*
X102500Y299199D02*
X196094D01*
X102500Y298299D02*
X196094D01*
X102500Y297399D02*
X196094D01*
X102500Y296499D02*
X196094D01*
X102500Y295599D02*
X196094D01*
X102500Y294699D02*
X196094D01*
X102500Y293799D02*
X196094D01*
X102500Y292899D02*
X196094D01*
X102500Y291999D02*
X196094D01*
X141586Y291099D02*
X196094D01*
X142543Y290199D02*
X196094D01*
X142912Y289299D02*
X196094D01*
X142949Y288399D02*
X196094D01*
X142668Y287499D02*
X196094D01*
X146363Y286599D02*
X196094D01*
X147318Y285699D02*
X196094D01*
X147686Y284799D02*
X196094D01*
X147722Y283899D02*
X196094D01*
X147440Y282999D02*
X196094D01*
X146685Y282099D02*
X196094D01*
X136200Y281199D02*
X196094D01*
X136200Y280299D02*
X196094D01*
X136200Y279399D02*
X196094D01*
X136200Y278499D02*
X196094D01*
X136200Y277599D02*
X196094D01*
X171199Y276699D02*
X196094D01*
X171919Y275799D02*
X196094D01*
X172183Y274899D02*
X196094D01*
X172132Y273999D02*
X196094D01*
X171744Y273099D02*
X196094D01*
X171400Y272199D02*
X196094D01*
X171400Y271299D02*
X196094D01*
X171400Y270399D02*
X196089D01*
X159681Y336999D02*
X195830D01*
X102500Y305499D02*
X195762D01*
X159765Y331599D02*
X195747D01*
X102500Y308199D02*
X195565D01*
X144863Y192999D02*
X195420D01*
X102500Y306399D02*
X195366D01*
X175594Y218199D02*
X195314D01*
X188194Y205599D02*
X195310D01*
X102500Y307299D02*
X195308D01*
X160308Y336099D02*
X195204D01*
X160354Y332499D02*
X195158D01*
X160640Y335199D02*
X194872D01*
X160661Y333399D02*
X194851D01*
X192694Y201099D02*
X194847D01*
X160752Y334299D02*
X194760D01*
X144863Y193899D02*
X194520D01*
X174694Y219099D02*
X194414D01*
X189094Y204699D02*
X194301D01*
X191794Y201999D02*
X194126D01*
X189994Y203799D02*
X193913D01*
X190894Y202899D02*
X193862D01*
X144863Y194799D02*
X193620D01*
X173794Y219999D02*
X193514D01*
X172894Y220899D02*
X192727D01*
X144863Y195699D02*
X192720D01*
X171400Y269499D02*
X192585D01*
X171400Y264999D02*
X192500D01*
X171400Y264099D02*
X192500D01*
X171400Y263199D02*
X192500D01*
X171400Y262299D02*
X192500D01*
X171400Y261399D02*
X192500D01*
X171400Y260499D02*
X192500D01*
X171400Y259599D02*
X192500D01*
X171400Y258699D02*
X192500D01*
X171400Y257799D02*
X192500D01*
X171400Y256899D02*
X192500D01*
X171400Y255999D02*
X192500D01*
X171400Y255099D02*
X192500D01*
X171400Y254199D02*
X192500D01*
X171400Y253299D02*
X192500D01*
X171400Y252399D02*
X192500D01*
X171400Y251499D02*
X192500D01*
X171400Y250599D02*
X192500D01*
X171400Y249699D02*
X192500D01*
X171400Y248799D02*
X192500D01*
X171400Y247899D02*
X192500D01*
X171400Y246999D02*
X192500D01*
X171400Y246099D02*
X192500D01*
X171400Y245199D02*
X192500D01*
X171400Y244299D02*
X192500D01*
X171400Y243399D02*
X192500D01*
X171400Y242499D02*
X192500D01*
X171400Y241599D02*
X192500D01*
X171400Y240699D02*
X192500D01*
X171400Y239799D02*
X192500D01*
X171400Y238899D02*
X192500D01*
X171400Y237999D02*
X192500D01*
X171400Y237099D02*
X192500D01*
X171400Y236199D02*
X192500D01*
X171400Y235299D02*
X192500D01*
X171400Y234399D02*
X192500D01*
X171400Y233499D02*
X192500D01*
X171400Y232599D02*
X192500D01*
X171400Y231699D02*
X192500D01*
X171400Y230799D02*
X192500D01*
X171400Y229899D02*
X192500D01*
X171400Y228999D02*
X192500D01*
X171400Y228099D02*
X192500D01*
X171400Y227199D02*
X192500D01*
X171400Y226299D02*
X192500D01*
X171400Y225399D02*
X192500D01*
X171400Y224499D02*
X192500D01*
X171400Y223599D02*
X192500D01*
X171400Y222699D02*
X192500D01*
X171994Y221799D02*
X192500D01*
X171400Y265899D02*
X192226D01*
X171400Y268599D02*
X191934D01*
X144863Y196599D02*
X191820D01*
X171400Y266799D02*
X191793D01*
X171400Y267699D02*
X191707D01*
X144863Y197499D02*
X190920D01*
X144863Y198399D02*
X190020D01*
X144863Y199299D02*
X189120D01*
X144863Y200199D02*
X188220D01*
X144863Y201099D02*
X187320D01*
X144863Y201999D02*
X186420D01*
X144863Y202899D02*
X185520D01*
X172301Y143499D02*
X184739D01*
X144863Y203799D02*
X184620D01*
X144863Y204699D02*
X183720D01*
X144863Y205599D02*
X182820D01*
X173201Y142599D02*
X182644D01*
X163301Y152499D02*
X182405D01*
X171401Y144399D02*
X182204D01*
X144863Y206499D02*
X181920D01*
X174101Y141699D02*
X181202D01*
X164201Y151599D02*
X181098D01*
X144863Y207399D02*
X181020D01*
X170501Y145299D02*
X181002D01*
X175001Y140799D02*
X180456D01*
X165101Y150699D02*
X180394D01*
X169601Y146199D02*
X180338D01*
X144863Y208299D02*
X180120D01*
X175901Y139899D02*
X180020D01*
X166001Y149799D02*
X179986D01*
X168701Y147099D02*
X179955D01*
X178601Y137199D02*
X179926D01*
X176801Y138999D02*
X179803D01*
X166901Y148899D02*
X179791D01*
X167801Y147999D02*
X179781D01*
X177701Y138099D02*
X179773D01*
X144863Y209199D02*
X179220D01*
X176544Y127299D02*
X179063D01*
X144863Y210099D02*
X178320D01*
X175644Y128199D02*
X177882D01*
X144863Y210999D02*
X177420D01*
X174744Y129099D02*
X176982D01*
X144863Y211899D02*
X176520D01*
X173844Y129999D02*
X176082D01*
X144863Y212799D02*
X175620D01*
X172733Y120099D02*
X175262D01*
X172944Y130899D02*
X175182D01*
X144863Y213699D02*
X174720D01*
X171833Y120999D02*
X174359D01*
X172044Y131799D02*
X174282D01*
X144863Y214599D02*
X173820D01*
X170933Y121899D02*
X173459D01*
X124542Y110199D02*
X173457D01*
X171144Y132699D02*
X173382D01*
X144863Y215499D02*
X172920D01*
X170033Y122799D02*
X172559D01*
X170244Y133599D02*
X172482D01*
X144863Y216399D02*
X172020D01*
X124801Y111099D02*
X171834D01*
X169133Y123699D02*
X171659D01*
X169344Y134499D02*
X171582D01*
X144863Y217299D02*
X171120D01*
X124981Y111999D02*
X170934D01*
X168233Y124599D02*
X170759D01*
X168444Y135399D02*
X170682D01*
X144863Y218199D02*
X170220D01*
X125088Y112899D02*
X170034D01*
X167333Y125499D02*
X169859D01*
X167544Y136299D02*
X169782D01*
X144863Y219099D02*
X169320D01*
X125122Y113799D02*
X169134D01*
X166433Y126399D02*
X168959D01*
X166644Y137199D02*
X168882D01*
X144863Y219999D02*
X168420D01*
X125085Y114699D02*
X168234D01*
X165533Y127299D02*
X168059D01*
X165744Y138099D02*
X167982D01*
X136200Y276699D02*
X167801D01*
X144863Y220899D02*
X167736D01*
X145637Y272199D02*
X167600D01*
X145344Y271299D02*
X167600D01*
X144863Y270399D02*
X167600D01*
X144863Y269499D02*
X167600D01*
X144863Y268599D02*
X167600D01*
X144863Y267699D02*
X167600D01*
X144863Y266799D02*
X167600D01*
X144863Y265899D02*
X167600D01*
X144863Y264999D02*
X167600D01*
X144863Y264099D02*
X167600D01*
X144863Y263199D02*
X167600D01*
X144863Y262299D02*
X167600D01*
X144863Y261399D02*
X167600D01*
X144863Y260499D02*
X167600D01*
X144863Y259599D02*
X167600D01*
X144863Y258699D02*
X167600D01*
X144863Y257799D02*
X167600D01*
X144863Y256899D02*
X167600D01*
X144863Y255999D02*
X167600D01*
X144863Y255099D02*
X167600D01*
X144863Y254199D02*
X167600D01*
X144863Y253299D02*
X167600D01*
X144863Y252399D02*
X167600D01*
X144863Y251499D02*
X167600D01*
X144863Y250599D02*
X167600D01*
X144863Y249699D02*
X167600D01*
X144863Y248799D02*
X167600D01*
X144863Y247899D02*
X167600D01*
X144863Y246999D02*
X167600D01*
X144863Y246099D02*
X167600D01*
X144863Y245199D02*
X167600D01*
X144863Y244299D02*
X167600D01*
X144863Y243399D02*
X167600D01*
X144863Y242499D02*
X167600D01*
X144863Y241599D02*
X167600D01*
X144863Y240699D02*
X167600D01*
X144863Y239799D02*
X167600D01*
X144863Y238899D02*
X167600D01*
X144863Y237999D02*
X167600D01*
X144863Y237099D02*
X167600D01*
X144863Y236199D02*
X167600D01*
X144863Y235299D02*
X167600D01*
X144863Y234399D02*
X167600D01*
X144863Y233499D02*
X167600D01*
X144863Y232599D02*
X167600D01*
X144863Y231699D02*
X167600D01*
X144863Y230799D02*
X167600D01*
X144863Y229899D02*
X167600D01*
X144863Y228999D02*
X167600D01*
X144863Y228099D02*
X167600D01*
X144863Y227199D02*
X167600D01*
X144863Y226299D02*
X167600D01*
X144863Y225399D02*
X167600D01*
X144863Y224499D02*
X167600D01*
X144863Y223599D02*
X167600D01*
X144863Y222699D02*
X167600D01*
X144863Y221799D02*
X167600D01*
X124975Y115599D02*
X167334D01*
X145611Y273099D02*
X167256D01*
X164633Y128199D02*
X167159D01*
X164844Y138999D02*
X167082D01*
X136200Y275799D02*
X167081D01*
X145255Y273999D02*
X166868D01*
X144331Y274899D02*
X166817D01*
X124791Y116499D02*
X166434D01*
X163733Y129099D02*
X166259D01*
X163944Y139899D02*
X166182D01*
X124529Y117399D02*
X165534D01*
X162833Y129999D02*
X165359D01*
X163044Y140799D02*
X165282D01*
X124183Y118299D02*
X164634D01*
X161933Y130899D02*
X164459D01*
X162144Y141699D02*
X164382D01*
X123744Y119199D02*
X163734D01*
X161033Y131799D02*
X163559D01*
X161244Y142599D02*
X163482D01*
X123199Y120099D02*
X162834D01*
X160133Y132699D02*
X162659D01*
X160344Y143499D02*
X162582D01*
X122528Y120999D02*
X161934D01*
X159233Y133599D02*
X161759D01*
X159444Y144399D02*
X161682D01*
X121700Y121899D02*
X161034D01*
X158333Y134499D02*
X160859D01*
X158544Y145299D02*
X160782D01*
X120658Y122799D02*
X160134D01*
X157433Y135399D02*
X159959D01*
X157644Y146199D02*
X159882D01*
X119281Y123699D02*
X159234D01*
X156533Y136299D02*
X159059D01*
X156744Y147099D02*
X158982D01*
X117185Y124599D02*
X158334D01*
X155633Y137199D02*
X158159D01*
X155844Y147999D02*
X158082D01*
X102500Y125499D02*
X157434D01*
X154733Y138099D02*
X157259D01*
X154944Y148899D02*
X157182D01*
X121751Y126399D02*
X156534D01*
X153833Y138999D02*
X156359D01*
X154044Y149799D02*
X156282D01*
X123239Y127299D02*
X155634D01*
X152933Y139899D02*
X155459D01*
X153144Y150699D02*
X155382D01*
X124087Y128199D02*
X154734D01*
X152033Y140799D02*
X154559D01*
X152244Y151599D02*
X154482D01*
X124635Y129099D02*
X153834D01*
X150601Y337899D02*
X153729D01*
X151133Y141699D02*
X153659D01*
X151344Y152499D02*
X153582D01*
X150781Y330699D02*
X153550D01*
X124977Y129999D02*
X152934D01*
X150233Y142599D02*
X152759D01*
X150444Y153399D02*
X152682D01*
X151808Y336999D02*
X152523D01*
X151933Y331599D02*
X152397D01*
X125153Y130899D02*
X152034D01*
X149333Y143499D02*
X151859D01*
X149544Y154299D02*
X151782D01*
X125177Y131799D02*
X151134D01*
X148433Y144399D02*
X150959D01*
X148644Y155199D02*
X150882D01*
X120672Y318999D02*
X150581D01*
X125052Y132699D02*
X150234D01*
X147533Y145299D02*
X150059D01*
X147744Y156099D02*
X149982D01*
X124767Y133599D02*
X149334D01*
X146633Y146199D02*
X149159D01*
X102500Y314499D02*
X149114D01*
X146844Y156999D02*
X149082D01*
X102500Y318099D02*
X149029D01*
X102500Y315399D02*
X148554D01*
X102500Y317199D02*
X148521D01*
X124293Y134499D02*
X148434D01*
X102500Y316299D02*
X148383D01*
X145733Y147099D02*
X148259D01*
X145944Y157899D02*
X148182D01*
X123561Y135399D02*
X147534D01*
X144637Y147999D02*
X147359D01*
X145044Y158799D02*
X147282D01*
X122366Y136299D02*
X146634D01*
X126869Y148899D02*
X146459D01*
X144144Y159699D02*
X146382D01*
X124812Y348699D02*
X146078D01*
X142727Y337899D02*
X145855D01*
X120766Y354999D02*
X145751D01*
X102500Y137199D02*
X145734D01*
X142907Y330699D02*
X145676D01*
X126165Y149799D02*
X145559D01*
X143244Y160599D02*
X145482D01*
X124557Y349599D02*
X145114D01*
X121785Y354099D02*
X144945D01*
X102500Y138099D02*
X144834D01*
X124858Y150699D02*
X144659D01*
X143934Y336999D02*
X144649D01*
X124219Y350499D02*
X144601D01*
X142344Y161499D02*
X144582D01*
X144059Y331599D02*
X144523D01*
X122596Y353199D02*
X144513D01*
X123789Y351399D02*
X144356D01*
X123254Y352299D02*
X144328D01*
X102500Y138999D02*
X143934D01*
X102500Y151599D02*
X143759D01*
X142188Y286599D02*
X143725D01*
X141444Y162399D02*
X143682D01*
X136271Y282099D02*
X143403D01*
X102500Y139899D02*
X143034D01*
X124852Y152499D02*
X142859D01*
X140544Y163299D02*
X142782D01*
X102500Y140799D02*
X142134D01*
X126163Y153399D02*
X141959D01*
X139644Y164199D02*
X141882D01*
X139609Y274899D02*
X141594D01*
X127277Y147999D02*
X141265D01*
X102500Y141699D02*
X141234D01*
X126867Y154299D02*
X141059D01*
X138744Y165099D02*
X140982D01*
X125059Y142599D02*
X140341D01*
X127472Y147099D02*
X140202D01*
X127276Y155199D02*
X140159D01*
X137844Y165999D02*
X140082D01*
X126261Y143499D02*
X139757D01*
X127482Y146199D02*
X139688D01*
X126925Y144399D02*
X139491D01*
X127308Y145299D02*
X139470D01*
X127472Y156099D02*
X139259D01*
X136944Y166899D02*
X139182D01*
X102500Y291099D02*
X138954D01*
X127482Y156999D02*
X138359D01*
X136044Y167799D02*
X138282D01*
X121653Y337899D02*
X137981D01*
X102500Y330699D02*
X137802D01*
X127309Y157899D02*
X137459D01*
X135144Y168699D02*
X137382D01*
X120598Y336999D02*
X136775D01*
X102500Y331599D02*
X136692D01*
X134244Y169599D02*
X136563D01*
X126926Y158799D02*
X136559D01*
X133344Y170499D02*
X136294D01*
X134986Y197499D02*
X136293D01*
X134086Y196599D02*
X136293D01*
X133186Y195699D02*
X136293D01*
X132286Y194799D02*
X136293D01*
X131386Y193899D02*
X136293D01*
X130486Y192999D02*
X136293D01*
X129586Y192099D02*
X136293D01*
X128686Y191199D02*
X136293D01*
X127786Y190299D02*
X136293D01*
X126886Y189399D02*
X136293D01*
X125986Y188499D02*
X136293D01*
X125086Y187599D02*
X136293D01*
X124186Y186699D02*
X136293D01*
X123286Y185799D02*
X136293D01*
X122386Y184899D02*
X136293D01*
X121486Y183999D02*
X136293D01*
X120586Y183099D02*
X136293D01*
X119686Y182199D02*
X136293D01*
X119375Y181299D02*
X136293D01*
X127270Y180399D02*
X136293D01*
X127500Y179499D02*
X136293D01*
X127500Y178599D02*
X136293D01*
X127500Y177699D02*
X136293D01*
X127500Y176799D02*
X136293D01*
X127944Y175899D02*
X136293D01*
X128844Y174999D02*
X136293D01*
X129744Y174099D02*
X136293D01*
X130644Y173199D02*
X136293D01*
X131544Y172299D02*
X136293D01*
X132444Y171399D02*
X136293D01*
X119199Y336099D02*
X136149D01*
X102500Y332499D02*
X136103D01*
X117038Y335199D02*
X135817D01*
X102500Y333399D02*
X135795D01*
X102500Y334299D02*
X135705D01*
X126263Y159699D02*
X135659D01*
X125064Y160599D02*
X134759D01*
X120788Y161499D02*
X133859D01*
X124612Y162399D02*
X132959D01*
X126058Y163299D02*
X132059D01*
X102500Y290199D02*
X131922D01*
X126806Y164199D02*
X131159D01*
X102500Y289299D02*
X131012D01*
X127242Y165099D02*
X130259D01*
X102500Y288399D02*
X130112D01*
X102500Y287499D02*
X129376D01*
X127460Y165999D02*
X129359D01*
X102500Y286599D02*
X129200D01*
X102500Y285699D02*
X129200D01*
X102500Y284799D02*
X129200D01*
X126859Y283899D02*
X129200D01*
X127694Y282999D02*
X129200D01*
X127982Y282099D02*
X129200D01*
X128000Y281199D02*
X129200D01*
X128000Y280299D02*
X129200D01*
X128000Y279399D02*
X129200D01*
X128000Y278499D02*
X129200D01*
X128000Y277599D02*
X129200D01*
X128000Y276699D02*
X129200D01*
X128000Y275799D02*
X129200D01*
X128000Y274899D02*
X129200D01*
X128000Y273999D02*
X129200D01*
X128000Y273099D02*
X129200D01*
X128000Y272199D02*
X129200D01*
X128000Y271299D02*
X129200D01*
X128000Y270399D02*
X129200D01*
X128000Y269499D02*
X129200D01*
X128000Y268599D02*
X129200D01*
X128000Y267699D02*
X129200D01*
X128000Y266799D02*
X129200D01*
X128000Y265899D02*
X129200D01*
X128000Y264999D02*
X129200D01*
X128000Y264099D02*
X129200D01*
X128000Y263199D02*
X129200D01*
X128000Y262299D02*
X129200D01*
X128000Y261399D02*
X129200D01*
X128000Y260499D02*
X129200D01*
X128000Y259599D02*
X129200D01*
X128000Y258699D02*
X129200D01*
X128000Y257799D02*
X129200D01*
X128000Y256899D02*
X129200D01*
X128000Y255999D02*
X129200D01*
X128000Y255099D02*
X129200D01*
X128000Y254199D02*
X129200D01*
X128000Y253299D02*
X129200D01*
X128000Y252399D02*
X129200D01*
X128000Y251499D02*
X129200D01*
X128000Y250599D02*
X129200D01*
X128000Y249699D02*
X129200D01*
X128000Y248799D02*
X129200D01*
X128000Y247899D02*
X129200D01*
X128000Y246999D02*
X129200D01*
X128000Y246099D02*
X129200D01*
X128000Y245199D02*
X129200D01*
X128000Y244299D02*
X129200D01*
X128000Y243399D02*
X129200D01*
X128000Y242499D02*
X129200D01*
X128000Y241599D02*
X129200D01*
X128000Y240699D02*
X129200D01*
X128000Y239799D02*
X129200D01*
X128000Y238899D02*
X129200D01*
X128000Y237999D02*
X129200D01*
X128000Y237099D02*
X129200D01*
X128000Y236199D02*
X129200D01*
X128000Y235299D02*
X129200D01*
X128000Y234399D02*
X129200D01*
X128000Y233499D02*
X129200D01*
X128000Y232599D02*
X129200D01*
X128000Y231699D02*
X129200D01*
X128000Y230799D02*
X129200D01*
X128000Y229899D02*
X129200D01*
X128000Y228999D02*
X129200D01*
X128000Y228099D02*
X129200D01*
X128000Y227199D02*
X129200D01*
X128000Y226299D02*
X129200D01*
X128000Y225399D02*
X129200D01*
X128000Y224499D02*
X129200D01*
X128000Y223599D02*
X129200D01*
X128000Y222699D02*
X129200D01*
X128000Y221799D02*
X129200D01*
X128000Y220899D02*
X129200D01*
X128000Y219999D02*
X129200D01*
X128000Y219099D02*
X129200D01*
X128000Y218199D02*
X129200D01*
X128000Y217299D02*
X129200D01*
X128000Y216399D02*
X129200D01*
X128000Y215499D02*
X129200D01*
X128000Y214599D02*
X129200D01*
X128000Y213699D02*
X129200D01*
X128000Y212799D02*
X129200D01*
X128000Y211899D02*
X129200D01*
X128000Y210999D02*
X129200D01*
X128000Y210099D02*
X129200D01*
X128000Y209199D02*
X129200D01*
X128000Y208299D02*
X129200D01*
X127900Y207399D02*
X129200D01*
X127420Y206499D02*
X129200D01*
X102964Y205599D02*
X129200D01*
X102500Y204699D02*
X129200D01*
X102500Y203799D02*
X129200D01*
X102500Y202899D02*
X129200D01*
X102500Y201999D02*
X129012D01*
X127566Y166899D02*
X128459D01*
X102500Y201099D02*
X128112D01*
X102500Y200199D02*
X127212D01*
X102500Y199299D02*
X126312D01*
X102500Y198399D02*
X125412D01*
X102500Y197499D02*
X124512D01*
X102500Y196599D02*
X123612D01*
X102500Y195699D02*
X122712D01*
X102500Y194799D02*
X121812D01*
X120614Y162399D02*
X121388D01*
X102500Y152499D02*
X121148D01*
X102500Y150699D02*
X121142D01*
X102500Y142599D02*
X120941D01*
X102500Y193899D02*
X120912D01*
X102500Y192999D02*
X120012D01*
X102500Y153399D02*
X119837D01*
X102500Y149799D02*
X119835D01*
X102500Y143499D02*
X119739D01*
X102500Y154299D02*
X119133D01*
X102500Y148899D02*
X119131D01*
X102500Y192099D02*
X119112D01*
X102500Y144399D02*
X119075D01*
X102500Y155199D02*
X118724D01*
X102500Y147999D02*
X118723D01*
X102500Y318999D02*
X118698D01*
X102500Y145299D02*
X118692D01*
X102500Y157899D02*
X118690D01*
X102500Y329799D02*
X118587D01*
X102500Y156099D02*
X118528D01*
X102500Y147099D02*
X118528D01*
X102500Y146199D02*
X118518D01*
X102500Y156999D02*
X118518D01*
X102500Y191199D02*
X118212D01*
X102500Y158799D02*
X118114D01*
X102500Y126399D02*
X117619D01*
X102500Y190299D02*
X117312D01*
X102500Y159699D02*
X117214D01*
X102500Y136299D02*
X117005D01*
X102500Y319899D02*
X116538D01*
X102500Y328899D02*
X116507D01*
X102500Y189399D02*
X116412D01*
X102500Y160599D02*
X116314D01*
X102500Y127299D02*
X116131D01*
X102500Y135399D02*
X115810D01*
X102500Y320799D02*
X115536D01*
X102500Y327999D02*
X115518D01*
X102500Y188499D02*
X115512D01*
X102500Y161499D02*
X115414D01*
X102500Y128199D02*
X115283D01*
X102500Y134499D02*
X115077D01*
X102500Y321699D02*
X114899D01*
X102500Y327099D02*
X114887D01*
X102500Y129099D02*
X114735D01*
X102500Y187599D02*
X114612D01*
X102500Y133599D02*
X114603D01*
X102500Y162399D02*
X114514D01*
X102500Y322599D02*
X114492D01*
X102500Y326199D02*
X114484D01*
X102500Y129999D02*
X114393D01*
X102500Y132699D02*
X114318D01*
X102500Y323499D02*
X114261D01*
X102500Y325299D02*
X114257D01*
X102500Y130899D02*
X114218D01*
X102500Y131799D02*
X114193D01*
X102500Y324399D02*
X114185D01*
X102500Y186699D02*
X113712D01*
X102500Y163299D02*
X113614D01*
X102500Y185799D02*
X112850D01*
X102500Y164199D02*
X112785D01*
X102500Y184899D02*
X112510D01*
X102500Y165099D02*
X112503D01*
X102500Y183999D02*
X112500D01*
X102500Y183099D02*
X112500D01*
X102500Y182199D02*
X112500D01*
X102500Y181299D02*
X112500D01*
X102500Y180399D02*
X112500D01*
X102500Y179499D02*
X112500D01*
X102500Y178599D02*
X112500D01*
X102500Y177699D02*
X112500D01*
X102500Y176799D02*
X112500D01*
X102500Y175899D02*
X112500D01*
X102500Y174999D02*
X112500D01*
X102500Y174099D02*
X112500D01*
X102500Y173199D02*
X112500D01*
X102500Y172299D02*
X112500D01*
X102500Y171399D02*
X112500D01*
X102500Y170499D02*
X112500D01*
X102500Y169599D02*
X112500D01*
X102500Y168699D02*
X112500D01*
X102500Y167799D02*
X112500D01*
X102500Y166899D02*
X112500D01*
X102500Y165999D02*
X112500D01*
X102500Y335199D02*
X110521D01*
X102500Y124599D02*
X110374D01*
X102500Y336099D02*
X108360D01*
X102500Y123699D02*
X108278D01*
X102500Y336999D02*
X106961D01*
X102500Y122799D02*
X106901D01*
X102500Y337899D02*
X105906D01*
X102500Y121899D02*
X105859D01*
X102500Y338799D02*
X105068D01*
X102500Y120999D02*
X105031D01*
X102500Y339699D02*
X104391D01*
X102500Y120099D02*
X104360D01*
X102500Y340599D02*
X103840D01*
X102500Y119199D02*
X103815D01*
X102633Y341499D02*
X103367D01*
X102681Y118299D02*
X103319D01*
X460571Y161799D02*
X461632Y162860D01*
X460571Y166705D02*
X461632Y165644D01*
X469807Y166705D02*
X468746Y165644D01*
X469807Y161799D02*
X468746Y162860D01*
X460571Y127784D02*
X461632Y128844D01*
X460571Y132689D02*
X461632Y131628D01*
X469807Y132689D02*
X468746Y131628D01*
X469807Y127784D02*
X468746Y128844D01*
X255004Y331382D02*
X256064Y332442D01*
X255004Y337122D02*
X256064Y336061D01*
X261925Y337122D02*
X260865Y336061D01*
X261925Y331382D02*
X260865Y332442D01*
X195949Y331382D02*
X197009Y332442D01*
X195949Y337122D02*
X197009Y336061D01*
X202870Y337122D02*
X201810Y336061D01*
X202870Y331382D02*
X201810Y332442D01*
X314059Y331382D02*
X315120Y332442D01*
X314059Y337122D02*
X315120Y336061D01*
X320980Y337122D02*
X319920Y336061D01*
X320980Y331382D02*
X319920Y332442D01*
X136894Y331382D02*
X137954Y332442D01*
X136894Y337122D02*
X137954Y336061D01*
X143815Y337122D02*
X142754Y336061D01*
X143815Y331382D02*
X142754Y332442D01*
X373114Y331382D02*
X374175Y332442D01*
X373114Y337122D02*
X374175Y336061D01*
X380036Y337122D02*
X378975Y336061D01*
X380036Y331382D02*
X378975Y332442D01*
X477500Y161799D02*
X478561Y162860D01*
X477500Y166705D02*
X478561Y165644D01*
X477500Y127784D02*
X478561Y128844D01*
X477500Y132689D02*
X478561Y131628D01*
X388349Y118149D02*
X387288Y117088D01*
X382051Y118149D02*
X383112Y117088D01*
X382051Y111851D02*
X383112Y112912D01*
X388349Y111851D02*
X387288Y112912D01*
X126182Y143418D02*
X125121Y144479D01*
X126182Y149782D02*
X125121Y148721D01*
X119818Y149782D02*
X120879Y148721D01*
X119818Y143418D02*
X120879Y144479D01*
X432169Y331382D02*
X433230Y332442D01*
X432169Y337122D02*
X433230Y336061D01*
X439091Y337122D02*
X438030Y336061D01*
X439091Y331382D02*
X438030Y332442D01*
X100000Y100000D02*
Y208100D01*
X125500*
Y281800*
X100000*
Y359843*
X485827*
Y100000*
X100000*
G54D112*
X266339Y351969D03*
X443504D03*
X384449D03*
X148228D03*
X325394D03*
X207283D03*
G54D134*
X122800Y124600D03*
Y104600D03*
X104800Y123600D03*
X176418Y117891D03*
X162800Y104600D03*
X142800Y124600D03*
Y104600D03*
X214100Y118100D03*
X202800Y104600D03*
X182800D03*
X242800D03*
X222800D03*
X287900Y118200D03*
X282800Y104600D03*
X262800D03*
X324115Y118530D03*
X304160Y118687D03*
X322800Y104600D03*
X302800D03*
X343090Y117989D03*
X370145Y120328D03*
X362800Y124600D03*
Y104600D03*
X342800D03*
X403530Y121006D03*
X412407Y119819D03*
X402800Y104600D03*
X382800D03*
X453093Y117590D03*
X430701Y117107D03*
X442800Y104600D03*
X422800Y124600D03*
Y104600D03*
X462800Y124600D03*
Y104600D03*
X133241Y135725D03*
X135981Y157322D03*
X140300Y164700D03*
X104800Y163600D03*
Y143600D03*
X142951Y144931D03*
X149421Y144677D03*
X163027Y131073D03*
X163273Y141751D03*
X181182Y126385D03*
X163065Y154520D03*
X172214Y145448D03*
X162800Y164600D03*
X171000Y161000D03*
X201084Y163226D03*
X213880Y150371D03*
X193695Y134560D03*
X209791Y139392D03*
X214200Y126300D03*
X202800Y144600D03*
X182800Y164600D03*
X225935Y136606D03*
X234417D03*
X225764Y126207D03*
X222153Y135220D03*
X237957Y158130D03*
X252683Y148292D03*
X242800Y164600D03*
X300700Y144100D03*
X270681Y151906D03*
X292305Y127336D03*
X280123Y126340D03*
X268737Y157828D03*
X298449Y148118D03*
X283723Y147997D03*
X284521Y139676D03*
X275776Y134700D03*
X282800Y164600D03*
X264100Y136100D03*
X262100Y158900D03*
X304832Y141061D03*
X314319Y126278D03*
X337296Y137181D03*
X337598Y145088D03*
X338020Y128973D03*
X305221Y156252D03*
X318378Y157580D03*
X323804Y140860D03*
X309038Y144286D03*
X305600Y134100D03*
X328612Y149634D03*
X322800Y164600D03*
X317495Y149634D03*
X302800Y164600D03*
X326098Y126751D03*
X376155Y133772D03*
X352923Y150692D03*
X360372Y163275D03*
X353068Y158008D03*
X371606Y132514D03*
X352954Y130136D03*
X346741Y141844D03*
X357236Y144189D03*
X373315Y150166D03*
X362029Y155175D03*
X372048Y163383D03*
X342800Y164600D03*
X399917Y134275D03*
X399872Y129319D03*
X417812Y158420D03*
X417790Y143134D03*
X389276Y159692D03*
X408360Y133923D03*
X389291Y153256D03*
X401285Y153525D03*
X397287Y164442D03*
X413728Y152731D03*
X402800Y144600D03*
X382800Y164600D03*
Y144600D03*
X386500Y130000D03*
X441340Y149154D03*
X458665Y156543D03*
X458676Y137552D03*
X452900Y152900D03*
X457366Y164280D03*
X453208Y144235D03*
X454361Y158689D03*
X437216Y157728D03*
X422762Y153115D03*
X455968Y130179D03*
X446876Y135093D03*
X441319Y133743D03*
X438320Y138510D03*
X422667Y129657D03*
X442800Y164600D03*
X422800Y144600D03*
X430710Y149215D03*
X473770Y146602D03*
X481800Y138100D03*
Y158100D03*
X129138Y183097D03*
X134680Y183773D03*
X127700Y203400D03*
X104800Y203600D03*
Y183600D03*
X154724Y194845D03*
X152917Y185004D03*
X145458Y183230D03*
X149180Y167328D03*
X148834Y172979D03*
X161272Y187395D03*
X148194Y201705D03*
X165703Y181112D03*
X178087Y173765D03*
X202959Y193679D03*
X201373Y203140D03*
X196545Y203198D03*
X214703Y201531D03*
X184273Y179872D03*
X261600Y182600D03*
X256900Y203400D03*
X237700Y177600D03*
X228400Y188700D03*
X296656Y187320D03*
X270523Y192993D03*
X265694Y177603D03*
X277800Y178600D03*
X285800D03*
X294796Y192026D03*
X285500Y192100D03*
X268723Y201200D03*
X276000Y203000D03*
X262200Y165300D03*
X335200Y195300D03*
X303000Y193600D03*
X326300Y182400D03*
X304907Y177689D03*
X309368Y203083D03*
X320896Y185924D03*
X319689Y177897D03*
X330386Y198110D03*
X331472Y185858D03*
X339475Y177525D03*
X338706Y185405D03*
X340897Y194016D03*
X316000Y193400D03*
X353300Y201000D03*
X371615Y169346D03*
X365650Y169539D03*
X367099Y177023D03*
X377057Y168574D03*
X362589Y187604D03*
X379232Y189587D03*
X403534Y200752D03*
X403059Y184247D03*
X401052Y204506D03*
X415846Y191301D03*
X412795Y199352D03*
X392809Y175514D03*
X384179Y177989D03*
X407000Y166000D03*
X393000D03*
X461362Y179660D03*
X461333Y184128D03*
X445000Y189000D03*
X433714Y165533D03*
X450161Y169465D03*
X431029Y169364D03*
X424650Y196490D03*
X439527Y192339D03*
X454501Y184993D03*
X436516Y184028D03*
X455662Y177686D03*
X422800Y184600D03*
X477874Y180883D03*
X481012Y171347D03*
X462800Y204600D03*
X128692Y218275D03*
X128451Y236200D03*
X165415Y233531D03*
X159957Y233484D03*
X154358Y233391D03*
Y239052D03*
X159848D03*
X165447Y239068D03*
X165478Y244495D03*
X160004Y244526D03*
X154327Y244604D03*
X162800Y224600D03*
X204500Y211700D03*
X205000Y227500D03*
X211162Y232420D03*
X220291Y232222D03*
X199024Y210837D03*
X206810Y214760D03*
X182800Y244600D03*
Y224600D03*
X189300Y205200D03*
X231390Y243321D03*
X236580Y217805D03*
X241393Y233349D03*
X229141Y225563D03*
X261037Y217912D03*
X259081Y240493D03*
X288700Y236723D03*
X295100Y233100D03*
X282700Y241000D03*
X301300Y215700D03*
X284619Y236879D03*
X276448Y213874D03*
X295682Y216423D03*
X297525Y228358D03*
X274165Y232262D03*
X264750Y233349D03*
X275957Y241070D03*
X300121Y208825D03*
X337700Y216000D03*
X321700Y205300D03*
X312577Y207804D03*
X310444Y214424D03*
X334188Y206741D03*
X338513Y211182D03*
X322407Y229967D03*
X307800Y218100D03*
X342500Y207400D03*
X345894Y211969D03*
X353239Y212450D03*
X369880Y229777D03*
X348465Y230915D03*
X376012Y242027D03*
X379246Y213194D03*
X389237Y214280D03*
X410114Y226761D03*
X410106Y234657D03*
X418558Y211920D03*
X410130Y208393D03*
X406851Y210056D03*
X406700Y223600D03*
X387380Y219945D03*
X402800Y244600D03*
X399181Y218585D03*
X393008Y208368D03*
X424951Y221585D03*
X439055Y215919D03*
X423651Y213000D03*
X481800Y214600D03*
Y234600D03*
X462800Y244600D03*
Y224600D03*
X138193Y272600D03*
X128513Y254167D03*
X128585Y272276D03*
X145044Y284243D03*
X169500Y274600D03*
X142963Y272571D03*
X162800Y264600D03*
X194400Y267500D03*
X204214Y247040D03*
X217400Y246300D03*
X201968Y283926D03*
X206223Y275650D03*
X182800Y264600D03*
X248791Y246103D03*
X242858Y269373D03*
X224552Y266870D03*
X288700Y274051D03*
X295100Y268800D03*
X282700Y271431D03*
X261929Y245460D03*
X301835Y272230D03*
X294341Y275236D03*
X276888Y281964D03*
X291458Y267510D03*
X285576Y267740D03*
X273283Y268369D03*
X273748Y275739D03*
X264570Y268121D03*
X263763Y284021D03*
X282800Y284600D03*
X305800Y273953D03*
Y255200D03*
X318733Y276630D03*
X318741Y259140D03*
X337386Y275469D03*
Y262469D03*
X327594Y272127D03*
X329239Y254035D03*
X310892Y253975D03*
X341828Y261318D03*
X309426Y283929D03*
X309989Y271985D03*
X322800Y284600D03*
X302800D03*
X371479Y268035D03*
X371185Y254216D03*
X345414D03*
X370974Y261453D03*
X342552Y268741D03*
X362800Y284600D03*
X342800D03*
X391198Y252475D03*
X393031Y267727D03*
X392685Y261769D03*
X414751Y267727D03*
X414772Y261096D03*
X392610Y279751D03*
X407759Y277760D03*
X402025Y268163D03*
X382800Y284600D03*
X416044Y277885D03*
X422477Y270541D03*
X432571Y274993D03*
X427500Y282000D03*
X429200Y260700D03*
X438107Y259317D03*
X437255Y246051D03*
X436856Y266266D03*
X481800Y254600D03*
Y274600D03*
X462800Y284600D03*
Y264600D03*
X140270Y288741D03*
X122800Y304600D03*
X127200Y285700D03*
X104800Y291100D03*
Y311100D03*
X151083Y316346D03*
X181907Y285375D03*
X175432Y290822D03*
X158052Y296847D03*
X162800Y324600D03*
Y304600D03*
X142800Y324600D03*
X197994Y307018D03*
X210300Y316343D03*
X203255Y291305D03*
X202800Y324600D03*
Y304600D03*
X182800Y324600D03*
Y304600D03*
X242800Y324600D03*
X222800D03*
Y304600D03*
X269287Y316300D03*
X263952Y291285D03*
X282800Y324600D03*
Y304600D03*
X262800Y324600D03*
Y304600D03*
X328093Y316300D03*
X330464Y321403D03*
X324798Y312364D03*
X309185Y304208D03*
X322800Y324600D03*
Y304600D03*
X302800Y324600D03*
Y304600D03*
X376577Y302390D03*
X376897Y323949D03*
X366210Y320297D03*
X365364Y311916D03*
X354606Y321161D03*
X362800Y324600D03*
Y304600D03*
X342800Y324600D03*
Y304600D03*
X414316Y295312D03*
X388000Y316300D03*
X408683D03*
X393539Y303831D03*
X404457Y303139D03*
X400033Y289227D03*
X412095Y321302D03*
X418190Y310136D03*
X395223Y310217D03*
X394230Y323309D03*
X402800Y324600D03*
X442049Y302500D03*
X427500Y309900D03*
X431414Y290145D03*
X450436Y287269D03*
X450556Y295658D03*
X450349Y306052D03*
X450728Y314011D03*
X452339Y321402D03*
X426821Y320095D03*
X422800Y324600D03*
X437400Y305600D03*
X437200Y294800D03*
X464279Y317991D03*
X481800Y294600D03*
Y314600D03*
X462800Y324600D03*
X104800Y331100D03*
X162800Y344600D03*
X142800D03*
X202800D03*
X182800D03*
X242800D03*
X222800D03*
X282800D03*
X262800D03*
X322800D03*
X302800D03*
X362800D03*
X342800D03*
X402800D03*
X382800D03*
X442800D03*
X422800D03*
X481800Y334600D03*
G54D154*
X274213Y334252D03*
X266339D03*
X258465D03*
X451378D03*
X443504D03*
X435630D03*
X392323D03*
X384449D03*
X376575D03*
X156102D03*
X148228D03*
X140354D03*
X333268D03*
X325394D03*
X317520D03*
X215157D03*
X207283D03*
X199409D03*
G54D172*
X185200Y138400D03*
Y148400D03*
G54D178*
X465189Y130236D03*
Y164252D03*
G54D179*
X481528Y130236D03*
Y164252D03*
G54D180*
X113780Y113780D03*
Y346063D03*
X472047Y113780D03*
Y346063D03*
G54D240*
X375200Y115000D03*
X385200D03*
G74*
X0Y0D02*
M02*
