*
*
G04 PADS 9.5 Build Number: 522968 generated Gerber (RS-274-X) file*
G04 PC Version=2.1*
*
%IN "audio_player.pcb"*%
*
%MOIN*%
*
%FSLAX35Y35*%
*
*
*
*
G04 PC Standard Apertures*
*
*
G04 Thermal Relief Aperture macro.*
%AMTER*
1,1,$1,0,0*
1,0,$1-$2,0,0*
21,0,$3,$4,0,0,45*
21,0,$3,$4,0,0,135*
%
*
*
G04 Annular Aperture macro.*
%AMANN*
1,1,$1,0,0*
1,0,$2,0,0*
%
*
*
G04 Odd Aperture macro.*
%AMODD*
1,1,$1,0,0*
1,0,$1-0.005,0,0*
%
*
*
G04 PC Custom Aperture Macros*
*
*
*
*
*
*
G04 PC Aperture Table*
*
%ADD010C,0.001*%
%ADD055C,0.01*%
*
*
*
*
G04 PC Circuitry*
G04 Layer Name audio_player.pcb - circuitry*
%LPD*%
*
*
G04 PC Custom Flashes*
G04 Layer Name audio_player.pcb - flashes*
%LPD*%
*
*
G04 PC Circuitry*
G04 Layer Name audio_player.pcb - circuitry*
%LPD*%
*
G54D10*
G01X100000Y359843D02*
X100003D01*
X485827D02*
X485829D01*
X485827Y100000D02*
X485829D01*
X485827Y359843D02*
X485829D01*
G54D55*
X270803Y330252D02*
X278803Y338252D01*
X270803D02*
X278803Y330252D01*
X269622D02*
X277622Y338252D01*
X269622D02*
X277622Y330252D01*
X274803Y333071D02*
G75*
G03Y335433I0J1181D01*
G01X273622*
G03Y333071I0J-1181*
G01X274803*
X262929Y330252D02*
X270929Y338252D01*
X262929D02*
X270929Y330252D01*
X261748D02*
X269748Y338252D01*
X261748D02*
X269748Y330252D01*
X266929Y333071D02*
G03Y335433I0J1181D01*
G01X265748*
G03Y333071I0J-1181*
G01X266929*
X255055Y330252D02*
X263055Y338252D01*
X255055D02*
X263055Y330252D01*
X253874D02*
X261874Y338252D01*
X253874D02*
X261874Y330252D01*
X259055Y333071D02*
G03Y335433I0J1181D01*
G01X257874*
G03Y333071I0J-1181*
G01X259055*
X447969Y330252D02*
X455969Y338252D01*
X447969D02*
X455969Y330252D01*
X446787D02*
X454787Y338252D01*
X446787D02*
X454787Y330252D01*
X451969Y333071D02*
G03Y335433I-0J1181D01*
G01X450787*
G03Y333071I0J-1181*
G01X451969*
X440094Y330252D02*
X448094Y338252D01*
X440094D02*
X448094Y330252D01*
X438913D02*
X446913Y338252D01*
X438913D02*
X446913Y330252D01*
X444094Y333071D02*
G03Y335433I0J1181D01*
G01X442913*
G03Y333071I0J-1181*
G01X444094*
X432220Y330252D02*
X440220Y338252D01*
X432220D02*
X440220Y330252D01*
X431039D02*
X439039Y338252D01*
X431039D02*
X439039Y330252D01*
X436220Y333071D02*
G03Y335433I0J1181D01*
G01X435039*
G03Y333071I0J-1181*
G01X436220*
X463354Y126236D02*
X471354Y134236D01*
Y126236*
X463354Y134236*
Y126236*
X459024D02*
X467024Y134236D01*
Y126236*
X459024Y134236*
Y126236*
X467354Y129055D02*
G03Y131417I0J1181D01*
G01X463024*
G03Y129055I-0J-1181*
G01X467354*
X479102Y130236D02*
X487102D01*
X483102Y126236D02*
Y134236D01*
X486011Y135517D02*
X485102Y132236D01*
X486011Y135517D02*
X486921Y132236D01*
X485443Y133330D02*
X486580D01*
X475953Y130236D02*
X483953D01*
X479953Y126236D02*
Y134236D01*
X482862Y135517D02*
X481953Y132236D01*
X482862Y135517D02*
X483771Y132236D01*
X482294Y133330D02*
X483430D01*
X483102Y129055D02*
G03Y131417I0J1181D01*
G01X479953*
G03Y129055I-0J-1181*
G01X483102*
X463354Y160252D02*
X471354Y168252D01*
Y160252*
X463354Y168252*
Y160252*
X459024D02*
X467024Y168252D01*
Y160252*
X459024Y168252*
Y160252*
X467354Y163071D02*
G03Y165433I0J1181D01*
G01X463024*
G03Y163071I-0J-1181*
G01X467354*
X479102Y164252D02*
X487102D01*
X483102Y160252D02*
Y168252D01*
X486011Y169533D02*
X485102Y166252D01*
X486011Y169533D02*
X486921Y166252D01*
X485443Y167346D02*
X486580D01*
X475953Y164252D02*
X483953D01*
X479953Y160252D02*
Y168252D01*
X482862Y169533D02*
X481953Y166252D01*
X482862Y169533D02*
X483771Y166252D01*
X482294Y167346D02*
X483430D01*
X483102Y163071D02*
G03Y165433I0J1181D01*
G01X479953*
G03Y163071I-0J-1181*
G01X483102*
X388913Y330252D02*
X396913Y338252D01*
X388913D02*
X396913Y330252D01*
X387732D02*
X395732Y338252D01*
X387732D02*
X395732Y330252D01*
X392913Y333071D02*
G03Y335433I0J1181D01*
G01X391732*
G03Y333071I0J-1181*
G01X392913*
X381039Y330252D02*
X389039Y338252D01*
X381039D02*
X389039Y330252D01*
X379858D02*
X387858Y338252D01*
X379858D02*
X387858Y330252D01*
X385039Y333071D02*
G03Y335433I0J1181D01*
G01X383858*
G03Y333071I0J-1181*
G01X385039*
X373165Y330252D02*
X381165Y338252D01*
X373165D02*
X381165Y330252D01*
X371984D02*
X379984Y338252D01*
X371984D02*
X379984Y330252D01*
X377165Y333071D02*
G03Y335433I0J1181D01*
G01X375984*
G03Y333071I0J-1181*
G01X377165*
X152693Y330252D02*
X160693Y338252D01*
X152693D02*
X160693Y330252D01*
X151512D02*
X159512Y338252D01*
X151512D02*
X159512Y330252D01*
X156693Y333071D02*
G03Y335433I-0J1181D01*
G01X155512*
G03Y333071I-0J-1181*
G01X156693*
X144819Y330252D02*
X152819Y338252D01*
X144819D02*
X152819Y330252D01*
X143638D02*
X151638Y338252D01*
X143638D02*
X151638Y330252D01*
X148819Y333071D02*
G03Y335433I-0J1181D01*
G01X147638*
G03Y333071I-0J-1181*
G01X148819*
X136945Y330252D02*
X144945Y338252D01*
X136945D02*
X144945Y330252D01*
X135764D02*
X143764Y338252D01*
X135764D02*
X143764Y330252D01*
X140945Y333071D02*
G03Y335433I-0J1181D01*
G01X139764*
G03Y333071I-0J-1181*
G01X140945*
X329858Y330252D02*
X337858Y338252D01*
X329858D02*
X337858Y330252D01*
X328677D02*
X336677Y338252D01*
X328677D02*
X336677Y330252D01*
X333858Y333071D02*
G03Y335433I0J1181D01*
G01X332677*
G03Y333071I0J-1181*
G01X333858*
X321984Y330252D02*
X329984Y338252D01*
X321984D02*
X329984Y330252D01*
X320803D02*
X328803Y338252D01*
X320803D02*
X328803Y330252D01*
X325984Y333071D02*
G03Y335433I0J1181D01*
G01X324803*
G03Y333071I0J-1181*
G01X325984*
X314110Y330252D02*
X322110Y338252D01*
X314110D02*
X322110Y330252D01*
X312929D02*
X320929Y338252D01*
X312929D02*
X320929Y330252D01*
X318110Y333071D02*
G03Y335433I0J1181D01*
G01X316929*
G03Y333071I0J-1181*
G01X318110*
X211748Y330252D02*
X219748Y338252D01*
X211748D02*
X219748Y330252D01*
X210567D02*
X218567Y338252D01*
X210567D02*
X218567Y330252D01*
X215748Y333071D02*
G03Y335433I0J1181D01*
G01X214567*
G03Y333071I-0J-1181*
G01X215748*
X203874Y330252D02*
X211874Y338252D01*
X203874D02*
X211874Y330252D01*
X202693D02*
X210693Y338252D01*
X202693D02*
X210693Y330252D01*
X207874Y333071D02*
G03Y335433I0J1181D01*
G01X206693*
G03Y333071I-0J-1181*
G01X207874*
X196000Y330252D02*
X204000Y338252D01*
X196000D02*
X204000Y330252D01*
X194819D02*
X202819Y338252D01*
X194819D02*
X202819Y330252D01*
X200000Y333071D02*
G03Y335433I0J1181D01*
G01X198819*
G03Y333071I-0J-1181*
G01X200000*
X468227Y206299D02*
X476227D01*
X472227Y202299D02*
Y210299D01*
X468227Y237795D02*
X476227D01*
X472227Y233795D02*
Y241795D01*
X262339Y347969D02*
X270339D01*
Y355969*
X262339*
Y347969*
X266339Y351969D02*
Y355969D01*
X439504Y347969D02*
X447504D01*
Y355969*
X439504*
Y347969*
X443504Y351969D02*
Y355969D01*
X123000Y172600D02*
X127000Y176600D01*
X123000Y180600*
X119000Y176600*
X123000Y172600*
Y176600D02*
Y180600D01*
Y162600D02*
X127000Y166600D01*
X123000Y170600*
X119000Y166600*
X123000Y162600*
Y166600D02*
Y170600D01*
Y152600D02*
X127000Y156600D01*
X123000Y160600*
X119000Y156600*
X123000Y152600*
Y156600D02*
Y160600D01*
Y142600D02*
X127000Y146600D01*
X123000Y150600*
X119000Y146600*
X123000Y142600*
Y146600D02*
Y150600D01*
X371200Y111000D02*
X379200D01*
X371200Y119000*
X379200*
X371200Y111000*
X381200D02*
X389200D01*
X381200Y119000*
X389200*
X381200Y111000*
X185200Y134400D02*
X189200Y138400D01*
X185200Y142400*
X181200Y138400*
X185200Y134400*
Y138400D02*
Y142400D01*
Y144400D02*
X189200Y148400D01*
X185200Y152400*
X181200Y148400*
X185200Y144400*
Y148400D02*
Y152400D01*
X463157Y135866D02*
X471157D01*
X467157Y131866D02*
Y139866D01*
X469157Y141147D02*
Y137866D01*
Y141147D02*
X470180D01*
X470521Y140991*
X470635Y140835*
X470748Y140522*
Y140210*
X470635Y139897*
X470521Y139741*
X470180Y139585*
X469157D02*
X470180D01*
X470521Y139429*
X470635Y139272*
X470748Y138960*
Y138491*
X470635Y138179*
X470521Y138022*
X470180Y137866*
X469157*
X463157Y158622D02*
X471157D01*
X467157Y154622D02*
Y162622D01*
X469157Y163903D02*
Y160622D01*
Y163903D02*
X470180D01*
X470521Y163747*
X470635Y163591*
X470748Y163278*
Y162966*
X470635Y162653*
X470521Y162497*
X470180Y162341*
X469157D02*
X470180D01*
X470521Y162185*
X470635Y162028*
X470748Y161716*
Y161247*
X470635Y160935*
X470521Y160778*
X470180Y160622*
X469157*
X109780Y113780D02*
X117780D01*
X113780Y109780D02*
Y117780D01*
X117484Y118280D02*
X117370Y118592D01*
X117143Y118905*
X116916Y119061*
X116461*
X116234Y118905*
X116007Y118592*
X115893Y118280*
X115780Y117811*
Y117030*
X115893Y116561*
X116007Y116248*
X116234Y115936*
X116461Y115780*
X116916*
X117143Y115936*
X117370Y116248*
X117484Y116561*
X109780Y346063D02*
X117780D01*
X113780Y342063D02*
Y350063D01*
X117484Y350563D02*
X117370Y350875D01*
X117143Y351188*
X116916Y351344*
X116461*
X116234Y351188*
X116007Y350875*
X115893Y350563*
X115780Y350094*
Y349313*
X115893Y348844*
X116007Y348532*
X116234Y348219*
X116461Y348063*
X116916*
X117143Y348219*
X117370Y348532*
X117484Y348844*
X380449Y347969D02*
X388449D01*
Y355969*
X380449*
Y347969*
X384449Y351969D02*
Y355969D01*
X144228Y347969D02*
X152228D01*
Y355969*
X144228*
Y347969*
X148228Y351969D02*
Y355969D01*
X321394Y347969D02*
X329394D01*
Y355969*
X321394*
Y347969*
X325394Y351969D02*
Y355969D01*
X203283Y347969D02*
X211283D01*
Y355969*
X203283*
Y347969*
X207283Y351969D02*
Y355969D01*
X468047Y113780D02*
X476047D01*
X472047Y109780D02*
Y117780D01*
X475752Y118280D02*
X475638Y118592D01*
X475411Y118905*
X475184Y119061*
X474729*
X474502Y118905*
X474275Y118592*
X474161Y118280*
X474047Y117811*
Y117030*
X474161Y116561*
X474275Y116248*
X474502Y115936*
X474729Y115780*
X475184*
X475411Y115936*
X475638Y116248*
X475752Y116561*
X468047Y346063D02*
X476047D01*
X472047Y342063D02*
Y350063D01*
X475752Y350563D02*
X475638Y350875D01*
X475411Y351188*
X475184Y351344*
X474729*
X474502Y351188*
X474275Y350875*
X474161Y350563*
X474047Y350094*
Y349313*
X474161Y348844*
X474275Y348532*
X474502Y348219*
X474729Y348063*
X475184*
X475411Y348219*
X475638Y348532*
X475752Y348844*
X468797Y310630D02*
X476797D01*
X472797Y306630D02*
Y314630D01*
X474797Y315911D02*
Y312630D01*
Y315911D02*
X475592D01*
X475933Y315755*
X476160Y315442*
X476274Y315130*
X476388Y314661*
Y313880*
X476274Y313411*
X476160Y313099*
X475933Y312786*
X475592Y312630*
X474797*
X468797Y290945D02*
X476797D01*
X472797Y286945D02*
Y294945D01*
X474797Y296226D02*
Y292945D01*
Y296226D02*
X475592D01*
X475933Y296070*
X476160Y295757*
X476274Y295445*
X476388Y294976*
Y294195*
X476274Y293726*
X476160Y293414*
X475933Y293101*
X475592Y292945*
X474797*
X118800Y124600D02*
X126800D01*
X122800Y120600D02*
Y128600D01*
X124800Y129881D02*
Y126600D01*
Y129881D02*
X126277D01*
X124800Y128319D02*
X125709D01*
X124800Y126600D02*
X126277D01*
X118800Y104600D02*
X126800D01*
X122800Y100600D02*
Y108600D01*
X124800Y109881D02*
Y106600D01*
Y109881D02*
X126277D01*
X124800Y108319D02*
X125709D01*
X124800Y106600D02*
X126277D01*
X100800Y123600D02*
X108800D01*
X104800Y119600D02*
Y127600D01*
X106800Y128881D02*
Y125600D01*
Y128881D02*
X108277D01*
X106800Y127319D02*
X107709D01*
X106800Y125600D02*
X108277D01*
X172418Y117891D02*
X180418D01*
X176418Y113891D02*
Y121891D01*
X178418Y123172D02*
Y119891D01*
Y123172D02*
X179895D01*
X178418Y121610D02*
X179327D01*
X178418Y119891D02*
X179895D01*
X158800Y104600D02*
X166800D01*
X162800Y100600D02*
Y108600D01*
X164800Y109881D02*
Y106600D01*
Y109881D02*
X166277D01*
X164800Y108319D02*
X165709D01*
X164800Y106600D02*
X166277D01*
X138800Y124600D02*
X146800D01*
X142800Y120600D02*
Y128600D01*
X144800Y129881D02*
Y126600D01*
Y129881D02*
X146277D01*
X144800Y128319D02*
X145709D01*
X144800Y126600D02*
X146277D01*
X138800Y104600D02*
X146800D01*
X142800Y100600D02*
Y108600D01*
X144800Y109881D02*
Y106600D01*
Y109881D02*
X146277D01*
X144800Y108319D02*
X145709D01*
X144800Y106600D02*
X146277D01*
X210100Y118100D02*
X218100D01*
X214100Y114100D02*
Y122100D01*
X216100Y123381D02*
Y120100D01*
Y123381D02*
X217577D01*
X216100Y121819D02*
X217009D01*
X216100Y120100D02*
X217577D01*
X198800Y104600D02*
X206800D01*
X202800Y100600D02*
Y108600D01*
X204800Y109881D02*
Y106600D01*
Y109881D02*
X206277D01*
X204800Y108319D02*
X205709D01*
X204800Y106600D02*
X206277D01*
X178800Y104600D02*
X186800D01*
X182800Y100600D02*
Y108600D01*
X184800Y109881D02*
Y106600D01*
Y109881D02*
X186277D01*
X184800Y108319D02*
X185709D01*
X184800Y106600D02*
X186277D01*
X238800Y104600D02*
X246800D01*
X242800Y100600D02*
Y108600D01*
X244800Y109881D02*
Y106600D01*
Y109881D02*
X246277D01*
X244800Y108319D02*
X245709D01*
X244800Y106600D02*
X246277D01*
X218800Y104600D02*
X226800D01*
X222800Y100600D02*
Y108600D01*
X224800Y109881D02*
Y106600D01*
Y109881D02*
X226277D01*
X224800Y108319D02*
X225709D01*
X224800Y106600D02*
X226277D01*
X283900Y118200D02*
X291900D01*
X287900Y114200D02*
Y122200D01*
X289900Y123481D02*
Y120200D01*
Y123481D02*
X291377D01*
X289900Y121919D02*
X290809D01*
X289900Y120200D02*
X291377D01*
X278800Y104600D02*
X286800D01*
X282800Y100600D02*
Y108600D01*
X284800Y109881D02*
Y106600D01*
Y109881D02*
X286277D01*
X284800Y108319D02*
X285709D01*
X284800Y106600D02*
X286277D01*
X258800Y104600D02*
X266800D01*
X262800Y100600D02*
Y108600D01*
X264800Y109881D02*
Y106600D01*
Y109881D02*
X266277D01*
X264800Y108319D02*
X265709D01*
X264800Y106600D02*
X266277D01*
X320115Y118530D02*
X328115D01*
X324115Y114530D02*
Y122530D01*
X326115Y123811D02*
Y120530D01*
Y123811D02*
X327592D01*
X326115Y122248D02*
X327024D01*
X326115Y120530D02*
X327592D01*
X300160Y118687D02*
X308160D01*
X304160Y114687D02*
Y122687D01*
X306160Y123968D02*
Y120687D01*
Y123968D02*
X307637D01*
X306160Y122405D02*
X307069D01*
X306160Y120687D02*
X307637D01*
X318800Y104600D02*
X326800D01*
X322800Y100600D02*
Y108600D01*
X324800Y109881D02*
Y106600D01*
Y109881D02*
X326277D01*
X324800Y108319D02*
X325709D01*
X324800Y106600D02*
X326277D01*
X298800Y104600D02*
X306800D01*
X302800Y100600D02*
Y108600D01*
X304800Y109881D02*
Y106600D01*
Y109881D02*
X306277D01*
X304800Y108319D02*
X305709D01*
X304800Y106600D02*
X306277D01*
X339090Y117989D02*
X347090D01*
X343090Y113989D02*
Y121989D01*
X345090Y123270D02*
Y119989D01*
Y123270D02*
X346567D01*
X345090Y121708D02*
X345999D01*
X345090Y119989D02*
X346567D01*
X366145Y120328D02*
X374145D01*
X370145Y116328D02*
Y124328D01*
X372145Y125609D02*
Y122328D01*
Y125609D02*
X373622D01*
X372145Y124046D02*
X373054D01*
X372145Y122328D02*
X373622D01*
X358800Y124600D02*
X366800D01*
X362800Y120600D02*
Y128600D01*
X364800Y129881D02*
Y126600D01*
Y129881D02*
X366277D01*
X364800Y128319D02*
X365709D01*
X364800Y126600D02*
X366277D01*
X358800Y104600D02*
X366800D01*
X362800Y100600D02*
Y108600D01*
X364800Y109881D02*
Y106600D01*
Y109881D02*
X366277D01*
X364800Y108319D02*
X365709D01*
X364800Y106600D02*
X366277D01*
X338800Y104600D02*
X346800D01*
X342800Y100600D02*
Y108600D01*
X344800Y109881D02*
Y106600D01*
Y109881D02*
X346277D01*
X344800Y108319D02*
X345709D01*
X344800Y106600D02*
X346277D01*
X399530Y121006D02*
X407530D01*
X403530Y117006D02*
Y125006D01*
X405530Y126287D02*
Y123006D01*
Y126287D02*
X407007D01*
X405530Y124724D02*
X406439D01*
X405530Y123006D02*
X407007D01*
X408407Y119819D02*
X416407D01*
X412407Y115819D02*
Y123819D01*
X414407Y125100D02*
Y121819D01*
Y125100D02*
X415885D01*
X414407Y123538D02*
X415316D01*
X414407Y121819D02*
X415885D01*
X398800Y104600D02*
X406800D01*
X402800Y100600D02*
Y108600D01*
X404800Y109881D02*
Y106600D01*
Y109881D02*
X406277D01*
X404800Y108319D02*
X405709D01*
X404800Y106600D02*
X406277D01*
X378800Y104600D02*
X386800D01*
X382800Y100600D02*
Y108600D01*
X384800Y109881D02*
Y106600D01*
Y109881D02*
X386277D01*
X384800Y108319D02*
X385709D01*
X384800Y106600D02*
X386277D01*
X449093Y117590D02*
X457093D01*
X453093Y113590D02*
Y121590D01*
X455093Y122872D02*
Y119590D01*
Y122872D02*
X456570D01*
X455093Y121309D02*
X456002D01*
X455093Y119590D02*
X456570D01*
X426701Y117107D02*
X434701D01*
X430701Y113107D02*
Y121107D01*
X432701Y122389D02*
Y119107D01*
Y122389D02*
X434179D01*
X432701Y120826D02*
X433611D01*
X432701Y119107D02*
X434179D01*
X438800Y104600D02*
X446800D01*
X442800Y100600D02*
Y108600D01*
X444800Y109881D02*
Y106600D01*
Y109881D02*
X446277D01*
X444800Y108319D02*
X445709D01*
X444800Y106600D02*
X446277D01*
X418800Y124600D02*
X426800D01*
X422800Y120600D02*
Y128600D01*
X424800Y129881D02*
Y126600D01*
Y129881D02*
X426277D01*
X424800Y128319D02*
X425709D01*
X424800Y126600D02*
X426277D01*
X418800Y104600D02*
X426800D01*
X422800Y100600D02*
Y108600D01*
X424800Y109881D02*
Y106600D01*
Y109881D02*
X426277D01*
X424800Y108319D02*
X425709D01*
X424800Y106600D02*
X426277D01*
X458800Y124600D02*
X466800D01*
X462800Y120600D02*
Y128600D01*
X464800Y129881D02*
Y126600D01*
Y129881D02*
X466277D01*
X464800Y128319D02*
X465709D01*
X464800Y126600D02*
X466277D01*
X458800Y104600D02*
X466800D01*
X462800Y100600D02*
Y108600D01*
X464800Y109881D02*
Y106600D01*
Y109881D02*
X466277D01*
X464800Y108319D02*
X465709D01*
X464800Y106600D02*
X466277D01*
X129241Y135725D02*
X137241D01*
X133241Y131725D02*
Y139725D01*
X135241Y141006D02*
Y137725D01*
Y141006D02*
X136718D01*
X135241Y139444D02*
X136150D01*
X135241Y137725D02*
X136718D01*
X131981Y157322D02*
X139981D01*
X135981Y153322D02*
Y161322D01*
X137981Y162603D02*
Y159322D01*
Y162603D02*
X139458D01*
X137981Y161040D02*
X138890D01*
X137981Y159322D02*
X139458D01*
X136300Y164700D02*
X144300D01*
X140300Y160700D02*
Y168700D01*
X142300Y169981D02*
Y166700D01*
Y169981D02*
X143777D01*
X142300Y168419D02*
X143209D01*
X142300Y166700D02*
X143777D01*
X100800Y163600D02*
X108800D01*
X104800Y159600D02*
Y167600D01*
X106800Y168881D02*
Y165600D01*
Y168881D02*
X108277D01*
X106800Y167319D02*
X107709D01*
X106800Y165600D02*
X108277D01*
X100800Y143600D02*
X108800D01*
X104800Y139600D02*
Y147600D01*
X106800Y148881D02*
Y145600D01*
Y148881D02*
X108277D01*
X106800Y147319D02*
X107709D01*
X106800Y145600D02*
X108277D01*
X138951Y144931D02*
X146951D01*
X142951Y140931D02*
Y148931D01*
X144951Y150213D02*
Y146931D01*
Y150213D02*
X146428D01*
X144951Y148650D02*
X145860D01*
X144951Y146931D02*
X146428D01*
X145421Y144677D02*
X153421D01*
X149421Y140677D02*
Y148677D01*
X151421Y149958D02*
Y146677D01*
Y149958D02*
X152898D01*
X151421Y148396D02*
X152330D01*
X151421Y146677D02*
X152898D01*
X159027Y131073D02*
X167027D01*
X163027Y127073D02*
Y135073D01*
X165027Y136354D02*
Y133073D01*
Y136354D02*
X166505D01*
X165027Y134791D02*
X165937D01*
X165027Y133073D02*
X166505D01*
X159273Y141751D02*
X167273D01*
X163273Y137751D02*
Y145751D01*
X165273Y147033D02*
Y143751D01*
Y147033D02*
X166750D01*
X165273Y145470D02*
X166182D01*
X165273Y143751D02*
X166750D01*
X177182Y126385D02*
X185182D01*
X181182Y122385D02*
Y130385D01*
X183182Y131666D02*
Y128385D01*
Y131666D02*
X184659D01*
X183182Y130104D02*
X184091D01*
X183182Y128385D02*
X184659D01*
X159065Y154520D02*
X167065D01*
X163065Y150520D02*
Y158520D01*
X165065Y159801D02*
Y156520D01*
Y159801D02*
X166542D01*
X165065Y158239D02*
X165974D01*
X165065Y156520D02*
X166542D01*
X168214Y145448D02*
X176214D01*
X172214Y141448D02*
Y149448D01*
X174214Y150729D02*
Y147448D01*
Y150729D02*
X175691D01*
X174214Y149166D02*
X175123D01*
X174214Y147448D02*
X175691D01*
X158800Y164600D02*
X166800D01*
X162800Y160600D02*
Y168600D01*
X164800Y169881D02*
Y166600D01*
Y169881D02*
X166277D01*
X164800Y168319D02*
X165709D01*
X164800Y166600D02*
X166277D01*
X167000Y161000D02*
X175000D01*
X171000Y157000D02*
Y165000D01*
X173000Y166281D02*
Y163000D01*
Y166281D02*
X174477D01*
X173000Y164719D02*
X173909D01*
X173000Y163000D02*
X174477D01*
X197084Y163226D02*
X205084D01*
X201084Y159226D02*
Y167226D01*
X203084Y168507D02*
Y165226D01*
Y168507D02*
X204562D01*
X203084Y166945D02*
X203994D01*
X203084Y165226D02*
X204562D01*
X209880Y150371D02*
X217880D01*
X213880Y146371D02*
Y154371D01*
X215880Y155652D02*
Y152371D01*
Y155652D02*
X217357D01*
X215880Y154090D02*
X216789D01*
X215880Y152371D02*
X217357D01*
X189695Y134560D02*
X197695D01*
X193695Y130560D02*
Y138560D01*
X195695Y139841D02*
Y136560D01*
Y139841D02*
X197173D01*
X195695Y138279D02*
X196604D01*
X195695Y136560D02*
X197173D01*
X205791Y139392D02*
X213791D01*
X209791Y135392D02*
Y143392D01*
X211791Y144673D02*
Y141392D01*
Y144673D02*
X213268D01*
X211791Y143111D02*
X212700D01*
X211791Y141392D02*
X213268D01*
X210200Y126300D02*
X218200D01*
X214200Y122300D02*
Y130300D01*
X216200Y131581D02*
Y128300D01*
Y131581D02*
X217677D01*
X216200Y130019D02*
X217109D01*
X216200Y128300D02*
X217677D01*
X198800Y144600D02*
X206800D01*
X202800Y140600D02*
Y148600D01*
X204800Y149881D02*
Y146600D01*
Y149881D02*
X206277D01*
X204800Y148319D02*
X205709D01*
X204800Y146600D02*
X206277D01*
X178800Y164600D02*
X186800D01*
X182800Y160600D02*
Y168600D01*
X184800Y169881D02*
Y166600D01*
Y169881D02*
X186277D01*
X184800Y168319D02*
X185709D01*
X184800Y166600D02*
X186277D01*
X221935Y136606D02*
X229935D01*
X225935Y132606D02*
Y140606D01*
X227935Y141888D02*
Y138606D01*
Y141888D02*
X229412D01*
X227935Y140325D02*
X228844D01*
X227935Y138606D02*
X229412D01*
X230417Y136606D02*
X238417D01*
X234417Y132606D02*
Y140606D01*
X236417Y141888D02*
Y138606D01*
Y141888D02*
X237894D01*
X236417Y140325D02*
X237326D01*
X236417Y138606D02*
X237894D01*
X221764Y126207D02*
X229764D01*
X225764Y122207D02*
Y130207D01*
X227764Y131488D02*
Y128207D01*
Y131488D02*
X229242D01*
X227764Y129926D02*
X228673D01*
X227764Y128207D02*
X229242D01*
X218153Y135220D02*
X226153D01*
X222153Y131220D02*
Y139220D01*
X224153Y140501D02*
Y137220D01*
Y140501D02*
X225630D01*
X224153Y138938D02*
X225062D01*
X224153Y137220D02*
X225630D01*
X233957Y158130D02*
X241957D01*
X237957Y154130D02*
Y162130D01*
X239957Y163411D02*
Y160130D01*
Y163411D02*
X241434D01*
X239957Y161849D02*
X240866D01*
X239957Y160130D02*
X241434D01*
X248683Y148292D02*
X256683D01*
X252683Y144292D02*
Y152292D01*
X254683Y153573D02*
Y150292D01*
Y153573D02*
X256160D01*
X254683Y152011D02*
X255592D01*
X254683Y150292D02*
X256160D01*
X238800Y164600D02*
X246800D01*
X242800Y160600D02*
Y168600D01*
X244800Y169881D02*
Y166600D01*
Y169881D02*
X246277D01*
X244800Y168319D02*
X245709D01*
X244800Y166600D02*
X246277D01*
X296700Y144100D02*
X304700D01*
X300700Y140100D02*
Y148100D01*
X302700Y149381D02*
Y146100D01*
Y149381D02*
X304177D01*
X302700Y147819D02*
X303609D01*
X302700Y146100D02*
X304177D01*
X266681Y151906D02*
X274681D01*
X270681Y147906D02*
Y155906D01*
X272681Y157187D02*
Y153906D01*
Y157187D02*
X274159D01*
X272681Y155625D02*
X273591D01*
X272681Y153906D02*
X274159D01*
X288305Y127336D02*
X296305D01*
X292305Y123336D02*
Y131336D01*
X294305Y132617D02*
Y129336D01*
Y132617D02*
X295782D01*
X294305Y131055D02*
X295214D01*
X294305Y129336D02*
X295782D01*
X276123Y126340D02*
X284123D01*
X280123Y122340D02*
Y130340D01*
X282123Y131621D02*
Y128340D01*
Y131621D02*
X283600D01*
X282123Y130058D02*
X283032D01*
X282123Y128340D02*
X283600D01*
X264737Y157828D02*
X272737D01*
X268737Y153828D02*
Y161828D01*
X270737Y163109D02*
Y159828D01*
Y163109D02*
X272214D01*
X270737Y161547D02*
X271646D01*
X270737Y159828D02*
X272214D01*
X294449Y148118D02*
X302449D01*
X298449Y144118D02*
Y152118D01*
X300449Y153399D02*
Y150118D01*
Y153399D02*
X301927D01*
X300449Y151837D02*
X301358D01*
X300449Y150118D02*
X301927D01*
X279723Y147997D02*
X287723D01*
X283723Y143997D02*
Y151997D01*
X285723Y153279D02*
Y149997D01*
Y153279D02*
X287200D01*
X285723Y151716D02*
X286632D01*
X285723Y149997D02*
X287200D01*
X280521Y139676D02*
X288521D01*
X284521Y135676D02*
Y143676D01*
X286521Y144958D02*
Y141676D01*
Y144958D02*
X287998D01*
X286521Y143395D02*
X287430D01*
X286521Y141676D02*
X287998D01*
X271776Y134700D02*
X279776D01*
X275776Y130700D02*
Y138700D01*
X277776Y139981D02*
Y136700D01*
Y139981D02*
X279253D01*
X277776Y138419D02*
X278685D01*
X277776Y136700D02*
X279253D01*
X278800Y164600D02*
X286800D01*
X282800Y160600D02*
Y168600D01*
X284800Y169881D02*
Y166600D01*
Y169881D02*
X286277D01*
X284800Y168319D02*
X285709D01*
X284800Y166600D02*
X286277D01*
X260100Y136100D02*
X268100D01*
X264100Y132100D02*
Y140100D01*
X266100Y141381D02*
Y138100D01*
Y141381D02*
X267577D01*
X266100Y139819D02*
X267009D01*
X266100Y138100D02*
X267577D01*
X258100Y158900D02*
X266100D01*
X262100Y154900D02*
Y162900D01*
X264100Y164181D02*
Y160900D01*
Y164181D02*
X265577D01*
X264100Y162619D02*
X265009D01*
X264100Y160900D02*
X265577D01*
X300832Y141061D02*
X308832D01*
X304832Y137061D02*
Y145061D01*
X306832Y146342D02*
Y143061D01*
Y146342D02*
X308309D01*
X306832Y144780D02*
X307741D01*
X306832Y143061D02*
X308309D01*
X310319Y126278D02*
X318319D01*
X314319Y122278D02*
Y130278D01*
X316319Y131559D02*
Y128278D01*
Y131559D02*
X317796D01*
X316319Y129997D02*
X317228D01*
X316319Y128278D02*
X317796D01*
X333296Y137181D02*
X341296D01*
X337296Y133181D02*
Y141181D01*
X339296Y142463D02*
Y139181D01*
Y142463D02*
X340773D01*
X339296Y140900D02*
X340205D01*
X339296Y139181D02*
X340773D01*
X333598Y145088D02*
X341598D01*
X337598Y141088D02*
Y149088D01*
X339598Y150369D02*
Y147088D01*
Y150369D02*
X341075D01*
X339598Y148807D02*
X340507D01*
X339598Y147088D02*
X341075D01*
X334020Y128973D02*
X342020D01*
X338020Y124973D02*
Y132973D01*
X340020Y134255D02*
Y130973D01*
Y134255D02*
X341497D01*
X340020Y132692D02*
X340929D01*
X340020Y130973D02*
X341497D01*
X301221Y156252D02*
X309221D01*
X305221Y152252D02*
Y160252D01*
X307221Y161533D02*
Y158252D01*
Y161533D02*
X308698D01*
X307221Y159971D02*
X308130D01*
X307221Y158252D02*
X308698D01*
X314378Y157580D02*
X322378D01*
X318378Y153580D02*
Y161580D01*
X320378Y162861D02*
Y159580D01*
Y162861D02*
X321856D01*
X320378Y161299D02*
X321287D01*
X320378Y159580D02*
X321856D01*
X319804Y140860D02*
X327804D01*
X323804Y136860D02*
Y144860D01*
X325804Y146142D02*
Y142860D01*
Y146142D02*
X327282D01*
X325804Y144579D02*
X326714D01*
X325804Y142860D02*
X327282D01*
X305038Y144286D02*
X313038D01*
X309038Y140286D02*
Y148286D01*
X311038Y149567D02*
Y146286D01*
Y149567D02*
X312515D01*
X311038Y148005D02*
X311947D01*
X311038Y146286D02*
X312515D01*
X301600Y134100D02*
X309600D01*
X305600Y130100D02*
Y138100D01*
X307600Y139381D02*
Y136100D01*
Y139381D02*
X309077D01*
X307600Y137819D02*
X308509D01*
X307600Y136100D02*
X309077D01*
X324612Y149634D02*
X332612D01*
X328612Y145634D02*
Y153634D01*
X330612Y154915D02*
Y151634D01*
Y154915D02*
X332089D01*
X330612Y153352D02*
X331521D01*
X330612Y151634D02*
X332089D01*
X318800Y164600D02*
X326800D01*
X322800Y160600D02*
Y168600D01*
X324800Y169881D02*
Y166600D01*
Y169881D02*
X326277D01*
X324800Y168319D02*
X325709D01*
X324800Y166600D02*
X326277D01*
X313495Y149634D02*
X321495D01*
X317495Y145634D02*
Y153634D01*
X319495Y154915D02*
Y151634D01*
Y154915D02*
X320972D01*
X319495Y153352D02*
X320404D01*
X319495Y151634D02*
X320972D01*
X298800Y164600D02*
X306800D01*
X302800Y160600D02*
Y168600D01*
X304800Y169881D02*
Y166600D01*
Y169881D02*
X306277D01*
X304800Y168319D02*
X305709D01*
X304800Y166600D02*
X306277D01*
X322098Y126751D02*
X330098D01*
X326098Y122751D02*
Y130751D01*
X328098Y132033D02*
Y128751D01*
Y132033D02*
X329576D01*
X328098Y130470D02*
X329007D01*
X328098Y128751D02*
X329576D01*
X372155Y133772D02*
X380155D01*
X376155Y129772D02*
Y137772D01*
X378155Y139054D02*
Y135772D01*
Y139054D02*
X379632D01*
X378155Y137491D02*
X379064D01*
X378155Y135772D02*
X379632D01*
X348923Y150692D02*
X356923D01*
X352923Y146692D02*
Y154692D01*
X354923Y155973D02*
Y152692D01*
Y155973D02*
X356400D01*
X354923Y154410D02*
X355832D01*
X354923Y152692D02*
X356400D01*
X356372Y163275D02*
X364372D01*
X360372Y159275D02*
Y167275D01*
X362372Y168556D02*
Y165275D01*
Y168556D02*
X363849D01*
X362372Y166994D02*
X363281D01*
X362372Y165275D02*
X363849D01*
X349068Y158008D02*
X357068D01*
X353068Y154008D02*
Y162008D01*
X355068Y163290D02*
Y160008D01*
Y163290D02*
X356545D01*
X355068Y161727D02*
X355977D01*
X355068Y160008D02*
X356545D01*
X367606Y132514D02*
X375606D01*
X371606Y128514D02*
Y136514D01*
X373606Y137795D02*
Y134514D01*
Y137795D02*
X375083D01*
X373606Y136233D02*
X374515D01*
X373606Y134514D02*
X375083D01*
X348954Y130136D02*
X356954D01*
X352954Y126136D02*
Y134136D01*
X354954Y135417D02*
Y132136D01*
Y135417D02*
X356431D01*
X354954Y133855D02*
X355863D01*
X354954Y132136D02*
X356431D01*
X342741Y141844D02*
X350741D01*
X346741Y137844D02*
Y145844D01*
X348741Y147126D02*
Y143844D01*
Y147126D02*
X350218D01*
X348741Y145563D02*
X349650D01*
X348741Y143844D02*
X350218D01*
X353236Y144189D02*
X361236D01*
X357236Y140189D02*
Y148189D01*
X359236Y149470D02*
Y146189D01*
Y149470D02*
X360713D01*
X359236Y147908D02*
X360145D01*
X359236Y146189D02*
X360713D01*
X369315Y150166D02*
X377315D01*
X373315Y146166D02*
Y154166D01*
X375315Y155447D02*
Y152166D01*
Y155447D02*
X376792D01*
X375315Y153884D02*
X376224D01*
X375315Y152166D02*
X376792D01*
X358029Y155175D02*
X366029D01*
X362029Y151175D02*
Y159175D01*
X364029Y160456D02*
Y157175D01*
Y160456D02*
X365506D01*
X364029Y158894D02*
X364938D01*
X364029Y157175D02*
X365506D01*
X368048Y163383D02*
X376048D01*
X372048Y159383D02*
Y167383D01*
X374048Y168665D02*
Y165383D01*
Y168665D02*
X375525D01*
X374048Y167102D02*
X374957D01*
X374048Y165383D02*
X375525D01*
X338800Y164600D02*
X346800D01*
X342800Y160600D02*
Y168600D01*
X344800Y169881D02*
Y166600D01*
Y169881D02*
X346277D01*
X344800Y168319D02*
X345709D01*
X344800Y166600D02*
X346277D01*
X395917Y134275D02*
X403917D01*
X399917Y130275D02*
Y138275D01*
X401917Y139556D02*
Y136275D01*
Y139556D02*
X403394D01*
X401917Y137994D02*
X402826D01*
X401917Y136275D02*
X403394D01*
X395872Y129319D02*
X403872D01*
X399872Y125319D02*
Y133319D01*
X401872Y134600D02*
Y131319D01*
Y134600D02*
X403349D01*
X401872Y133038D02*
X402781D01*
X401872Y131319D02*
X403349D01*
X413812Y158420D02*
X421812D01*
X417812Y154420D02*
Y162420D01*
X419812Y163702D02*
Y160420D01*
Y163702D02*
X421289D01*
X419812Y162139D02*
X420721D01*
X419812Y160420D02*
X421289D01*
X413790Y143134D02*
X421790D01*
X417790Y139134D02*
Y147134D01*
X419790Y148415D02*
Y145134D01*
Y148415D02*
X421267D01*
X419790Y146852D02*
X420699D01*
X419790Y145134D02*
X421267D01*
X385276Y159692D02*
X393276D01*
X389276Y155692D02*
Y163692D01*
X391276Y164973D02*
Y161692D01*
Y164973D02*
X392753D01*
X391276Y163411D02*
X392185D01*
X391276Y161692D02*
X392753D01*
X404360Y133923D02*
X412360D01*
X408360Y129923D02*
Y137923D01*
X410360Y139204D02*
Y135923D01*
Y139204D02*
X411838D01*
X410360Y137641D02*
X411269D01*
X410360Y135923D02*
X411838D01*
X385291Y153256D02*
X393291D01*
X389291Y149256D02*
Y157256D01*
X391291Y158537D02*
Y155256D01*
Y158537D02*
X392768D01*
X391291Y156974D02*
X392200D01*
X391291Y155256D02*
X392768D01*
X397285Y153525D02*
X405285D01*
X401285Y149525D02*
Y157525D01*
X403285Y158806D02*
Y155525D01*
Y158806D02*
X404762D01*
X403285Y157244D02*
X404194D01*
X403285Y155525D02*
X404762D01*
X393287Y164442D02*
X401287D01*
X397287Y160442D02*
Y168442D01*
X399287Y169724D02*
Y166442D01*
Y169724D02*
X400764D01*
X399287Y168161D02*
X400196D01*
X399287Y166442D02*
X400764D01*
X409728Y152731D02*
X417728D01*
X413728Y148731D02*
Y156731D01*
X415728Y158012D02*
Y154731D01*
Y158012D02*
X417205D01*
X415728Y156450D02*
X416637D01*
X415728Y154731D02*
X417205D01*
X398800Y144600D02*
X406800D01*
X402800Y140600D02*
Y148600D01*
X404800Y149881D02*
Y146600D01*
Y149881D02*
X406277D01*
X404800Y148319D02*
X405709D01*
X404800Y146600D02*
X406277D01*
X378800Y164600D02*
X386800D01*
X382800Y160600D02*
Y168600D01*
X384800Y169881D02*
Y166600D01*
Y169881D02*
X386277D01*
X384800Y168319D02*
X385709D01*
X384800Y166600D02*
X386277D01*
X378800Y144600D02*
X386800D01*
X382800Y140600D02*
Y148600D01*
X384800Y149881D02*
Y146600D01*
Y149881D02*
X386277D01*
X384800Y148319D02*
X385709D01*
X384800Y146600D02*
X386277D01*
X382500Y130000D02*
X390500D01*
X386500Y126000D02*
Y134000D01*
X388500Y135281D02*
Y132000D01*
Y135281D02*
X389977D01*
X388500Y133719D02*
X389409D01*
X388500Y132000D02*
X389977D01*
X437340Y149154D02*
X445340D01*
X441340Y145154D02*
Y153154D01*
X443340Y154435D02*
Y151154D01*
Y154435D02*
X444817D01*
X443340Y152872D02*
X444249D01*
X443340Y151154D02*
X444817D01*
X454665Y156543D02*
X462665D01*
X458665Y152543D02*
Y160543D01*
X460665Y161824D02*
Y158543D01*
Y161824D02*
X462143D01*
X460665Y160261D02*
X461575D01*
X460665Y158543D02*
X462143D01*
X454676Y137552D02*
X462676D01*
X458676Y133552D02*
Y141552D01*
X460676Y142833D02*
Y139552D01*
Y142833D02*
X462154D01*
X460676Y141271D02*
X461585D01*
X460676Y139552D02*
X462154D01*
X448900Y152900D02*
X456900D01*
X452900Y148900D02*
Y156900D01*
X454900Y158181D02*
Y154900D01*
Y158181D02*
X456377D01*
X454900Y156619D02*
X455809D01*
X454900Y154900D02*
X456377D01*
X453366Y164280D02*
X461366D01*
X457366Y160280D02*
Y168280D01*
X459366Y169561D02*
Y166280D01*
Y169561D02*
X460843D01*
X459366Y167998D02*
X460275D01*
X459366Y166280D02*
X460843D01*
X449208Y144235D02*
X457208D01*
X453208Y140235D02*
Y148235D01*
X455208Y149516D02*
Y146235D01*
Y149516D02*
X456685D01*
X455208Y147954D02*
X456117D01*
X455208Y146235D02*
X456685D01*
X450361Y158689D02*
X458361D01*
X454361Y154689D02*
Y162689D01*
X456361Y163971D02*
Y160689D01*
Y163971D02*
X457839D01*
X456361Y162408D02*
X457271D01*
X456361Y160689D02*
X457839D01*
X433216Y157728D02*
X441216D01*
X437216Y153728D02*
Y161728D01*
X439216Y163010D02*
Y159728D01*
Y163010D02*
X440694D01*
X439216Y161447D02*
X440125D01*
X439216Y159728D02*
X440694D01*
X418762Y153115D02*
X426762D01*
X422762Y149115D02*
Y157115D01*
X424762Y158397D02*
Y155115D01*
Y158397D02*
X426239D01*
X424762Y156834D02*
X425671D01*
X424762Y155115D02*
X426239D01*
X451968Y130179D02*
X459968D01*
X455968Y126179D02*
Y134179D01*
X457968Y135460D02*
Y132179D01*
Y135460D02*
X459445D01*
X457968Y133898D02*
X458877D01*
X457968Y132179D02*
X459445D01*
X442876Y135093D02*
X450876D01*
X446876Y131093D02*
Y139093D01*
X448876Y140374D02*
Y137093D01*
Y140374D02*
X450354D01*
X448876Y138812D02*
X449785D01*
X448876Y137093D02*
X450354D01*
X437319Y133743D02*
X445319D01*
X441319Y129743D02*
Y137743D01*
X443319Y139024D02*
Y135743D01*
Y139024D02*
X444796D01*
X443319Y137462D02*
X444228D01*
X443319Y135743D02*
X444796D01*
X434320Y138510D02*
X442320D01*
X438320Y134510D02*
Y142510D01*
X440320Y143791D02*
Y140510D01*
Y143791D02*
X441798D01*
X440320Y142228D02*
X441229D01*
X440320Y140510D02*
X441798D01*
X418667Y129657D02*
X426667D01*
X422667Y125657D02*
Y133657D01*
X424667Y134938D02*
Y131657D01*
Y134938D02*
X426145D01*
X424667Y133376D02*
X425577D01*
X424667Y131657D02*
X426145D01*
X438800Y164600D02*
X446800D01*
X442800Y160600D02*
Y168600D01*
X444800Y169881D02*
Y166600D01*
Y169881D02*
X446277D01*
X444800Y168319D02*
X445709D01*
X444800Y166600D02*
X446277D01*
X418800Y144600D02*
X426800D01*
X422800Y140600D02*
Y148600D01*
X424800Y149881D02*
Y146600D01*
Y149881D02*
X426277D01*
X424800Y148319D02*
X425709D01*
X424800Y146600D02*
X426277D01*
X426710Y149215D02*
X434710D01*
X430710Y145215D02*
Y153215D01*
X432710Y154497D02*
Y151215D01*
Y154497D02*
X434188D01*
X432710Y152934D02*
X433620D01*
X432710Y151215D02*
X434188D01*
X469770Y146602D02*
X477770D01*
X473770Y142602D02*
Y150602D01*
X475770Y151883D02*
Y148602D01*
Y151883D02*
X477247D01*
X475770Y150320D02*
X476679D01*
X475770Y148602D02*
X477247D01*
X477800Y138100D02*
X485800D01*
X481800Y134100D02*
Y142100D01*
X483800Y143381D02*
Y140100D01*
Y143381D02*
X485277D01*
X483800Y141819D02*
X484709D01*
X483800Y140100D02*
X485277D01*
X477800Y158100D02*
X485800D01*
X481800Y154100D02*
Y162100D01*
X483800Y163381D02*
Y160100D01*
Y163381D02*
X485277D01*
X483800Y161819D02*
X484709D01*
X483800Y160100D02*
X485277D01*
X125138Y183097D02*
X133138D01*
X129138Y179097D02*
Y187097D01*
X131138Y188379D02*
Y185097D01*
Y188379D02*
X132615D01*
X131138Y186816D02*
X132047D01*
X131138Y185097D02*
X132615D01*
X130680Y183773D02*
X138680D01*
X134680Y179773D02*
Y187773D01*
X136680Y189054D02*
Y185773D01*
Y189054D02*
X138157D01*
X136680Y187492D02*
X137589D01*
X136680Y185773D02*
X138157D01*
X123700Y203400D02*
X131700D01*
X127700Y199400D02*
Y207400D01*
X129700Y208681D02*
Y205400D01*
Y208681D02*
X131177D01*
X129700Y207119D02*
X130609D01*
X129700Y205400D02*
X131177D01*
X100800Y203600D02*
X108800D01*
X104800Y199600D02*
Y207600D01*
X106800Y208881D02*
Y205600D01*
Y208881D02*
X108277D01*
X106800Y207319D02*
X107709D01*
X106800Y205600D02*
X108277D01*
X100800Y183600D02*
X108800D01*
X104800Y179600D02*
Y187600D01*
X106800Y188881D02*
Y185600D01*
Y188881D02*
X108277D01*
X106800Y187319D02*
X107709D01*
X106800Y185600D02*
X108277D01*
X150724Y194845D02*
X158724D01*
X154724Y190845D02*
Y198845D01*
X156724Y200126D02*
Y196845D01*
Y200126D02*
X158201D01*
X156724Y198564D02*
X157633D01*
X156724Y196845D02*
X158201D01*
X148917Y185004D02*
X156917D01*
X152917Y181004D02*
Y189004D01*
X154917Y190285D02*
Y187004D01*
Y190285D02*
X156395D01*
X154917Y188722D02*
X155827D01*
X154917Y187004D02*
X156395D01*
X141458Y183230D02*
X149458D01*
X145458Y179230D02*
Y187230D01*
X147458Y188511D02*
Y185230D01*
Y188511D02*
X148935D01*
X147458Y186948D02*
X148367D01*
X147458Y185230D02*
X148935D01*
X145180Y167328D02*
X153180D01*
X149180Y163328D02*
Y171328D01*
X151180Y172609D02*
Y169328D01*
Y172609D02*
X152657D01*
X151180Y171046D02*
X152089D01*
X151180Y169328D02*
X152657D01*
X144834Y172979D02*
X152834D01*
X148834Y168979D02*
Y176979D01*
X150834Y178260D02*
Y174979D01*
Y178260D02*
X152311D01*
X150834Y176697D02*
X151743D01*
X150834Y174979D02*
X152311D01*
X157272Y187395D02*
X165272D01*
X161272Y183395D02*
Y191395D01*
X163272Y192676D02*
Y189395D01*
Y192676D02*
X164749D01*
X163272Y191114D02*
X164181D01*
X163272Y189395D02*
X164749D01*
X144194Y201705D02*
X152194D01*
X148194Y197705D02*
Y205705D01*
X150194Y206986D02*
Y203705D01*
Y206986D02*
X151672D01*
X150194Y205423D02*
X151103D01*
X150194Y203705D02*
X151672D01*
X161703Y181112D02*
X169703D01*
X165703Y177112D02*
Y185112D01*
X167703Y186393D02*
Y183112D01*
Y186393D02*
X169180D01*
X167703Y184831D02*
X168612D01*
X167703Y183112D02*
X169180D01*
X174087Y173765D02*
X182087D01*
X178087Y169765D02*
Y177765D01*
X180087Y179046D02*
Y175765D01*
Y179046D02*
X181564D01*
X180087Y177484D02*
X180996D01*
X180087Y175765D02*
X181564D01*
X198959Y193679D02*
X206959D01*
X202959Y189679D02*
Y197679D01*
X204959Y198961D02*
Y195679D01*
Y198961D02*
X206436D01*
X204959Y197398D02*
X205868D01*
X204959Y195679D02*
X206436D01*
X197373Y203140D02*
X205373D01*
X201373Y199140D02*
Y207140D01*
X203373Y208421D02*
Y205140D01*
Y208421D02*
X204850D01*
X203373Y206859D02*
X204282D01*
X203373Y205140D02*
X204850D01*
X192545Y203198D02*
X200545D01*
X196545Y199198D02*
Y207198D01*
X198545Y208479D02*
Y205198D01*
Y208479D02*
X200022D01*
X198545Y206916D02*
X199454D01*
X198545Y205198D02*
X200022D01*
X210703Y201531D02*
X218703D01*
X214703Y197531D02*
Y205531D01*
X216703Y206813D02*
Y203531D01*
Y206813D02*
X218180D01*
X216703Y205250D02*
X217612D01*
X216703Y203531D02*
X218180D01*
X180273Y179872D02*
X188273D01*
X184273Y175872D02*
Y183872D01*
X186273Y185154D02*
Y181872D01*
Y185154D02*
X187750D01*
X186273Y183591D02*
X187182D01*
X186273Y181872D02*
X187750D01*
X257600Y182600D02*
X265600D01*
X261600Y178600D02*
Y186600D01*
X263600Y187881D02*
Y184600D01*
Y187881D02*
X265077D01*
X263600Y186319D02*
X264509D01*
X263600Y184600D02*
X265077D01*
X252900Y203400D02*
X260900D01*
X256900Y199400D02*
Y207400D01*
X258900Y208681D02*
Y205400D01*
Y208681D02*
X260377D01*
X258900Y207119D02*
X259809D01*
X258900Y205400D02*
X260377D01*
X233700Y177600D02*
X241700D01*
X237700Y173600D02*
Y181600D01*
X239700Y182881D02*
Y179600D01*
Y182881D02*
X241177D01*
X239700Y181319D02*
X240609D01*
X239700Y179600D02*
X241177D01*
X224400Y188700D02*
X232400D01*
X228400Y184700D02*
Y192700D01*
X230400Y193981D02*
Y190700D01*
Y193981D02*
X231877D01*
X230400Y192419D02*
X231309D01*
X230400Y190700D02*
X231877D01*
X292656Y187320D02*
X300656D01*
X296656Y183320D02*
Y191320D01*
X298656Y192601D02*
Y189320D01*
Y192601D02*
X300133D01*
X298656Y191039D02*
X299565D01*
X298656Y189320D02*
X300133D01*
X266523Y192993D02*
X274523D01*
X270523Y188993D02*
Y196993D01*
X272523Y198275D02*
Y194993D01*
Y198275D02*
X274000D01*
X272523Y196712D02*
X273432D01*
X272523Y194993D02*
X274000D01*
X261694Y177603D02*
X269694D01*
X265694Y173603D02*
Y181603D01*
X267694Y182884D02*
Y179603D01*
Y182884D02*
X269172D01*
X267694Y181322D02*
X268603D01*
X267694Y179603D02*
X269172D01*
X273800Y178600D02*
X281800D01*
X277800Y174600D02*
Y182600D01*
X279800Y183881D02*
Y180600D01*
Y183881D02*
X281277D01*
X279800Y182319D02*
X280709D01*
X279800Y180600D02*
X281277D01*
X281800Y178600D02*
X289800D01*
X285800Y174600D02*
Y182600D01*
X287800Y183881D02*
Y180600D01*
Y183881D02*
X289277D01*
X287800Y182319D02*
X288709D01*
X287800Y180600D02*
X289277D01*
X290796Y192026D02*
X298796D01*
X294796Y188026D02*
Y196026D01*
X296796Y197307D02*
Y194026D01*
Y197307D02*
X298273D01*
X296796Y195745D02*
X297705D01*
X296796Y194026D02*
X298273D01*
X281500Y192100D02*
X289500D01*
X285500Y188100D02*
Y196100D01*
X287500Y197381D02*
Y194100D01*
Y197381D02*
X288977D01*
X287500Y195819D02*
X288409D01*
X287500Y194100D02*
X288977D01*
X264723Y201200D02*
X272723D01*
X268723Y197200D02*
Y205200D01*
X270723Y206481D02*
Y203200D01*
Y206481D02*
X272200D01*
X270723Y204919D02*
X271632D01*
X270723Y203200D02*
X272200D01*
X272000Y203000D02*
X280000D01*
X276000Y199000D02*
Y207000D01*
X278000Y208281D02*
Y205000D01*
Y208281D02*
X279477D01*
X278000Y206719D02*
X278909D01*
X278000Y205000D02*
X279477D01*
X258200Y165300D02*
X266200D01*
X262200Y161300D02*
Y169300D01*
X264200Y170581D02*
Y167300D01*
Y170581D02*
X265677D01*
X264200Y169019D02*
X265109D01*
X264200Y167300D02*
X265677D01*
X331200Y195300D02*
X339200D01*
X335200Y191300D02*
Y199300D01*
X337200Y200581D02*
Y197300D01*
Y200581D02*
X338677D01*
X337200Y199019D02*
X338109D01*
X337200Y197300D02*
X338677D01*
X299000Y193600D02*
X307000D01*
X303000Y189600D02*
Y197600D01*
X305000Y198881D02*
Y195600D01*
Y198881D02*
X306477D01*
X305000Y197319D02*
X305909D01*
X305000Y195600D02*
X306477D01*
X322300Y182400D02*
X330300D01*
X326300Y178400D02*
Y186400D01*
X328300Y187681D02*
Y184400D01*
Y187681D02*
X329777D01*
X328300Y186119D02*
X329209D01*
X328300Y184400D02*
X329777D01*
X300907Y177689D02*
X308907D01*
X304907Y173689D02*
Y181689D01*
X306907Y182970D02*
Y179689D01*
Y182970D02*
X308384D01*
X306907Y181407D02*
X307816D01*
X306907Y179689D02*
X308384D01*
X305368Y203083D02*
X313368D01*
X309368Y199083D02*
Y207083D01*
X311368Y208364D02*
Y205083D01*
Y208364D02*
X312845D01*
X311368Y206802D02*
X312277D01*
X311368Y205083D02*
X312845D01*
X316896Y185924D02*
X324896D01*
X320896Y181924D02*
Y189924D01*
X322896Y191205D02*
Y187924D01*
Y191205D02*
X324373D01*
X322896Y189643D02*
X323805D01*
X322896Y187924D02*
X324373D01*
X315689Y177897D02*
X323689D01*
X319689Y173897D02*
Y181897D01*
X321689Y183178D02*
Y179897D01*
Y183178D02*
X323166D01*
X321689Y181615D02*
X322598D01*
X321689Y179897D02*
X323166D01*
X326386Y198110D02*
X334386D01*
X330386Y194110D02*
Y202110D01*
X332386Y203391D02*
Y200110D01*
Y203391D02*
X333863D01*
X332386Y201829D02*
X333295D01*
X332386Y200110D02*
X333863D01*
X327472Y185858D02*
X335472D01*
X331472Y181858D02*
Y189858D01*
X333472Y191139D02*
Y187858D01*
Y191139D02*
X334950D01*
X333472Y189577D02*
X334382D01*
X333472Y187858D02*
X334950D01*
X335475Y177525D02*
X343475D01*
X339475Y173525D02*
Y181525D01*
X341475Y182806D02*
Y179525D01*
Y182806D02*
X342952D01*
X341475Y181243D02*
X342384D01*
X341475Y179525D02*
X342952D01*
X334706Y185405D02*
X342706D01*
X338706Y181405D02*
Y189405D01*
X340706Y190686D02*
Y187405D01*
Y190686D02*
X342183D01*
X340706Y189124D02*
X341615D01*
X340706Y187405D02*
X342183D01*
X336897Y194016D02*
X344897D01*
X340897Y190016D02*
Y198016D01*
X342897Y199297D02*
Y196016D01*
Y199297D02*
X344374D01*
X342897Y197735D02*
X343806D01*
X342897Y196016D02*
X344374D01*
X312000Y193400D02*
X320000D01*
X316000Y189400D02*
Y197400D01*
X318000Y198681D02*
Y195400D01*
Y198681D02*
X319477D01*
X318000Y197119D02*
X318909D01*
X318000Y195400D02*
X319477D01*
X349300Y201000D02*
X357300D01*
X353300Y197000D02*
Y205000D01*
X355300Y206281D02*
Y203000D01*
Y206281D02*
X356777D01*
X355300Y204719D02*
X356209D01*
X355300Y203000D02*
X356777D01*
X367615Y169346D02*
X375615D01*
X371615Y165346D02*
Y173346D01*
X373615Y174627D02*
Y171346D01*
Y174627D02*
X375092D01*
X373615Y173064D02*
X374524D01*
X373615Y171346D02*
X375092D01*
X361650Y169539D02*
X369650D01*
X365650Y165539D02*
Y173539D01*
X367650Y174821D02*
Y171539D01*
Y174821D02*
X369127D01*
X367650Y173258D02*
X368559D01*
X367650Y171539D02*
X369127D01*
X363099Y177023D02*
X371099D01*
X367099Y173023D02*
Y181023D01*
X369099Y182305D02*
Y179023D01*
Y182305D02*
X370576D01*
X369099Y180742D02*
X370008D01*
X369099Y179023D02*
X370576D01*
X373057Y168574D02*
X381057D01*
X377057Y164574D02*
Y172574D01*
X379057Y173855D02*
Y170574D01*
Y173855D02*
X380534D01*
X379057Y172292D02*
X379966D01*
X379057Y170574D02*
X380534D01*
X358589Y187604D02*
X366589D01*
X362589Y183604D02*
Y191604D01*
X364589Y192885D02*
Y189604D01*
Y192885D02*
X366066D01*
X364589Y191323D02*
X365498D01*
X364589Y189604D02*
X366066D01*
X375232Y189587D02*
X383232D01*
X379232Y185587D02*
Y193587D01*
X381232Y194868D02*
Y191587D01*
Y194868D02*
X382709D01*
X381232Y193306D02*
X382141D01*
X381232Y191587D02*
X382709D01*
X399534Y200752D02*
X407534D01*
X403534Y196752D02*
Y204752D01*
X405534Y206033D02*
Y202752D01*
Y206033D02*
X407011D01*
X405534Y204471D02*
X406443D01*
X405534Y202752D02*
X407011D01*
X399059Y184247D02*
X407059D01*
X403059Y180247D02*
Y188247D01*
X405059Y189529D02*
Y186247D01*
Y189529D02*
X406536D01*
X405059Y187966D02*
X405968D01*
X405059Y186247D02*
X406536D01*
X397052Y204506D02*
X405052D01*
X401052Y200506D02*
Y208506D01*
X403052Y209788D02*
Y206506D01*
Y209788D02*
X404529D01*
X403052Y208225D02*
X403961D01*
X403052Y206506D02*
X404529D01*
X411846Y191301D02*
X419846D01*
X415846Y187301D02*
Y195301D01*
X417846Y196582D02*
Y193301D01*
Y196582D02*
X419324D01*
X417846Y195019D02*
X418755D01*
X417846Y193301D02*
X419324D01*
X408795Y199352D02*
X416795D01*
X412795Y195352D02*
Y203352D01*
X414795Y204633D02*
Y201352D01*
Y204633D02*
X416272D01*
X414795Y203071D02*
X415704D01*
X414795Y201352D02*
X416272D01*
X388809Y175514D02*
X396809D01*
X392809Y171514D02*
Y179514D01*
X394809Y180796D02*
Y177514D01*
Y180796D02*
X396287D01*
X394809Y179233D02*
X395719D01*
X394809Y177514D02*
X396287D01*
X380179Y177989D02*
X388179D01*
X384179Y173989D02*
Y181989D01*
X386179Y183270D02*
Y179989D01*
Y183270D02*
X387656D01*
X386179Y181708D02*
X387088D01*
X386179Y179989D02*
X387656D01*
X403000Y166000D02*
X411000D01*
X407000Y162000D02*
Y170000D01*
X409000Y171281D02*
Y168000D01*
Y171281D02*
X410477D01*
X409000Y169719D02*
X409909D01*
X409000Y168000D02*
X410477D01*
X389000Y166000D02*
X397000D01*
X393000Y162000D02*
Y170000D01*
X395000Y171281D02*
Y168000D01*
Y171281D02*
X396477D01*
X395000Y169719D02*
X395909D01*
X395000Y168000D02*
X396477D01*
X457362Y179660D02*
X465362D01*
X461362Y175660D02*
Y183660D01*
X463362Y184941D02*
Y181660D01*
Y184941D02*
X464839D01*
X463362Y183379D02*
X464271D01*
X463362Y181660D02*
X464839D01*
X457333Y184128D02*
X465333D01*
X461333Y180128D02*
Y188128D01*
X463333Y189409D02*
Y186128D01*
Y189409D02*
X464811D01*
X463333Y187847D02*
X464243D01*
X463333Y186128D02*
X464811D01*
X441000Y189000D02*
X449000D01*
X445000Y185000D02*
Y193000D01*
X447000Y194281D02*
Y191000D01*
Y194281D02*
X448477D01*
X447000Y192719D02*
X447909D01*
X447000Y191000D02*
X448477D01*
X429714Y165533D02*
X437714D01*
X433714Y161533D02*
Y169533D01*
X435714Y170814D02*
Y167533D01*
Y170814D02*
X437191D01*
X435714Y169252D02*
X436623D01*
X435714Y167533D02*
X437191D01*
X446161Y169465D02*
X454161D01*
X450161Y165465D02*
Y173465D01*
X452161Y174747D02*
Y171465D01*
Y174747D02*
X453638D01*
X452161Y173184D02*
X453070D01*
X452161Y171465D02*
X453638D01*
X427029Y169364D02*
X435029D01*
X431029Y165364D02*
Y173364D01*
X433029Y174645D02*
Y171364D01*
Y174645D02*
X434506D01*
X433029Y173082D02*
X433938D01*
X433029Y171364D02*
X434506D01*
X420650Y196490D02*
X428650D01*
X424650Y192490D02*
Y200490D01*
X426650Y201772D02*
Y198490D01*
Y201772D02*
X428127D01*
X426650Y200209D02*
X427559D01*
X426650Y198490D02*
X428127D01*
X435527Y192339D02*
X443527D01*
X439527Y188339D02*
Y196339D01*
X441527Y197620D02*
Y194339D01*
Y197620D02*
X443004D01*
X441527Y196057D02*
X442436D01*
X441527Y194339D02*
X443004D01*
X450501Y184993D02*
X458501D01*
X454501Y180993D02*
Y188993D01*
X456501Y190275D02*
Y186993D01*
Y190275D02*
X457978D01*
X456501Y188712D02*
X457410D01*
X456501Y186993D02*
X457978D01*
X432516Y184028D02*
X440516D01*
X436516Y180028D02*
Y188028D01*
X438516Y189309D02*
Y186028D01*
Y189309D02*
X439993D01*
X438516Y187747D02*
X439425D01*
X438516Y186028D02*
X439993D01*
X451662Y177686D02*
X459662D01*
X455662Y173686D02*
Y181686D01*
X457662Y182968D02*
Y179686D01*
Y182968D02*
X459139D01*
X457662Y181405D02*
X458571D01*
X457662Y179686D02*
X459139D01*
X418800Y184600D02*
X426800D01*
X422800Y180600D02*
Y188600D01*
X424800Y189881D02*
Y186600D01*
Y189881D02*
X426277D01*
X424800Y188319D02*
X425709D01*
X424800Y186600D02*
X426277D01*
X473874Y180883D02*
X481874D01*
X477874Y176883D02*
Y184883D01*
X479874Y186164D02*
Y182883D01*
Y186164D02*
X481351D01*
X479874Y184602D02*
X480783D01*
X479874Y182883D02*
X481351D01*
X477012Y171347D02*
X485012D01*
X481012Y167347D02*
Y175347D01*
X483012Y176628D02*
Y173347D01*
Y176628D02*
X484489D01*
X483012Y175066D02*
X483921D01*
X483012Y173347D02*
X484489D01*
X458800Y204600D02*
X466800D01*
X462800Y200600D02*
Y208600D01*
X464800Y209881D02*
Y206600D01*
Y209881D02*
X466277D01*
X464800Y208319D02*
X465709D01*
X464800Y206600D02*
X466277D01*
X124692Y218275D02*
X132692D01*
X128692Y214275D02*
Y222275D01*
X130692Y223556D02*
Y220275D01*
Y223556D02*
X132170D01*
X130692Y221994D02*
X131601D01*
X130692Y220275D02*
X132170D01*
X124451Y236200D02*
X132451D01*
X128451Y232200D02*
Y240200D01*
X130451Y241482D02*
Y238200D01*
Y241482D02*
X131928D01*
X130451Y239919D02*
X131360D01*
X130451Y238200D02*
X131928D01*
X161415Y233531D02*
X169415D01*
X165415Y229531D02*
Y237531D01*
X167415Y238812D02*
Y235531D01*
Y238812D02*
X168893D01*
X167415Y237250D02*
X168324D01*
X167415Y235531D02*
X168893D01*
X155957Y233484D02*
X163957D01*
X159957Y229484D02*
Y237484D01*
X161957Y238766D02*
Y235484D01*
Y238766D02*
X163434D01*
X161957Y237203D02*
X162866D01*
X161957Y235484D02*
X163434D01*
X150358Y233391D02*
X158358D01*
X154358Y229391D02*
Y237391D01*
X156358Y238672D02*
Y235391D01*
Y238672D02*
X157835D01*
X156358Y237110D02*
X157267D01*
X156358Y235391D02*
X157835D01*
X150358Y239052D02*
X158358D01*
X154358Y235052D02*
Y243052D01*
X156358Y244333D02*
Y241052D01*
Y244333D02*
X157835D01*
X156358Y242771D02*
X157267D01*
X156358Y241052D02*
X157835D01*
X155848Y239052D02*
X163848D01*
X159848Y235052D02*
Y243052D01*
X161848Y244333D02*
Y241052D01*
Y244333D02*
X163325D01*
X161848Y242771D02*
X162757D01*
X161848Y241052D02*
X163325D01*
X161447Y239068D02*
X169447D01*
X165447Y235068D02*
Y243068D01*
X167447Y244349D02*
Y241068D01*
Y244349D02*
X168924D01*
X167447Y242786D02*
X168356D01*
X167447Y241068D02*
X168924D01*
X161478Y244495D02*
X169478D01*
X165478Y240495D02*
Y248495D01*
X167478Y249776D02*
Y246495D01*
Y249776D02*
X168955D01*
X167478Y248214D02*
X168387D01*
X167478Y246495D02*
X168955D01*
X156004Y244526D02*
X164004D01*
X160004Y240526D02*
Y248526D01*
X162004Y249807D02*
Y246526D01*
Y249807D02*
X163481D01*
X162004Y248245D02*
X162913D01*
X162004Y246526D02*
X163481D01*
X150327Y244604D02*
X158327D01*
X154327Y240604D02*
Y248604D01*
X156327Y249885D02*
Y246604D01*
Y249885D02*
X157804D01*
X156327Y248323D02*
X157236D01*
X156327Y246604D02*
X157804D01*
X158800Y224600D02*
X166800D01*
X162800Y220600D02*
Y228600D01*
X164800Y229881D02*
Y226600D01*
Y229881D02*
X166277D01*
X164800Y228319D02*
X165709D01*
X164800Y226600D02*
X166277D01*
X200500Y211700D02*
X208500D01*
X204500Y207700D02*
Y215700D01*
X206500Y216981D02*
Y213700D01*
Y216981D02*
X207977D01*
X206500Y215419D02*
X207409D01*
X206500Y213700D02*
X207977D01*
X201000Y227500D02*
X209000D01*
X205000Y223500D02*
Y231500D01*
X207000Y232781D02*
Y229500D01*
Y232781D02*
X208477D01*
X207000Y231219D02*
X207909D01*
X207000Y229500D02*
X208477D01*
X207162Y232420D02*
X215162D01*
X211162Y228420D02*
Y236420D01*
X213162Y237701D02*
Y234420D01*
Y237701D02*
X214639D01*
X213162Y236139D02*
X214071D01*
X213162Y234420D02*
X214639D01*
X216291Y232222D02*
X224291D01*
X220291Y228222D02*
Y236222D01*
X222291Y237503D02*
Y234222D01*
Y237503D02*
X223768D01*
X222291Y235941D02*
X223200D01*
X222291Y234222D02*
X223768D01*
X195024Y210837D02*
X203024D01*
X199024Y206837D02*
Y214837D01*
X201024Y216118D02*
Y212837D01*
Y216118D02*
X202502D01*
X201024Y214555D02*
X201933D01*
X201024Y212837D02*
X202502D01*
X202810Y214760D02*
X210810D01*
X206810Y210760D02*
Y218760D01*
X208810Y220041D02*
Y216760D01*
Y220041D02*
X210287D01*
X208810Y218478D02*
X209719D01*
X208810Y216760D02*
X210287D01*
X178800Y244600D02*
X186800D01*
X182800Y240600D02*
Y248600D01*
X184800Y249881D02*
Y246600D01*
Y249881D02*
X186277D01*
X184800Y248319D02*
X185709D01*
X184800Y246600D02*
X186277D01*
X178800Y224600D02*
X186800D01*
X182800Y220600D02*
Y228600D01*
X184800Y229881D02*
Y226600D01*
Y229881D02*
X186277D01*
X184800Y228319D02*
X185709D01*
X184800Y226600D02*
X186277D01*
X185300Y205200D02*
X193300D01*
X189300Y201200D02*
Y209200D01*
X191300Y210481D02*
Y207200D01*
Y210481D02*
X192777D01*
X191300Y208919D02*
X192209D01*
X191300Y207200D02*
X192777D01*
X227390Y243321D02*
X235390D01*
X231390Y239321D02*
Y247321D01*
X233390Y248603D02*
Y245321D01*
Y248603D02*
X234868D01*
X233390Y247040D02*
X234300D01*
X233390Y245321D02*
X234868D01*
X232580Y217805D02*
X240580D01*
X236580Y213805D02*
Y221805D01*
X238580Y223086D02*
Y219805D01*
Y223086D02*
X240057D01*
X238580Y221524D02*
X239489D01*
X238580Y219805D02*
X240057D01*
X237393Y233349D02*
X245393D01*
X241393Y229349D02*
Y237349D01*
X243393Y238630D02*
Y235349D01*
Y238630D02*
X244870D01*
X243393Y237067D02*
X244302D01*
X243393Y235349D02*
X244870D01*
X225141Y225563D02*
X233141D01*
X229141Y221563D02*
Y229563D01*
X231141Y230844D02*
Y227563D01*
Y230844D02*
X232618D01*
X231141Y229282D02*
X232050D01*
X231141Y227563D02*
X232618D01*
X257037Y217912D02*
X265037D01*
X261037Y213912D02*
Y221912D01*
X263037Y223194D02*
Y219912D01*
Y223194D02*
X264515D01*
X263037Y221631D02*
X263946D01*
X263037Y219912D02*
X264515D01*
X255081Y240493D02*
X263081D01*
X259081Y236493D02*
Y244493D01*
X261081Y245774D02*
Y242493D01*
Y245774D02*
X262558D01*
X261081Y244212D02*
X261990D01*
X261081Y242493D02*
X262558D01*
X284700Y236723D02*
X292700D01*
X288700Y232723D02*
Y240723D01*
X290700Y242005D02*
Y238723D01*
Y242005D02*
X292177D01*
X290700Y240442D02*
X291609D01*
X290700Y238723D02*
X292177D01*
X291100Y233100D02*
X299100D01*
X295100Y229100D02*
Y237100D01*
X297100Y238381D02*
Y235100D01*
Y238381D02*
X298577D01*
X297100Y236819D02*
X298009D01*
X297100Y235100D02*
X298577D01*
X278700Y241000D02*
X286700D01*
X282700Y237000D02*
Y245000D01*
X284700Y246281D02*
Y243000D01*
Y246281D02*
X286177D01*
X284700Y244719D02*
X285609D01*
X284700Y243000D02*
X286177D01*
X297300Y215700D02*
X305300D01*
X301300Y211700D02*
Y219700D01*
X303300Y220981D02*
Y217700D01*
Y220981D02*
X304777D01*
X303300Y219419D02*
X304209D01*
X303300Y217700D02*
X304777D01*
X280619Y236879D02*
X288619D01*
X284619Y232879D02*
Y240879D01*
X286619Y242160D02*
Y238879D01*
Y242160D02*
X288096D01*
X286619Y240598D02*
X287528D01*
X286619Y238879D02*
X288096D01*
X272448Y213874D02*
X280448D01*
X276448Y209874D02*
Y217874D01*
X278448Y219156D02*
Y215874D01*
Y219156D02*
X279926D01*
X278448Y217593D02*
X279358D01*
X278448Y215874D02*
X279926D01*
X291682Y216423D02*
X299682D01*
X295682Y212423D02*
Y220423D01*
X297682Y221704D02*
Y218423D01*
Y221704D02*
X299159D01*
X297682Y220141D02*
X298591D01*
X297682Y218423D02*
X299159D01*
X293525Y228358D02*
X301525D01*
X297525Y224358D02*
Y232358D01*
X299525Y233639D02*
Y230358D01*
Y233639D02*
X301002D01*
X299525Y232077D02*
X300434D01*
X299525Y230358D02*
X301002D01*
X270165Y232262D02*
X278165D01*
X274165Y228262D02*
Y236262D01*
X276165Y237543D02*
Y234262D01*
Y237543D02*
X277642D01*
X276165Y235981D02*
X277074D01*
X276165Y234262D02*
X277642D01*
X260750Y233349D02*
X268750D01*
X264750Y229349D02*
Y237349D01*
X266750Y238630D02*
Y235349D01*
Y238630D02*
X268227D01*
X266750Y237067D02*
X267659D01*
X266750Y235349D02*
X268227D01*
X271957Y241070D02*
X279957D01*
X275957Y237070D02*
Y245070D01*
X277957Y246351D02*
Y243070D01*
Y246351D02*
X279434D01*
X277957Y244788D02*
X278866D01*
X277957Y243070D02*
X279434D01*
X296121Y208825D02*
X304121D01*
X300121Y204825D02*
Y212825D01*
X302121Y214107D02*
Y210825D01*
Y214107D02*
X303598D01*
X302121Y212544D02*
X303030D01*
X302121Y210825D02*
X303598D01*
X333700Y216000D02*
X341700D01*
X337700Y212000D02*
Y220000D01*
X339700Y221281D02*
Y218000D01*
Y221281D02*
X341177D01*
X339700Y219719D02*
X340609D01*
X339700Y218000D02*
X341177D01*
X317700Y205300D02*
X325700D01*
X321700Y201300D02*
Y209300D01*
X323700Y210581D02*
Y207300D01*
Y210581D02*
X325177D01*
X323700Y209019D02*
X324609D01*
X323700Y207300D02*
X325177D01*
X308577Y207804D02*
X316577D01*
X312577Y203804D02*
Y211804D01*
X314577Y213085D02*
Y209804D01*
Y213085D02*
X316055D01*
X314577Y211522D02*
X315486D01*
X314577Y209804D02*
X316055D01*
X306444Y214424D02*
X314444D01*
X310444Y210424D02*
Y218424D01*
X312444Y219705D02*
Y216424D01*
Y219705D02*
X313921D01*
X312444Y218142D02*
X313353D01*
X312444Y216424D02*
X313921D01*
X330188Y206741D02*
X338188D01*
X334188Y202741D02*
Y210741D01*
X336188Y212022D02*
Y208741D01*
Y212022D02*
X337666D01*
X336188Y210459D02*
X337097D01*
X336188Y208741D02*
X337666D01*
X334513Y211182D02*
X342513D01*
X338513Y207182D02*
Y215182D01*
X340513Y216464D02*
Y213182D01*
Y216464D02*
X341990D01*
X340513Y214901D02*
X341422D01*
X340513Y213182D02*
X341990D01*
X318407Y229967D02*
X326407D01*
X322407Y225967D02*
Y233967D01*
X324407Y235248D02*
Y231967D01*
Y235248D02*
X325885D01*
X324407Y233686D02*
X325317D01*
X324407Y231967D02*
X325885D01*
X303800Y218100D02*
X311800D01*
X307800Y214100D02*
Y222100D01*
X309800Y223381D02*
Y220100D01*
Y223381D02*
X311277D01*
X309800Y221819D02*
X310709D01*
X309800Y220100D02*
X311277D01*
X338500Y207400D02*
X346500D01*
X342500Y203400D02*
Y211400D01*
X344500Y212681D02*
Y209400D01*
Y212681D02*
X345977D01*
X344500Y211119D02*
X345409D01*
X344500Y209400D02*
X345977D01*
X341894Y211969D02*
X349894D01*
X345894Y207969D02*
Y215969D01*
X347894Y217250D02*
Y213969D01*
Y217250D02*
X349372D01*
X347894Y215687D02*
X348803D01*
X347894Y213969D02*
X349372D01*
X349239Y212450D02*
X357239D01*
X353239Y208450D02*
Y216450D01*
X355239Y217731D02*
Y214450D01*
Y217731D02*
X356716D01*
X355239Y216169D02*
X356148D01*
X355239Y214450D02*
X356716D01*
X365880Y229777D02*
X373880D01*
X369880Y225777D02*
Y233777D01*
X371880Y235059D02*
Y231777D01*
Y235059D02*
X373357D01*
X371880Y233496D02*
X372789D01*
X371880Y231777D02*
X373357D01*
X344465Y230915D02*
X352465D01*
X348465Y226915D02*
Y234915D01*
X350465Y236196D02*
Y232915D01*
Y236196D02*
X351943D01*
X350465Y234633D02*
X351374D01*
X350465Y232915D02*
X351943D01*
X372012Y242027D02*
X380012D01*
X376012Y238027D02*
Y246027D01*
X378012Y247308D02*
Y244027D01*
Y247308D02*
X379489D01*
X378012Y245746D02*
X378921D01*
X378012Y244027D02*
X379489D01*
X375246Y213194D02*
X383246D01*
X379246Y209194D02*
Y217194D01*
X381246Y218475D02*
Y215194D01*
Y218475D02*
X382724D01*
X381246Y216913D02*
X382156D01*
X381246Y215194D02*
X382724D01*
X385237Y214280D02*
X393237D01*
X389237Y210280D02*
Y218280D01*
X391237Y219561D02*
Y216280D01*
Y219561D02*
X392715D01*
X391237Y217999D02*
X392146D01*
X391237Y216280D02*
X392715D01*
X406114Y226761D02*
X414114D01*
X410114Y222761D02*
Y230761D01*
X412114Y232042D02*
Y228761D01*
Y232042D02*
X413591D01*
X412114Y230480D02*
X413023D01*
X412114Y228761D02*
X413591D01*
X406106Y234657D02*
X414106D01*
X410106Y230657D02*
Y238657D01*
X412106Y239939D02*
Y236657D01*
Y239939D02*
X413583D01*
X412106Y238376D02*
X413015D01*
X412106Y236657D02*
X413583D01*
X414558Y211920D02*
X422558D01*
X418558Y207920D02*
Y215920D01*
X420558Y217201D02*
Y213920D01*
Y217201D02*
X422035D01*
X420558Y215639D02*
X421467D01*
X420558Y213920D02*
X422035D01*
X406130Y208393D02*
X414130D01*
X410130Y204393D02*
Y212393D01*
X412130Y213675D02*
Y210393D01*
Y213675D02*
X413607D01*
X412130Y212112D02*
X413039D01*
X412130Y210393D02*
X413607D01*
X402851Y210056D02*
X410851D01*
X406851Y206056D02*
Y214056D01*
X408851Y215338D02*
Y212056D01*
Y215338D02*
X410328D01*
X408851Y213775D02*
X409760D01*
X408851Y212056D02*
X410328D01*
X402700Y223600D02*
X410700D01*
X406700Y219600D02*
Y227600D01*
X408700Y228881D02*
Y225600D01*
Y228881D02*
X410177D01*
X408700Y227319D02*
X409609D01*
X408700Y225600D02*
X410177D01*
X383380Y219945D02*
X391380D01*
X387380Y215945D02*
Y223945D01*
X389380Y225227D02*
Y221945D01*
Y225227D02*
X390857D01*
X389380Y223664D02*
X390289D01*
X389380Y221945D02*
X390857D01*
X398800Y244600D02*
X406800D01*
X402800Y240600D02*
Y248600D01*
X404800Y249881D02*
Y246600D01*
Y249881D02*
X406277D01*
X404800Y248319D02*
X405709D01*
X404800Y246600D02*
X406277D01*
X395181Y218585D02*
X403181D01*
X399181Y214585D02*
Y222585D01*
X401181Y223867D02*
Y220585D01*
Y223867D02*
X402658D01*
X401181Y222304D02*
X402090D01*
X401181Y220585D02*
X402658D01*
X389008Y208368D02*
X397008D01*
X393008Y204368D02*
Y212368D01*
X395008Y213649D02*
Y210368D01*
Y213649D02*
X396485D01*
X395008Y212087D02*
X395917D01*
X395008Y210368D02*
X396485D01*
X420951Y221585D02*
X428951D01*
X424951Y217585D02*
Y225585D01*
X426951Y226867D02*
Y223585D01*
Y226867D02*
X428428D01*
X426951Y225304D02*
X427860D01*
X426951Y223585D02*
X428428D01*
X435055Y215919D02*
X443055D01*
X439055Y211919D02*
Y219919D01*
X441055Y221200D02*
Y217919D01*
Y221200D02*
X442532D01*
X441055Y219638D02*
X441964D01*
X441055Y217919D02*
X442532D01*
X419651Y213000D02*
X427651D01*
X423651Y209000D02*
Y217000D01*
X425651Y218281D02*
Y215000D01*
Y218281D02*
X427129D01*
X425651Y216719D02*
X426561D01*
X425651Y215000D02*
X427129D01*
X477800Y214600D02*
X485800D01*
X481800Y210600D02*
Y218600D01*
X483800Y219881D02*
Y216600D01*
Y219881D02*
X485277D01*
X483800Y218319D02*
X484709D01*
X483800Y216600D02*
X485277D01*
X477800Y234600D02*
X485800D01*
X481800Y230600D02*
Y238600D01*
X483800Y239881D02*
Y236600D01*
Y239881D02*
X485277D01*
X483800Y238319D02*
X484709D01*
X483800Y236600D02*
X485277D01*
X458800Y244600D02*
X466800D01*
X462800Y240600D02*
Y248600D01*
X464800Y249881D02*
Y246600D01*
Y249881D02*
X466277D01*
X464800Y248319D02*
X465709D01*
X464800Y246600D02*
X466277D01*
X458800Y224600D02*
X466800D01*
X462800Y220600D02*
Y228600D01*
X464800Y229881D02*
Y226600D01*
Y229881D02*
X466277D01*
X464800Y228319D02*
X465709D01*
X464800Y226600D02*
X466277D01*
X134193Y272600D02*
X142193D01*
X138193Y268600D02*
Y276600D01*
X140193Y277881D02*
Y274600D01*
Y277881D02*
X141670D01*
X140193Y276319D02*
X141102D01*
X140193Y274600D02*
X141670D01*
X124513Y254167D02*
X132513D01*
X128513Y250167D02*
Y258167D01*
X130513Y259449D02*
Y256167D01*
Y259449D02*
X131990D01*
X130513Y257886D02*
X131422D01*
X130513Y256167D02*
X131990D01*
X124585Y272276D02*
X132585D01*
X128585Y268276D02*
Y276276D01*
X130585Y277557D02*
Y274276D01*
Y277557D02*
X132062D01*
X130585Y275995D02*
X131494D01*
X130585Y274276D02*
X132062D01*
X141044Y284243D02*
X149044D01*
X145044Y280243D02*
Y288243D01*
X147044Y289524D02*
Y286243D01*
Y289524D02*
X148521D01*
X147044Y287961D02*
X147953D01*
X147044Y286243D02*
X148521D01*
X165500Y274600D02*
X173500D01*
X169500Y270600D02*
Y278600D01*
X171500Y279881D02*
Y276600D01*
Y279881D02*
X172977D01*
X171500Y278319D02*
X172409D01*
X171500Y276600D02*
X172977D01*
X138963Y272571D02*
X146963D01*
X142963Y268571D02*
Y276571D01*
X144963Y277852D02*
Y274571D01*
Y277852D02*
X146440D01*
X144963Y276290D02*
X145872D01*
X144963Y274571D02*
X146440D01*
X158800Y264600D02*
X166800D01*
X162800Y260600D02*
Y268600D01*
X164800Y269881D02*
Y266600D01*
Y269881D02*
X166277D01*
X164800Y268319D02*
X165709D01*
X164800Y266600D02*
X166277D01*
X190400Y267500D02*
X198400D01*
X194400Y263500D02*
Y271500D01*
X196400Y272781D02*
Y269500D01*
Y272781D02*
X197877D01*
X196400Y271219D02*
X197309D01*
X196400Y269500D02*
X197877D01*
X200214Y247040D02*
X208214D01*
X204214Y243040D02*
Y251040D01*
X206214Y252321D02*
Y249040D01*
Y252321D02*
X207691D01*
X206214Y250759D02*
X207123D01*
X206214Y249040D02*
X207691D01*
X213400Y246300D02*
X221400D01*
X217400Y242300D02*
Y250300D01*
X219400Y251581D02*
Y248300D01*
Y251581D02*
X220877D01*
X219400Y250019D02*
X220309D01*
X219400Y248300D02*
X220877D01*
X197968Y283926D02*
X205968D01*
X201968Y279926D02*
Y287926D01*
X203968Y289207D02*
Y285926D01*
Y289207D02*
X205446D01*
X203968Y287645D02*
X204877D01*
X203968Y285926D02*
X205446D01*
X202223Y275650D02*
X210223D01*
X206223Y271650D02*
Y279650D01*
X208223Y280931D02*
Y277650D01*
Y280931D02*
X209701D01*
X208223Y279369D02*
X209133D01*
X208223Y277650D02*
X209701D01*
X178800Y264600D02*
X186800D01*
X182800Y260600D02*
Y268600D01*
X184800Y269881D02*
Y266600D01*
Y269881D02*
X186277D01*
X184800Y268319D02*
X185709D01*
X184800Y266600D02*
X186277D01*
X244791Y246103D02*
X252791D01*
X248791Y242103D02*
Y250103D01*
X250791Y251384D02*
Y248103D01*
Y251384D02*
X252268D01*
X250791Y249822D02*
X251700D01*
X250791Y248103D02*
X252268D01*
X238858Y269373D02*
X246858D01*
X242858Y265373D02*
Y273373D01*
X244858Y274654D02*
Y271373D01*
Y274654D02*
X246336D01*
X244858Y273092D02*
X245767D01*
X244858Y271373D02*
X246336D01*
X220552Y266870D02*
X228552D01*
X224552Y262870D02*
Y270870D01*
X226552Y272151D02*
Y268870D01*
Y272151D02*
X228029D01*
X226552Y270589D02*
X227461D01*
X226552Y268870D02*
X228029D01*
X284700Y274051D02*
X292700D01*
X288700Y270051D02*
Y278051D01*
X290700Y279333D02*
Y276051D01*
Y279333D02*
X292177D01*
X290700Y277770D02*
X291609D01*
X290700Y276051D02*
X292177D01*
X291100Y268800D02*
X299100D01*
X295100Y264800D02*
Y272800D01*
X297100Y274081D02*
Y270800D01*
Y274081D02*
X298577D01*
X297100Y272519D02*
X298009D01*
X297100Y270800D02*
X298577D01*
X278700Y271431D02*
X286700D01*
X282700Y267431D02*
Y275431D01*
X284700Y276712D02*
Y273431D01*
Y276712D02*
X286177D01*
X284700Y275149D02*
X285609D01*
X284700Y273431D02*
X286177D01*
X257929Y245460D02*
X265929D01*
X261929Y241460D02*
Y249460D01*
X263929Y250741D02*
Y247460D01*
Y250741D02*
X265406D01*
X263929Y249178D02*
X264838D01*
X263929Y247460D02*
X265406D01*
X297835Y272230D02*
X305835D01*
X301835Y268230D02*
Y276230D01*
X303835Y277512D02*
Y274230D01*
Y277512D02*
X305313D01*
X303835Y275949D02*
X304744D01*
X303835Y274230D02*
X305313D01*
X290341Y275236D02*
X298341D01*
X294341Y271236D02*
Y279236D01*
X296341Y280518D02*
Y277236D01*
Y280518D02*
X297818D01*
X296341Y278955D02*
X297250D01*
X296341Y277236D02*
X297818D01*
X272888Y281964D02*
X280888D01*
X276888Y277964D02*
Y285964D01*
X278888Y287245D02*
Y283964D01*
Y287245D02*
X280365D01*
X278888Y285683D02*
X279797D01*
X278888Y283964D02*
X280365D01*
X287458Y267510D02*
X295458D01*
X291458Y263510D02*
Y271510D01*
X293458Y272791D02*
Y269510D01*
Y272791D02*
X294935D01*
X293458Y271228D02*
X294367D01*
X293458Y269510D02*
X294935D01*
X281576Y267740D02*
X289576D01*
X285576Y263740D02*
Y271740D01*
X287576Y273021D02*
Y269740D01*
Y273021D02*
X289053D01*
X287576Y271459D02*
X288485D01*
X287576Y269740D02*
X289053D01*
X269283Y268369D02*
X277283D01*
X273283Y264369D02*
Y272369D01*
X275283Y273650D02*
Y270369D01*
Y273650D02*
X276760D01*
X275283Y272087D02*
X276192D01*
X275283Y270369D02*
X276760D01*
X269748Y275739D02*
X277748D01*
X273748Y271739D02*
Y279739D01*
X275748Y281020D02*
Y277739D01*
Y281020D02*
X277225D01*
X275748Y279458D02*
X276657D01*
X275748Y277739D02*
X277225D01*
X260570Y268121D02*
X268570D01*
X264570Y264121D02*
Y272121D01*
X266570Y273402D02*
Y270121D01*
Y273402D02*
X268048D01*
X266570Y271840D02*
X267480D01*
X266570Y270121D02*
X268048D01*
X259763Y284021D02*
X267763D01*
X263763Y280021D02*
Y288021D01*
X265763Y289302D02*
Y286021D01*
Y289302D02*
X267240D01*
X265763Y287739D02*
X266672D01*
X265763Y286021D02*
X267240D01*
X278800Y284600D02*
X286800D01*
X282800Y280600D02*
Y288600D01*
X284800Y289881D02*
Y286600D01*
Y289881D02*
X286277D01*
X284800Y288319D02*
X285709D01*
X284800Y286600D02*
X286277D01*
X301800Y273953D02*
X309800D01*
X305800Y269953D02*
Y277953D01*
X307800Y279234D02*
Y275953D01*
Y279234D02*
X309277D01*
X307800Y277672D02*
X308709D01*
X307800Y275953D02*
X309277D01*
X301800Y255200D02*
X309800D01*
X305800Y251200D02*
Y259200D01*
X307800Y260481D02*
Y257200D01*
Y260481D02*
X309277D01*
X307800Y258919D02*
X308709D01*
X307800Y257200D02*
X309277D01*
X314733Y276630D02*
X322733D01*
X318733Y272630D02*
Y280630D01*
X320733Y281911D02*
Y278630D01*
Y281911D02*
X322211D01*
X320733Y280348D02*
X321642D01*
X320733Y278630D02*
X322211D01*
X314741Y259140D02*
X322741D01*
X318741Y255140D02*
Y263140D01*
X320741Y264421D02*
Y261140D01*
Y264421D02*
X322218D01*
X320741Y262859D02*
X321650D01*
X320741Y261140D02*
X322218D01*
X333386Y275469D02*
X341386D01*
X337386Y271469D02*
Y279469D01*
X339386Y280751D02*
Y277469D01*
Y280751D02*
X340863D01*
X339386Y279188D02*
X340295D01*
X339386Y277469D02*
X340863D01*
X333386Y262469D02*
X341386D01*
X337386Y258469D02*
Y266469D01*
X339386Y267750D02*
Y264469D01*
Y267750D02*
X340863D01*
X339386Y266187D02*
X340295D01*
X339386Y264469D02*
X340863D01*
X323594Y272127D02*
X331594D01*
X327594Y268127D02*
Y276127D01*
X329594Y277408D02*
Y274127D01*
Y277408D02*
X331072D01*
X329594Y275845D02*
X330504D01*
X329594Y274127D02*
X331072D01*
X325239Y254035D02*
X333239D01*
X329239Y250035D02*
Y258035D01*
X331239Y259317D02*
Y256035D01*
Y259317D02*
X332717D01*
X331239Y257754D02*
X332148D01*
X331239Y256035D02*
X332717D01*
X306892Y253975D02*
X314892D01*
X310892Y249975D02*
Y257975D01*
X312892Y259256D02*
Y255975D01*
Y259256D02*
X314369D01*
X312892Y257694D02*
X313801D01*
X312892Y255975D02*
X314369D01*
X337828Y261318D02*
X345828D01*
X341828Y257318D02*
Y265318D01*
X343828Y266599D02*
Y263318D01*
Y266599D02*
X345305D01*
X343828Y265036D02*
X344737D01*
X343828Y263318D02*
X345305D01*
X305426Y283929D02*
X313426D01*
X309426Y279929D02*
Y287929D01*
X311426Y289211D02*
Y285929D01*
Y289211D02*
X312904D01*
X311426Y287648D02*
X312335D01*
X311426Y285929D02*
X312904D01*
X305989Y271985D02*
X313989D01*
X309989Y267985D02*
Y275985D01*
X311989Y277267D02*
Y273985D01*
Y277267D02*
X313466D01*
X311989Y275704D02*
X312898D01*
X311989Y273985D02*
X313466D01*
X318800Y284600D02*
X326800D01*
X322800Y280600D02*
Y288600D01*
X324800Y289881D02*
Y286600D01*
Y289881D02*
X326277D01*
X324800Y288319D02*
X325709D01*
X324800Y286600D02*
X326277D01*
X298800Y284600D02*
X306800D01*
X302800Y280600D02*
Y288600D01*
X304800Y289881D02*
Y286600D01*
Y289881D02*
X306277D01*
X304800Y288319D02*
X305709D01*
X304800Y286600D02*
X306277D01*
X367479Y268035D02*
X375479D01*
X371479Y264035D02*
Y272035D01*
X373479Y273316D02*
Y270035D01*
Y273316D02*
X374956D01*
X373479Y271754D02*
X374388D01*
X373479Y270035D02*
X374956D01*
X367185Y254216D02*
X375185D01*
X371185Y250216D02*
Y258216D01*
X373185Y259498D02*
Y256216D01*
Y259498D02*
X374663D01*
X373185Y257935D02*
X374095D01*
X373185Y256216D02*
X374663D01*
X341414Y254216D02*
X349414D01*
X345414Y250216D02*
Y258216D01*
X347414Y259498D02*
Y256216D01*
Y259498D02*
X348891D01*
X347414Y257935D02*
X348323D01*
X347414Y256216D02*
X348891D01*
X366974Y261453D02*
X374974D01*
X370974Y257453D02*
Y265453D01*
X372974Y266735D02*
Y263453D01*
Y266735D02*
X374452D01*
X372974Y265172D02*
X373883D01*
X372974Y263453D02*
X374452D01*
X338552Y268741D02*
X346552D01*
X342552Y264741D02*
Y272741D01*
X344552Y274022D02*
Y270741D01*
Y274022D02*
X346029D01*
X344552Y272460D02*
X345461D01*
X344552Y270741D02*
X346029D01*
X358800Y284600D02*
X366800D01*
X362800Y280600D02*
Y288600D01*
X364800Y289881D02*
Y286600D01*
Y289881D02*
X366277D01*
X364800Y288319D02*
X365709D01*
X364800Y286600D02*
X366277D01*
X338800Y284600D02*
X346800D01*
X342800Y280600D02*
Y288600D01*
X344800Y289881D02*
Y286600D01*
Y289881D02*
X346277D01*
X344800Y288319D02*
X345709D01*
X344800Y286600D02*
X346277D01*
X387198Y252475D02*
X395198D01*
X391198Y248475D02*
Y256475D01*
X393198Y257757D02*
Y254475D01*
Y257757D02*
X394675D01*
X393198Y256194D02*
X394107D01*
X393198Y254475D02*
X394675D01*
X389031Y267727D02*
X397031D01*
X393031Y263727D02*
Y271727D01*
X395031Y273009D02*
Y269727D01*
Y273009D02*
X396508D01*
X395031Y271446D02*
X395940D01*
X395031Y269727D02*
X396508D01*
X388685Y261769D02*
X396685D01*
X392685Y257769D02*
Y265769D01*
X394685Y267050D02*
Y263769D01*
Y267050D02*
X396162D01*
X394685Y265488D02*
X395594D01*
X394685Y263769D02*
X396162D01*
X410751Y267727D02*
X418751D01*
X414751Y263727D02*
Y271727D01*
X416751Y273009D02*
Y269727D01*
Y273009D02*
X418228D01*
X416751Y271446D02*
X417660D01*
X416751Y269727D02*
X418228D01*
X410772Y261096D02*
X418772D01*
X414772Y257096D02*
Y265096D01*
X416772Y266377D02*
Y263096D01*
Y266377D02*
X418249D01*
X416772Y264815D02*
X417681D01*
X416772Y263096D02*
X418249D01*
X388610Y279751D02*
X396610D01*
X392610Y275751D02*
Y283751D01*
X394610Y285033D02*
Y281751D01*
Y285033D02*
X396087D01*
X394610Y283470D02*
X395519D01*
X394610Y281751D02*
X396087D01*
X403759Y277760D02*
X411759D01*
X407759Y273760D02*
Y281760D01*
X409759Y283041D02*
Y279760D01*
Y283041D02*
X411236D01*
X409759Y281478D02*
X410668D01*
X409759Y279760D02*
X411236D01*
X398025Y268163D02*
X406025D01*
X402025Y264163D02*
Y272163D01*
X404025Y273445D02*
Y270163D01*
Y273445D02*
X405502D01*
X404025Y271882D02*
X404934D01*
X404025Y270163D02*
X405502D01*
X378800Y284600D02*
X386800D01*
X382800Y280600D02*
Y288600D01*
X384800Y289881D02*
Y286600D01*
Y289881D02*
X386277D01*
X384800Y288319D02*
X385709D01*
X384800Y286600D02*
X386277D01*
X412044Y277885D02*
X420044D01*
X416044Y273885D02*
Y281885D01*
X418044Y283167D02*
Y279885D01*
Y283167D02*
X419521D01*
X418044Y281604D02*
X418953D01*
X418044Y279885D02*
X419521D01*
X418477Y270541D02*
X426477D01*
X422477Y266541D02*
Y274541D01*
X424477Y275822D02*
Y272541D01*
Y275822D02*
X425954D01*
X424477Y274260D02*
X425386D01*
X424477Y272541D02*
X425954D01*
X428571Y274993D02*
X436571D01*
X432571Y270993D02*
Y278993D01*
X434571Y280274D02*
Y276993D01*
Y280274D02*
X436048D01*
X434571Y278712D02*
X435480D01*
X434571Y276993D02*
X436048D01*
X423500Y282000D02*
X431500D01*
X427500Y278000D02*
Y286000D01*
X429500Y287281D02*
Y284000D01*
Y287281D02*
X430977D01*
X429500Y285719D02*
X430409D01*
X429500Y284000D02*
X430977D01*
X425200Y260700D02*
X433200D01*
X429200Y256700D02*
Y264700D01*
X431200Y265981D02*
Y262700D01*
Y265981D02*
X432677D01*
X431200Y264419D02*
X432109D01*
X431200Y262700D02*
X432677D01*
X434107Y259317D02*
X442107D01*
X438107Y255317D02*
Y263317D01*
X440107Y264599D02*
Y261317D01*
Y264599D02*
X441585D01*
X440107Y263036D02*
X441016D01*
X440107Y261317D02*
X441585D01*
X433255Y246051D02*
X441255D01*
X437255Y242051D02*
Y250051D01*
X439255Y251333D02*
Y248051D01*
Y251333D02*
X440732D01*
X439255Y249770D02*
X440164D01*
X439255Y248051D02*
X440732D01*
X432856Y266266D02*
X440856D01*
X436856Y262266D02*
Y270266D01*
X438856Y271547D02*
Y268266D01*
Y271547D02*
X440333D01*
X438856Y269985D02*
X439765D01*
X438856Y268266D02*
X440333D01*
X477800Y254600D02*
X485800D01*
X481800Y250600D02*
Y258600D01*
X483800Y259881D02*
Y256600D01*
Y259881D02*
X485277D01*
X483800Y258319D02*
X484709D01*
X483800Y256600D02*
X485277D01*
X477800Y274600D02*
X485800D01*
X481800Y270600D02*
Y278600D01*
X483800Y279881D02*
Y276600D01*
Y279881D02*
X485277D01*
X483800Y278319D02*
X484709D01*
X483800Y276600D02*
X485277D01*
X458800Y284600D02*
X466800D01*
X462800Y280600D02*
Y288600D01*
X464800Y289881D02*
Y286600D01*
Y289881D02*
X466277D01*
X464800Y288319D02*
X465709D01*
X464800Y286600D02*
X466277D01*
X458800Y264600D02*
X466800D01*
X462800Y260600D02*
Y268600D01*
X464800Y269881D02*
Y266600D01*
Y269881D02*
X466277D01*
X464800Y268319D02*
X465709D01*
X464800Y266600D02*
X466277D01*
X136270Y288741D02*
X144270D01*
X140270Y284741D02*
Y292741D01*
X142270Y294022D02*
Y290741D01*
Y294022D02*
X143748D01*
X142270Y292460D02*
X143180D01*
X142270Y290741D02*
X143748D01*
X118800Y304600D02*
X126800D01*
X122800Y300600D02*
Y308600D01*
X124800Y309881D02*
Y306600D01*
Y309881D02*
X126277D01*
X124800Y308319D02*
X125709D01*
X124800Y306600D02*
X126277D01*
X123200Y285700D02*
X131200D01*
X127200Y281700D02*
Y289700D01*
X129200Y290981D02*
Y287700D01*
Y290981D02*
X130677D01*
X129200Y289419D02*
X130109D01*
X129200Y287700D02*
X130677D01*
X100800Y291100D02*
X108800D01*
X104800Y287100D02*
Y295100D01*
X106800Y296381D02*
Y293100D01*
Y296381D02*
X108277D01*
X106800Y294819D02*
X107709D01*
X106800Y293100D02*
X108277D01*
X100800Y311100D02*
X108800D01*
X104800Y307100D02*
Y315100D01*
X106800Y316381D02*
Y313100D01*
Y316381D02*
X108277D01*
X106800Y314819D02*
X107709D01*
X106800Y313100D02*
X108277D01*
X147083Y316346D02*
X155083D01*
X151083Y312346D02*
Y320346D01*
X153083Y321627D02*
Y318346D01*
Y321627D02*
X154560D01*
X153083Y320064D02*
X153992D01*
X153083Y318346D02*
X154560D01*
X177907Y285375D02*
X185907D01*
X181907Y281375D02*
Y289375D01*
X183907Y290656D02*
Y287375D01*
Y290656D02*
X185385D01*
X183907Y289093D02*
X184817D01*
X183907Y287375D02*
X185385D01*
X171432Y290822D02*
X179432D01*
X175432Y286822D02*
Y294822D01*
X177432Y296103D02*
Y292822D01*
Y296103D02*
X178909D01*
X177432Y294541D02*
X178341D01*
X177432Y292822D02*
X178909D01*
X154052Y296847D02*
X162052D01*
X158052Y292847D02*
Y300847D01*
X160052Y302129D02*
Y298847D01*
Y302129D02*
X161529D01*
X160052Y300566D02*
X160961D01*
X160052Y298847D02*
X161529D01*
X158800Y324600D02*
X166800D01*
X162800Y320600D02*
Y328600D01*
X164800Y329881D02*
Y326600D01*
Y329881D02*
X166277D01*
X164800Y328319D02*
X165709D01*
X164800Y326600D02*
X166277D01*
X158800Y304600D02*
X166800D01*
X162800Y300600D02*
Y308600D01*
X164800Y309881D02*
Y306600D01*
Y309881D02*
X166277D01*
X164800Y308319D02*
X165709D01*
X164800Y306600D02*
X166277D01*
X138800Y324600D02*
X146800D01*
X142800Y320600D02*
Y328600D01*
X144800Y329881D02*
Y326600D01*
Y329881D02*
X146277D01*
X144800Y328319D02*
X145709D01*
X144800Y326600D02*
X146277D01*
X193994Y307018D02*
X201994D01*
X197994Y303018D02*
Y311018D01*
X199994Y312300D02*
Y309018D01*
Y312300D02*
X201471D01*
X199994Y310737D02*
X200903D01*
X199994Y309018D02*
X201471D01*
X206300Y316343D02*
X214300D01*
X210300Y312343D02*
Y320343D01*
X212300Y321624D02*
Y318343D01*
Y321624D02*
X213777D01*
X212300Y320062D02*
X213209D01*
X212300Y318343D02*
X213777D01*
X199255Y291305D02*
X207255D01*
X203255Y287305D02*
Y295305D01*
X205255Y296586D02*
Y293305D01*
Y296586D02*
X206733D01*
X205255Y295024D02*
X206164D01*
X205255Y293305D02*
X206733D01*
X198800Y324600D02*
X206800D01*
X202800Y320600D02*
Y328600D01*
X204800Y329881D02*
Y326600D01*
Y329881D02*
X206277D01*
X204800Y328319D02*
X205709D01*
X204800Y326600D02*
X206277D01*
X198800Y304600D02*
X206800D01*
X202800Y300600D02*
Y308600D01*
X204800Y309881D02*
Y306600D01*
Y309881D02*
X206277D01*
X204800Y308319D02*
X205709D01*
X204800Y306600D02*
X206277D01*
X178800Y324600D02*
X186800D01*
X182800Y320600D02*
Y328600D01*
X184800Y329881D02*
Y326600D01*
Y329881D02*
X186277D01*
X184800Y328319D02*
X185709D01*
X184800Y326600D02*
X186277D01*
X178800Y304600D02*
X186800D01*
X182800Y300600D02*
Y308600D01*
X184800Y309881D02*
Y306600D01*
Y309881D02*
X186277D01*
X184800Y308319D02*
X185709D01*
X184800Y306600D02*
X186277D01*
X238800Y324600D02*
X246800D01*
X242800Y320600D02*
Y328600D01*
X244800Y329881D02*
Y326600D01*
Y329881D02*
X246277D01*
X244800Y328319D02*
X245709D01*
X244800Y326600D02*
X246277D01*
X218800Y324600D02*
X226800D01*
X222800Y320600D02*
Y328600D01*
X224800Y329881D02*
Y326600D01*
Y329881D02*
X226277D01*
X224800Y328319D02*
X225709D01*
X224800Y326600D02*
X226277D01*
X218800Y304600D02*
X226800D01*
X222800Y300600D02*
Y308600D01*
X224800Y309881D02*
Y306600D01*
Y309881D02*
X226277D01*
X224800Y308319D02*
X225709D01*
X224800Y306600D02*
X226277D01*
X265287Y316300D02*
X273287D01*
X269287Y312300D02*
Y320300D01*
X271287Y321581D02*
Y318300D01*
Y321581D02*
X272765D01*
X271287Y320019D02*
X272196D01*
X271287Y318300D02*
X272765D01*
X259952Y291285D02*
X267952D01*
X263952Y287285D02*
Y295285D01*
X265952Y296566D02*
Y293285D01*
Y296566D02*
X267429D01*
X265952Y295004D02*
X266861D01*
X265952Y293285D02*
X267429D01*
X278800Y324600D02*
X286800D01*
X282800Y320600D02*
Y328600D01*
X284800Y329881D02*
Y326600D01*
Y329881D02*
X286277D01*
X284800Y328319D02*
X285709D01*
X284800Y326600D02*
X286277D01*
X278800Y304600D02*
X286800D01*
X282800Y300600D02*
Y308600D01*
X284800Y309881D02*
Y306600D01*
Y309881D02*
X286277D01*
X284800Y308319D02*
X285709D01*
X284800Y306600D02*
X286277D01*
X258800Y324600D02*
X266800D01*
X262800Y320600D02*
Y328600D01*
X264800Y329881D02*
Y326600D01*
Y329881D02*
X266277D01*
X264800Y328319D02*
X265709D01*
X264800Y326600D02*
X266277D01*
X258800Y304600D02*
X266800D01*
X262800Y300600D02*
Y308600D01*
X264800Y309881D02*
Y306600D01*
Y309881D02*
X266277D01*
X264800Y308319D02*
X265709D01*
X264800Y306600D02*
X266277D01*
X324093Y316300D02*
X332093D01*
X328093Y312300D02*
Y320300D01*
X330093Y321581D02*
Y318300D01*
Y321581D02*
X331570D01*
X330093Y320019D02*
X331002D01*
X330093Y318300D02*
X331570D01*
X326464Y321403D02*
X334464D01*
X330464Y317403D02*
Y325403D01*
X332464Y326684D02*
Y323403D01*
Y326684D02*
X333942D01*
X332464Y325121D02*
X333374D01*
X332464Y323403D02*
X333942D01*
X320798Y312364D02*
X328798D01*
X324798Y308364D02*
Y316364D01*
X326798Y317646D02*
Y314364D01*
Y317646D02*
X328275D01*
X326798Y316083D02*
X327707D01*
X326798Y314364D02*
X328275D01*
X305185Y304208D02*
X313185D01*
X309185Y300208D02*
Y308208D01*
X311185Y309490D02*
Y306208D01*
Y309490D02*
X312662D01*
X311185Y307927D02*
X312094D01*
X311185Y306208D02*
X312662D01*
X318800Y324600D02*
X326800D01*
X322800Y320600D02*
Y328600D01*
X324800Y329881D02*
Y326600D01*
Y329881D02*
X326277D01*
X324800Y328319D02*
X325709D01*
X324800Y326600D02*
X326277D01*
X318800Y304600D02*
X326800D01*
X322800Y300600D02*
Y308600D01*
X324800Y309881D02*
Y306600D01*
Y309881D02*
X326277D01*
X324800Y308319D02*
X325709D01*
X324800Y306600D02*
X326277D01*
X298800Y324600D02*
X306800D01*
X302800Y320600D02*
Y328600D01*
X304800Y329881D02*
Y326600D01*
Y329881D02*
X306277D01*
X304800Y328319D02*
X305709D01*
X304800Y326600D02*
X306277D01*
X298800Y304600D02*
X306800D01*
X302800Y300600D02*
Y308600D01*
X304800Y309881D02*
Y306600D01*
Y309881D02*
X306277D01*
X304800Y308319D02*
X305709D01*
X304800Y306600D02*
X306277D01*
X372577Y302390D02*
X380577D01*
X376577Y298390D02*
Y306390D01*
X378577Y307672D02*
Y304390D01*
Y307672D02*
X380054D01*
X378577Y306109D02*
X379486D01*
X378577Y304390D02*
X380054D01*
X372897Y323949D02*
X380897D01*
X376897Y319949D02*
Y327949D01*
X378897Y329230D02*
Y325949D01*
Y329230D02*
X380374D01*
X378897Y327667D02*
X379806D01*
X378897Y325949D02*
X380374D01*
X362210Y320297D02*
X370210D01*
X366210Y316297D02*
Y324297D01*
X368210Y325578D02*
Y322297D01*
Y325578D02*
X369687D01*
X368210Y324015D02*
X369119D01*
X368210Y322297D02*
X369687D01*
X361364Y311916D02*
X369364D01*
X365364Y307916D02*
Y315916D01*
X367364Y317198D02*
Y313916D01*
Y317198D02*
X368841D01*
X367364Y315635D02*
X368273D01*
X367364Y313916D02*
X368841D01*
X350606Y321161D02*
X358606D01*
X354606Y317161D02*
Y325161D01*
X356606Y326443D02*
Y323161D01*
Y326443D02*
X358083D01*
X356606Y324880D02*
X357515D01*
X356606Y323161D02*
X358083D01*
X358800Y324600D02*
X366800D01*
X362800Y320600D02*
Y328600D01*
X364800Y329881D02*
Y326600D01*
Y329881D02*
X366277D01*
X364800Y328319D02*
X365709D01*
X364800Y326600D02*
X366277D01*
X358800Y304600D02*
X366800D01*
X362800Y300600D02*
Y308600D01*
X364800Y309881D02*
Y306600D01*
Y309881D02*
X366277D01*
X364800Y308319D02*
X365709D01*
X364800Y306600D02*
X366277D01*
X338800Y324600D02*
X346800D01*
X342800Y320600D02*
Y328600D01*
X344800Y329881D02*
Y326600D01*
Y329881D02*
X346277D01*
X344800Y328319D02*
X345709D01*
X344800Y326600D02*
X346277D01*
X338800Y304600D02*
X346800D01*
X342800Y300600D02*
Y308600D01*
X344800Y309881D02*
Y306600D01*
Y309881D02*
X346277D01*
X344800Y308319D02*
X345709D01*
X344800Y306600D02*
X346277D01*
X410316Y295312D02*
X418316D01*
X414316Y291312D02*
Y299312D01*
X416316Y300593D02*
Y297312D01*
Y300593D02*
X417794D01*
X416316Y299031D02*
X417225D01*
X416316Y297312D02*
X417794D01*
X384000Y316300D02*
X392000D01*
X388000Y312300D02*
Y320300D01*
X390000Y321581D02*
Y318300D01*
Y321581D02*
X391477D01*
X390000Y320019D02*
X390909D01*
X390000Y318300D02*
X391477D01*
X404683Y316300D02*
X412683D01*
X408683Y312300D02*
Y320300D01*
X410683Y321581D02*
Y318300D01*
Y321581D02*
X412160D01*
X410683Y320019D02*
X411592D01*
X410683Y318300D02*
X412160D01*
X389539Y303831D02*
X397539D01*
X393539Y299831D02*
Y307831D01*
X395539Y309112D02*
Y305831D01*
Y309112D02*
X397016D01*
X395539Y307550D02*
X396448D01*
X395539Y305831D02*
X397016D01*
X400457Y303139D02*
X408457D01*
X404457Y299139D02*
Y307139D01*
X406457Y308420D02*
Y305139D01*
Y308420D02*
X407934D01*
X406457Y306858D02*
X407366D01*
X406457Y305139D02*
X407934D01*
X396033Y289227D02*
X404033D01*
X400033Y285227D02*
Y293227D01*
X402033Y294508D02*
Y291227D01*
Y294508D02*
X403511D01*
X402033Y292946D02*
X402943D01*
X402033Y291227D02*
X403511D01*
X408095Y321302D02*
X416095D01*
X412095Y317302D02*
Y325302D01*
X414095Y326583D02*
Y323302D01*
Y326583D02*
X415572D01*
X414095Y325021D02*
X415004D01*
X414095Y323302D02*
X415572D01*
X414190Y310136D02*
X422190D01*
X418190Y306136D02*
Y314136D01*
X420190Y315418D02*
Y312136D01*
Y315418D02*
X421668D01*
X420190Y313855D02*
X421100D01*
X420190Y312136D02*
X421668D01*
X391223Y310217D02*
X399223D01*
X395223Y306217D02*
Y314217D01*
X397223Y315499D02*
Y312217D01*
Y315499D02*
X398700D01*
X397223Y313936D02*
X398132D01*
X397223Y312217D02*
X398700D01*
X390230Y323309D02*
X398230D01*
X394230Y319309D02*
Y327309D01*
X396230Y328590D02*
Y325309D01*
Y328590D02*
X397707D01*
X396230Y327028D02*
X397139D01*
X396230Y325309D02*
X397707D01*
X398800Y324600D02*
X406800D01*
X402800Y320600D02*
Y328600D01*
X404800Y329881D02*
Y326600D01*
Y329881D02*
X406277D01*
X404800Y328319D02*
X405709D01*
X404800Y326600D02*
X406277D01*
X438049Y302500D02*
X446049D01*
X442049Y298500D02*
Y306500D01*
X444049Y307782D02*
Y304500D01*
Y307782D02*
X445526D01*
X444049Y306219D02*
X444958D01*
X444049Y304500D02*
X445526D01*
X423500Y309900D02*
X431500D01*
X427500Y305900D02*
Y313900D01*
X429500Y315181D02*
Y311900D01*
Y315181D02*
X430977D01*
X429500Y313619D02*
X430409D01*
X429500Y311900D02*
X430977D01*
X427414Y290145D02*
X435414D01*
X431414Y286145D02*
Y294145D01*
X433414Y295426D02*
Y292145D01*
Y295426D02*
X434891D01*
X433414Y293863D02*
X434323D01*
X433414Y292145D02*
X434891D01*
X446436Y287269D02*
X454436D01*
X450436Y283269D02*
Y291269D01*
X452436Y292550D02*
Y289269D01*
Y292550D02*
X453913D01*
X452436Y290988D02*
X453345D01*
X452436Y289269D02*
X453913D01*
X446556Y295658D02*
X454556D01*
X450556Y291658D02*
Y299658D01*
X452556Y300939D02*
Y297658D01*
Y300939D02*
X454034D01*
X452556Y299377D02*
X453466D01*
X452556Y297658D02*
X454034D01*
X446349Y306052D02*
X454349D01*
X450349Y302052D02*
Y310052D01*
X452349Y311333D02*
Y308052D01*
Y311333D02*
X453827D01*
X452349Y309771D02*
X453259D01*
X452349Y308052D02*
X453827D01*
X446728Y314011D02*
X454728D01*
X450728Y310011D02*
Y318011D01*
X452728Y319293D02*
Y316011D01*
Y319293D02*
X454206D01*
X452728Y317730D02*
X453638D01*
X452728Y316011D02*
X454206D01*
X448339Y321402D02*
X456339D01*
X452339Y317402D02*
Y325402D01*
X454339Y326684D02*
Y323402D01*
Y326684D02*
X455817D01*
X454339Y325121D02*
X455248D01*
X454339Y323402D02*
X455817D01*
X422821Y320095D02*
X430821D01*
X426821Y316095D02*
Y324095D01*
X428821Y325376D02*
Y322095D01*
Y325376D02*
X430298D01*
X428821Y323814D02*
X429730D01*
X428821Y322095D02*
X430298D01*
X418800Y324600D02*
X426800D01*
X422800Y320600D02*
Y328600D01*
X424800Y329881D02*
Y326600D01*
Y329881D02*
X426277D01*
X424800Y328319D02*
X425709D01*
X424800Y326600D02*
X426277D01*
X433400Y305600D02*
X441400D01*
X437400Y301600D02*
Y309600D01*
X439400Y310881D02*
Y307600D01*
Y310881D02*
X440877D01*
X439400Y309319D02*
X440309D01*
X439400Y307600D02*
X440877D01*
X433200Y294800D02*
X441200D01*
X437200Y290800D02*
Y298800D01*
X439200Y300081D02*
Y296800D01*
Y300081D02*
X440677D01*
X439200Y298519D02*
X440109D01*
X439200Y296800D02*
X440677D01*
X460279Y317991D02*
X468279D01*
X464279Y313991D02*
Y321991D01*
X466279Y323272D02*
Y319991D01*
Y323272D02*
X467756D01*
X466279Y321710D02*
X467188D01*
X466279Y319991D02*
X467756D01*
X477800Y294600D02*
X485800D01*
X481800Y290600D02*
Y298600D01*
X483800Y299881D02*
Y296600D01*
Y299881D02*
X485277D01*
X483800Y298319D02*
X484709D01*
X483800Y296600D02*
X485277D01*
X477800Y314600D02*
X485800D01*
X481800Y310600D02*
Y318600D01*
X483800Y319881D02*
Y316600D01*
Y319881D02*
X485277D01*
X483800Y318319D02*
X484709D01*
X483800Y316600D02*
X485277D01*
X458800Y324600D02*
X466800D01*
X462800Y320600D02*
Y328600D01*
X464800Y329881D02*
Y326600D01*
Y329881D02*
X466277D01*
X464800Y328319D02*
X465709D01*
X464800Y326600D02*
X466277D01*
X100800Y331100D02*
X108800D01*
X104800Y327100D02*
Y335100D01*
X106800Y336381D02*
Y333100D01*
Y336381D02*
X108277D01*
X106800Y334819D02*
X107709D01*
X106800Y333100D02*
X108277D01*
X158800Y344600D02*
X166800D01*
X162800Y340600D02*
Y348600D01*
X164800Y349881D02*
Y346600D01*
Y349881D02*
X166277D01*
X164800Y348319D02*
X165709D01*
X164800Y346600D02*
X166277D01*
X138800Y344600D02*
X146800D01*
X142800Y340600D02*
Y348600D01*
X144800Y349881D02*
Y346600D01*
Y349881D02*
X146277D01*
X144800Y348319D02*
X145709D01*
X144800Y346600D02*
X146277D01*
X198800Y344600D02*
X206800D01*
X202800Y340600D02*
Y348600D01*
X204800Y349881D02*
Y346600D01*
Y349881D02*
X206277D01*
X204800Y348319D02*
X205709D01*
X204800Y346600D02*
X206277D01*
X178800Y344600D02*
X186800D01*
X182800Y340600D02*
Y348600D01*
X184800Y349881D02*
Y346600D01*
Y349881D02*
X186277D01*
X184800Y348319D02*
X185709D01*
X184800Y346600D02*
X186277D01*
X238800Y344600D02*
X246800D01*
X242800Y340600D02*
Y348600D01*
X244800Y349881D02*
Y346600D01*
Y349881D02*
X246277D01*
X244800Y348319D02*
X245709D01*
X244800Y346600D02*
X246277D01*
X218800Y344600D02*
X226800D01*
X222800Y340600D02*
Y348600D01*
X224800Y349881D02*
Y346600D01*
Y349881D02*
X226277D01*
X224800Y348319D02*
X225709D01*
X224800Y346600D02*
X226277D01*
X278800Y344600D02*
X286800D01*
X282800Y340600D02*
Y348600D01*
X284800Y349881D02*
Y346600D01*
Y349881D02*
X286277D01*
X284800Y348319D02*
X285709D01*
X284800Y346600D02*
X286277D01*
X258800Y344600D02*
X266800D01*
X262800Y340600D02*
Y348600D01*
X264800Y349881D02*
Y346600D01*
Y349881D02*
X266277D01*
X264800Y348319D02*
X265709D01*
X264800Y346600D02*
X266277D01*
X318800Y344600D02*
X326800D01*
X322800Y340600D02*
Y348600D01*
X324800Y349881D02*
Y346600D01*
Y349881D02*
X326277D01*
X324800Y348319D02*
X325709D01*
X324800Y346600D02*
X326277D01*
X298800Y344600D02*
X306800D01*
X302800Y340600D02*
Y348600D01*
X304800Y349881D02*
Y346600D01*
Y349881D02*
X306277D01*
X304800Y348319D02*
X305709D01*
X304800Y346600D02*
X306277D01*
X358800Y344600D02*
X366800D01*
X362800Y340600D02*
Y348600D01*
X364800Y349881D02*
Y346600D01*
Y349881D02*
X366277D01*
X364800Y348319D02*
X365709D01*
X364800Y346600D02*
X366277D01*
X338800Y344600D02*
X346800D01*
X342800Y340600D02*
Y348600D01*
X344800Y349881D02*
Y346600D01*
Y349881D02*
X346277D01*
X344800Y348319D02*
X345709D01*
X344800Y346600D02*
X346277D01*
X398800Y344600D02*
X406800D01*
X402800Y340600D02*
Y348600D01*
X404800Y349881D02*
Y346600D01*
Y349881D02*
X406277D01*
X404800Y348319D02*
X405709D01*
X404800Y346600D02*
X406277D01*
X378800Y344600D02*
X386800D01*
X382800Y340600D02*
Y348600D01*
X384800Y349881D02*
Y346600D01*
Y349881D02*
X386277D01*
X384800Y348319D02*
X385709D01*
X384800Y346600D02*
X386277D01*
X438800Y344600D02*
X446800D01*
X442800Y340600D02*
Y348600D01*
X444800Y349881D02*
Y346600D01*
Y349881D02*
X446277D01*
X444800Y348319D02*
X445709D01*
X444800Y346600D02*
X446277D01*
X418800Y344600D02*
X426800D01*
X422800Y340600D02*
Y348600D01*
X424800Y349881D02*
Y346600D01*
Y349881D02*
X426277D01*
X424800Y348319D02*
X425709D01*
X424800Y346600D02*
X426277D01*
X477800Y334600D02*
X485800D01*
X481800Y330600D02*
Y338600D01*
X483800Y339881D02*
Y336600D01*
Y339881D02*
X485277D01*
X483800Y338319D02*
X484709D01*
X483800Y336600D02*
X485277D01*
X100000Y100000D02*
Y208100D01*
X125500*
Y281800*
X100000*
Y359843*
X485827*
Y100000*
X100000*
Y442000D02*
X269232D01*
X100000D02*
X110000Y444500D01*
Y439500*
X100000Y442000*
X485827D02*
X316595D01*
X485827D02*
X475827Y439500D01*
Y444500*
X485827Y442000*
X100000Y364843D02*
Y447000D01*
X485827Y364843D02*
Y447000D01*
X275186Y442625D02*
X274959Y441688D01*
X274959D02*
X274504Y441063D01*
X274504D02*
X273822Y440750D01*
X273595*
X272913Y441063*
X272913D02*
X272459Y441688D01*
X272459D02*
X272232Y442625D01*
Y442938*
X272232D02*
X272459Y443875D01*
X272913Y444500*
X273595Y444813*
X273595D02*
X273822D01*
X273822D02*
X274504Y444500D01*
X274959Y443875*
X275186Y442625*
Y441063*
X275186D02*
X274959Y439500D01*
X274504Y438563*
X274504D02*
X273822Y438250D01*
X273368*
X272686Y438563*
X272686D02*
X272459Y439188D01*
X278368Y444813D02*
X277686Y444500D01*
X277459Y443875*
Y443250*
X277686Y442625*
X278141Y442313*
X278141D02*
X279050Y442000D01*
X279732Y441688*
X279732D02*
X280186Y441063D01*
X280186D02*
X280413Y440438D01*
X280413D02*
Y439500D01*
X280186Y438875*
X279959Y438563*
X279959D02*
X279277Y438250D01*
X278368*
X277686Y438563*
X277686D02*
X277459Y438875D01*
X277232Y439500*
Y440438*
X277232D02*
X277459Y441063D01*
X277459D02*
X277913Y441688D01*
X277913D02*
X278595Y442000D01*
X279504Y442313*
X279504D02*
X279959Y442625D01*
X280186Y443250*
Y443875*
X279959Y444500*
X279277Y444813*
X279277D02*
X278368D01*
X282686Y438875D02*
X282459Y438563D01*
X282459D02*
X282686Y438250D01*
X282913Y438563*
X282913D02*
X282686Y438875D01*
X286322Y444813D02*
X285641Y444500D01*
X285186Y443563*
X285186D02*
X284959Y442000D01*
Y441063*
X284959D02*
X285186Y439500D01*
X285641Y438563*
X285641D02*
X286322Y438250D01*
X286777*
X287459Y438563*
X287459D02*
X287913Y439500D01*
X288141Y441063*
X288141D02*
Y442000D01*
X287913Y443563*
X287913D02*
X287459Y444500D01*
X286777Y444813*
X286777D02*
X286322D01*
X291550D02*
X290868Y444500D01*
X290413Y443563*
X290413D02*
X290186Y442000D01*
Y441063*
X290186D02*
X290413Y439500D01*
X290868Y438563*
X290868D02*
X291550Y438250D01*
X292004*
X292686Y438563*
X292686D02*
X293141Y439500D01*
X293368Y441063*
X293368D02*
Y442000D01*
X293141Y443563*
X293141D02*
X292686Y444500D01*
X292004Y444813*
X292004D02*
X291550D01*
X296777D02*
X296095Y444500D01*
X295641Y443563*
X295641D02*
X295413Y442000D01*
Y441063*
X295413D02*
X295641Y439500D01*
X296095Y438563*
X296095D02*
X296777Y438250D01*
X297232*
X297913Y438563*
X297913D02*
X298368Y439500D01*
X298595Y441063*
X298595D02*
Y442000D01*
X298368Y443563*
X298368D02*
X297913Y444500D01*
X297232Y444813*
X297232D02*
X296777D01*
X300641Y442625D02*
Y438250D01*
Y441375D02*
X301322Y442313D01*
X301322D02*
X301777Y442625D01*
X302459*
X302913Y442313*
X302913D02*
X303141Y441375D01*
Y438250*
Y441375D02*
X303822Y442313D01*
X303822D02*
X304277Y442625D01*
X304959*
X305413Y442313*
X305413D02*
X305641Y441375D01*
Y438250*
X307686Y442625D02*
Y438250D01*
Y441375D02*
X308368Y442313D01*
X308368D02*
X308822Y442625D01*
X309504*
X309959Y442313*
X309959D02*
X310186Y441375D01*
Y438250*
Y441375D02*
X310868Y442313D01*
X310868D02*
X311322Y442625D01*
X312004*
X312459Y442313*
X312459D02*
X312686Y441375D01*
Y438250*
X542000Y100000D02*
Y223171D01*
Y100000D02*
X539500Y110000D01*
X544500*
X542000Y100000*
Y359843D02*
Y236671D01*
Y359843D02*
X544500Y349843D01*
X539500*
X542000Y359843*
X490827Y100000D02*
X547000D01*
X490827Y359843D02*
X547000D01*
X524159Y231796D02*
X523932Y232421D01*
X523250Y232734*
X522795*
X522114Y232421*
X521659Y231484*
X521432Y229921*
Y228359*
X521659Y227109*
X522114Y226484*
X522795Y226171*
X523023*
X523705Y226484*
X524159Y227109*
X524386Y228046*
Y228359*
X524159Y229296*
X523705Y229921*
X523023Y230234*
X522795*
X522114Y229921*
X521659Y229296*
X521432Y228359*
X529159Y231796D02*
X528932Y232421D01*
X528250Y232734*
X527795*
X527114Y232421*
X526659Y231484*
X526432Y229921*
Y228359*
X526659Y227109*
X527114Y226484*
X527795Y226171*
X528023*
X528705Y226484*
X529159Y227109*
X529386Y228046*
Y228359*
X529159Y229296*
X528705Y229921*
X528023Y230234*
X527795*
X527114Y229921*
X526659Y229296*
X526432Y228359*
X531659Y226796D02*
X531432Y226484D01*
X531659Y226171*
X531886Y226484*
X531659Y226796*
X535295Y232734D02*
X534614Y232421D01*
X534159Y231484*
X533932Y229921*
Y228984*
X534159Y227421*
X534614Y226484*
X535295Y226171*
X535750*
X536432Y226484*
X536886Y227421*
X537114Y228984*
Y229921*
X536886Y231484*
X536432Y232421*
X535750Y232734*
X535295*
X540523D02*
X539841Y232421D01*
X539386Y231484*
X539159Y229921*
Y228984*
X539386Y227421*
X539841Y226484*
X540523Y226171*
X540977*
X541659Y226484*
X542114Y227421*
X542341Y228984*
Y229921*
X542114Y231484*
X541659Y232421*
X540977Y232734*
X540523*
X545750D02*
X545068Y232421D01*
X544614Y231484*
X544386Y229921*
Y228984*
X544614Y227421*
X545068Y226484*
X545750Y226171*
X546205*
X546886Y226484*
X547341Y227421*
X547568Y228984*
Y229921*
X547341Y231484*
X546886Y232421*
X546205Y232734*
X545750*
X549614Y230546D02*
Y226171D01*
Y229296D02*
X550295Y230234D01*
X550750Y230546*
X551432*
X551886Y230234*
X552114Y229296*
Y226171*
Y229296D02*
X552795Y230234D01*
X553250Y230546*
X553932*
X554386Y230234*
X554614Y229296*
Y226171*
X556659Y230546D02*
Y226171D01*
Y229296D02*
X557341Y230234D01*
X557795Y230546*
X558477*
X558932Y230234*
X559159Y229296*
Y226171*
Y229296D02*
X559841Y230234D01*
X560295Y230546*
X560977*
X561432Y230234*
X561659Y229296*
Y226171*
X700000Y388000D02*
X958000D01*
X700000Y364000D02*
X958000D01*
X700000Y340000D02*
X958000D01*
X700000Y316000D02*
X958000D01*
X700000Y292000D02*
X958000D01*
X700000Y268000D02*
X958000D01*
X700000Y244000D02*
X958000D01*
X700000Y220000D02*
X958000D01*
X700000Y196000D02*
X958000D01*
X700000Y172000D02*
X958000D01*
X700000Y148000D02*
X958000D01*
X700000Y124000D02*
X958000D01*
X700000Y100000D02*
X958000D01*
X700000Y388000D02*
Y100000D01*
X784000Y388000D02*
Y100000D01*
X820000Y388000D02*
Y100000D01*
X856000Y388000D02*
Y100000D01*
X910000Y388000D02*
Y100000D01*
X958000Y388000D02*
Y100000D01*
X735500Y376750D02*
X734955Y377500D01*
X734136Y377875*
X733045*
X732227Y377500*
X731682Y376750*
Y376000*
X731955Y375250*
X732227Y374875*
X732773Y374500*
X734409Y373750*
X734955Y373375*
X735227Y373000*
X735500Y372250*
Y371125*
X734955Y370375*
X734136Y370000*
X733045*
X732227Y370375*
X731682Y371125*
X737955Y377875D02*
Y370000D01*
X744227Y377875D02*
X740409Y370000D01*
Y377875D02*
X744227D01*
X740409Y370000D02*
X744227D01*
X746682Y377875D02*
Y370000D01*
Y377875D02*
X750227D01*
X746682Y374125D02*
X748864D01*
X746682Y370000D02*
X750227D01*
X793864Y377875D02*
X793318Y377500D01*
X792773Y376750*
X792500Y376000*
X792227Y374875*
Y373000*
X792500Y371875*
X792773Y371125*
X793318Y370375*
X793864Y370000*
X794955*
X795500Y370375*
X796045Y371125*
X796318Y371875*
X796591Y373000*
Y374875*
X796318Y376000*
X796045Y376750*
X795500Y377500*
X794955Y377875*
X793864*
X794682Y371500D02*
X796318Y369250D01*
X800955Y377875D02*
Y370000D01*
X799045Y377875D02*
X802864D01*
X805318D02*
X807500Y374125D01*
Y370000*
X809682Y377875D02*
X807500Y374125D01*
X832045Y376750D02*
X831500Y377500D01*
X830682Y377875*
X829591*
X828773Y377500*
X828227Y376750*
Y376000*
X828500Y375250*
X828773Y374875*
X829318Y374500*
X830955Y373750*
X831500Y373375*
X831773Y373000*
X832045Y372250*
Y371125*
X831500Y370375*
X830682Y370000*
X829591*
X828773Y370375*
X828227Y371125*
X834500Y377875D02*
X836682Y374125D01*
Y370000*
X838864Y377875D02*
X836682Y374125D01*
X841318Y377875D02*
Y370000D01*
Y377875D02*
X843500Y370000D01*
X845682Y377875D02*
X843500Y370000D01*
X845682Y377875D02*
Y370000D01*
X867500Y377875D02*
Y370000D01*
Y377875D02*
X869955D01*
X870773Y377500*
X871045Y377125*
X871318Y376375*
Y375250*
X871045Y374500*
X870773Y374125*
X869955Y373750*
X867500*
X873773Y377875D02*
Y370000D01*
X877045*
X881682Y377875D02*
X879500Y370000D01*
X881682Y377875D02*
X883864Y370000D01*
X880318Y372625D02*
X883045D01*
X888227Y377875D02*
Y370000D01*
X886318Y377875D02*
X890136D01*
X892591D02*
Y370000D01*
Y377875D02*
X896136D01*
X892591Y374125D02*
X894773D01*
X892591Y370000D02*
X896136D01*
X898591Y377875D02*
Y370000D01*
Y377875D02*
X900500D01*
X901318Y377500*
X901864Y376750*
X902136Y376000*
X902409Y374875*
Y373000*
X902136Y371875*
X901864Y371125*
X901318Y370375*
X900500Y370000*
X898591*
X926682Y377875D02*
Y370000D01*
X924773Y377875D02*
X928591D01*
X932682D02*
X932136Y377500D01*
X931591Y376750*
X931318Y376000*
X931045Y374875*
Y373000*
X931318Y371875*
X931591Y371125*
X932136Y370375*
X932682Y370000*
X933773*
X934318Y370375*
X934864Y371125*
X935136Y371875*
X935409Y373000*
Y374875*
X935136Y376000*
X934864Y376750*
X934318Y377500*
X933773Y377875*
X932682*
X937864D02*
Y370000D01*
X941136*
X706545Y353875D02*
X709545D01*
X707909Y350875*
X708727*
X709273Y350500*
X709545Y350125*
X709818Y349000*
Y348250*
X709545Y347125*
X709000Y346375*
X708182Y346000*
X707364*
X706545Y346375*
X706273Y346750*
X706000Y347500*
X715818Y351250D02*
X715545Y350125D01*
X715000Y349375*
X714182Y349000*
X713909*
X713091Y349375*
X712545Y350125*
X712273Y351250*
Y351625*
X712545Y352750*
X713091Y353500*
X713909Y353875*
X714182*
X715000Y353500*
X715545Y352750*
X715818Y351250*
Y349375*
X715545Y347500*
X715000Y346375*
X714182Y346000*
X713636*
X712818Y346375*
X712545Y347125*
X718545Y346750D02*
X718273Y346375D01*
X718545Y346000*
X718818Y346375*
X718545Y346750*
X721818Y353875D02*
X724818D01*
X723182Y350875*
X724000*
X724545Y350500*
X724818Y350125*
X725091Y349000*
Y348250*
X724818Y347125*
X724273Y346375*
X723455Y346000*
X722636*
X721818Y346375*
X721545Y346750*
X721273Y347500*
X731364Y353875D02*
X728636Y346000D01*
X727545Y353875D02*
X731364D01*
X799318Y352000D02*
Y352375D01*
X799591Y353125*
X799864Y353500*
X800409Y353875*
X801500*
X802045Y353500*
X802318Y353125*
X802591Y352375*
Y351625*
X802318Y350875*
X801773Y349750*
X799045Y346000*
X802864*
X832000Y352000D02*
X844000D01*
X838000Y346000D02*
Y358000D01*
X864636Y353875D02*
X866818Y350125D01*
Y346000*
X869000Y353875D02*
X866818Y350125D01*
X871455Y353875D02*
Y346000D01*
Y353875D02*
X875000D01*
X871455Y350125D02*
X873636D01*
X871455Y346000D02*
X875000D01*
X881273Y352750D02*
X880727Y353500D01*
X879909Y353875*
X878818*
X878000Y353500*
X877455Y352750*
Y352000*
X877727Y351250*
X878000Y350875*
X878545Y350500*
X880182Y349750*
X880727Y349375*
X881000Y349000*
X881273Y348250*
Y347125*
X880727Y346375*
X879909Y346000*
X878818*
X878000Y346375*
X877455Y347125*
X917818Y352750D02*
Y346000D01*
X915364Y349375D02*
X920273D01*
X927636Y355375D02*
X922727Y343375D01*
X930091Y349375D02*
X935000D01*
X939091Y353875D02*
X938273Y353500D01*
X937727Y352375*
X937455Y350500*
Y349375*
X937727Y347500*
X938273Y346375*
X939091Y346000*
X939636*
X940455Y346375*
X941000Y347500*
X941273Y349375*
Y350500*
X941000Y352375*
X940455Y353500*
X939636Y353875*
X939091*
X944000Y346750D02*
X943727Y346375D01*
X944000Y346000*
X944273Y346375*
X944000Y346750*
X948364Y353875D02*
X947545Y353500D01*
X947000Y352375*
X946727Y350500*
Y349375*
X947000Y347500*
X947545Y346375*
X948364Y346000*
X948909*
X949727Y346375*
X950273Y347500*
X950545Y349375*
Y350500*
X950273Y352375*
X949727Y353500*
X948909Y353875*
X948364*
X706273Y328000D02*
Y328375D01*
X706545Y329125*
X706818Y329500*
X707364Y329875*
X708455*
X709000Y329500*
X709273Y329125*
X709545Y328375*
Y327625*
X709273Y326875*
X708727Y325750*
X706000Y322000*
X709818*
X712818Y329875D02*
X715818D01*
X714182Y326875*
X715000*
X715545Y326500*
X715818Y326125*
X716091Y325000*
Y324250*
X715818Y323125*
X715273Y322375*
X714455Y322000*
X713636*
X712818Y322375*
X712545Y322750*
X712273Y323500*
X718818Y322750D02*
X718545Y322375D01*
X718818Y322000*
X719091Y322375*
X718818Y322750*
X724818Y328750D02*
X724545Y329500D01*
X723727Y329875*
X723182*
X722364Y329500*
X721818Y328375*
X721545Y326500*
Y324625*
X721818Y323125*
X722364Y322375*
X723182Y322000*
X723455*
X724273Y322375*
X724818Y323125*
X725091Y324250*
Y324625*
X724818Y325750*
X724273Y326500*
X723455Y326875*
X723182*
X722364Y326500*
X721818Y325750*
X721545Y324625*
X727818Y328000D02*
Y328375D01*
X728091Y329125*
X728364Y329500*
X728909Y329875*
X730000*
X730545Y329500*
X730818Y329125*
X731091Y328375*
Y327625*
X730818Y326875*
X730273Y325750*
X727545Y322000*
X731364*
X740091Y327250D02*
X743091Y322000D01*
Y327250D02*
X740091Y322000D01*
X752364Y329875D02*
X755364D01*
X753727Y326875*
X754545*
X755091Y326500*
X755364Y326125*
X755636Y325000*
Y324250*
X755364Y323125*
X754818Y322375*
X754000Y322000*
X753182*
X752364Y322375*
X752091Y322750*
X751818Y323500*
X761636Y329875D02*
X758909D01*
X758636Y326500*
X758909Y326875*
X759727Y327250*
X760545*
X761364Y326875*
X761909Y326125*
X762182Y325000*
X761909Y324250*
X761636Y323125*
X761091Y322375*
X760273Y322000*
X759455*
X758636Y322375*
X758364Y322750*
X758091Y323500*
X764909Y322750D02*
X764636Y322375D01*
X764909Y322000*
X765182Y322375*
X764909Y322750*
X770364Y329875D02*
X767636Y324625D01*
X771727*
X770364Y329875D02*
Y322000D01*
X774727Y329875D02*
X777727D01*
X776091Y326875*
X776909*
X777455Y326500*
X777727Y326125*
X778000Y325000*
Y324250*
X777727Y323125*
X777182Y322375*
X776364Y322000*
X775545*
X774727Y322375*
X774455Y322750*
X774182Y323500*
X797136Y328375D02*
X797682Y328750D01*
X798500Y329875*
Y322000*
X802318Y329875D02*
X801500Y329500D01*
X801227Y328750*
Y328000*
X801500Y327250*
X802045Y326875*
X803136Y326500*
X803955Y326125*
X804500Y325375*
X804773Y324625*
Y323500*
X804500Y322750*
X804227Y322375*
X803409Y322000*
X802318*
X801500Y322375*
X801227Y322750*
X800955Y323500*
Y324625*
X801227Y325375*
X801773Y326125*
X802591Y326500*
X803682Y326875*
X804227Y327250*
X804500Y328000*
Y328750*
X804227Y329500*
X803409Y329875*
X802318*
X832000Y322000D02*
X844000Y334000D01*
X832000D02*
X844000Y322000D01*
X864636Y329875D02*
X866818Y326125D01*
Y322000*
X869000Y329875D02*
X866818Y326125D01*
X871455Y329875D02*
Y322000D01*
Y329875D02*
X875000D01*
X871455Y326125D02*
X873636D01*
X871455Y322000D02*
X875000D01*
X881273Y328750D02*
X880727Y329500D01*
X879909Y329875*
X878818*
X878000Y329500*
X877455Y328750*
Y328000*
X877727Y327250*
X878000Y326875*
X878545Y326500*
X880182Y325750*
X880727Y325375*
X881000Y325000*
X881273Y324250*
Y323125*
X880727Y322375*
X879909Y322000*
X878818*
X878000Y322375*
X877455Y323125*
X917818Y328750D02*
Y322000D01*
X915364Y325375D02*
X920273D01*
X927636Y331375D02*
X922727Y319375D01*
X930091Y325375D02*
X935000D01*
X939091Y329875D02*
X938273Y329500D01*
X937727Y328375*
X937455Y326500*
Y325375*
X937727Y323500*
X938273Y322375*
X939091Y322000*
X939636*
X940455Y322375*
X941000Y323500*
X941273Y325375*
Y326500*
X941000Y328375*
X940455Y329500*
X939636Y329875*
X939091*
X944000Y322750D02*
X943727Y322375D01*
X944000Y322000*
X944273Y322375*
X944000Y322750*
X948364Y329875D02*
X947545Y329500D01*
X947000Y328375*
X946727Y326500*
Y325375*
X947000Y323500*
X947545Y322375*
X948364Y322000*
X948909*
X949727Y322375*
X950273Y323500*
X950545Y325375*
Y326500*
X950273Y328375*
X949727Y329500*
X948909Y329875*
X948364*
X708727Y305875D02*
X706000Y300625D01*
X710091*
X708727Y305875D02*
Y298000D01*
X716091Y305875D02*
X713364D01*
X713091Y302500*
X713364Y302875*
X714182Y303250*
X715000*
X715818Y302875*
X716364Y302125*
X716636Y301000*
X716364Y300250*
X716091Y299125*
X715545Y298375*
X714727Y298000*
X713909*
X713091Y298375*
X712818Y298750*
X712545Y299500*
X719364Y298750D02*
X719091Y298375D01*
X719364Y298000*
X719636Y298375*
X719364Y298750*
X722364Y304000D02*
Y304375D01*
X722636Y305125*
X722909Y305500*
X723455Y305875*
X724545*
X725091Y305500*
X725364Y305125*
X725636Y304375*
Y303625*
X725364Y302875*
X724818Y301750*
X722091Y298000*
X725909*
X729727Y305875D02*
X728909Y305500D01*
X728636Y304750*
Y304000*
X728909Y303250*
X729455Y302875*
X730545Y302500*
X731364Y302125*
X731909Y301375*
X732182Y300625*
Y299500*
X731909Y298750*
X731636Y298375*
X730818Y298000*
X729727*
X728909Y298375*
X728636Y298750*
X728364Y299500*
Y300625*
X728636Y301375*
X729182Y302125*
X730000Y302500*
X731091Y302875*
X731636Y303250*
X731909Y304000*
Y304750*
X731636Y305500*
X730818Y305875*
X729727*
X802455Y304750D02*
X802182Y305500D01*
X801364Y305875*
X800818*
X800000Y305500*
X799455Y304375*
X799182Y302500*
Y300625*
X799455Y299125*
X800000Y298375*
X800818Y298000*
X801091*
X801909Y298375*
X802455Y299125*
X802727Y300250*
Y300625*
X802455Y301750*
X801909Y302500*
X801091Y302875*
X800818*
X800000Y302500*
X799455Y301750*
X799182Y300625*
X832000Y298000D02*
X844000D01*
Y310000*
X832000*
Y298000*
X838000Y304000D02*
Y310000D01*
X864636Y305875D02*
X866818Y302125D01*
Y298000*
X869000Y305875D02*
X866818Y302125D01*
X871455Y305875D02*
Y298000D01*
Y305875D02*
X875000D01*
X871455Y302125D02*
X873636D01*
X871455Y298000D02*
X875000D01*
X881273Y304750D02*
X880727Y305500D01*
X879909Y305875*
X878818*
X878000Y305500*
X877455Y304750*
Y304000*
X877727Y303250*
X878000Y302875*
X878545Y302500*
X880182Y301750*
X880727Y301375*
X881000Y301000*
X881273Y300250*
Y299125*
X880727Y298375*
X879909Y298000*
X878818*
X878000Y298375*
X877455Y299125*
X917818Y304750D02*
Y298000D01*
X915364Y301375D02*
X920273D01*
X927636Y307375D02*
X922727Y295375D01*
X930091Y301375D02*
X935000D01*
X939091Y305875D02*
X938273Y305500D01*
X937727Y304375*
X937455Y302500*
Y301375*
X937727Y299500*
X938273Y298375*
X939091Y298000*
X939636*
X940455Y298375*
X941000Y299500*
X941273Y301375*
Y302500*
X941000Y304375*
X940455Y305500*
X939636Y305875*
X939091*
X944000Y298750D02*
X943727Y298375D01*
X944000Y298000*
X944273Y298375*
X944000Y298750*
X948364Y305875D02*
X947545Y305500D01*
X947000Y304375*
X946727Y302500*
Y301375*
X947000Y299500*
X947545Y298375*
X948364Y298000*
X948909*
X949727Y298375*
X950273Y299500*
X950545Y301375*
Y302500*
X950273Y304375*
X949727Y305500*
X948909Y305875*
X948364*
X706545Y281875D02*
X709545D01*
X707909Y278875*
X708727*
X709273Y278500*
X709545Y278125*
X709818Y277000*
Y276250*
X709545Y275125*
X709000Y274375*
X708182Y274000*
X707364*
X706545Y274375*
X706273Y274750*
X706000Y275500*
X715818Y281875D02*
X713091D01*
X712818Y278500*
X713091Y278875*
X713909Y279250*
X714727*
X715545Y278875*
X716091Y278125*
X716364Y277000*
X716091Y276250*
X715818Y275125*
X715273Y274375*
X714455Y274000*
X713636*
X712818Y274375*
X712545Y274750*
X712273Y275500*
X802455Y280750D02*
X802182Y281500D01*
X801364Y281875*
X800818*
X800000Y281500*
X799455Y280375*
X799182Y278500*
Y276625*
X799455Y275125*
X800000Y274375*
X800818Y274000*
X801091*
X801909Y274375*
X802455Y275125*
X802727Y276250*
Y276625*
X802455Y277750*
X801909Y278500*
X801091Y278875*
X800818*
X800000Y278500*
X799455Y277750*
X799182Y276625*
X838000Y274000D02*
X844000Y280000D01*
X838000Y286000*
X832000Y280000*
X838000Y274000*
Y280000D02*
Y286000D01*
X864636Y281875D02*
X866818Y278125D01*
Y274000*
X869000Y281875D02*
X866818Y278125D01*
X871455Y281875D02*
Y274000D01*
Y281875D02*
X875000D01*
X871455Y278125D02*
X873636D01*
X871455Y274000D02*
X875000D01*
X881273Y280750D02*
X880727Y281500D01*
X879909Y281875*
X878818*
X878000Y281500*
X877455Y280750*
Y280000*
X877727Y279250*
X878000Y278875*
X878545Y278500*
X880182Y277750*
X880727Y277375*
X881000Y277000*
X881273Y276250*
Y275125*
X880727Y274375*
X879909Y274000*
X878818*
X878000Y274375*
X877455Y275125*
X917818Y280750D02*
Y274000D01*
X915364Y277375D02*
X920273D01*
X927636Y283375D02*
X922727Y271375D01*
X930091Y277375D02*
X935000D01*
X939091Y281875D02*
X938273Y281500D01*
X937727Y280375*
X937455Y278500*
Y277375*
X937727Y275500*
X938273Y274375*
X939091Y274000*
X939636*
X940455Y274375*
X941000Y275500*
X941273Y277375*
Y278500*
X941000Y280375*
X940455Y281500*
X939636Y281875*
X939091*
X944000Y274750D02*
X943727Y274375D01*
X944000Y274000*
X944273Y274375*
X944000Y274750*
X948364Y281875D02*
X947545Y281500D01*
X947000Y280375*
X946727Y278500*
Y277375*
X947000Y275500*
X947545Y274375*
X948364Y274000*
X948909*
X949727Y274375*
X950273Y275500*
X950545Y277375*
Y278500*
X950273Y280375*
X949727Y281500*
X948909Y281875*
X948364*
X706545Y257875D02*
X709545D01*
X707909Y254875*
X708727*
X709273Y254500*
X709545Y254125*
X709818Y253000*
Y252250*
X709545Y251125*
X709000Y250375*
X708182Y250000*
X707364*
X706545Y250375*
X706273Y250750*
X706000Y251500*
X715000Y257875D02*
X712273Y252625D01*
X716364*
X715000Y257875D02*
Y250000D01*
X719091Y250750D02*
X718818Y250375D01*
X719091Y250000*
X719364Y250375*
X719091Y250750*
X725091Y256750D02*
X724818Y257500D01*
X724000Y257875*
X723455*
X722636Y257500*
X722091Y256375*
X721818Y254500*
Y252625*
X722091Y251125*
X722636Y250375*
X723455Y250000*
X723727*
X724545Y250375*
X725091Y251125*
X725364Y252250*
Y252625*
X725091Y253750*
X724545Y254500*
X723727Y254875*
X723455*
X722636Y254500*
X722091Y253750*
X721818Y252625*
X731364Y257875D02*
X728636D01*
X728364Y254500*
X728636Y254875*
X729455Y255250*
X730273*
X731091Y254875*
X731636Y254125*
X731909Y253000*
X731636Y252250*
X731364Y251125*
X730818Y250375*
X730000Y250000*
X729182*
X728364Y250375*
X728091Y250750*
X727818Y251500*
X799318Y256000D02*
Y256375D01*
X799591Y257125*
X799864Y257500*
X800409Y257875*
X801500*
X802045Y257500*
X802318Y257125*
X802591Y256375*
Y255625*
X802318Y254875*
X801773Y253750*
X799045Y250000*
X802864*
X832000D02*
X844000D01*
X832000Y262000*
X844000*
X832000Y250000*
X864636Y257875D02*
X866818Y254125D01*
Y250000*
X869000Y257875D02*
X866818Y254125D01*
X871455Y257875D02*
Y250000D01*
Y257875D02*
X875000D01*
X871455Y254125D02*
X873636D01*
X871455Y250000D02*
X875000D01*
X881273Y256750D02*
X880727Y257500D01*
X879909Y257875*
X878818*
X878000Y257500*
X877455Y256750*
Y256000*
X877727Y255250*
X878000Y254875*
X878545Y254500*
X880182Y253750*
X880727Y253375*
X881000Y253000*
X881273Y252250*
Y251125*
X880727Y250375*
X879909Y250000*
X878818*
X878000Y250375*
X877455Y251125*
X917818Y256750D02*
Y250000D01*
X915364Y253375D02*
X920273D01*
X927636Y259375D02*
X922727Y247375D01*
X930091Y253375D02*
X935000D01*
X939091Y257875D02*
X938273Y257500D01*
X937727Y256375*
X937455Y254500*
Y253375*
X937727Y251500*
X938273Y250375*
X939091Y250000*
X939636*
X940455Y250375*
X941000Y251500*
X941273Y253375*
Y254500*
X941000Y256375*
X940455Y257500*
X939636Y257875*
X939091*
X944000Y250750D02*
X943727Y250375D01*
X944000Y250000*
X944273Y250375*
X944000Y250750*
X948364Y257875D02*
X947545Y257500D01*
X947000Y256375*
X946727Y254500*
Y253375*
X947000Y251500*
X947545Y250375*
X948364Y250000*
X948909*
X949727Y250375*
X950273Y251500*
X950545Y253375*
Y254500*
X950273Y256375*
X949727Y257500*
X948909Y257875*
X948364*
X706273Y232000D02*
Y232375D01*
X706545Y233125*
X706818Y233500*
X707364Y233875*
X708455*
X709000Y233500*
X709273Y233125*
X709545Y232375*
Y231625*
X709273Y230875*
X708727Y229750*
X706000Y226000*
X709818*
X712818Y233875D02*
X715818D01*
X714182Y230875*
X715000*
X715545Y230500*
X715818Y230125*
X716091Y229000*
Y228250*
X715818Y227125*
X715273Y226375*
X714455Y226000*
X713636*
X712818Y226375*
X712545Y226750*
X712273Y227500*
X718818Y226750D02*
X718545Y226375D01*
X718818Y226000*
X719091Y226375*
X718818Y226750*
X724818Y232750D02*
X724545Y233500D01*
X723727Y233875*
X723182*
X722364Y233500*
X721818Y232375*
X721545Y230500*
Y228625*
X721818Y227125*
X722364Y226375*
X723182Y226000*
X723455*
X724273Y226375*
X724818Y227125*
X725091Y228250*
Y228625*
X724818Y229750*
X724273Y230500*
X723455Y230875*
X723182*
X722364Y230500*
X721818Y229750*
X721545Y228625*
X727818Y232000D02*
Y232375D01*
X728091Y233125*
X728364Y233500*
X728909Y233875*
X730000*
X730545Y233500*
X730818Y233125*
X731091Y232375*
Y231625*
X730818Y230875*
X730273Y229750*
X727545Y226000*
X731364*
X740091Y231250D02*
X743091Y226000D01*
Y231250D02*
X740091Y226000D01*
X755091Y232750D02*
X754818Y233500D01*
X754000Y233875*
X753455*
X752636Y233500*
X752091Y232375*
X751818Y230500*
Y228625*
X752091Y227125*
X752636Y226375*
X753455Y226000*
X753727*
X754545Y226375*
X755091Y227125*
X755364Y228250*
Y228625*
X755091Y229750*
X754545Y230500*
X753727Y230875*
X753455*
X752636Y230500*
X752091Y229750*
X751818Y228625*
X761091Y232750D02*
X760818Y233500D01*
X760000Y233875*
X759455*
X758636Y233500*
X758091Y232375*
X757818Y230500*
Y228625*
X758091Y227125*
X758636Y226375*
X759455Y226000*
X759727*
X760545Y226375*
X761091Y227125*
X761364Y228250*
Y228625*
X761091Y229750*
X760545Y230500*
X759727Y230875*
X759455*
X758636Y230500*
X758091Y229750*
X757818Y228625*
X764091Y226750D02*
X763818Y226375D01*
X764091Y226000*
X764364Y226375*
X764091Y226750*
X770364Y231250D02*
X770091Y230125D01*
X769545Y229375*
X768727Y229000*
X768455*
X767636Y229375*
X767091Y230125*
X766818Y231250*
Y231625*
X767091Y232750*
X767636Y233500*
X768455Y233875*
X768727*
X769545Y233500*
X770091Y232750*
X770364Y231250*
Y229375*
X770091Y227500*
X769545Y226375*
X768727Y226000*
X768182*
X767364Y226375*
X767091Y227125*
X773364Y233875D02*
X776364D01*
X774727Y230875*
X775545*
X776091Y230500*
X776364Y230125*
X776636Y229000*
Y228250*
X776364Y227125*
X775818Y226375*
X775000Y226000*
X774182*
X773364Y226375*
X773091Y226750*
X772818Y227500*
X799318Y232000D02*
Y232375D01*
X799591Y233125*
X799864Y233500*
X800409Y233875*
X801500*
X802045Y233500*
X802318Y233125*
X802591Y232375*
Y231625*
X802318Y230875*
X801773Y229750*
X799045Y226000*
X802864*
X832000D02*
X844000Y238000D01*
Y226000*
X832000Y238000*
Y226000*
X864636Y233875D02*
X866818Y230125D01*
Y226000*
X869000Y233875D02*
X866818Y230125D01*
X871455Y233875D02*
Y226000D01*
Y233875D02*
X875000D01*
X871455Y230125D02*
X873636D01*
X871455Y226000D02*
X875000D01*
X881273Y232750D02*
X880727Y233500D01*
X879909Y233875*
X878818*
X878000Y233500*
X877455Y232750*
Y232000*
X877727Y231250*
X878000Y230875*
X878545Y230500*
X880182Y229750*
X880727Y229375*
X881000Y229000*
X881273Y228250*
Y227125*
X880727Y226375*
X879909Y226000*
X878818*
X878000Y226375*
X877455Y227125*
X917818Y232750D02*
Y226000D01*
X915364Y229375D02*
X920273D01*
X927636Y235375D02*
X922727Y223375D01*
X930091Y229375D02*
X935000D01*
X939091Y233875D02*
X938273Y233500D01*
X937727Y232375*
X937455Y230500*
Y229375*
X937727Y227500*
X938273Y226375*
X939091Y226000*
X939636*
X940455Y226375*
X941000Y227500*
X941273Y229375*
Y230500*
X941000Y232375*
X940455Y233500*
X939636Y233875*
X939091*
X944000Y226750D02*
X943727Y226375D01*
X944000Y226000*
X944273Y226375*
X944000Y226750*
X948364Y233875D02*
X947545Y233500D01*
X947000Y232375*
X946727Y230500*
Y229375*
X947000Y227500*
X947545Y226375*
X948364Y226000*
X948909*
X949727Y226375*
X950273Y227500*
X950545Y229375*
Y230500*
X950273Y232375*
X949727Y233500*
X948909Y233875*
X948364*
X706273Y208000D02*
Y208375D01*
X706545Y209125*
X706818Y209500*
X707364Y209875*
X708455*
X709000Y209500*
X709273Y209125*
X709545Y208375*
Y207625*
X709273Y206875*
X708727Y205750*
X706000Y202000*
X709818*
X712818Y209875D02*
X715818D01*
X714182Y206875*
X715000*
X715545Y206500*
X715818Y206125*
X716091Y205000*
Y204250*
X715818Y203125*
X715273Y202375*
X714455Y202000*
X713636*
X712818Y202375*
X712545Y202750*
X712273Y203500*
X718818Y202750D02*
X718545Y202375D01*
X718818Y202000*
X719091Y202375*
X718818Y202750*
X724818Y208750D02*
X724545Y209500D01*
X723727Y209875*
X723182*
X722364Y209500*
X721818Y208375*
X721545Y206500*
Y204625*
X721818Y203125*
X722364Y202375*
X723182Y202000*
X723455*
X724273Y202375*
X724818Y203125*
X725091Y204250*
Y204625*
X724818Y205750*
X724273Y206500*
X723455Y206875*
X723182*
X722364Y206500*
X721818Y205750*
X721545Y204625*
X727818Y208000D02*
Y208375D01*
X728091Y209125*
X728364Y209500*
X728909Y209875*
X730000*
X730545Y209500*
X730818Y209125*
X731091Y208375*
Y207625*
X730818Y206875*
X730273Y205750*
X727545Y202000*
X731364*
X740091Y207250D02*
X743091Y202000D01*
Y207250D02*
X740091Y202000D01*
X755364Y209875D02*
X752636D01*
X752364Y206500*
X752636Y206875*
X753455Y207250*
X754273*
X755091Y206875*
X755636Y206125*
X755909Y205000*
X755636Y204250*
X755364Y203125*
X754818Y202375*
X754000Y202000*
X753182*
X752364Y202375*
X752091Y202750*
X751818Y203500*
X761909Y209875D02*
X759182D01*
X758909Y206500*
X759182Y206875*
X760000Y207250*
X760818*
X761636Y206875*
X762182Y206125*
X762455Y205000*
X762182Y204250*
X761909Y203125*
X761364Y202375*
X760545Y202000*
X759727*
X758909Y202375*
X758636Y202750*
X758364Y203500*
X765182Y202750D02*
X764909Y202375D01*
X765182Y202000*
X765455Y202375*
X765182Y202750*
X767909Y208375D02*
X768455Y208750D01*
X769273Y209875*
Y202000*
X772000Y208000D02*
Y208375D01*
X772273Y209125*
X772545Y209500*
X773091Y209875*
X774182*
X774727Y209500*
X775000Y209125*
X775273Y208375*
Y207625*
X775000Y206875*
X774455Y205750*
X771727Y202000*
X775545*
X799318Y208000D02*
Y208375D01*
X799591Y209125*
X799864Y209500*
X800409Y209875*
X801500*
X802045Y209500*
X802318Y209125*
X802591Y208375*
Y207625*
X802318Y206875*
X801773Y205750*
X799045Y202000*
X802864*
X832000Y208000D02*
X844000D01*
X838000Y202000D02*
Y214000D01*
X842745Y217300D02*
X841000Y211000D01*
X842745Y217300D02*
X844491Y211000D01*
X841655Y213100D02*
X843836D01*
X864636Y209875D02*
X866818Y206125D01*
Y202000*
X869000Y209875D02*
X866818Y206125D01*
X871455Y209875D02*
Y202000D01*
Y209875D02*
X875000D01*
X871455Y206125D02*
X873636D01*
X871455Y202000D02*
X875000D01*
X881273Y208750D02*
X880727Y209500D01*
X879909Y209875*
X878818*
X878000Y209500*
X877455Y208750*
Y208000*
X877727Y207250*
X878000Y206875*
X878545Y206500*
X880182Y205750*
X880727Y205375*
X881000Y205000*
X881273Y204250*
Y203125*
X880727Y202375*
X879909Y202000*
X878818*
X878000Y202375*
X877455Y203125*
X917818Y208750D02*
Y202000D01*
X915364Y205375D02*
X920273D01*
X927636Y211375D02*
X922727Y199375D01*
X930091Y205375D02*
X935000D01*
X939091Y209875D02*
X938273Y209500D01*
X937727Y208375*
X937455Y206500*
Y205375*
X937727Y203500*
X938273Y202375*
X939091Y202000*
X939636*
X940455Y202375*
X941000Y203500*
X941273Y205375*
Y206500*
X941000Y208375*
X940455Y209500*
X939636Y209875*
X939091*
X944000Y202750D02*
X943727Y202375D01*
X944000Y202000*
X944273Y202375*
X944000Y202750*
X948364Y209875D02*
X947545Y209500D01*
X947000Y208375*
X946727Y206500*
Y205375*
X947000Y203500*
X947545Y202375*
X948364Y202000*
X948909*
X949727Y202375*
X950273Y203500*
X950545Y205375*
Y206500*
X950273Y208375*
X949727Y209500*
X948909Y209875*
X948364*
X706273Y184000D02*
Y184375D01*
X706545Y185125*
X706818Y185500*
X707364Y185875*
X708455*
X709000Y185500*
X709273Y185125*
X709545Y184375*
Y183625*
X709273Y182875*
X708727Y181750*
X706000Y178000*
X709818*
X715818Y185875D02*
X713091D01*
X712818Y182500*
X713091Y182875*
X713909Y183250*
X714727*
X715545Y182875*
X716091Y182125*
X716364Y181000*
X716091Y180250*
X715818Y179125*
X715273Y178375*
X714455Y178000*
X713636*
X712818Y178375*
X712545Y178750*
X712273Y179500*
X719091Y178750D02*
X718818Y178375D01*
X719091Y178000*
X719364Y178375*
X719091Y178750*
X725364Y185875D02*
X722636D01*
X722364Y182500*
X722636Y182875*
X723455Y183250*
X724273*
X725091Y182875*
X725636Y182125*
X725909Y181000*
X725636Y180250*
X725364Y179125*
X724818Y178375*
X724000Y178000*
X723182*
X722364Y178375*
X722091Y178750*
X721818Y179500*
X731909Y183250D02*
X731636Y182125D01*
X731091Y181375*
X730273Y181000*
X730000*
X729182Y181375*
X728636Y182125*
X728364Y183250*
Y183625*
X728636Y184750*
X729182Y185500*
X730000Y185875*
X730273*
X731091Y185500*
X731636Y184750*
X731909Y183250*
Y181375*
X731636Y179500*
X731091Y178375*
X730273Y178000*
X729727*
X728909Y178375*
X728636Y179125*
X799318Y184000D02*
Y184375D01*
X799591Y185125*
X799864Y185500*
X800409Y185875*
X801500*
X802045Y185500*
X802318Y185125*
X802591Y184375*
Y183625*
X802318Y182875*
X801773Y181750*
X799045Y178000*
X802864*
X832000Y184000D02*
X844000D01*
X838000Y178000D02*
Y190000D01*
X841000Y193300D02*
Y187000D01*
Y193300D02*
X842964D01*
X843618Y193000*
X843836Y192700*
X844055Y192100*
Y191500*
X843836Y190900*
X843618Y190600*
X842964Y190300*
X841000D02*
X842964D01*
X843618Y190000*
X843836Y189700*
X844055Y189100*
Y188200*
X843836Y187600*
X843618Y187300*
X842964Y187000*
X841000*
X864636Y185875D02*
X866818Y182125D01*
Y178000*
X869000Y185875D02*
X866818Y182125D01*
X871455Y185875D02*
Y178000D01*
Y185875D02*
X875000D01*
X871455Y182125D02*
X873636D01*
X871455Y178000D02*
X875000D01*
X881273Y184750D02*
X880727Y185500D01*
X879909Y185875*
X878818*
X878000Y185500*
X877455Y184750*
Y184000*
X877727Y183250*
X878000Y182875*
X878545Y182500*
X880182Y181750*
X880727Y181375*
X881000Y181000*
X881273Y180250*
Y179125*
X880727Y178375*
X879909Y178000*
X878818*
X878000Y178375*
X877455Y179125*
X917818Y184750D02*
Y178000D01*
X915364Y181375D02*
X920273D01*
X927636Y187375D02*
X922727Y175375D01*
X930091Y181375D02*
X935000D01*
X939091Y185875D02*
X938273Y185500D01*
X937727Y184375*
X937455Y182500*
Y181375*
X937727Y179500*
X938273Y178375*
X939091Y178000*
X939636*
X940455Y178375*
X941000Y179500*
X941273Y181375*
Y182500*
X941000Y184375*
X940455Y185500*
X939636Y185875*
X939091*
X944000Y178750D02*
X943727Y178375D01*
X944000Y178000*
X944273Y178375*
X944000Y178750*
X948364Y185875D02*
X947545Y185500D01*
X947000Y184375*
X946727Y182500*
Y181375*
X947000Y179500*
X947545Y178375*
X948364Y178000*
X948909*
X949727Y178375*
X950273Y179500*
X950545Y181375*
Y182500*
X950273Y184375*
X949727Y185500*
X948909Y185875*
X948364*
X706000Y160375D02*
X706545Y160750D01*
X707364Y161875*
Y154000*
X710364Y161875D02*
X713364D01*
X711727Y158875*
X712545*
X713091Y158500*
X713364Y158125*
X713636Y157000*
Y156250*
X713364Y155125*
X712818Y154375*
X712000Y154000*
X711182*
X710364Y154375*
X710091Y154750*
X709818Y155500*
X719909Y161875D02*
X717182Y154000D01*
X716091Y161875D02*
X719909D01*
X722636Y154750D02*
X722364Y154375D01*
X722636Y154000*
X722909Y154375*
X722636Y154750*
X726727Y161875D02*
X725909Y161500D01*
X725636Y160750*
Y160000*
X725909Y159250*
X726455Y158875*
X727545Y158500*
X728364Y158125*
X728909Y157375*
X729182Y156625*
Y155500*
X728909Y154750*
X728636Y154375*
X727818Y154000*
X726727*
X725909Y154375*
X725636Y154750*
X725364Y155500*
Y156625*
X725636Y157375*
X726182Y158125*
X727000Y158500*
X728091Y158875*
X728636Y159250*
X728909Y160000*
Y160750*
X728636Y161500*
X727818Y161875*
X726727*
X801636D02*
X798909Y156625D01*
X803000*
X801636Y161875D02*
Y154000D01*
X832000Y160000D02*
X844000D01*
X838000Y154000D02*
Y166000D01*
X844273Y167800D02*
X844055Y168400D01*
X843618Y169000*
X843182Y169300*
X842309*
X841873Y169000*
X841436Y168400*
X841218Y167800*
X841000Y166900*
Y165400*
X841218Y164500*
X841436Y163900*
X841873Y163300*
X842309Y163000*
X843182*
X843618Y163300*
X844055Y163900*
X844273Y164500*
X864636Y161875D02*
X866818Y158125D01*
Y154000*
X869000Y161875D02*
X866818Y158125D01*
X871455Y161875D02*
Y154000D01*
Y161875D02*
X875000D01*
X871455Y158125D02*
X873636D01*
X871455Y154000D02*
X875000D01*
X881273Y160750D02*
X880727Y161500D01*
X879909Y161875*
X878818*
X878000Y161500*
X877455Y160750*
Y160000*
X877727Y159250*
X878000Y158875*
X878545Y158500*
X880182Y157750*
X880727Y157375*
X881000Y157000*
X881273Y156250*
Y155125*
X880727Y154375*
X879909Y154000*
X878818*
X878000Y154375*
X877455Y155125*
X917818Y160750D02*
Y154000D01*
X915364Y157375D02*
X920273D01*
X927636Y163375D02*
X922727Y151375D01*
X930091Y157375D02*
X935000D01*
X939091Y161875D02*
X938273Y161500D01*
X937727Y160375*
X937455Y158500*
Y157375*
X937727Y155500*
X938273Y154375*
X939091Y154000*
X939636*
X940455Y154375*
X941000Y155500*
X941273Y157375*
Y158500*
X941000Y160375*
X940455Y161500*
X939636Y161875*
X939091*
X944000Y154750D02*
X943727Y154375D01*
X944000Y154000*
X944273Y154375*
X944000Y154750*
X948364Y161875D02*
X947545Y161500D01*
X947000Y160375*
X946727Y158500*
Y157375*
X947000Y155500*
X947545Y154375*
X948364Y154000*
X948909*
X949727Y154375*
X950273Y155500*
X950545Y157375*
Y158500*
X950273Y160375*
X949727Y161500*
X948909Y161875*
X948364*
X708727Y137875D02*
X706000Y132625D01*
X710091*
X708727Y137875D02*
Y130000D01*
X712545Y136375D02*
X713091Y136750D01*
X713909Y137875*
Y130000*
X716636Y130750D02*
X716364Y130375D01*
X716636Y130000*
X716909Y130375*
X716636Y130750*
X719909Y137875D02*
X722909D01*
X721273Y134875*
X722091*
X722636Y134500*
X722909Y134125*
X723182Y133000*
Y132250*
X722909Y131125*
X722364Y130375*
X721545Y130000*
X720727*
X719909Y130375*
X719636Y130750*
X719364Y131500*
X728364Y137875D02*
X725636Y132625D01*
X729727*
X728364Y137875D02*
Y130000D01*
X799318Y136000D02*
Y136375D01*
X799591Y137125*
X799864Y137500*
X800409Y137875*
X801500*
X802045Y137500*
X802318Y137125*
X802591Y136375*
Y135625*
X802318Y134875*
X801773Y133750*
X799045Y130000*
X802864*
X832000Y136000D02*
X844000D01*
X838000Y130000D02*
Y142000D01*
X841000Y145300D02*
Y139000D01*
Y145300D02*
X842527D01*
X843182Y145000*
X843618Y144400*
X843836Y143800*
X844055Y142900*
Y141400*
X843836Y140500*
X843618Y139900*
X843182Y139300*
X842527Y139000*
X841000*
X864636Y137875D02*
X866818Y134125D01*
Y130000*
X869000Y137875D02*
X866818Y134125D01*
X871455Y137875D02*
Y130000D01*
Y137875D02*
X875000D01*
X871455Y134125D02*
X873636D01*
X871455Y130000D02*
X875000D01*
X881273Y136750D02*
X880727Y137500D01*
X879909Y137875*
X878818*
X878000Y137500*
X877455Y136750*
Y136000*
X877727Y135250*
X878000Y134875*
X878545Y134500*
X880182Y133750*
X880727Y133375*
X881000Y133000*
X881273Y132250*
Y131125*
X880727Y130375*
X879909Y130000*
X878818*
X878000Y130375*
X877455Y131125*
X917818Y136750D02*
Y130000D01*
X915364Y133375D02*
X920273D01*
X927636Y139375D02*
X922727Y127375D01*
X930091Y133375D02*
X935000D01*
X939091Y137875D02*
X938273Y137500D01*
X937727Y136375*
X937455Y134500*
Y133375*
X937727Y131500*
X938273Y130375*
X939091Y130000*
X939636*
X940455Y130375*
X941000Y131500*
X941273Y133375*
Y134500*
X941000Y136375*
X940455Y137500*
X939636Y137875*
X939091*
X944000Y130750D02*
X943727Y130375D01*
X944000Y130000*
X944273Y130375*
X944000Y130750*
X948364Y137875D02*
X947545Y137500D01*
X947000Y136375*
X946727Y134500*
Y133375*
X947000Y131500*
X947545Y130375*
X948364Y130000*
X948909*
X949727Y130375*
X950273Y131500*
X950545Y133375*
Y134500*
X950273Y136375*
X949727Y137500*
X948909Y137875*
X948364*
X706000Y112375D02*
X706545Y112750D01*
X707364Y113875*
Y106000*
X711455Y113875D02*
X710636Y113500D01*
X710091Y112375*
X709818Y110500*
Y109375*
X710091Y107500*
X710636Y106375*
X711455Y106000*
X712000*
X712818Y106375*
X713364Y107500*
X713636Y109375*
Y110500*
X713364Y112375*
X712818Y113500*
X712000Y113875*
X711455*
X795227D02*
X792500Y108625D01*
X796591*
X795227Y113875D02*
Y106000D01*
X801773Y113875D02*
X799045Y108625D01*
X803136*
X801773Y113875D02*
Y106000D01*
X809409Y113875D02*
X806682Y106000D01*
X805591Y113875D02*
X809409D01*
X832000Y112000D02*
X844000D01*
X838000Y106000D02*
Y118000D01*
X841000Y121300D02*
Y115000D01*
Y121300D02*
X843836D01*
X841000Y118300D02*
X842745D01*
X841000Y115000D02*
X843836D01*
X864636Y113875D02*
X866818Y110125D01*
Y106000*
X869000Y113875D02*
X866818Y110125D01*
X871455Y113875D02*
Y106000D01*
Y113875D02*
X875000D01*
X871455Y110125D02*
X873636D01*
X871455Y106000D02*
X875000D01*
X881273Y112750D02*
X880727Y113500D01*
X879909Y113875*
X878818*
X878000Y113500*
X877455Y112750*
Y112000*
X877727Y111250*
X878000Y110875*
X878545Y110500*
X880182Y109750*
X880727Y109375*
X881000Y109000*
X881273Y108250*
Y107125*
X880727Y106375*
X879909Y106000*
X878818*
X878000Y106375*
X877455Y107125*
X917818Y112750D02*
Y106000D01*
X915364Y109375D02*
X920273D01*
X927636Y115375D02*
X922727Y103375D01*
X930091Y109375D02*
X935000D01*
X939091Y113875D02*
X938273Y113500D01*
X937727Y112375*
X937455Y110500*
Y109375*
X937727Y107500*
X938273Y106375*
X939091Y106000*
X939636*
X940455Y106375*
X941000Y107500*
X941273Y109375*
Y110500*
X941000Y112375*
X940455Y113500*
X939636Y113875*
X939091*
X944000Y106750D02*
X943727Y106375D01*
X944000Y106000*
X944273Y106375*
X944000Y106750*
X948364Y113875D02*
X947545Y113500D01*
X947000Y112375*
X946727Y110500*
Y109375*
X947000Y107500*
X947545Y106375*
X948364Y106000*
X948909*
X949727Y106375*
X950273Y107500*
X950545Y109375*
Y110500*
X950273Y112375*
X949727Y113500*
X948909Y113875*
X948364*
G74*
X0Y0D02*
M02*
