%
T1C.01F0S0
X01048Y01236
X01228Y01046
X01228Y01246
X01428Y01246
X01428Y01046
X01628Y01046
X017642Y011789
X018118Y012638
X01828Y01046
X02028Y01046
X02141Y01181
X02142Y01263
X02228Y01046
X022576Y012621
X02428Y01046
X02628Y01046
X028012Y012634
X02828Y01046
X02879Y01182
X02923Y012734
X03028Y01046
X030416Y011869
X031432Y012628
X03228Y01046
X032411Y011853
X03261Y012675
X033802Y012897
X03428Y01046
X034309Y011799
X03628Y01246
X03628Y01046
X037015Y012033
X03828Y01046
X039987Y012932
X04028Y01046
X040353Y012101
X041241Y011982
X04228Y01046
X04228Y01246
X04307Y011711
X04428Y01046
X045309Y011759
X04628Y01046
X04628Y01246
X04818Y01381
X047377Y01466
X045868Y013755
X045597Y013018
X045321Y014424
X04529Y01529
X044688Y013509
X044134Y014915
X044132Y013374
X043832Y013851
X043071Y014922
X04228Y01446
X042276Y015312
X042267Y012966
X041779Y014313
X041373Y015273
X040836Y013392
X04028Y01446
X040128Y015352
X039992Y013427
X038929Y015326
X03865Y013
X03828Y01446
X037616Y013377
X037332Y015017
X037161Y013251
X035724Y014419
X035295Y013014
X035292Y015069
X034674Y014184
X03376Y014509
X03373Y013718
X032861Y014963
X03238Y014086
X031749Y014963
X030904Y014429
X03056Y01341
X030483Y014106
X03007Y01441
X029845Y014812
X028452Y013968
X028372Y0148
X027578Y01347
X027068Y015191
X02641Y01361
X025268Y014829
X023442Y013661
X022594Y013661
X022215Y013522
X021388Y015037
X020979Y013939
X02028Y01446
X01937Y013456
X017221Y014545
X016327Y014175
X016306Y015452
X016303Y013107
X014942Y014468
X014295Y014493
X013324Y013572
X01048Y01436
X01048Y01636
X013598Y015732
X01403Y01647
X014883Y017298
X014918Y016733
X01628Y01646
X0171Y0161
X017809Y017376
X01828Y01646
X020108Y016323
X02377Y01776
X023796Y015813
X02428Y01646
X02621Y01589
X02622Y01653
X026569Y01776
X026874Y015783
X02778Y01786
X02828Y01646
X02858Y01786
X03028Y01646
X030491Y017769
X030522Y015625
X031838Y015758
X031969Y01779
X03228Y01646
X033947Y017752
X03428Y01646
X035307Y015801
X036037Y016327
X036203Y015518
X036565Y016954
X03671Y017702
X037162Y016935
X037205Y016338
X037706Y016857
X03828Y01646
X038418Y017799
X038928Y015969
X039281Y017551
X0393Y0166
X039729Y016444
X0407Y0166
X041781Y015842
X043103Y016936
X043371Y016553
X043722Y015773
X04428Y01646
X045016Y016947
X045436Y015869
X045566Y017769
X045737Y016428
X045867Y015654
X048101Y017135
X04818Y01581
X047787Y018088
X046136Y017966
X046133Y018413
X04545Y018499
X0445Y0189
X043953Y019234
X043652Y018403
X042465Y019649
X04228Y01846
X041585Y01913
X041279Y019935
X040353Y020075
X040306Y018425
X040105Y020451
X037923Y018959
X036259Y01876
X03533Y0201
X03409Y019402
X033871Y018541
X03352Y01953
X033147Y018586
X033039Y019811
X03263Y01824
X03209Y018592
X0316Y01934
X030937Y020308
X0303Y01936
X029666Y018732
X02948Y019203
X02855Y01921
X0276Y0203
X027052Y019299
X026872Y02012
X02616Y01826
X02569Y02034
X02284Y01887
X02147Y020153
X020296Y019368
X020137Y020314
X019655Y02032
X018427Y017987
X01657Y018111
X016127Y018739
X015472Y019484
X015292Y0185
X014819Y02017
X014546Y018323
X013468Y018377
X012914Y01831
X01277Y02034
X01048Y02036
X01048Y01836
X012869Y021828
X01628Y02246
X01828Y02246
X01893Y02052
X019902Y021084
X02045Y02117
X0205Y02275
X020681Y021476
X022914Y022556
X023658Y021781
X026104Y021791
X027645Y021387
X029568Y021642
X029752Y022836
X030012Y020883
X03013Y02157
X03078Y02181
X031044Y021442
X031258Y02078
X03217Y02053
X033419Y020674
X03377Y0216
X033851Y021118
X03425Y02074
X034589Y021197
X035324Y021245
X037925Y021319
X038738Y021995
X038924Y021428
X039301Y020837
X039918Y021859
X04067Y02236
X040685Y021006
X041011Y022676
X041013Y020839
X041856Y021192
X042365Y0213
X042495Y022159
X043905Y021592
X04628Y02046
X04628Y02246
X04818Y02146
X04818Y02346
X04628Y02446
X043725Y024605
X041011Y023466
X04028Y02446
X03912Y025248
X037601Y024203
X037119Y025422
X036988Y022978
X034847Y023091
X034541Y025422
X032924Y025404
X032241Y022997
X031089Y025397
X02951Y02331
X02887Y023672
X028462Y023688
X02827Y0241
X027596Y024107
X027417Y023226
X026475Y023335
X026193Y024546
X025908Y024049
X024879Y02461
X024139Y023335
X023139Y024332
X022029Y023222
X02174Y02463
X021116Y023242
X020421Y024704
X01828Y02446
X016548Y024449
X016545Y023907
X016542Y023353
X016Y024453
X015996Y023348
X015985Y023905
X015436Y023339
X015436Y023905
X015433Y02446
X012851Y025417
X012845Y02362
X012859Y027228
X013819Y02726
X014296Y027257
X01628Y02646
X01695Y02746
X01828Y02646
X01944Y02675
X020622Y027565
X022455Y026687
X024286Y026937
X026457Y026812
X027328Y026837
X027375Y027574
X02827Y027143
X028558Y026774
X02887Y027405
X029146Y026751
X029434Y027524
X02951Y02688
X030184Y027223
X03058Y02552
X03058Y027395
X030999Y027199
X031873Y027663
X031874Y025914
X032759Y027213
X033739Y027547
X033739Y026247
X034183Y026132
X034255Y026874
X037097Y026145
X037148Y026803
X039269Y026177
X039303Y026773
X040203Y026816
X040776Y027776
X041475Y026773
X041477Y02611
X041604Y027789
X042248Y027054
X04292Y02607
X043257Y027499
X043686Y026627
X043811Y025932
X04628Y02646
X04818Y02746
X04818Y02546
X04818Y02946
X04628Y02846
X045056Y029566
X045044Y028727
X044205Y03025
X04372Y02948
X043141Y029014
X04275Y0282
X041432Y029531
X040446Y030314
X040003Y028923
X039354Y030383
X039261Y027975
X03828Y02846
X037658Y030239
X03628Y02846
X03428Y02846
X03228Y02846
X030943Y028393
X030918Y030421
X03028Y02846
X02828Y02846
X027689Y028196
X026395Y029128
X026376Y028402
X020326Y02913
X020197Y028393
X018191Y028537
X017543Y029082
X015805Y029685
X014504Y028424
X014027Y028874
X01272Y02857
X01048Y02911
X01048Y03111
X01228Y03046
X01428Y03246
X015108Y031635
X01628Y03246
X01628Y03046
X01828Y03246
X01828Y03046
X019799Y030702
X02028Y03246
X02028Y03046
X02103Y031634
X02228Y03246
X02228Y03046
X02428Y03246
X02628Y03246
X02628Y03046
X026929Y03163
X02828Y03046
X02828Y03246
X03028Y03046
X03028Y03246
X03228Y03246
X03228Y03046
X03248Y031236
X032809Y03163
X033046Y03214
X03428Y03246
X03428Y03046
X035461Y032116
X03628Y03046
X03628Y03246
X036536Y031192
X036621Y03203
X03769Y032395
X0388Y03163
X039423Y032331
X039522Y031022
X04028Y03246
X040868Y03163
X041209Y03213
X041819Y031014
X04228Y03246
X042682Y032009
X04275Y03099
X04374Y03056
X045035Y030605
X045073Y031401
X045234Y03214
X04628Y03246
X046428Y031799
X04818Y03146
X04818Y03346
X04428Y03446
X04228Y03446
X04028Y03446
X03828Y03446
X03628Y03446
X03428Y03446
X03228Y03446
X03028Y03446
X02828Y03446
X02628Y03446
X02428Y03446
X02228Y03446
X02028Y03446
X01828Y03446
X01628Y03446
X01428Y03446
X01048Y03311
T2C.02362F0S0
X02748Y033425G85X027362Y033425
X026693Y033425G85X026575Y033425
X025906Y033425G85X025787Y033425
X045197Y033425G85X045079Y033425
X044409Y033425G85X044291Y033425
X043622Y033425G85X043504Y033425
X046735Y013024G85X046302Y013024
X04831Y013024G85X047995Y013024
X046735Y016425G85X046302Y016425
X04831Y016425G85X047995Y016425
X039291Y033425G85X039173Y033425
X038504Y033425G85X038386Y033425
X037717Y033425G85X037598Y033425
X015669Y033425G85X015551Y033425
X014882Y033425G85X014764Y033425
X014094Y033425G85X013976Y033425
X033386Y033425G85X033268Y033425
X032598Y033425G85X03248Y033425
X031811Y033425G85X031693Y033425
X021575Y033425G85X021457Y033425
X020787Y033425G85X020669Y033425
X02Y033425G85X019882Y033425
T3C.02559F0S0
X046716Y013587
X046716Y015862
T4C.03465F0S0
X03752Y0115
X03852Y0115
T5C.035F0S0
X0123Y01466
X0123Y01766
X0123Y01666
X0123Y01566
X01852Y01484
X01852Y01384
T6C.03937F0S0
X047223Y02063
X047223Y02378
T7C.04134F0S0
X04728Y029094
X04728Y031063
T8C.04528F0S0
X014823Y035197
X020728Y035197
X026634Y035197
X032539Y035197
X038445Y035197
X04435Y035197
T9C.1378F0S0
X011378Y011378
X047205Y011378
X047205Y034606
X011378Y034606
M30
