*
*
G04 PADS 9.5 Build Number: 522968 generated Gerber (RS-274-X) file*
G04 PC Version=2.1*
*
%IN "audio_player.pcb"*%
*
%MOIN*%
*
%FSLAX35Y35*%
*
*
*
*
G04 PC Standard Apertures*
*
*
G04 Thermal Relief Aperture macro.*
%AMTER*
1,1,$1,0,0*
1,0,$1-$2,0,0*
21,0,$3,$4,0,0,45*
21,0,$3,$4,0,0,135*
%
*
*
G04 Annular Aperture macro.*
%AMANN*
1,1,$1,0,0*
1,0,$2,0,0*
%
*
*
G04 Odd Aperture macro.*
%AMODD*
1,1,$1,0,0*
1,0,$1-0.005,0,0*
%
*
*
G04 PC Custom Aperture Macros*
*
*
*
*
*
*
G04 PC Aperture Table*
*
%ADD010C,0.001*%
%ADD055C,0.01*%
%ADD057C,0.05*%
%ADD058C,0.006*%
%ADD081C,0.07*%
%ADD085R,0.07X0.07*%
%ADD115C,0.04937*%
%ADD194R,0.03165X0.02772*%
%ADD195R,0.04937X0.0474*%
%ADD196R,0.0887X0.03756*%
%ADD197R,0.0887X0.0376*%
%ADD198R,0.06906X0.05724*%
%ADD199R,0.09661X0.05724*%
%ADD200R,0.06906X0.07299*%
%ADD201C,0.0376*%
%ADD202R,0.02772X0.03165*%
%ADD203R,0.04346X0.04937*%
%ADD204R,0.04543X0.06906*%
%ADD205R,0.06906X0.04543*%
%ADD206R,0.04543X0.04543*%
%ADD207R,0.046X0.046*%
%ADD208R,0.06X0.046*%
%ADD209R,0.04937X0.07*%
%ADD210R,0.03165X0.02969*%
%ADD211O,0.07299X0.06118*%
%ADD212R,0.046X0.06*%
%ADD213R,0.04937X0.04346*%
%ADD214R,0.07299X0.1478*%
%ADD215R,0.05331X0.03362*%
%ADD216R,0.02969X0.03087*%
%ADD217R,0.0415X0.04937*%
%ADD218R,0.0474X0.04937*%
%ADD219R,0.085X0.095*%
%ADD220R,0.16748X0.05724*%
%ADD221R,0.095X0.085*%
%ADD223O,0.08087X0.03756*%
%ADD224O,0.08874X0.07*%
%ADD225R,0.04937X0.15173*%
%ADD226R,0.06906X0.10055*%
%ADD227R,0.05528X0.03362*%
%ADD228R,0.05724X0.02181*%
%ADD229R,0.05528X0.02181*%
%ADD230O,0.09268X0.04937*%
%ADD231O,0.08087X0.04937*%
%ADD232C,0.20685*%
%ADD233R,0.07693X0.07693*%
%ADD234R,0.0848X0.0848*%
%ADD235R,0.03559X0.05331*%
%ADD236R,0.05331X0.03559*%
%ADD237R,0.0238X0.0376*%
%ADD238R,0.0376X0.0238*%
%ADD239R,0.0573X0.0573*%
%ADD241C,0.06906*%
*
*
*
*
G04 PC Circuitry*
G04 Layer Name audio_player.pcb - circuitry*
%LPD*%
*
*
G04 PC Custom Flashes*
G04 Layer Name audio_player.pcb - flashes*
%LPD*%
*
*
G04 PC Circuitry*
G04 Layer Name audio_player.pcb - circuitry*
%LPD*%
*
G54D10*
G01X100000Y359843D02*
X100003D01*
X485827D02*
X485829D01*
X485827Y100000D02*
X485829D01*
X485827Y359843D02*
X485829D01*
G54D55*
X100000Y100000D02*
Y208100D01*
X125500*
Y281800*
X100000*
Y359843*
X485827*
Y100000*
X100000*
Y442000D02*
X269232D01*
X100000D02*
X110000Y444500D01*
Y439500*
X100000Y442000*
X485827D02*
X316595D01*
X485827D02*
X475827Y439500D01*
Y444500*
X485827Y442000*
X100000Y364843D02*
Y447000D01*
X485827Y364843D02*
Y447000D01*
X275186Y442625D02*
X274959Y441688D01*
X274959D02*
X274504Y441063D01*
X274504D02*
X273822Y440750D01*
X273595*
X272913Y441063*
X272913D02*
X272459Y441688D01*
X272459D02*
X272232Y442625D01*
Y442938*
X272232D02*
X272459Y443875D01*
X272913Y444500*
X273595Y444813*
X273595D02*
X273822D01*
X273822D02*
X274504Y444500D01*
X274959Y443875*
X275186Y442625*
Y441063*
X275186D02*
X274959Y439500D01*
X274504Y438563*
X274504D02*
X273822Y438250D01*
X273368*
X272686Y438563*
X272686D02*
X272459Y439188D01*
X278368Y444813D02*
X277686Y444500D01*
X277459Y443875*
Y443250*
X277686Y442625*
X278141Y442313*
X278141D02*
X279050Y442000D01*
X279732Y441688*
X279732D02*
X280186Y441063D01*
X280186D02*
X280413Y440438D01*
X280413D02*
Y439500D01*
X280186Y438875*
X279959Y438563*
X279959D02*
X279277Y438250D01*
X278368*
X277686Y438563*
X277686D02*
X277459Y438875D01*
X277232Y439500*
Y440438*
X277232D02*
X277459Y441063D01*
X277459D02*
X277913Y441688D01*
X277913D02*
X278595Y442000D01*
X279504Y442313*
X279504D02*
X279959Y442625D01*
X280186Y443250*
Y443875*
X279959Y444500*
X279277Y444813*
X279277D02*
X278368D01*
X282686Y438875D02*
X282459Y438563D01*
X282459D02*
X282686Y438250D01*
X282913Y438563*
X282913D02*
X282686Y438875D01*
X286322Y444813D02*
X285641Y444500D01*
X285186Y443563*
X285186D02*
X284959Y442000D01*
Y441063*
X284959D02*
X285186Y439500D01*
X285641Y438563*
X285641D02*
X286322Y438250D01*
X286777*
X287459Y438563*
X287459D02*
X287913Y439500D01*
X288141Y441063*
X288141D02*
Y442000D01*
X287913Y443563*
X287913D02*
X287459Y444500D01*
X286777Y444813*
X286777D02*
X286322D01*
X291550D02*
X290868Y444500D01*
X290413Y443563*
X290413D02*
X290186Y442000D01*
Y441063*
X290186D02*
X290413Y439500D01*
X290868Y438563*
X290868D02*
X291550Y438250D01*
X292004*
X292686Y438563*
X292686D02*
X293141Y439500D01*
X293368Y441063*
X293368D02*
Y442000D01*
X293141Y443563*
X293141D02*
X292686Y444500D01*
X292004Y444813*
X292004D02*
X291550D01*
X296777D02*
X296095Y444500D01*
X295641Y443563*
X295641D02*
X295413Y442000D01*
Y441063*
X295413D02*
X295641Y439500D01*
X296095Y438563*
X296095D02*
X296777Y438250D01*
X297232*
X297913Y438563*
X297913D02*
X298368Y439500D01*
X298595Y441063*
X298595D02*
Y442000D01*
X298368Y443563*
X298368D02*
X297913Y444500D01*
X297232Y444813*
X297232D02*
X296777D01*
X300641Y442625D02*
Y438250D01*
Y441375D02*
X301322Y442313D01*
X301322D02*
X301777Y442625D01*
X302459*
X302913Y442313*
X302913D02*
X303141Y441375D01*
Y438250*
Y441375D02*
X303822Y442313D01*
X303822D02*
X304277Y442625D01*
X304959*
X305413Y442313*
X305413D02*
X305641Y441375D01*
Y438250*
X307686Y442625D02*
Y438250D01*
Y441375D02*
X308368Y442313D01*
X308368D02*
X308822Y442625D01*
X309504*
X309959Y442313*
X309959D02*
X310186Y441375D01*
Y438250*
Y441375D02*
X310868Y442313D01*
X310868D02*
X311322Y442625D01*
X312004*
X312459Y442313*
X312459D02*
X312686Y441375D01*
Y438250*
X542000Y100000D02*
Y223171D01*
Y100000D02*
X539500Y110000D01*
X544500*
X542000Y100000*
Y359843D02*
Y236671D01*
Y359843D02*
X544500Y349843D01*
X539500*
X542000Y359843*
X490827Y100000D02*
X547000D01*
X490827Y359843D02*
X547000D01*
X524159Y231796D02*
X523932Y232421D01*
X523250Y232734*
X522795*
X522114Y232421*
X521659Y231484*
X521432Y229921*
Y228359*
X521659Y227109*
X522114Y226484*
X522795Y226171*
X523023*
X523705Y226484*
X524159Y227109*
X524386Y228046*
Y228359*
X524159Y229296*
X523705Y229921*
X523023Y230234*
X522795*
X522114Y229921*
X521659Y229296*
X521432Y228359*
X529159Y231796D02*
X528932Y232421D01*
X528250Y232734*
X527795*
X527114Y232421*
X526659Y231484*
X526432Y229921*
Y228359*
X526659Y227109*
X527114Y226484*
X527795Y226171*
X528023*
X528705Y226484*
X529159Y227109*
X529386Y228046*
Y228359*
X529159Y229296*
X528705Y229921*
X528023Y230234*
X527795*
X527114Y229921*
X526659Y229296*
X526432Y228359*
X531659Y226796D02*
X531432Y226484D01*
X531659Y226171*
X531886Y226484*
X531659Y226796*
X535295Y232734D02*
X534614Y232421D01*
X534159Y231484*
X533932Y229921*
Y228984*
X534159Y227421*
X534614Y226484*
X535295Y226171*
X535750*
X536432Y226484*
X536886Y227421*
X537114Y228984*
Y229921*
X536886Y231484*
X536432Y232421*
X535750Y232734*
X535295*
X540523D02*
X539841Y232421D01*
X539386Y231484*
X539159Y229921*
Y228984*
X539386Y227421*
X539841Y226484*
X540523Y226171*
X540977*
X541659Y226484*
X542114Y227421*
X542341Y228984*
Y229921*
X542114Y231484*
X541659Y232421*
X540977Y232734*
X540523*
X545750D02*
X545068Y232421D01*
X544614Y231484*
X544386Y229921*
Y228984*
X544614Y227421*
X545068Y226484*
X545750Y226171*
X546205*
X546886Y226484*
X547341Y227421*
X547568Y228984*
Y229921*
X547341Y231484*
X546886Y232421*
X546205Y232734*
X545750*
X549614Y230546D02*
Y226171D01*
Y229296D02*
X550295Y230234D01*
X550750Y230546*
X551432*
X551886Y230234*
X552114Y229296*
Y226171*
Y229296D02*
X552795Y230234D01*
X553250Y230546*
X553932*
X554386Y230234*
X554614Y229296*
Y226171*
X556659Y230546D02*
Y226171D01*
Y229296D02*
X557341Y230234D01*
X557795Y230546*
X558477*
X558932Y230234*
X559159Y229296*
Y226171*
Y229296D02*
X559841Y230234D01*
X560295Y230546*
X560977*
X561432Y230234*
X561659Y229296*
Y226171*
G54D57*
X444000Y324409D03*
X119685D03*
Y131496D03*
G54D58*
X152634Y235468D02*
X152558Y235453D01*
X152493Y235409*
X152449Y235344*
X152434Y235268*
Y231725*
X152449Y231648*
X152493Y231583*
X152558Y231540*
X152634Y231525*
X156177*
X156254Y231540*
X156319Y231583*
X156362Y231648*
X156377Y231725*
Y235268*
X156362Y235344*
X156319Y235409*
X156254Y235453*
X156177Y235468*
X152634*
X152628Y231526D02*
Y235467D01*
X152928Y231525D02*
Y235468D01*
X153228Y231525D02*
Y235468D01*
X153528Y231525D02*
Y235468D01*
X153828Y231525D02*
Y235468D01*
X154128Y231525D02*
Y235468D01*
X154428Y231525D02*
Y235468D01*
X154728Y231525D02*
Y235468D01*
X155028Y231525D02*
Y235468D01*
X155328Y231525D02*
Y235468D01*
X155628Y231525D02*
Y235468D01*
X155928Y231525D02*
Y235468D01*
X156228Y231535D02*
Y235458D01*
X152634Y240980D02*
X152558Y240964D01*
X152493Y240921*
X152449Y240856*
X152434Y240780*
Y237236*
X152449Y237160*
X152493Y237095*
X152558Y237052*
X152634Y237036*
X156177*
X156254Y237052*
X156319Y237095*
X156362Y237160*
X156377Y237236*
Y240780*
X156362Y240856*
X156319Y240921*
X156254Y240964*
X156177Y240980*
X152634*
X152628Y237038D02*
Y240978D01*
X152928Y237036D02*
Y240980D01*
X153228Y237036D02*
Y240980D01*
X153528Y237036D02*
Y240980D01*
X153828Y237036D02*
Y240980D01*
X154128Y237036D02*
Y240980D01*
X154428Y237036D02*
Y240980D01*
X154728Y237036D02*
Y240980D01*
X155028Y237036D02*
Y240980D01*
X155328Y237036D02*
Y240980D01*
X155628Y237036D02*
Y240980D01*
X155928Y237036D02*
Y240980D01*
X156228Y237046D02*
Y240970D01*
X152634Y246491D02*
X152558Y246476D01*
X152493Y246433*
X152449Y246368*
X152434Y246291*
Y242748*
X152449Y242672*
X152493Y242607*
X152558Y242563*
X152634Y242548*
X156177*
X156254Y242563*
X156319Y242607*
X156362Y242672*
X156377Y242748*
Y246291*
X156362Y246368*
X156319Y246433*
X156254Y246476*
X156177Y246491*
X152634*
X152628Y242549D02*
Y246490D01*
X152928Y242548D02*
Y246491D01*
X153228Y242548D02*
Y246491D01*
X153528Y242548D02*
Y246491D01*
X153828Y242548D02*
Y246491D01*
X154128Y242548D02*
Y246491D01*
X154428Y242548D02*
Y246491D01*
X154728Y242548D02*
Y246491D01*
X155028Y242548D02*
Y246491D01*
X155328Y242548D02*
Y246491D01*
X155628Y242548D02*
Y246491D01*
X155928Y242548D02*
Y246491D01*
X156228Y242558D02*
Y246481D01*
X158146Y246491D02*
X158069Y246476D01*
X158004Y246433*
X157961Y246368*
X157946Y246291*
Y242748*
X157961Y242672*
X158004Y242607*
X158069Y242563*
X158146Y242548*
X161689*
X161766Y242563*
X161831Y242607*
X161874Y242672*
X161889Y242748*
Y246291*
X161874Y246368*
X161831Y246433*
X161766Y246476*
X161689Y246491*
X158146*
X158028Y242591D02*
Y246448D01*
X158328Y242548D02*
Y246491D01*
X158628Y242548D02*
Y246491D01*
X158928Y242548D02*
Y246491D01*
X159228Y242548D02*
Y246491D01*
X159528Y242548D02*
Y246491D01*
X159828Y242548D02*
Y246491D01*
X160128Y242548D02*
Y246491D01*
X160428Y242548D02*
Y246491D01*
X160728Y242548D02*
Y246491D01*
X161028Y242548D02*
Y246491D01*
X161328Y242548D02*
Y246491D01*
X161628Y242548D02*
Y246491D01*
X163658D02*
X163581Y246476D01*
X163516Y246433*
X163473Y246368*
X163458Y246291*
Y242748*
X163473Y242672*
X163516Y242607*
X163581Y242563*
X163658Y242548*
X167201*
X167278Y242563*
X167342Y242607*
X167386Y242672*
X167401Y242748*
Y246291*
X167386Y246368*
X167342Y246433*
X167278Y246476*
X167201Y246491*
X163658*
X163728Y242548D02*
Y246491D01*
X164028Y242548D02*
Y246491D01*
X164328Y242548D02*
Y246491D01*
X164628Y242548D02*
Y246491D01*
X164928Y242548D02*
Y246491D01*
X165228Y242548D02*
Y246491D01*
X165528Y242548D02*
Y246491D01*
X165828Y242548D02*
Y246491D01*
X166128Y242548D02*
Y246491D01*
X166428Y242548D02*
Y246491D01*
X166728Y242548D02*
Y246491D01*
X167028Y242548D02*
Y246491D01*
X167328Y242597D02*
Y246443D01*
X163658Y240980D02*
X163581Y240964D01*
X163516Y240921*
X163473Y240856*
X163458Y240780*
Y237236*
X163473Y237160*
X163516Y237095*
X163581Y237052*
X163658Y237036*
X167201*
X167278Y237052*
X167342Y237095*
X167386Y237160*
X167401Y237236*
Y240780*
X167386Y240856*
X167342Y240921*
X167278Y240964*
X167201Y240980*
X163658*
X163728Y237036D02*
Y240980D01*
X164028Y237036D02*
Y240980D01*
X164328Y237036D02*
Y240980D01*
X164628Y237036D02*
Y240980D01*
X164928Y237036D02*
Y240980D01*
X165228Y237036D02*
Y240980D01*
X165528Y237036D02*
Y240980D01*
X165828Y237036D02*
Y240980D01*
X166128Y237036D02*
Y240980D01*
X166428Y237036D02*
Y240980D01*
X166728Y237036D02*
Y240980D01*
X167028Y237036D02*
Y240980D01*
X167328Y237085D02*
Y240931D01*
X163658Y235468D02*
X163581Y235453D01*
X163516Y235409*
X163473Y235344*
X163458Y235268*
Y231725*
X163473Y231648*
X163516Y231583*
X163581Y231540*
X163658Y231525*
X167201*
X167278Y231540*
X167342Y231583*
X167386Y231648*
X167401Y231725*
Y235268*
X167386Y235344*
X167342Y235409*
X167278Y235453*
X167201Y235468*
X163658*
X163728Y231525D02*
Y235468D01*
X164028Y231525D02*
Y235468D01*
X164328Y231525D02*
Y235468D01*
X164628Y231525D02*
Y235468D01*
X164928Y231525D02*
Y235468D01*
X165228Y231525D02*
Y235468D01*
X165528Y231525D02*
Y235468D01*
X165828Y231525D02*
Y235468D01*
X166128Y231525D02*
Y235468D01*
X166428Y231525D02*
Y235468D01*
X166728Y231525D02*
Y235468D01*
X167028Y231525D02*
Y235468D01*
X167328Y231573D02*
Y235419D01*
X158146Y235468D02*
X158069Y235453D01*
X158004Y235409*
X157961Y235344*
X157946Y235268*
Y231725*
X157961Y231648*
X158004Y231583*
X158069Y231540*
X158146Y231525*
X161689*
X161766Y231540*
X161831Y231583*
X161874Y231648*
X161889Y231725*
Y235268*
X161874Y235344*
X161831Y235409*
X161766Y235453*
X161689Y235468*
X158146*
X158028Y231568D02*
Y235425D01*
X158328Y231525D02*
Y235468D01*
X158628Y231525D02*
Y235468D01*
X158928Y231525D02*
Y235468D01*
X159228Y231525D02*
Y235468D01*
X159528Y231525D02*
Y235468D01*
X159828Y231525D02*
Y235468D01*
X160128Y231525D02*
Y235468D01*
X160428Y231525D02*
Y235468D01*
X160728Y231525D02*
Y235468D01*
X161028Y231525D02*
Y235468D01*
X161328Y231525D02*
Y235468D01*
X161628Y231525D02*
Y235468D01*
G54D81*
X123000Y166600D03*
Y156600D03*
Y146600D03*
G54D85*
Y176600D03*
G54D115*
X266339Y351969D03*
X443504D03*
X384449D03*
X148228D03*
X325394D03*
X207283D03*
G54D194*
X257200Y219569D03*
Y215631D03*
X301800Y130831D03*
Y134769D03*
X198000Y320369D03*
Y316431D03*
X234400Y226569D03*
Y222631D03*
X257200Y206931D03*
Y210869D03*
X261400Y320369D03*
Y316431D03*
X320400Y320369D03*
Y316431D03*
X316000Y320369D03*
Y316431D03*
X266400Y320369D03*
Y316431D03*
X256800Y320369D03*
Y316431D03*
X207400Y320369D03*
Y316431D03*
X202600Y320369D03*
Y316431D03*
X325200Y320369D03*
Y316431D03*
X148200Y320369D03*
Y316431D03*
X143400Y320369D03*
Y316431D03*
X138800Y320369D03*
Y316431D03*
X379600Y320369D03*
Y316431D03*
X401000Y320369D03*
Y316431D03*
X396800Y320369D03*
Y316431D03*
X375200Y320369D03*
Y316431D03*
X384400Y320369D03*
Y316431D03*
X405800Y320369D03*
Y316431D03*
X384000Y211569D03*
Y207631D03*
X389400D03*
Y211569D03*
X133000Y186531D03*
Y190469D03*
X335000Y217831D03*
Y221769D03*
Y210231D03*
Y214169D03*
X335200Y188431D03*
Y192369D03*
X354300Y137769D03*
Y133831D03*
Y123269D03*
Y119331D03*
X301800Y126769D03*
Y122831D03*
X137500Y186531D03*
Y190469D03*
X141500Y186531D03*
Y190469D03*
X209600Y144431D03*
Y148369D03*
X405227Y298969D03*
Y295031D03*
X264200Y138831D03*
Y142769D03*
X321600Y212069D03*
Y208131D03*
X129000Y186531D03*
Y190469D03*
G54D195*
X264600Y204850D03*
Y211150D03*
X266200Y188950D03*
Y182650D03*
X142900Y160150D03*
Y153850D03*
X289400Y181850D03*
Y188150D03*
X378600Y180350D03*
Y174050D03*
X396800Y201850D03*
Y208150D03*
X342200Y221750D03*
Y215450D03*
X349400Y221750D03*
Y215450D03*
X399227Y294850D03*
Y301150D03*
X264200Y154750D03*
Y148450D03*
X444204Y123550D03*
Y129850D03*
G54D196*
X430737Y234646D03*
Y200000D03*
G54D197*
Y230315D03*
Y225984D03*
Y221654D03*
Y217323D03*
Y212992D03*
Y208661D03*
Y204331D03*
G54D198*
X432857Y194882D03*
G54D199*
X470652Y195276D03*
Y256299D03*
G54D200*
X432857Y252756D03*
G54D201*
X472227Y206299D03*
Y237795D03*
G54D202*
X403231Y162600D03*
X407169D03*
X416769Y204400D03*
X412831D03*
X416769Y208600D03*
X412831D03*
X413031Y221600D03*
X416969D03*
X416769Y234600D03*
X412831D03*
X416769Y226800D03*
X412831D03*
X416769Y215200D03*
X412831D03*
X308831Y136400D03*
X312769D03*
X430231Y282000D03*
X434169D03*
X422258Y275000D03*
X426195D03*
X317631Y136400D03*
X321569D03*
X276169Y182000D03*
X272231D03*
X277969Y153200D03*
X274031D03*
X348831Y147800D03*
X352769D03*
X434369Y305600D03*
X430431D03*
X434169Y294800D03*
X430231D03*
X395231Y196000D03*
X399169D03*
X403231D03*
X407169D03*
X410969Y116400D03*
X407031D03*
X343969Y147800D03*
X340031D03*
X363031Y144800D03*
X366969D03*
X329331Y128300D03*
X333269D03*
X329331Y123300D03*
X333269D03*
X389831Y162600D03*
X393769D03*
X445231Y158600D03*
X449169D03*
X445231Y140200D03*
X449169D03*
X430431Y136400D03*
X434369D03*
X152031Y181400D03*
X155969D03*
X152031Y167500D03*
X155969D03*
X152031Y171500D03*
X155969D03*
X152031Y176500D03*
X155969D03*
X412258Y275000D03*
X416195D03*
X434195Y317000D03*
X430258D03*
X430431Y310000D03*
X434369D03*
X430258Y299000D03*
X434195D03*
X430258Y286000D03*
X434195D03*
X274031Y157600D03*
X277969D03*
X310631Y218100D03*
X314569D03*
X318569Y189600D03*
X314631D03*
X283969Y182000D03*
X280031D03*
X147969Y176500D03*
X144031D03*
X411858Y196000D03*
X415795D03*
X464058Y184000D03*
X467995D03*
X464058Y179800D03*
X467995D03*
G54D203*
X295800Y122850D03*
Y129150D03*
G54D204*
X129528Y210484D03*
X134528D03*
X139528D03*
X144528D03*
X149528D03*
X154528D03*
X159528D03*
X164528D03*
X169528D03*
X174528D03*
X179528D03*
X184528D03*
X189528D03*
X194528D03*
Y279382D03*
X189528D03*
X184528D03*
X179528D03*
X174528D03*
X169528D03*
X164528D03*
X159528D03*
X154528D03*
X149528D03*
X144528D03*
X139528D03*
X134528D03*
X129528D03*
G54D205*
X199449Y217433D03*
Y222433D03*
Y227433D03*
Y232433D03*
Y237433D03*
Y242433D03*
Y247433D03*
Y252433D03*
Y257433D03*
Y262433D03*
Y267433D03*
Y272433D03*
G54D206*
X159918Y239008D03*
G54D207*
X421127Y295250D03*
Y302750D03*
X241500Y226750D03*
Y219250D03*
X403977Y283900D03*
X396477D03*
X277950Y148300D03*
X270450D03*
X389577Y201900D03*
X382077D03*
X348700Y119550D03*
Y127050D03*
X366750Y138700D03*
X359250D03*
X340400Y141050D03*
Y133550D03*
X420927Y281450D03*
Y288950D03*
X441250Y174100D03*
X448750D03*
X257400Y228200D03*
X263400D03*
X309100Y189600D03*
X303100D03*
G54D208*
X413127Y299000D03*
X249500Y223000D03*
X340700Y123300D03*
X348400Y137300D03*
X412927Y285200D03*
G54D209*
X249496Y211058D03*
X236504D03*
Y193342D03*
X249496D03*
G54D210*
X228383Y274975D03*
Y271825D03*
X238817D03*
Y274975D03*
X146383Y190575D03*
Y187425D03*
X156817D03*
Y190575D03*
G54D211*
X274213Y334252D03*
X266339D03*
X258465D03*
X451378D03*
X443504D03*
X435630D03*
X392323D03*
X384449D03*
X376575D03*
X156102D03*
X148228D03*
X140354D03*
X333268D03*
X325394D03*
X317520D03*
X215157D03*
X207283D03*
X199409D03*
G54D212*
X400227Y275900D03*
X274200Y140300D03*
X385827Y193900D03*
X363000Y130700D03*
X445000Y182100D03*
G54D213*
X157050Y154000D03*
X150750D03*
X274850Y188400D03*
X281150D03*
X430454Y123500D03*
X436754D03*
G54D214*
X156800Y141430D03*
Y120170D03*
G54D215*
X321312Y123060D03*
Y126800D03*
Y130540D03*
X310288D03*
Y123060D03*
X304088Y212340D03*
Y208600D03*
Y204860D03*
X315112D03*
Y212340D03*
G54D216*
X482227Y181142D03*
Y184213D03*
G54D217*
X482817Y176969D03*
Y188386D03*
G54D218*
X322250Y197600D03*
X315950D03*
X302950D03*
X309250D03*
X348750Y189000D03*
X342450D03*
X348750Y181800D03*
X342450D03*
X376250Y130000D03*
X382550D03*
X150750Y161500D03*
X157050D03*
X430454Y130700D03*
X436754D03*
G54D219*
X423400Y176900D03*
Y159900D03*
G54D220*
X367800Y208306D03*
Y196494D03*
X288600Y197694D03*
Y209506D03*
G54D221*
X359700Y221600D03*
X376700D03*
G54D223*
X414940Y124300D03*
Y129300D03*
Y134300D03*
Y139300D03*
X394468D03*
Y134300D03*
Y129300D03*
Y124300D03*
G54D224*
X185200Y138400D03*
Y148400D03*
G54D225*
X272173Y121900D03*
X266268D03*
X260362D03*
X254457D03*
X248551D03*
X242646D03*
X236740D03*
X230835D03*
G54D226*
X280244Y113829D03*
X222764D03*
G54D227*
X462827Y134646D03*
Y137795D03*
Y156693D03*
Y159843D03*
G54D228*
Y140354D03*
G54D229*
Y142323D03*
Y144291D03*
Y146260D03*
Y148228D03*
Y150197D03*
Y152165D03*
Y154134D03*
G54D230*
X465189Y130236D03*
Y164252D03*
G54D231*
X481528Y130236D03*
Y164252D03*
G54D232*
X113780Y113780D03*
Y346063D03*
X472047Y113780D03*
Y346063D03*
G54D233*
X476734Y279528D03*
Y322047D03*
G54D234*
X458427Y290945D03*
Y300787D03*
Y310630D03*
G54D235*
X353140Y207515D03*
X349400D03*
X345660D03*
Y196885D03*
X349400D03*
X353140D03*
X389260Y169785D03*
X393000D03*
X396740D03*
Y180415D03*
X393000D03*
X389260D03*
X403260Y169785D03*
X407000D03*
X410740D03*
Y180415D03*
X407000D03*
X403260D03*
G54D236*
X434485Y152940D03*
Y149200D03*
Y145460D03*
X445115D03*
Y149200D03*
Y152940D03*
G54D237*
X171440Y176510D03*
X169470D03*
X167500D03*
X165540D03*
Y165490D03*
X167510D03*
X169480D03*
X171450D03*
G54D238*
X162980Y173940D03*
Y171980D03*
Y170010D03*
Y168040D03*
X174010D03*
Y170010D03*
Y171980D03*
Y173940D03*
G54D239*
X168500Y171000D03*
G54D241*
X375200Y115000D03*
X385200D03*
X0Y0D02*
M02*
