*
*
G04 PADS 9.5 Build Number: 522968 generated Gerber (RS-274-X) file*
G04 PC Version=2.1*
*
%IN "audio_player.pcb"*%
*
%MOIN*%
*
%FSLAX35Y35*%
*
*
*
*
G04 PC Standard Apertures*
*
*
G04 Thermal Relief Aperture macro.*
%AMTER*
1,1,$1,0,0*
1,0,$1-$2,0,0*
21,0,$3,$4,0,0,45*
21,0,$3,$4,0,0,135*
%
*
*
G04 Annular Aperture macro.*
%AMANN*
1,1,$1,0,0*
1,0,$2,0,0*
%
*
*
G04 Odd Aperture macro.*
%AMODD*
1,1,$1,0,0*
1,0,$1-0.005,0,0*
%
*
*
G04 PC Custom Aperture Macros*
*
*
*
*
*
*
G04 PC Aperture Table*
*
%ADD010C,0.001*%
%ADD049C,0.04*%
%ADD055C,0.01*%
%ADD058C,0.006*%
%ADD137R,0.02165X0.01772*%
%ADD138R,0.03937X0.0374*%
%ADD139R,0.0787X0.02756*%
%ADD140R,0.0787X0.0276*%
%ADD141R,0.05906X0.04724*%
%ADD142R,0.08661X0.04724*%
%ADD143R,0.05906X0.06299*%
%ADD145R,0.01772X0.02165*%
%ADD146R,0.03346X0.03937*%
%ADD147R,0.03543X0.05906*%
%ADD148R,0.05906X0.03543*%
%ADD149R,0.03543X0.03543*%
%ADD150R,0.036X0.036*%
%ADD151R,0.05X0.036*%
%ADD152R,0.03937X0.06*%
%ADD153R,0.02165X0.01969*%
%ADD155R,0.036X0.05*%
%ADD156R,0.03937X0.03346*%
%ADD157R,0.06299X0.1378*%
%ADD158R,0.04331X0.02362*%
%ADD159R,0.01969X0.02087*%
%ADD160R,0.0315X0.03937*%
%ADD161R,0.0374X0.03937*%
%ADD163R,0.075X0.085*%
%ADD164R,0.15748X0.04724*%
%ADD165R,0.085X0.075*%
%ADD167O,0.07087X0.02756*%
%ADD173R,0.03937X0.14173*%
%ADD174R,0.05906X0.09055*%
%ADD175R,0.04528X0.02362*%
%ADD176R,0.04724X0.01181*%
%ADD177R,0.04528X0.01181*%
%ADD181R,0.06693X0.06693*%
%ADD182R,0.0748X0.0748*%
%ADD190R,0.03X0.03*%
%ADD191R,0.02559X0.04331*%
%ADD192R,0.04331X0.02559*%
%ADD193R,0.001X0.001*%
*
*
*
*
G04 PC Circuitry*
G04 Layer Name audio_player.pcb - circuitry*
%LPD*%
*
*
G04 PC Custom Flashes*
G04 Layer Name audio_player.pcb - flashes*
%LPD*%
*
*
G04 PC Circuitry*
G04 Layer Name audio_player.pcb - circuitry*
%LPD*%
*
G54D10*
G01X100000Y359843D02*
X100003D01*
X485827D02*
X485829D01*
X485827Y100000D02*
X485829D01*
X485827Y359843D02*
X485829D01*
G54D49*
X444000Y324409D03*
X119685D03*
Y131496D03*
G54D55*
X100000Y100000D02*
Y208100D01*
X125500*
Y281800*
X100000*
Y359843*
X485827*
Y100000*
X100000*
Y442000D02*
X269232D01*
X100000D02*
X110000Y444500D01*
Y439500*
X100000Y442000*
X485827D02*
X316595D01*
X485827D02*
X475827Y439500D01*
Y444500*
X485827Y442000*
X100000Y364843D02*
Y447000D01*
X485827Y364843D02*
Y447000D01*
X275186Y442625D02*
X274959Y441688D01*
X274959D02*
X274504Y441063D01*
X274504D02*
X273822Y440750D01*
X273595*
X272913Y441063*
X272913D02*
X272459Y441688D01*
X272459D02*
X272232Y442625D01*
Y442938*
X272232D02*
X272459Y443875D01*
X272913Y444500*
X273595Y444813*
X273595D02*
X273822D01*
X273822D02*
X274504Y444500D01*
X274959Y443875*
X275186Y442625*
Y441063*
X275186D02*
X274959Y439500D01*
X274504Y438563*
X274504D02*
X273822Y438250D01*
X273368*
X272686Y438563*
X272686D02*
X272459Y439188D01*
X278368Y444813D02*
X277686Y444500D01*
X277459Y443875*
Y443250*
X277686Y442625*
X278141Y442313*
X278141D02*
X279050Y442000D01*
X279732Y441688*
X279732D02*
X280186Y441063D01*
X280186D02*
X280413Y440438D01*
X280413D02*
Y439500D01*
X280186Y438875*
X279959Y438563*
X279959D02*
X279277Y438250D01*
X278368*
X277686Y438563*
X277686D02*
X277459Y438875D01*
X277232Y439500*
Y440438*
X277232D02*
X277459Y441063D01*
X277459D02*
X277913Y441688D01*
X277913D02*
X278595Y442000D01*
X279504Y442313*
X279504D02*
X279959Y442625D01*
X280186Y443250*
Y443875*
X279959Y444500*
X279277Y444813*
X279277D02*
X278368D01*
X282686Y438875D02*
X282459Y438563D01*
X282459D02*
X282686Y438250D01*
X282913Y438563*
X282913D02*
X282686Y438875D01*
X286322Y444813D02*
X285641Y444500D01*
X285186Y443563*
X285186D02*
X284959Y442000D01*
Y441063*
X284959D02*
X285186Y439500D01*
X285641Y438563*
X285641D02*
X286322Y438250D01*
X286777*
X287459Y438563*
X287459D02*
X287913Y439500D01*
X288141Y441063*
X288141D02*
Y442000D01*
X287913Y443563*
X287913D02*
X287459Y444500D01*
X286777Y444813*
X286777D02*
X286322D01*
X291550D02*
X290868Y444500D01*
X290413Y443563*
X290413D02*
X290186Y442000D01*
Y441063*
X290186D02*
X290413Y439500D01*
X290868Y438563*
X290868D02*
X291550Y438250D01*
X292004*
X292686Y438563*
X292686D02*
X293141Y439500D01*
X293368Y441063*
X293368D02*
Y442000D01*
X293141Y443563*
X293141D02*
X292686Y444500D01*
X292004Y444813*
X292004D02*
X291550D01*
X296777D02*
X296095Y444500D01*
X295641Y443563*
X295641D02*
X295413Y442000D01*
Y441063*
X295413D02*
X295641Y439500D01*
X296095Y438563*
X296095D02*
X296777Y438250D01*
X297232*
X297913Y438563*
X297913D02*
X298368Y439500D01*
X298595Y441063*
X298595D02*
Y442000D01*
X298368Y443563*
X298368D02*
X297913Y444500D01*
X297232Y444813*
X297232D02*
X296777D01*
X300641Y442625D02*
Y438250D01*
Y441375D02*
X301322Y442313D01*
X301322D02*
X301777Y442625D01*
X302459*
X302913Y442313*
X302913D02*
X303141Y441375D01*
Y438250*
Y441375D02*
X303822Y442313D01*
X303822D02*
X304277Y442625D01*
X304959*
X305413Y442313*
X305413D02*
X305641Y441375D01*
Y438250*
X307686Y442625D02*
Y438250D01*
Y441375D02*
X308368Y442313D01*
X308368D02*
X308822Y442625D01*
X309504*
X309959Y442313*
X309959D02*
X310186Y441375D01*
Y438250*
Y441375D02*
X310868Y442313D01*
X310868D02*
X311322Y442625D01*
X312004*
X312459Y442313*
X312459D02*
X312686Y441375D01*
Y438250*
X542000Y100000D02*
Y223171D01*
Y100000D02*
X539500Y110000D01*
X544500*
X542000Y100000*
Y359843D02*
Y236671D01*
Y359843D02*
X544500Y349843D01*
X539500*
X542000Y359843*
X490827Y100000D02*
X547000D01*
X490827Y359843D02*
X547000D01*
X524159Y231796D02*
X523932Y232421D01*
X523250Y232734*
X522795*
X522114Y232421*
X521659Y231484*
X521432Y229921*
Y228359*
X521659Y227109*
X522114Y226484*
X522795Y226171*
X523023*
X523705Y226484*
X524159Y227109*
X524386Y228046*
Y228359*
X524159Y229296*
X523705Y229921*
X523023Y230234*
X522795*
X522114Y229921*
X521659Y229296*
X521432Y228359*
X529159Y231796D02*
X528932Y232421D01*
X528250Y232734*
X527795*
X527114Y232421*
X526659Y231484*
X526432Y229921*
Y228359*
X526659Y227109*
X527114Y226484*
X527795Y226171*
X528023*
X528705Y226484*
X529159Y227109*
X529386Y228046*
Y228359*
X529159Y229296*
X528705Y229921*
X528023Y230234*
X527795*
X527114Y229921*
X526659Y229296*
X526432Y228359*
X531659Y226796D02*
X531432Y226484D01*
X531659Y226171*
X531886Y226484*
X531659Y226796*
X535295Y232734D02*
X534614Y232421D01*
X534159Y231484*
X533932Y229921*
Y228984*
X534159Y227421*
X534614Y226484*
X535295Y226171*
X535750*
X536432Y226484*
X536886Y227421*
X537114Y228984*
Y229921*
X536886Y231484*
X536432Y232421*
X535750Y232734*
X535295*
X540523D02*
X539841Y232421D01*
X539386Y231484*
X539159Y229921*
Y228984*
X539386Y227421*
X539841Y226484*
X540523Y226171*
X540977*
X541659Y226484*
X542114Y227421*
X542341Y228984*
Y229921*
X542114Y231484*
X541659Y232421*
X540977Y232734*
X540523*
X545750D02*
X545068Y232421D01*
X544614Y231484*
X544386Y229921*
Y228984*
X544614Y227421*
X545068Y226484*
X545750Y226171*
X546205*
X546886Y226484*
X547341Y227421*
X547568Y228984*
Y229921*
X547341Y231484*
X546886Y232421*
X546205Y232734*
X545750*
X549614Y230546D02*
Y226171D01*
Y229296D02*
X550295Y230234D01*
X550750Y230546*
X551432*
X551886Y230234*
X552114Y229296*
Y226171*
Y229296D02*
X552795Y230234D01*
X553250Y230546*
X553932*
X554386Y230234*
X554614Y229296*
Y226171*
X556659Y230546D02*
Y226171D01*
Y229296D02*
X557341Y230234D01*
X557795Y230546*
X558477*
X558932Y230234*
X559159Y229296*
Y226171*
Y229296D02*
X559841Y230234D01*
X560295Y230546*
X560977*
X561432Y230234*
X561659Y229296*
Y226171*
G54D58*
X152934Y234968D02*
Y232025D01*
X155877*
Y234968*
X152934*
X153228Y232025D02*
Y234968D01*
X153528Y232025D02*
Y234968D01*
X153828Y232025D02*
Y234968D01*
X154128Y232025D02*
Y234968D01*
X154428Y232025D02*
Y234968D01*
X154728Y232025D02*
Y234968D01*
X155028Y232025D02*
Y234968D01*
X155328Y232025D02*
Y234968D01*
X155628Y232025D02*
Y234968D01*
X152934Y240480D02*
Y237536D01*
X155877*
Y240480*
X152934*
X153228Y237536D02*
Y240480D01*
X153528Y237536D02*
Y240480D01*
X153828Y237536D02*
Y240480D01*
X154128Y237536D02*
Y240480D01*
X154428Y237536D02*
Y240480D01*
X154728Y237536D02*
Y240480D01*
X155028Y237536D02*
Y240480D01*
X155328Y237536D02*
Y240480D01*
X155628Y237536D02*
Y240480D01*
X152934Y245991D02*
Y243048D01*
X155877*
Y245991*
X152934*
X153228Y243048D02*
Y245991D01*
X153528Y243048D02*
Y245991D01*
X153828Y243048D02*
Y245991D01*
X154128Y243048D02*
Y245991D01*
X154428Y243048D02*
Y245991D01*
X154728Y243048D02*
Y245991D01*
X155028Y243048D02*
Y245991D01*
X155328Y243048D02*
Y245991D01*
X155628Y243048D02*
Y245991D01*
X158446D02*
Y243048D01*
X161389*
Y245991*
X158446*
X158628Y243048D02*
Y245991D01*
X158928Y243048D02*
Y245991D01*
X159228Y243048D02*
Y245991D01*
X159528Y243048D02*
Y245991D01*
X159828Y243048D02*
Y245991D01*
X160128Y243048D02*
Y245991D01*
X160428Y243048D02*
Y245991D01*
X160728Y243048D02*
Y245991D01*
X161028Y243048D02*
Y245991D01*
X161328Y243048D02*
Y245991D01*
X163958D02*
Y243048D01*
X166901*
Y245991*
X163958*
X164028Y243048D02*
Y245991D01*
X164328Y243048D02*
Y245991D01*
X164628Y243048D02*
Y245991D01*
X164928Y243048D02*
Y245991D01*
X165228Y243048D02*
Y245991D01*
X165528Y243048D02*
Y245991D01*
X165828Y243048D02*
Y245991D01*
X166128Y243048D02*
Y245991D01*
X166428Y243048D02*
Y245991D01*
X166728Y243048D02*
Y245991D01*
X163958Y240480D02*
Y237536D01*
X166901*
Y240480*
X163958*
X164028Y237536D02*
Y240480D01*
X164328Y237536D02*
Y240480D01*
X164628Y237536D02*
Y240480D01*
X164928Y237536D02*
Y240480D01*
X165228Y237536D02*
Y240480D01*
X165528Y237536D02*
Y240480D01*
X165828Y237536D02*
Y240480D01*
X166128Y237536D02*
Y240480D01*
X166428Y237536D02*
Y240480D01*
X166728Y237536D02*
Y240480D01*
X163958Y234968D02*
Y232025D01*
X166901*
Y234968*
X163958*
X164028Y232025D02*
Y234968D01*
X164328Y232025D02*
Y234968D01*
X164628Y232025D02*
Y234968D01*
X164928Y232025D02*
Y234968D01*
X165228Y232025D02*
Y234968D01*
X165528Y232025D02*
Y234968D01*
X165828Y232025D02*
Y234968D01*
X166128Y232025D02*
Y234968D01*
X166428Y232025D02*
Y234968D01*
X166728Y232025D02*
Y234968D01*
X158446D02*
Y232025D01*
X161389*
Y234968*
X158446*
X158628Y232025D02*
Y234968D01*
X158928Y232025D02*
Y234968D01*
X159228Y232025D02*
Y234968D01*
X159528Y232025D02*
Y234968D01*
X159828Y232025D02*
Y234968D01*
X160128Y232025D02*
Y234968D01*
X160428Y232025D02*
Y234968D01*
X160728Y232025D02*
Y234968D01*
X161028Y232025D02*
Y234968D01*
X161328Y232025D02*
Y234968D01*
G54D137*
X257200Y219569D03*
Y215631D03*
X301800Y130831D03*
Y134769D03*
X198000Y320369D03*
Y316431D03*
X234400Y226569D03*
Y222631D03*
X257200Y206931D03*
Y210869D03*
X261400Y320369D03*
Y316431D03*
X320400Y320369D03*
Y316431D03*
X316000Y320369D03*
Y316431D03*
X266400Y320369D03*
Y316431D03*
X256800Y320369D03*
Y316431D03*
X207400Y320369D03*
Y316431D03*
X202600Y320369D03*
Y316431D03*
X325200Y320369D03*
Y316431D03*
X148200Y320369D03*
Y316431D03*
X143400Y320369D03*
Y316431D03*
X138800Y320369D03*
Y316431D03*
X379600Y320369D03*
Y316431D03*
X401000Y320369D03*
Y316431D03*
X396800Y320369D03*
Y316431D03*
X375200Y320369D03*
Y316431D03*
X384400Y320369D03*
Y316431D03*
X405800Y320369D03*
Y316431D03*
X384000Y211569D03*
Y207631D03*
X389400D03*
Y211569D03*
X133000Y186531D03*
Y190469D03*
X335000Y217831D03*
Y221769D03*
Y210231D03*
Y214169D03*
X335200Y188431D03*
Y192369D03*
X354300Y137769D03*
Y133831D03*
Y123269D03*
Y119331D03*
X301800Y126769D03*
Y122831D03*
X137500Y186531D03*
Y190469D03*
X141500Y186531D03*
Y190469D03*
X209600Y144431D03*
Y148369D03*
X405227Y298969D03*
Y295031D03*
X264200Y138831D03*
Y142769D03*
X321600Y212069D03*
Y208131D03*
X129000Y186531D03*
Y190469D03*
G54D138*
X264600Y204850D03*
Y211150D03*
X266200Y188950D03*
Y182650D03*
X142900Y160150D03*
Y153850D03*
X289400Y181850D03*
Y188150D03*
X378600Y180350D03*
Y174050D03*
X396800Y201850D03*
Y208150D03*
X342200Y221750D03*
Y215450D03*
X349400Y221750D03*
Y215450D03*
X399227Y294850D03*
Y301150D03*
X264200Y154750D03*
Y148450D03*
X444204Y123550D03*
Y129850D03*
G54D139*
X430737Y234646D03*
Y200000D03*
G54D140*
Y230315D03*
Y225984D03*
Y221654D03*
Y217323D03*
Y212992D03*
Y208661D03*
Y204331D03*
G54D141*
X432857Y194882D03*
G54D142*
X470652Y195276D03*
Y256299D03*
G54D143*
X432857Y252756D03*
G54D145*
X403231Y162600D03*
X407169D03*
X416769Y204400D03*
X412831D03*
X416769Y208600D03*
X412831D03*
X413031Y221600D03*
X416969D03*
X416769Y234600D03*
X412831D03*
X416769Y226800D03*
X412831D03*
X416769Y215200D03*
X412831D03*
X308831Y136400D03*
X312769D03*
X430231Y282000D03*
X434169D03*
X422258Y275000D03*
X426195D03*
X317631Y136400D03*
X321569D03*
X276169Y182000D03*
X272231D03*
X277969Y153200D03*
X274031D03*
X348831Y147800D03*
X352769D03*
X434369Y305600D03*
X430431D03*
X434169Y294800D03*
X430231D03*
X395231Y196000D03*
X399169D03*
X403231D03*
X407169D03*
X410969Y116400D03*
X407031D03*
X343969Y147800D03*
X340031D03*
X363031Y144800D03*
X366969D03*
X329331Y128300D03*
X333269D03*
X329331Y123300D03*
X333269D03*
X389831Y162600D03*
X393769D03*
X445231Y158600D03*
X449169D03*
X445231Y140200D03*
X449169D03*
X430431Y136400D03*
X434369D03*
X152031Y181400D03*
X155969D03*
X152031Y167500D03*
X155969D03*
X152031Y171500D03*
X155969D03*
X152031Y176500D03*
X155969D03*
X412258Y275000D03*
X416195D03*
X434195Y317000D03*
X430258D03*
X430431Y310000D03*
X434369D03*
X430258Y299000D03*
X434195D03*
X430258Y286000D03*
X434195D03*
X274031Y157600D03*
X277969D03*
X310631Y218100D03*
X314569D03*
X318569Y189600D03*
X314631D03*
X283969Y182000D03*
X280031D03*
X147969Y176500D03*
X144031D03*
X411858Y196000D03*
X415795D03*
X464058Y184000D03*
X467995D03*
X464058Y179800D03*
X467995D03*
G54D146*
X295800Y122850D03*
Y129150D03*
G54D147*
X129528Y210484D03*
X134528D03*
X139528D03*
X144528D03*
X149528D03*
X154528D03*
X159528D03*
X164528D03*
X169528D03*
X174528D03*
X179528D03*
X184528D03*
X189528D03*
X194528D03*
Y279382D03*
X189528D03*
X184528D03*
X179528D03*
X174528D03*
X169528D03*
X164528D03*
X159528D03*
X154528D03*
X149528D03*
X144528D03*
X139528D03*
X134528D03*
X129528D03*
G54D148*
X199449Y217433D03*
Y222433D03*
Y227433D03*
Y232433D03*
Y237433D03*
Y242433D03*
Y247433D03*
Y252433D03*
Y257433D03*
Y262433D03*
Y267433D03*
Y272433D03*
G54D149*
X159918Y239008D03*
G54D150*
X421127Y295250D03*
Y302750D03*
X241500Y226750D03*
Y219250D03*
X403977Y283900D03*
X396477D03*
X277950Y148300D03*
X270450D03*
X389577Y201900D03*
X382077D03*
X348700Y119550D03*
Y127050D03*
X366750Y138700D03*
X359250D03*
X340400Y141050D03*
Y133550D03*
X420927Y281450D03*
Y288950D03*
X441250Y174100D03*
X448750D03*
G54D151*
X413127Y299000D03*
X249500Y223000D03*
X340700Y123300D03*
X348400Y137300D03*
X412927Y285200D03*
G54D152*
X249496Y211058D03*
X236504D03*
Y193342D03*
X249496D03*
G54D153*
X228383Y274975D03*
Y271825D03*
X238817D03*
Y274975D03*
X146383Y190575D03*
Y187425D03*
X156817D03*
Y190575D03*
G54D155*
X400227Y275900D03*
X274200Y140300D03*
X385827Y193900D03*
X363000Y130700D03*
X445000Y182100D03*
G54D156*
X157050Y154000D03*
X150750D03*
X274850Y188400D03*
X281150D03*
X430454Y123500D03*
X436754D03*
G54D157*
X156800Y141430D03*
Y120170D03*
G54D158*
X321312Y123060D03*
Y126800D03*
Y130540D03*
X310288D03*
Y123060D03*
X304088Y212340D03*
Y208600D03*
Y204860D03*
X315112D03*
Y212340D03*
G54D159*
X482227Y181142D03*
Y184213D03*
G54D160*
X482817Y176969D03*
Y188386D03*
G54D161*
X322250Y197600D03*
X315950D03*
X302950D03*
X309250D03*
X348750Y189000D03*
X342450D03*
X348750Y181800D03*
X342450D03*
X376250Y130000D03*
X382550D03*
X150750Y161500D03*
X157050D03*
X430454Y130700D03*
X436754D03*
G54D163*
X423400Y176900D03*
Y159900D03*
G54D164*
X367800Y208306D03*
Y196494D03*
X288600Y197694D03*
Y209506D03*
G54D165*
X359700Y221600D03*
X376700D03*
G54D167*
X414940Y124300D03*
Y129300D03*
Y134300D03*
Y139300D03*
X394468D03*
Y134300D03*
Y129300D03*
Y124300D03*
G54D173*
X272173Y121900D03*
X266268D03*
X260362D03*
X254457D03*
X248551D03*
X242646D03*
X236740D03*
X230835D03*
G54D174*
X280244Y113829D03*
X222764D03*
G54D175*
X462827Y134646D03*
Y137795D03*
Y156693D03*
Y159843D03*
G54D176*
Y140354D03*
G54D177*
Y142323D03*
Y144291D03*
Y146260D03*
Y148228D03*
Y150197D03*
Y152165D03*
Y154134D03*
G54D181*
X476734Y279528D03*
Y322047D03*
G54D182*
X458427Y290945D03*
Y300787D03*
Y310630D03*
G54D190*
X257400Y228200D03*
X263400D03*
X309100Y189600D03*
X303100D03*
G54D191*
X353140Y207515D03*
X349400D03*
X345660D03*
Y196885D03*
X349400D03*
X353140D03*
X389260Y169785D03*
X393000D03*
X396740D03*
Y180415D03*
X393000D03*
X389260D03*
X403260Y169785D03*
X407000D03*
X410740D03*
Y180415D03*
X407000D03*
X403260D03*
G54D192*
X434485Y152940D03*
Y149200D03*
Y145460D03*
X445115D03*
Y149200D03*
Y152940D03*
G54D193*
X171440Y176510D03*
X169470D03*
X167500D03*
X165540D03*
X162980Y173940D03*
Y171980D03*
Y170010D03*
Y168040D03*
X165540Y165490D03*
X167510D03*
X169480D03*
X171450D03*
X174010Y168040D03*
Y170010D03*
Y171980D03*
Y173940D03*
X168500Y171000D03*
X0Y0D02*
M02*
