*
*
G04 PADS 9.5 Build Number: 522968 generated Gerber (RS-274-X) file*
G04 PC Version=2.1*
*
%IN "audio_player.pcb"*%
*
%MOIN*%
*
%FSLAX35Y35*%
*
*
*
*
G04 PC Standard Apertures*
*
*
G04 Thermal Relief Aperture macro.*
%AMTER*
1,1,$1,0,0*
1,0,$1-$2,0,0*
21,0,$3,$4,0,0,45*
21,0,$3,$4,0,0,135*
%
*
*
G04 Annular Aperture macro.*
%AMANN*
1,1,$1,0,0*
1,0,$2,0,0*
%
*
*
G04 Odd Aperture macro.*
%AMODD*
1,1,$1,0,0*
1,0,$1-0.005,0,0*
%
*
*
G04 PC Custom Aperture Macros*
*
*
*
*
*
*
G04 PC Aperture Table*
*
%ADD010C,0.001*%
%ADD048C,0.008*%
%ADD055C,0.01*%
%ADD058C,0.006*%
%ADD065C,0.007*%
%ADD066C,0.00787*%
%ADD067C,0.005*%
%ADD069C,0.01181*%
%ADD124C,0.00984*%
%ADD184C,0.004*%
%ADD185C,0.00394*%
%ADD186C,0.00984*%
%ADD187C,0.01575*%
%ADD188C,0.01181*%
%ADD189C,0.01969*%
*
*
*
*
G04 PC Circuitry*
G04 Layer Name audio_player.pcb - circuitry*
%LPD*%
*
*
G04 PC Custom Flashes*
G04 Layer Name audio_player.pcb - flashes*
%LPD*%
*
*
G04 PC Circuitry*
G04 Layer Name audio_player.pcb - circuitry*
%LPD*%
*
G54D10*
G01X100000Y359843D02*
X100003D01*
X485827D02*
X485829D01*
X485827Y100000D02*
X485829D01*
X485827Y359843D02*
X485829D01*
G54D48*
X488487Y200394D02*
X497817D01*
Y243701*
X488487*
X493172Y200866D02*
Y204066D01*
Y207666D02*
Y210866D01*
Y214467D02*
Y217667D01*
Y221267D02*
Y224467D01*
Y228067D02*
Y231267D01*
Y234867D02*
Y238067D01*
Y241668D02*
Y243268D01*
X170920Y178870D02*
X170960Y179060D01*
X171070Y179220*
X171230Y179330*
X171420Y179370*
X171600Y179330*
X171760Y179220*
X171870Y179060*
X171910Y178870*
X171870Y178690*
X171760Y178530*
X171600Y178420*
X171420Y178380*
X171230Y178420*
X171070Y178530*
X170960Y178690*
X170920Y178870*
G54D55*
X261600Y206500D02*
Y203500D01*
X267600Y206500D02*
Y203500D01*
X261600Y203501D02*
G75*
G03X263098Y202000I1750J249D01*
G01X266102D02*
G03X267600Y203501I-252J1750D01*
G01X266100Y202000D02*
X263100D01*
X267600Y209500D02*
Y212500D01*
X261600Y209500D02*
Y212500D01*
X263098Y214000D02*
G03X261600Y212499I252J-1750D01*
G01X267600Y212500D02*
G03X266100Y214000I-1753J-253D01*
G01X263100D02*
X266100D01*
X293044Y124800D02*
Y119701D01*
X298556*
Y124800*
X293044Y127378D02*
Y132299D01*
X298556*
Y127200*
X413227Y296000D02*
Y293500D01*
X418227*
X413227Y302000D02*
Y304500D01*
X418227*
X422227Y298500D02*
Y299500D01*
X249400Y226000D02*
Y228500D01*
X244400*
X249400Y220000D02*
Y217500D01*
X244400*
X240400Y223500D02*
Y222500D01*
X229663Y276550D02*
X237537D01*
X229663Y270250D02*
X237537D01*
X234714Y273400D02*
G03X234714I-1114J0D01*
G01X403227Y276000D02*
X405727D01*
Y281000*
X397227Y276000D02*
X394727D01*
Y281000*
X400727Y285000D02*
X399727D01*
X269200Y187300D02*
Y190300D01*
X263200Y187300D02*
Y190300D01*
X269200Y190299D02*
G03X267702Y191800I-1750J-249D01*
G01X264698D02*
G03X263200Y190299I252J-1750D01*
G01X264700Y191800D02*
X267700D01*
X263200Y184300D02*
Y181300D01*
X269200Y184300D02*
Y181300D01*
X267702Y179800D02*
G03X269200Y181301I-252J1750D01*
G01X263200Y181300D02*
G03X264700Y179800I1753J253D01*
G01X267700D02*
X264700D01*
X145900Y158500D02*
Y161500D01*
X139900Y158500D02*
Y161500D01*
X145900Y161499D02*
G03X144402Y163000I-1750J-249D01*
G01X141398D02*
G03X139900Y161499I252J-1750D01*
G01X141400Y163000D02*
X144400D01*
X139900Y155500D02*
Y152500D01*
X145900Y155500D02*
Y152500D01*
X144402Y151000D02*
G03X145900Y152501I-252J1750D01*
G01X139900Y152500D02*
G03X141400Y151000I1753J253D01*
G01X144400D02*
X141400D01*
X155100Y151244D02*
X160199D01*
Y156756*
X155100*
X152522Y151244D02*
X147601D01*
Y156756*
X152700*
X158769Y143792D02*
X165461D01*
X169792Y139461*
Y117808*
X158769*
X154831Y143792D02*
X148139D01*
X143808Y139461*
Y117808*
X154831*
X163887Y146351D02*
X160737D01*
X162312Y147926D02*
Y144776D01*
X128000Y181600D02*
Y141600D01*
X118000*
Y181600*
X128000*
X277200Y140400D02*
X279700D01*
Y145400*
X271200Y140400D02*
X268700D01*
Y145400*
X274700Y149400D02*
X273700D01*
X147663Y192150D02*
X155537D01*
X147663Y185850D02*
X155537D01*
X152714Y189000D02*
G03X152714I-1114J0D01*
G01X313832Y121288D02*
X317769D01*
Y132312*
X313832*
Y121288*
X320600Y194600D02*
X323600D01*
X320600Y200600D02*
X323600D01*
X323599Y194600D02*
G03X325100Y196098I-249J1750D01*
G01Y199102D02*
G03X323599Y200600I-1750J-252D01*
G01X325100Y199100D02*
Y196100D01*
X317600Y200600D02*
X314600D01*
X317600Y194600D02*
X314600D01*
X313100Y196098D02*
G03X314601Y194600I1750J252D01*
G01X314600Y200600D02*
G03X313100Y199100I253J-1753D01*
G01Y196100D02*
Y199100D01*
X286400Y183500D02*
Y180500D01*
X292400Y183500D02*
Y180500D01*
X286400Y180501D02*
G03X287898Y179000I1750J249D01*
G01X290902D02*
G03X292400Y180501I-252J1750D01*
G01X290900Y179000D02*
X287900D01*
X292400Y186500D02*
Y189500D01*
X286400Y186500D02*
Y189500D01*
X287898Y191000D02*
G03X286400Y189499I252J-1750D01*
G01X292400Y189500D02*
G03X290900Y191000I-1753J-253D01*
G01X287900D02*
X290900D01*
X304600Y200600D02*
X301600D01*
X304600Y194600D02*
X301600D01*
X301601Y200600D02*
G03X300100Y199102I249J-1750D01*
G01Y196098D02*
G03X301601Y194600I1750J252D01*
G01X300100Y196100D02*
Y199100D01*
X307600Y194600D02*
X310600D01*
X307600Y200600D02*
X310600D01*
X312100Y199102D02*
G03X310599Y200600I-1750J-252D01*
G01X310600Y194600D02*
G03X312100Y196100I-253J1753D01*
G01Y199100D02*
Y196100D01*
X311568Y214112D02*
X307631D01*
Y203088*
X311568*
Y214112*
X354912Y200232D02*
Y204168D01*
X354912D02*
X343888D01*
X343888D02*
Y200232D01*
X343888D02*
X354912D01*
X381600Y178700D02*
Y181700D01*
X375600Y178700D02*
Y181700D01*
X381600Y181699D02*
G03X380102Y183200I-1750J-249D01*
G01X377098D02*
G03X375600Y181699I252J-1750D01*
G01X377100Y183200D02*
X380100D01*
X375600Y175700D02*
Y172700D01*
X381600Y175700D02*
Y172700D01*
X380102Y171200D02*
G03X381600Y172701I-252J1750D01*
G01X375600Y172700D02*
G03X377100Y171200I1753J253D01*
G01X380100D02*
X377100D01*
X393800Y203500D02*
Y200500D01*
X399800Y203500D02*
Y200500D01*
X393800Y200501D02*
G03X395298Y199000I1750J249D01*
G01X398302D02*
G03X399800Y200501I-252J1750D01*
G01X398300Y199000D02*
X395300D01*
X399800Y206500D02*
Y209500D01*
X393800Y206500D02*
Y209500D01*
X395298Y211000D02*
G03X393800Y209499I252J-1750D01*
G01X399800Y209500D02*
G03X398300Y211000I-1753J-253D01*
G01X395300D02*
X398300D01*
X388827Y194000D02*
X391327D01*
Y199000*
X382827Y194000D02*
X380327D01*
Y199000*
X386327Y203000D02*
X385327D01*
X429400Y171600D02*
X417500D01*
Y170100*
X429400*
Y171600*
X427900Y178400D02*
X429400D01*
Y158400*
X427900*
X419000Y178400D02*
X417400D01*
Y158400*
X419100*
X426900Y182000D02*
X419800D01*
X347100Y186000D02*
X350100D01*
X347100Y192000D02*
X350100D01*
X350099Y186000D02*
G03X351600Y187498I-249J1750D01*
G01Y190502D02*
G03X350099Y192000I-1750J-252D01*
G01X351600Y190500D02*
Y187500D01*
X344100Y192000D02*
X341100D01*
X344100Y186000D02*
X341100D01*
X339600Y187498D02*
G03X341101Y186000I1750J252D01*
G01X341100Y192000D02*
G03X339600Y190500I253J-1753D01*
G01Y187500D02*
Y190500D01*
X347100Y178800D02*
X350100D01*
X347100Y184800D02*
X350100D01*
X350099Y178800D02*
G03X351600Y180298I-249J1750D01*
G01Y183302D02*
G03X350099Y184800I-1750J-252D01*
G01X351600Y183300D02*
Y180300D01*
X344100Y184800D02*
X341100D01*
X344100Y178800D02*
X341100D01*
X339600Y180298D02*
G03X341101Y178800I1750J252D01*
G01X341100Y184800D02*
G03X339600Y183300I253J-1753D01*
G01Y180300D02*
Y183300D01*
X345200Y220100D02*
Y223100D01*
X339200Y220100D02*
Y223100D01*
X345200Y223099D02*
G03X343702Y224600I-1750J-249D01*
G01X340698D02*
G03X339200Y223099I252J-1750D01*
G01X340700Y224600D02*
X343700D01*
X339200Y217100D02*
Y214100D01*
X345200Y217100D02*
Y214100D01*
X343702Y212600D02*
G03X345200Y214101I-252J1750D01*
G01X339200Y214100D02*
G03X340700Y212600I1753J253D01*
G01X343700D02*
X340700D01*
X352400Y220100D02*
Y223100D01*
X346400Y220100D02*
Y223100D01*
X352400Y223099D02*
G03X350902Y224600I-1750J-249D01*
G01X347898D02*
G03X346400Y223099I252J-1750D01*
G01X347900Y224600D02*
X350900D01*
X346400Y217100D02*
Y214100D01*
X352400Y217100D02*
Y214100D01*
X350902Y212600D02*
G03X352400Y214101I-252J1750D01*
G01X346400Y214100D02*
G03X347900Y212600I1753J253D01*
G01X350900D02*
X347900D01*
X376068Y193345D02*
X359532D01*
Y211455*
X376068*
Y193345*
X365000Y227600D02*
Y215700D01*
X366500*
Y227600*
X365000*
X358200Y226100D02*
Y227600D01*
X378200*
Y226100*
X358200Y217200D02*
Y215600D01*
X378200*
Y217300*
X354600Y225100D02*
Y218000D01*
X340800Y120300D02*
Y117800D01*
X345800*
X340800Y126300D02*
Y128800D01*
X345800*
X349800Y122800D02*
Y123800D01*
X371492Y115000D02*
G03X371492I-492J0D01*
G01X377900Y133000D02*
X374900D01*
X377900Y127000D02*
X374900D01*
X374901Y133000D02*
G03X373400Y131502I249J-1750D01*
G01Y128498D02*
G03X374901Y127000I1750J252D01*
G01X373400Y128500D02*
Y131500D01*
X380900Y127000D02*
X383900D01*
X380900Y133000D02*
X383900D01*
X385400Y131502D02*
G03X383899Y133000I-1750J-252D01*
G01X383900Y127000D02*
G03X385400Y128500I-253J1753D01*
G01Y131500D02*
Y128500D01*
X366000Y130800D02*
X368500D01*
Y135800*
X360000Y130800D02*
X357500D01*
Y135800*
X363500Y139800D02*
X362500D01*
X348300Y140300D02*
Y142800D01*
X343300*
X348300Y134300D02*
Y131800D01*
X343300*
X339300Y137800D02*
Y136800D01*
X410216Y141249D02*
X399192D01*
Y122351*
X410216*
Y141249*
X441768Y154712D02*
X437832D01*
X437832D02*
Y143688D01*
X437832D02*
X441768D01*
X441768D02*
Y154712D01*
X152400Y164500D02*
X149400D01*
X152400Y158500D02*
X149400D01*
X149401Y164500D02*
G03X147900Y163002I249J-1750D01*
G01Y159998D02*
G03X149401Y158500I1750J252D01*
G01X147900Y160000D02*
Y163000D01*
X155400Y158500D02*
X158400D01*
X155400Y164500D02*
X158400D01*
X159900Y163002D02*
G03X158399Y164500I-1750J-252D01*
G01X158400Y158500D02*
G03X159900Y160000I-253J1753D01*
G01Y163000D02*
Y160000D01*
X174400Y166640D02*
Y165090D01*
X172840*
X174400Y175350D02*
X172840Y176910D01*
X162590Y175350D02*
Y176910D01*
X164130*
X162590Y166640D02*
Y165090D01*
X164140*
X198980Y126589D02*
X175357D01*
Y158085*
X198980*
Y126589*
X175357Y136431D02*
X179294D01*
Y148243*
X175357*
Y136431*
X470307Y130236D02*
X477000D01*
X470307Y164252D02*
X477000D01*
X486055Y130236D02*
X491764D01*
Y164252*
X486055*
X413027Y282200D02*
Y279700D01*
X418027*
X413027Y288200D02*
Y290700D01*
X418027*
X422027Y284700D02*
Y285700D01*
X396227Y296500D02*
Y293500D01*
X402227Y296500D02*
Y293500D01*
X396227Y293501D02*
G03X397725Y292000I1750J249D01*
G01X400729D02*
G03X402227Y293501I-252J1750D01*
G01X400727Y292000D02*
X397727D01*
X402227Y299500D02*
Y302500D01*
X396227Y299500D02*
Y302500D01*
X397725Y304000D02*
G03X396227Y302499I252J-1750D01*
G01X402227Y302500D02*
G03X400727Y304000I-1753J-253D01*
G01X397727D02*
X400727D01*
X267200Y153100D02*
Y156100D01*
X261200Y153100D02*
Y156100D01*
X267200Y156099D02*
G03X265702Y157600I-1750J-249D01*
G01X262698D02*
G03X261200Y156099I252J-1750D01*
G01X262700Y157600D02*
X265700D01*
X261200Y150100D02*
Y147100D01*
X267200Y150100D02*
Y147100D01*
X265702Y145600D02*
G03X267200Y147101I-252J1750D01*
G01X261200Y147100D02*
G03X262700Y145600I1753J253D01*
G01X265700D02*
X262700D01*
X280332Y212655D02*
X296868D01*
Y194545*
X280332*
Y212655*
X276800Y191156D02*
X271701D01*
Y185644*
X276800*
X279378Y191156D02*
X284299D01*
Y185644*
X279200*
X387488Y177068D02*
Y173132D01*
X387488D02*
X398512D01*
X398512D02*
Y177068D01*
X398512D02*
X387488D01*
X401488D02*
Y173132D01*
X401488D02*
X412512D01*
X412512D02*
Y177068D01*
X412512D02*
X401488D01*
X442000Y182000D02*
X439500D01*
Y177000*
X448000Y182000D02*
X450500D01*
Y177000*
X444500Y173000D02*
X445500D01*
X432104Y133700D02*
X429104D01*
X432104Y127700D02*
X429104D01*
X429105Y133700D02*
G03X427604Y132202I249J-1750D01*
G01Y129198D02*
G03X429105Y127700I1750J252D01*
G01X427604Y129200D02*
Y132200D01*
X435104Y127700D02*
X438104D01*
X435104Y133700D02*
X438104D01*
X439604Y132202D02*
G03X438103Y133700I-1750J-252D01*
G01X438104Y127700D02*
G03X439604Y129200I-253J1753D01*
G01Y132200D02*
Y129200D01*
X441204Y125200D02*
Y122200D01*
X447204Y125200D02*
Y122200D01*
X441204Y122201D02*
G03X442702Y120700I1750J249D01*
G01X445706D02*
G03X447204Y122201I-252J1750D01*
G01X445704Y120700D02*
X442704D01*
X447204Y128200D02*
Y131200D01*
X441204Y128200D02*
Y131200D01*
X442702Y132700D02*
G03X441204Y131199I252J-1750D01*
G01X447204Y131200D02*
G03X445704Y132700I-1753J-253D01*
G01X442704D02*
X445704D01*
X432404Y126256D02*
X427305D01*
Y120744*
X432404*
X434982Y126256D02*
X439903D01*
Y120744*
X434804*
X100000Y100000D02*
Y208100D01*
X125500*
Y281800*
X100000*
Y359843*
X485827*
Y100000*
X100000*
Y442000D02*
X269232D01*
X100000D02*
X110000Y444500D01*
Y439500*
X100000Y442000*
X485827D02*
X316595D01*
X485827D02*
X475827Y439500D01*
Y444500*
X485827Y442000*
X100000Y364843D02*
Y447000D01*
X485827Y364843D02*
Y447000D01*
X275186Y442625D02*
X274959Y441688D01*
X274959D02*
X274504Y441063D01*
X274504D02*
X273822Y440750D01*
X273595*
X272913Y441063*
X272913D02*
X272459Y441688D01*
X272459D02*
X272232Y442625D01*
Y442938*
X272232D02*
X272459Y443875D01*
X272913Y444500*
X273595Y444813*
X273595D02*
X273822D01*
X273822D02*
X274504Y444500D01*
X274959Y443875*
X275186Y442625*
Y441063*
X275186D02*
X274959Y439500D01*
X274504Y438563*
X274504D02*
X273822Y438250D01*
X273368*
X272686Y438563*
X272686D02*
X272459Y439188D01*
X278368Y444813D02*
X277686Y444500D01*
X277459Y443875*
Y443250*
X277686Y442625*
X278141Y442313*
X278141D02*
X279050Y442000D01*
X279732Y441688*
X279732D02*
X280186Y441063D01*
X280186D02*
X280413Y440438D01*
X280413D02*
Y439500D01*
X280186Y438875*
X279959Y438563*
X279959D02*
X279277Y438250D01*
X278368*
X277686Y438563*
X277686D02*
X277459Y438875D01*
X277232Y439500*
Y440438*
X277232D02*
X277459Y441063D01*
X277459D02*
X277913Y441688D01*
X277913D02*
X278595Y442000D01*
X279504Y442313*
X279504D02*
X279959Y442625D01*
X280186Y443250*
Y443875*
X279959Y444500*
X279277Y444813*
X279277D02*
X278368D01*
X282686Y438875D02*
X282459Y438563D01*
X282459D02*
X282686Y438250D01*
X282913Y438563*
X282913D02*
X282686Y438875D01*
X286322Y444813D02*
X285641Y444500D01*
X285186Y443563*
X285186D02*
X284959Y442000D01*
Y441063*
X284959D02*
X285186Y439500D01*
X285641Y438563*
X285641D02*
X286322Y438250D01*
X286777*
X287459Y438563*
X287459D02*
X287913Y439500D01*
X288141Y441063*
X288141D02*
Y442000D01*
X287913Y443563*
X287913D02*
X287459Y444500D01*
X286777Y444813*
X286777D02*
X286322D01*
X291550D02*
X290868Y444500D01*
X290413Y443563*
X290413D02*
X290186Y442000D01*
Y441063*
X290186D02*
X290413Y439500D01*
X290868Y438563*
X290868D02*
X291550Y438250D01*
X292004*
X292686Y438563*
X292686D02*
X293141Y439500D01*
X293368Y441063*
X293368D02*
Y442000D01*
X293141Y443563*
X293141D02*
X292686Y444500D01*
X292004Y444813*
X292004D02*
X291550D01*
X296777D02*
X296095Y444500D01*
X295641Y443563*
X295641D02*
X295413Y442000D01*
Y441063*
X295413D02*
X295641Y439500D01*
X296095Y438563*
X296095D02*
X296777Y438250D01*
X297232*
X297913Y438563*
X297913D02*
X298368Y439500D01*
X298595Y441063*
X298595D02*
Y442000D01*
X298368Y443563*
X298368D02*
X297913Y444500D01*
X297232Y444813*
X297232D02*
X296777D01*
X300641Y442625D02*
Y438250D01*
Y441375D02*
X301322Y442313D01*
X301322D02*
X301777Y442625D01*
X302459*
X302913Y442313*
X302913D02*
X303141Y441375D01*
Y438250*
Y441375D02*
X303822Y442313D01*
X303822D02*
X304277Y442625D01*
X304959*
X305413Y442313*
X305413D02*
X305641Y441375D01*
Y438250*
X307686Y442625D02*
Y438250D01*
Y441375D02*
X308368Y442313D01*
X308368D02*
X308822Y442625D01*
X309504*
X309959Y442313*
X309959D02*
X310186Y441375D01*
Y438250*
Y441375D02*
X310868Y442313D01*
X310868D02*
X311322Y442625D01*
X312004*
X312459Y442313*
X312459D02*
X312686Y441375D01*
Y438250*
X542000Y100000D02*
Y223171D01*
Y100000D02*
X539500Y110000D01*
X544500*
X542000Y100000*
Y359843D02*
Y236671D01*
Y359843D02*
X544500Y349843D01*
X539500*
X542000Y359843*
X490827Y100000D02*
X547000D01*
X490827Y359843D02*
X547000D01*
X524159Y231796D02*
X523932Y232421D01*
X523250Y232734*
X522795*
X522114Y232421*
X521659Y231484*
X521432Y229921*
Y228359*
X521659Y227109*
X522114Y226484*
X522795Y226171*
X523023*
X523705Y226484*
X524159Y227109*
X524386Y228046*
Y228359*
X524159Y229296*
X523705Y229921*
X523023Y230234*
X522795*
X522114Y229921*
X521659Y229296*
X521432Y228359*
X529159Y231796D02*
X528932Y232421D01*
X528250Y232734*
X527795*
X527114Y232421*
X526659Y231484*
X526432Y229921*
Y228359*
X526659Y227109*
X527114Y226484*
X527795Y226171*
X528023*
X528705Y226484*
X529159Y227109*
X529386Y228046*
Y228359*
X529159Y229296*
X528705Y229921*
X528023Y230234*
X527795*
X527114Y229921*
X526659Y229296*
X526432Y228359*
X531659Y226796D02*
X531432Y226484D01*
X531659Y226171*
X531886Y226484*
X531659Y226796*
X535295Y232734D02*
X534614Y232421D01*
X534159Y231484*
X533932Y229921*
Y228984*
X534159Y227421*
X534614Y226484*
X535295Y226171*
X535750*
X536432Y226484*
X536886Y227421*
X537114Y228984*
Y229921*
X536886Y231484*
X536432Y232421*
X535750Y232734*
X535295*
X540523D02*
X539841Y232421D01*
X539386Y231484*
X539159Y229921*
Y228984*
X539386Y227421*
X539841Y226484*
X540523Y226171*
X540977*
X541659Y226484*
X542114Y227421*
X542341Y228984*
Y229921*
X542114Y231484*
X541659Y232421*
X540977Y232734*
X540523*
X545750D02*
X545068Y232421D01*
X544614Y231484*
X544386Y229921*
Y228984*
X544614Y227421*
X545068Y226484*
X545750Y226171*
X546205*
X546886Y226484*
X547341Y227421*
X547568Y228984*
Y229921*
X547341Y231484*
X546886Y232421*
X546205Y232734*
X545750*
X549614Y230546D02*
Y226171D01*
Y229296D02*
X550295Y230234D01*
X550750Y230546*
X551432*
X551886Y230234*
X552114Y229296*
Y226171*
Y229296D02*
X552795Y230234D01*
X553250Y230546*
X553932*
X554386Y230234*
X554614Y229296*
Y226171*
X556659Y230546D02*
Y226171D01*
Y229296D02*
X557341Y230234D01*
X557795Y230546*
X558477*
X558932Y230234*
X559159Y229296*
Y226171*
Y229296D02*
X559841Y230234D01*
X560295Y230546*
X560977*
X561432Y230234*
X561659Y229296*
Y226171*
G54D58*
X259000Y218850D02*
Y221124D01*
X255400*
Y218850*
X259000Y216350D02*
Y214076D01*
X255400*
Y216350*
X475967Y197126D02*
X488377D01*
Y255386*
X475967*
X436217D02*
X465747D01*
Y197116D02*
X436217D01*
X405987Y161025D02*
X407449D01*
X407447D02*
G03X407450Y164175I-16J1575D01*
G01X407449D02*
X405987D01*
X404432D02*
X402951D01*
X402953D02*
G03X402950Y161025I16J-1575D01*
G01X402951D02*
X404432D01*
X416050Y202600D02*
X418324D01*
Y206200*
X416050*
X413550Y202600D02*
X411276D01*
Y206200*
X413550*
X416050Y206800D02*
X418324D01*
Y210400*
X416050*
X413550Y206800D02*
X411276D01*
Y210400*
X413550*
X415787Y220025D02*
X417249D01*
X417247D02*
G03X417250Y223175I-16J1575D01*
G01X417249D02*
X415787D01*
X414232D02*
X412751D01*
X412753D02*
G03X412750Y220025I16J-1575D01*
G01X412751D02*
X414232D01*
X416050Y232800D02*
X418324D01*
Y236400*
X416050*
X413550Y232800D02*
X411276D01*
Y236400*
X413550*
X416050Y225000D02*
X418324D01*
Y228600*
X416050*
X413550Y225000D02*
X411276D01*
Y228600*
X413550*
X416050Y213400D02*
X418324D01*
Y217000*
X416050*
X413550Y213400D02*
X411276D01*
Y217000*
X413550*
X311587Y134825D02*
X313049D01*
X313047D02*
G03X313050Y137975I-16J1575D01*
G01X313049D02*
X311587D01*
X310032D02*
X308551D01*
X308553D02*
G03X308550Y134825I16J-1575D01*
G01X308551D02*
X310032D01*
X303375Y133587D02*
Y135049D01*
Y135047D02*
G03X300225Y135050I-1575J-16D01*
G01Y135049D02*
Y133587D01*
Y132032D02*
Y130551D01*
Y130553D02*
G03X303375Y130550I1575J16D01*
G01Y130551D02*
Y132032D01*
X196425Y317613D02*
Y316151D01*
Y316153D02*
G03X199575Y316150I1575J16D01*
G01Y316151D02*
Y317613D01*
Y319168D02*
Y320649D01*
Y320647D02*
G03X196425Y320650I-1575J-16D01*
G01Y320649D02*
Y319168D01*
X430950Y283800D02*
X428676D01*
Y280200*
X430950*
X433450Y283800D02*
X435724D01*
Y280200*
X433450*
X422977Y276800D02*
X420703D01*
Y273200*
X422977*
X425477Y276800D02*
X427750D01*
Y273200*
X425477*
X236200Y225850D02*
Y228124D01*
X232600*
Y225850*
X236200Y223350D02*
Y221076D01*
X232600*
Y223350*
X258775Y209687D02*
Y211149D01*
Y211147D02*
G03X255625Y211150I-1575J-16D01*
G01Y211149D02*
Y209687D01*
Y208132D02*
Y206651D01*
Y206653D02*
G03X258775Y206650I1575J16D01*
G01Y206651D02*
Y208132D01*
X263200Y319650D02*
Y321924D01*
X259600*
Y319650*
X263200Y317150D02*
Y314876D01*
X259600*
Y317150*
X322200Y319650D02*
Y321924D01*
X318600*
Y319650*
X322200Y317150D02*
Y314876D01*
X318600*
Y317150*
X314425Y317613D02*
Y316151D01*
Y316153D02*
G03X317575Y316150I1575J16D01*
G01Y316151D02*
Y317613D01*
Y319168D02*
Y320649D01*
Y320647D02*
G03X314425Y320650I-1575J-16D01*
G01Y320649D02*
Y319168D01*
X268200Y319650D02*
Y321924D01*
X264600*
Y319650*
X268200Y317150D02*
Y314876D01*
X264600*
Y317150*
X255225Y317613D02*
Y316151D01*
Y316153D02*
G03X258375Y316150I1575J16D01*
G01Y316151D02*
Y317613D01*
Y319168D02*
Y320649D01*
Y320647D02*
G03X255225Y320650I-1575J-16D01*
G01Y320649D02*
Y319168D01*
X209200Y319650D02*
Y321924D01*
X205600*
Y319650*
X209200Y317150D02*
Y314876D01*
X205600*
Y317150*
X204400Y319650D02*
Y321924D01*
X200800*
Y319650*
X204400Y317150D02*
Y314876D01*
X200800*
Y317150*
X327000Y319650D02*
Y321924D01*
X323400*
Y319650*
X327000Y317150D02*
Y314876D01*
X323400*
Y317150*
X150000Y319650D02*
Y321924D01*
X146400*
Y319650*
X150000Y317150D02*
Y314876D01*
X146400*
Y317150*
X145200Y319650D02*
Y321924D01*
X141600*
Y319650*
X145200Y317150D02*
Y314876D01*
X141600*
Y317150*
X137225Y317613D02*
Y316151D01*
Y316153D02*
G03X140375Y316150I1575J16D01*
G01Y316151D02*
Y317613D01*
Y319168D02*
Y320649D01*
Y320647D02*
G03X137225Y320650I-1575J-16D01*
G01Y320649D02*
Y319168D01*
X381400Y319650D02*
Y321924D01*
X377800*
Y319650*
X381400Y317150D02*
Y314876D01*
X377800*
Y317150*
X402800Y319650D02*
Y321924D01*
X399200*
Y319650*
X402800Y317150D02*
Y314876D01*
X399200*
Y317150*
X395225Y317613D02*
Y316151D01*
Y316153D02*
G03X398375Y316150I1575J16D01*
G01Y316151D02*
Y317613D01*
Y319168D02*
Y320649D01*
Y320647D02*
G03X395225Y320650I-1575J-16D01*
G01Y320649D02*
Y319168D01*
X373625Y317613D02*
Y316151D01*
Y316153D02*
G03X376775Y316150I1575J16D01*
G01Y316151D02*
Y317613D01*
Y319168D02*
Y320649D01*
Y320647D02*
G03X373625Y320650I-1575J-16D01*
G01Y320649D02*
Y319168D01*
X386200Y319650D02*
Y321924D01*
X382600*
Y319650*
X386200Y317150D02*
Y314876D01*
X382600*
Y317150*
X407600Y319650D02*
Y321924D01*
X404000*
Y319650*
X407600Y317150D02*
Y314876D01*
X404000*
Y317150*
X385800Y210850D02*
Y213124D01*
X382200*
Y210850*
X385800Y208350D02*
Y206076D01*
X382200*
Y208350*
X387600D02*
Y206076D01*
X391200*
Y208350*
X387600Y210850D02*
Y213124D01*
X391200*
Y210850*
X318350Y138200D02*
X316076D01*
Y134600*
X318350*
X320850Y138200D02*
X323124D01*
Y134600*
X320850*
X273413Y183575D02*
X271951D01*
X271953D02*
G03X271950Y180425I16J-1575D01*
G01X271951D02*
X273413D01*
X274968D02*
X276449D01*
X276447D02*
G03X276450Y183575I-16J1575D01*
G01X276449D02*
X274968D01*
X277250Y151400D02*
X279524D01*
Y155000*
X277250*
X274750Y151400D02*
X272476D01*
Y155000*
X274750*
X349550Y149600D02*
X347276D01*
Y146000*
X349550*
X352050Y149600D02*
X354324D01*
Y146000*
X352050*
X134575Y189287D02*
Y190749D01*
Y190747D02*
G03X131425Y190750I-1575J-16D01*
G01Y190749D02*
Y189287D01*
Y187732D02*
Y186251D01*
Y186253D02*
G03X134575Y186250I1575J16D01*
G01Y186251D02*
Y187732D01*
X333200Y218550D02*
Y216276D01*
X336800*
Y218550*
X333200Y221050D02*
Y223324D01*
X336800*
Y221050*
X333200Y210950D02*
Y208676D01*
X336800*
Y210950*
X333200Y213450D02*
Y215724D01*
X336800*
Y213450*
X431613Y307175D02*
X430151D01*
X430153D02*
G03X430150Y304025I16J-1575D01*
G01X430151D02*
X431613D01*
X433168D02*
X434649D01*
X434647D02*
G03X434650Y307175I-16J1575D01*
G01X434649D02*
X433168D01*
X431413Y296375D02*
X429951D01*
X429953D02*
G03X429950Y293225I16J-1575D01*
G01X429951D02*
X431413D01*
X432968D02*
X434449D01*
X434447D02*
G03X434450Y296375I-16J1575D01*
G01X434449D02*
X432968D01*
X395950Y197800D02*
X393676D01*
Y194200*
X395950*
X398450Y197800D02*
X400724D01*
Y194200*
X398450*
X403950Y197800D02*
X401676D01*
Y194200*
X403950*
X406450Y197800D02*
X408724D01*
Y194200*
X406450*
X410250Y114600D02*
X412524D01*
Y118200*
X410250*
X407750Y114600D02*
X405476D01*
Y118200*
X407750*
X333400Y189150D02*
Y186876D01*
X337000*
Y189150*
X333400Y191650D02*
Y193924D01*
X337000*
Y191650*
X343250Y146000D02*
X345524D01*
Y149600*
X343250*
X340750Y146000D02*
X338476D01*
Y149600*
X340750*
X363750Y146600D02*
X361476D01*
Y143000*
X363750*
X366250Y146600D02*
X368524D01*
Y143000*
X366250*
X356100Y137050D02*
Y139324D01*
X352500*
Y137050*
X356100Y134550D02*
Y132276D01*
X352500*
Y134550*
X356100Y122550D02*
Y124824D01*
X352500*
Y122550*
X356100Y120050D02*
Y117776D01*
X352500*
Y120050*
X300225Y124013D02*
Y122551D01*
Y122553D02*
G03X303375Y122550I1575J16D01*
G01Y122551D02*
Y124013D01*
Y125568D02*
Y127049D01*
Y127047D02*
G03X300225Y127050I-1575J-16D01*
G01Y127049D02*
Y125568D01*
X330050Y130100D02*
X327776D01*
Y126500*
X330050*
X332550Y130100D02*
X334824D01*
Y126500*
X332550*
X330050Y125100D02*
X327776D01*
Y121500*
X330050*
X332550Y125100D02*
X334824D01*
Y121500*
X332550*
X392587Y161025D02*
X394049D01*
X394047D02*
G03X394050Y164175I-16J1575D01*
G01X394049D02*
X392587D01*
X391032D02*
X389551D01*
X389553D02*
G03X389550Y161025I16J-1575D01*
G01X389551D02*
X391032D01*
X445950Y160400D02*
X443676D01*
Y156800*
X445950*
X448450Y160400D02*
X450724D01*
Y156800*
X448450*
X445950Y142000D02*
X443676D01*
Y138400*
X445950*
X448450Y142000D02*
X450724D01*
Y138400*
X448450*
X433187Y134825D02*
X434649D01*
X434647D02*
G03X434650Y137975I-16J1575D01*
G01X434649D02*
X433187D01*
X431632D02*
X430151D01*
X430153D02*
G03X430150Y134825I16J-1575D01*
G01X430151D02*
X431632D01*
X135700Y187250D02*
Y184976D01*
X139300*
Y187250*
X135700Y189750D02*
Y192024D01*
X139300*
Y189750*
X152750Y183200D02*
X150476D01*
Y179600*
X152750*
X155250Y183200D02*
X157524D01*
Y179600*
X155250*
X143075Y189287D02*
Y190749D01*
Y190747D02*
G03X139925Y190750I-1575J-16D01*
G01Y190749D02*
Y189287D01*
Y187732D02*
Y186251D01*
Y186253D02*
G03X143075Y186250I1575J16D01*
G01Y186251D02*
Y187732D01*
X154787Y165925D02*
X156249D01*
X156247D02*
G03X156250Y169075I-16J1575D01*
G01X156249D02*
X154787D01*
X153232D02*
X151751D01*
X151753D02*
G03X151750Y165925I16J-1575D01*
G01X151751D02*
X153232D01*
X154787Y169925D02*
X156249D01*
X156247D02*
G03X156250Y173075I-16J1575D01*
G01X156249D02*
X154787D01*
X153232D02*
X151751D01*
X151753D02*
G03X151750Y169925I16J-1575D01*
G01X151751D02*
X153232D01*
X152750Y178300D02*
X150476D01*
Y174700*
X152750*
X155250Y178300D02*
X157524D01*
Y174700*
X155250*
X207800Y145150D02*
Y142876D01*
X211400*
Y145150*
X207800Y147650D02*
Y149924D01*
X211400*
Y147650*
X412977Y276800D02*
X410703D01*
Y273200*
X412977*
X415477Y276800D02*
X417750D01*
Y273200*
X415477*
X433477Y315200D02*
X435750D01*
Y318800*
X433477*
X430977Y315200D02*
X428703D01*
Y318800*
X430977*
X431150Y311800D02*
X428876D01*
Y308200*
X431150*
X433650Y311800D02*
X435924D01*
Y308200*
X433650*
X430977Y300800D02*
X428703D01*
Y297200*
X430977*
X433477Y300800D02*
X435750D01*
Y297200*
X433477*
X433014Y284425D02*
X434476D01*
X434474D02*
G03X434477Y287575I-16J1575D01*
G01X434476D02*
X433014D01*
X431459D02*
X429978D01*
X429979D02*
G03X429977Y284425I17J-1575D01*
G01X429978D02*
X431459D01*
X407027Y298250D02*
Y300524D01*
X403427*
Y298250*
X407027Y295750D02*
Y293476D01*
X403427*
Y295750*
X274750Y159400D02*
X272476D01*
Y155800*
X274750*
X277250Y159400D02*
X279524D01*
Y155800*
X277250*
X265775Y141587D02*
Y143049D01*
Y143047D02*
G03X262625Y143050I-1575J-16D01*
G01Y143049D02*
Y141587D01*
Y140032D02*
Y138551D01*
Y138553D02*
G03X265775Y138550I1575J16D01*
G01Y138551D02*
Y140032D01*
X311350Y219900D02*
X309076D01*
Y216300*
X311350*
X313850Y219900D02*
X316124D01*
Y216300*
X313850*
X317850Y187800D02*
X320124D01*
Y191400*
X317850*
X315350Y187800D02*
X313076D01*
Y191400*
X315350*
X323400Y211350D02*
Y213624D01*
X319800*
Y211350*
X323400Y208850D02*
Y206576D01*
X319800*
Y208850*
X281213Y183575D02*
X279751D01*
X279753D02*
G03X279750Y180425I16J-1575D01*
G01X279751D02*
X281213D01*
X282768D02*
X284249D01*
X284247D02*
G03X284250Y183575I-16J1575D01*
G01X284249D02*
X282768D01*
X130575Y189287D02*
Y190749D01*
Y190747D02*
G03X127425Y190750I-1575J-16D01*
G01Y190749D02*
Y189287D01*
Y187732D02*
Y186251D01*
Y186253D02*
G03X130575Y186250I1575J16D01*
G01Y186251D02*
Y187732D01*
X147250Y174700D02*
X149524D01*
Y178300*
X147250*
X144750Y174700D02*
X142476D01*
Y178300*
X144750*
X414614Y194425D02*
X416076D01*
X416074D02*
G03X416077Y197575I-16J1575D01*
G01X416076D02*
X414614D01*
X413059D02*
X411578D01*
X411579D02*
G03X411577Y194425I17J-1575D01*
G01X411578D02*
X413059D01*
X464777Y185800D02*
X462503D01*
Y182200*
X464777*
X467277Y185800D02*
X469550D01*
Y182200*
X467277*
X464777Y181600D02*
X462503D01*
Y178000*
X464777*
X467277Y181600D02*
X469550D01*
Y178000*
X467277*
X258000Y235938D02*
Y232000D01*
Y235938D02*
X258955D01*
X258955D02*
X259364Y235750D01*
X259636Y235375*
X259773Y235000*
X259909Y234438*
X259909D02*
Y233500D01*
X259773Y232938*
X259773D02*
X259636Y232563D01*
X259636D02*
X259364Y232188D01*
X259364D02*
X258955Y232000D01*
X258000*
X263045Y235938D02*
X261682Y232000D01*
X261136Y235938D02*
X263045D01*
X260562Y215500D02*
X264500D01*
X260562D02*
Y216727D01*
X260562D02*
X260750Y217136D01*
X260937Y217273*
X260937D02*
X261312Y217409D01*
X261312D02*
X261687D01*
X261687D02*
X262062Y217273D01*
X262062D02*
X262250Y217136D01*
X262437Y216727*
X262437D02*
Y215500D01*
Y216455D02*
X264500Y217409D01*
X260562Y220409D02*
Y219045D01*
X260562D02*
X262250Y218909D01*
X262062Y219045*
X262062D02*
X261875Y219455D01*
Y219864*
X262062Y220273*
X262062D02*
X262437Y220545D01*
X262437D02*
X263000Y220682D01*
X263375Y220545*
X263937Y220409*
X263937D02*
X264312Y220136D01*
X264312D02*
X264500Y219727D01*
Y219318*
X264312Y218909*
X264312D02*
X264125Y218773D01*
X263750Y218636*
X260562Y222727D02*
X260750Y222318D01*
X261312Y222045*
X261312D02*
X262250Y221909D01*
X262812*
X262812D02*
X263750Y222045D01*
X264312Y222318*
X264312D02*
X264500Y222727D01*
Y223000*
X264312Y223409*
X264312D02*
X263750Y223682D01*
X262812Y223818*
X262812D02*
X262250D01*
X261312Y223682*
X261312D02*
X260750Y223409D01*
X260562Y223000*
X260562D02*
Y222727D01*
X269500Y206045D02*
X269125Y205909D01*
X268750Y205636*
X268562Y205364*
X268562D02*
Y204818D01*
X268562D02*
X268750Y204545D01*
X269125Y204273*
X269500Y204136*
X270062Y204000*
X270062D02*
X271000D01*
X271562Y204136*
X271562D02*
X271937Y204273D01*
X271937D02*
X272312Y204545D01*
X272312D02*
X272500Y204818D01*
Y205364*
X272312Y205636*
X272312D02*
X271937Y205909D01*
X271937D02*
X271562Y206045D01*
X268562Y207545D02*
Y209045D01*
X268562D02*
X270062Y208227D01*
X270062D02*
Y208636D01*
X270062D02*
X270250Y208909D01*
X270437Y209045*
X270437D02*
X271000Y209182D01*
X271375*
X271937Y209045*
X271937D02*
X272312Y208773D01*
X272312D02*
X272500Y208364D01*
Y207955*
X272312Y207545*
X272312D02*
X272125Y207409D01*
X271750Y207273*
X269500Y210545D02*
X269312D01*
X269312D02*
X268937Y210682D01*
X268937D02*
X268750Y210818D01*
X268562Y211091*
X268562D02*
Y211636D01*
X268562D02*
X268750Y211909D01*
X268937Y212045*
X268937D02*
X269312Y212182D01*
X269312D02*
X269687D01*
X269687D02*
X270062Y212045D01*
X270062D02*
X270625Y211773D01*
X272500Y210409*
Y212318*
X422000Y244937D02*
Y242125D01*
X422136Y241562*
X422136D02*
X422409Y241187D01*
X422409D02*
X422818Y241000D01*
X423091*
X423500Y241187*
X423500D02*
X423773Y241562D01*
X423773D02*
X423909Y242125D01*
Y244937*
X425409D02*
X426909D01*
X426909D02*
X426091Y243437D01*
X426091D02*
X426500D01*
X426500D02*
X426773Y243250D01*
X426909Y243062*
X426909D02*
X427045Y242500D01*
Y242125*
X426909Y241562*
X426909D02*
X426636Y241187D01*
X426636D02*
X426227Y241000D01*
X425818*
X425409Y241187*
X425409D02*
X425273Y241375D01*
X425136Y241750*
X404545Y159000D02*
X404409Y159375D01*
X404136Y159750*
X403864Y159938*
X403864D02*
X403318D01*
X403318D02*
X403045Y159750D01*
X402773Y159375*
X402636Y159000*
X402500Y158438*
X402500D02*
Y157500D01*
X402636Y156938*
X402636D02*
X402773Y156563D01*
X402773D02*
X403045Y156188D01*
X403045D02*
X403318Y156000D01*
X403864*
X404136Y156188*
X404136D02*
X404409Y156563D01*
X404409D02*
X404545Y156938D01*
X405773Y159188D02*
X406045Y159375D01*
X406455Y159938*
X406455D02*
Y156000D01*
X407682Y159188D02*
X407955Y159375D01*
X408364Y159938*
X408364D02*
Y156000D01*
X293562Y109500D02*
X297500D01*
X293562D02*
Y111273D01*
X295437Y109500D02*
Y110591D01*
X293562Y112500D02*
X297500D01*
X293562D02*
Y113727D01*
X293562D02*
X293750Y114136D01*
X293937Y114273*
X293937D02*
X294312Y114409D01*
X294312D02*
X294687D01*
X294687D02*
X295062Y114273D01*
X295062D02*
X295250Y114136D01*
X295437Y113727*
Y112500D02*
Y113727D01*
X295437D02*
X295625Y114136D01*
X295812Y114273*
X295812D02*
X296187Y114409D01*
X296187D02*
X296750D01*
X297125Y114273*
X297312Y114136*
X297312D02*
X297500Y113727D01*
Y112500*
X293562Y115909D02*
Y117409D01*
X293562D02*
X295062Y116591D01*
X295062D02*
Y117000D01*
X295062D02*
X295250Y117273D01*
X295437Y117409*
X295437D02*
X296000Y117545D01*
X296375*
X296937Y117409*
X296937D02*
X297312Y117136D01*
X297312D02*
X297500Y116727D01*
Y116318*
X297312Y115909*
X297312D02*
X297125Y115773D01*
X296750Y115636*
X405000Y205938D02*
Y202000D01*
Y205938D02*
X406227D01*
X406227D02*
X406636Y205750D01*
X406773Y205563*
X406773D02*
X406909Y205188D01*
X406909D02*
Y204813D01*
X406909D02*
X406773Y204438D01*
X406773D02*
X406636Y204250D01*
X406227Y204063*
X406227D02*
X405000D01*
X405955D02*
X406909Y202000D01*
X409773Y205375D02*
X409636Y205750D01*
X409227Y205938*
X409227D02*
X408955D01*
X408955D02*
X408545Y205750D01*
X408273Y205188*
X408273D02*
X408136Y204250D01*
Y203313*
X408136D02*
X408273Y202563D01*
X408273D02*
X408545Y202188D01*
X408545D02*
X408955Y202000D01*
X409091*
X409500Y202188*
X409500D02*
X409773Y202563D01*
X409773D02*
X409909Y203125D01*
Y203313*
X409909D02*
X409773Y203875D01*
X409500Y204250*
X409091Y204438*
X409091D02*
X408955D01*
X408955D02*
X408545Y204250D01*
X408273Y203875*
X408136Y203313*
X405000Y210938D02*
Y207000D01*
Y210938D02*
X406227D01*
X406227D02*
X406636Y210750D01*
X406773Y210563*
X406773D02*
X406909Y210188D01*
X406909D02*
Y209813D01*
X406909D02*
X406773Y209438D01*
X406773D02*
X406636Y209250D01*
X406227Y209063*
X406227D02*
X405000D01*
X405955D02*
X406909Y207000D01*
X409909Y210938D02*
X408545D01*
X408545D02*
X408409Y209250D01*
X408545Y209438*
X408545D02*
X408955Y209625D01*
X409364*
X409773Y209438*
X409773D02*
X410045Y209063D01*
X410045D02*
X410182Y208500D01*
X410045Y208125*
X409909Y207563*
X409909D02*
X409636Y207188D01*
X409636D02*
X409227Y207000D01*
X408818*
X408409Y207188*
X408409D02*
X408273Y207375D01*
X408136Y207750*
X407045Y222500D02*
X406909Y222875D01*
X406636Y223250*
X406364Y223438*
X406364D02*
X405818D01*
X405818D02*
X405545Y223250D01*
X405273Y222875*
X405136Y222500*
X405000Y221938*
X405000D02*
Y221000D01*
X405136Y220438*
X405136D02*
X405273Y220063D01*
X405273D02*
X405545Y219688D01*
X405545D02*
X405818Y219500D01*
X406364*
X406636Y219688*
X406636D02*
X406909Y220063D01*
X406909D02*
X407045Y220438D01*
X409909Y222875D02*
X409773Y223250D01*
X409364Y223438*
X409364D02*
X409091D01*
X409091D02*
X408682Y223250D01*
X408409Y222688*
X408409D02*
X408273Y221750D01*
Y220813*
X408273D02*
X408409Y220063D01*
X408409D02*
X408682Y219688D01*
X408682D02*
X409091Y219500D01*
X409227*
X409636Y219688*
X409636D02*
X409909Y220063D01*
X409909D02*
X410045Y220625D01*
Y220813*
X410045D02*
X409909Y221375D01*
X409636Y221750*
X409227Y221938*
X409227D02*
X409091D01*
X409091D02*
X408682Y221750D01*
X408409Y221375*
X408273Y220813*
X406000Y236938D02*
Y233000D01*
Y236938D02*
X407227D01*
X407227D02*
X407636Y236750D01*
X407773Y236563*
X407773D02*
X407909Y236188D01*
X407909D02*
Y235813D01*
X407909D02*
X407773Y235438D01*
X407773D02*
X407636Y235250D01*
X407227Y235063*
X407227D02*
X406000D01*
X406955D02*
X407909Y233000D01*
X409136Y236188D02*
X409409Y236375D01*
X409818Y236938*
X409818D02*
Y233000D01*
X405500Y228938D02*
Y225000D01*
Y228938D02*
X406727D01*
X406727D02*
X407136Y228750D01*
X407273Y228563*
X407273D02*
X407409Y228188D01*
X407409D02*
Y227813D01*
X407409D02*
X407273Y227438D01*
X407273D02*
X407136Y227250D01*
X406727Y227063*
X406727D02*
X405500D01*
X406455D02*
X407409Y225000D01*
X408909Y228938D02*
X410409D01*
X410409D02*
X409591Y227438D01*
X409591D02*
X410000D01*
X410000D02*
X410273Y227250D01*
X410409Y227063*
X410409D02*
X410545Y226500D01*
Y226125*
X410409Y225563*
X410409D02*
X410136Y225188D01*
X410136D02*
X409727Y225000D01*
X409318*
X408909Y225188*
X408909D02*
X408773Y225375D01*
X408636Y225750*
X405000Y216938D02*
Y213000D01*
Y216938D02*
X406227D01*
X406227D02*
X406636Y216750D01*
X406773Y216563*
X406773D02*
X406909Y216188D01*
X406909D02*
Y215813D01*
X406909D02*
X406773Y215438D01*
X406773D02*
X406636Y215250D01*
X406227Y215063*
X406227D02*
X405000D01*
X405955D02*
X406909Y213000D01*
X409500Y216938D02*
X408136Y214313D01*
X408136D02*
X410182D01*
X409500Y216938D02*
Y213000D01*
X308545Y142500D02*
X308409Y142875D01*
X308136Y143250*
X307864Y143438*
X307864D02*
X307318D01*
X307318D02*
X307045Y143250D01*
X306773Y142875*
X306636Y142500*
X306500Y141938*
X306500D02*
Y141000D01*
X306636Y140438*
X306636D02*
X306773Y140063D01*
X306773D02*
X307045Y139688D01*
X307045D02*
X307318Y139500D01*
X307864*
X308136Y139688*
X308136D02*
X308409Y140063D01*
X308409D02*
X308545Y140438D01*
X310045Y143438D02*
X311545D01*
X311545D02*
X310727Y141938D01*
X310727D02*
X311136D01*
X311136D02*
X311409Y141750D01*
X311545Y141563*
X311545D02*
X311682Y141000D01*
Y140625*
X311545Y140063*
X311545D02*
X311273Y139688D01*
X311273D02*
X310864Y139500D01*
X310455*
X310045Y139688*
X310045D02*
X309909Y139875D01*
X309773Y140250*
X314682Y142125D02*
X314545Y141563D01*
X314545D02*
X314273Y141188D01*
X314273D02*
X313864Y141000D01*
X313727*
X313318Y141188*
X313318D02*
X313045Y141563D01*
X313045D02*
X312909Y142125D01*
Y142313*
X312909D02*
X313045Y142875D01*
X313318Y143250*
X313727Y143438*
X313727D02*
X313864D01*
X313864D02*
X314273Y143250D01*
X314545Y142875*
X314682Y142125*
Y141188*
X314682D02*
X314545Y140250D01*
X314273Y139688*
X314273D02*
X313864Y139500D01*
X313591*
X313182Y139688*
X313182D02*
X313045Y140063D01*
X300500Y140545D02*
X300125Y140409D01*
X299750Y140136*
X299562Y139864*
Y139318*
X299750Y139045*
X300125Y138773*
X300500Y138636*
X301062Y138500*
X302000*
X302562Y138636*
X302937Y138773*
X303312Y139045*
X303500Y139318*
Y139864*
X303312Y140136*
X302937Y140409*
X302562Y140545*
X299562Y142045D02*
Y143545D01*
X301062Y142727*
Y143136*
X301250Y143409*
X301437Y143545*
X302000Y143682*
X302375*
X302937Y143545*
X303312Y143273*
X303500Y142864*
Y142455*
X303312Y142045*
X303125Y141909*
X302750Y141773*
X299562Y145591D02*
X299750Y145182D01*
X300125Y145045*
X300500*
X300875Y145182*
X301062Y145455*
X301250Y146000*
X301437Y146409*
X301812Y146682*
X302187Y146818*
X302750*
X303125Y146682*
X303312Y146545*
X303500Y146136*
Y145591*
X303312Y145182*
X303125Y145045*
X302750Y144909*
X302187*
X301812Y145045*
X301437Y145318*
X301250Y145727*
X301062Y146273*
X300875Y146545*
X300500Y146682*
X300125*
X299750Y146545*
X299562Y146136*
Y145591*
X197000Y307545D02*
X196625Y307409D01*
X196250Y307136*
X196062Y306864*
X196062D02*
Y306318D01*
X196062D02*
X196250Y306045D01*
X196625Y305773*
X197000Y305636*
X197562Y305500*
X197562D02*
X198500D01*
X199062Y305636*
X199062D02*
X199437Y305773D01*
X199437D02*
X199812Y306045D01*
X199812D02*
X200000Y306318D01*
Y306864*
X199812Y307136*
X199812D02*
X199437Y307409D01*
X199437D02*
X199062Y307545D01*
X197000Y308909D02*
X196812D01*
X196812D02*
X196437Y309045D01*
X196437D02*
X196250Y309182D01*
X196062Y309455*
X196062D02*
Y310000D01*
X196062D02*
X196250Y310273D01*
X196437Y310409*
X196437D02*
X196812Y310545D01*
X196812D02*
X197187D01*
X197187D02*
X197562Y310409D01*
X197562D02*
X198125Y310136D01*
X200000Y308773*
Y310682*
X196062Y312591D02*
X196250Y312182D01*
X196625Y312045*
X197000*
X197375Y312182*
X197562Y312455*
X197562D02*
X197750Y313000D01*
X197937Y313409*
X197937D02*
X198312Y313682D01*
X198312D02*
X198687Y313818D01*
X198687D02*
X199250D01*
X199625Y313682*
X199812Y313545*
X199812D02*
X200000Y313136D01*
Y312591*
X199812Y312182*
X199812D02*
X199625Y312045D01*
X199250Y311909*
X198687*
X198687D02*
X198312Y312045D01*
X198312D02*
X197937Y312318D01*
X197937D02*
X197750Y312727D01*
X197562Y313273*
X197562D02*
X197375Y313545D01*
X197000Y313682*
X196625*
X196250Y313545*
X196062Y313136*
X196062D02*
Y312591D01*
X437500Y282938D02*
Y279000D01*
Y282938D02*
X438727D01*
X438727D02*
X439136Y282750D01*
X439273Y282563*
X439273D02*
X439409Y282188D01*
X439409D02*
Y281813D01*
X439409D02*
X439273Y281438D01*
X439273D02*
X439136Y281250D01*
X438727Y281063*
X438727D02*
X437500D01*
X438455D02*
X439409Y279000D01*
X440773Y282000D02*
Y282188D01*
X440773D02*
X440909Y282563D01*
X440909D02*
X441045Y282750D01*
X441318Y282938*
X441318D02*
X441864D01*
X441864D02*
X442136Y282750D01*
X442273Y282563*
X442273D02*
X442409Y282188D01*
X442409D02*
Y281813D01*
X442409D02*
X442273Y281438D01*
X442273D02*
X442000Y280875D01*
X440636Y279000*
X442545*
X444045Y282938D02*
X445545D01*
X445545D02*
X444727Y281438D01*
X444727D02*
X445136D01*
X445136D02*
X445409Y281250D01*
X445545Y281063*
X445545D02*
X445682Y280500D01*
Y280125*
X445545Y279563*
X445545D02*
X445273Y279188D01*
X445273D02*
X444864Y279000D01*
X444455*
X444045Y279188*
X444045D02*
X443909Y279375D01*
X443773Y279750*
X167500Y204438D02*
Y201625D01*
X167636Y201063*
X167909Y200688*
X168318Y200500*
X168591*
X169000Y200688*
X169273Y201063*
X169409Y201625*
Y204438*
X170636Y203688D02*
X170909Y203875D01*
X171318Y204438*
Y200500*
X415818Y309938D02*
X415545Y309750D01*
X415273Y309375*
X415136Y309000*
X415000Y308438*
X415000D02*
Y307500D01*
X415136Y306938*
X415136D02*
X415273Y306563D01*
X415273D02*
X415545Y306188D01*
X415545D02*
X415818Y306000D01*
X416364*
X416636Y306188*
X416636D02*
X416909Y306563D01*
X416909D02*
X417045Y306938D01*
X417045D02*
X417182Y307500D01*
Y308438*
X417182D02*
X417045Y309000D01*
X416909Y309375*
X416636Y309750*
X416364Y309938*
X416364D02*
X415818D01*
X416227Y306750D02*
X417045Y305625D01*
X420182Y309938D02*
X418818D01*
X418818D02*
X418682Y308250D01*
X418818Y308438*
X418818D02*
X419227Y308625D01*
X419636*
X420045Y308438*
X420045D02*
X420318Y308063D01*
X420318D02*
X420455Y307500D01*
X420318Y307125*
X420182Y306563*
X420182D02*
X419909Y306188D01*
X419909D02*
X419500Y306000D01*
X419091*
X418682Y306188*
X418682D02*
X418545Y306375D01*
X418409Y306750*
X421500Y271938D02*
Y268000D01*
Y271938D02*
X422727D01*
X422727D02*
X423136Y271750D01*
X423273Y271563*
X423273D02*
X423409Y271188D01*
X423409D02*
Y270813D01*
X423409D02*
X423273Y270438D01*
X423273D02*
X423136Y270250D01*
X422727Y270063*
X422727D02*
X421500D01*
X422455D02*
X423409Y268000D01*
X424636Y271188D02*
X424909Y271375D01*
X425318Y271938*
X425318D02*
Y268000D01*
X427909Y271938D02*
X426545Y269313D01*
X426545D02*
X428591D01*
X427909Y271938D02*
Y268000D01*
X232562Y230500D02*
X236500D01*
X232562D02*
Y231727D01*
X232750Y232136*
X232937Y232273*
X233312Y232409*
X233687*
X234062Y232273*
X234250Y232136*
X234437Y231727*
Y230500*
Y231455D02*
X236500Y232409D01*
X232562Y235000D02*
X235187Y233636D01*
Y235682*
X232562Y235000D02*
X236500D01*
X233875Y238682D02*
X234437Y238545D01*
X234812Y238273*
X235000Y237864*
Y237727*
X234812Y237318*
X234437Y237045*
X233875Y236909*
X233687*
X233125Y237045*
X232750Y237318*
X232562Y237727*
Y237864*
X232750Y238273*
X233125Y238545*
X233875Y238682*
X234812*
X235750Y238545*
X236312Y238273*
X236500Y237864*
Y237591*
X236312Y237182*
X235937Y237045*
X244818Y234438D02*
X244545Y234250D01*
X244273Y233875*
X244136Y233500*
X244000Y232938*
X244000D02*
Y232000D01*
X244136Y231438*
X244136D02*
X244273Y231063D01*
X244273D02*
X244545Y230688D01*
X244545D02*
X244818Y230500D01*
X245364*
X245636Y230688*
X245636D02*
X245909Y231063D01*
X245909D02*
X246045Y231438D01*
X246045D02*
X246182Y232000D01*
Y232938*
X246182D02*
X246045Y233500D01*
X245909Y233875*
X245636Y234250*
X245364Y234438*
X245364D02*
X244818D01*
X245227Y231250D02*
X246045Y230125D01*
X248773Y234438D02*
X247409Y231813D01*
X247409D02*
X249455D01*
X248773Y234438D02*
Y230500D01*
X256000Y197045D02*
X255625Y196909D01*
X255250Y196636*
X255062Y196364*
X255062D02*
Y195818D01*
X255062D02*
X255250Y195545D01*
X255625Y195273*
X256000Y195136*
X256562Y195000*
X256562D02*
X257500D01*
X258062Y195136*
X258062D02*
X258437Y195273D01*
X258437D02*
X258812Y195545D01*
X258812D02*
X259000Y195818D01*
Y196364*
X258812Y196636*
X258812D02*
X258437Y196909D01*
X258437D02*
X258062Y197045D01*
X255062Y198545D02*
Y200045D01*
X255062D02*
X256562Y199227D01*
X256562D02*
Y199636D01*
X256562D02*
X256750Y199909D01*
X256937Y200045*
X256937D02*
X257500Y200182D01*
X257875*
X258437Y200045*
X258437D02*
X258812Y199773D01*
X258812D02*
X259000Y199364D01*
Y198955*
X258812Y198545*
X258812D02*
X258625Y198409D01*
X258250Y198273*
X255062Y201682D02*
Y203182D01*
X255062D02*
X256562Y202364D01*
X256562D02*
Y202773D01*
X256562D02*
X256750Y203045D01*
X256937Y203182*
X256937D02*
X257500Y203318D01*
X257875*
X258437Y203182*
X258437D02*
X258812Y202909D01*
X258812D02*
X259000Y202500D01*
Y202091*
X258812Y201682*
X258812D02*
X258625Y201545D01*
X258250Y201409*
X227562Y199000D02*
X231500D01*
X227562D02*
Y199955D01*
X227562D02*
X227750Y200364D01*
X228125Y200636*
X228500Y200773*
X229062Y200909*
X229062D02*
X230000D01*
X230562Y200773*
X230562D02*
X230937Y200636D01*
X230937D02*
X231312Y200364D01*
X231312D02*
X231500Y199955D01*
Y199000*
X228125Y203773D02*
X227750Y203636D01*
X227562Y203227*
X227562D02*
Y202955D01*
X227562D02*
X227750Y202545D01*
X228312Y202273*
X228312D02*
X229250Y202136D01*
X230187*
X230187D02*
X230937Y202273D01*
X230937D02*
X231312Y202545D01*
X231312D02*
X231500Y202955D01*
Y203091*
X231312Y203500*
X231312D02*
X230937Y203773D01*
X230937D02*
X230375Y203909D01*
X230187*
X230187D02*
X229625Y203773D01*
X229250Y203500*
X229062Y203091*
X229062D02*
Y202955D01*
X229062D02*
X229250Y202545D01*
X229625Y202273*
X230187Y202136*
X230409Y267875D02*
X230136Y268250D01*
X229727Y268438*
X229727D02*
X229182D01*
X229182D02*
X228773Y268250D01*
X228500Y267875*
Y267500*
X228636Y267125*
X228773Y266938*
X228773D02*
X229045Y266750D01*
X229864Y266375*
X230136Y266188*
X230136D02*
X230273Y266000D01*
X230409Y265625*
Y265063*
X230409D02*
X230136Y264688D01*
X230136D02*
X229727Y264500D01*
X229182*
X228773Y264688*
X228773D02*
X228500Y265063D01*
X231636Y268438D02*
X232318Y264500D01*
X233000Y268438D02*
X232318Y264500D01*
X233000Y268438D02*
X233682Y264500D01*
X234364Y268438D02*
X233682Y264500D01*
X236273Y268438D02*
X235864Y268250D01*
X235727Y267875*
Y267500*
X235864Y267125*
X236136Y266938*
X236136D02*
X236682Y266750D01*
X237091Y266563*
X237091D02*
X237364Y266188D01*
X237364D02*
X237500Y265813D01*
X237500D02*
Y265250D01*
X237364Y264875*
X237227Y264688*
X237227D02*
X236818Y264500D01*
X236273*
X235864Y264688*
X235864D02*
X235727Y264875D01*
X235591Y265250*
Y265813*
X235591D02*
X235727Y266188D01*
X235727D02*
X236000Y266563D01*
X236000D02*
X236409Y266750D01*
X236955Y266938*
X236955D02*
X237227Y267125D01*
X237364Y267500*
Y267875*
X237227Y268250*
X236818Y268438*
X236818D02*
X236273D01*
X259662Y305500D02*
X263600D01*
X259662D02*
Y306727D01*
X259662D02*
X259850Y307136D01*
X260037Y307273*
X260037D02*
X260412Y307409D01*
X260412D02*
X260787D01*
X260787D02*
X261162Y307273D01*
X261162D02*
X261350Y307136D01*
X261537Y306727*
X261537D02*
Y305500D01*
Y306455D02*
X263600Y307409D01*
X259662Y308909D02*
Y310409D01*
X259662D02*
X261162Y309591D01*
X261162D02*
Y310000D01*
X261162D02*
X261350Y310273D01*
X261537Y310409*
X261537D02*
X262100Y310545D01*
X262475*
X263037Y310409*
X263037D02*
X263412Y310136D01*
X263412D02*
X263600Y309727D01*
Y309318*
X263412Y308909*
X263412D02*
X263225Y308773D01*
X262850Y308636*
X260975Y313545D02*
X261537Y313409D01*
X261537D02*
X261912Y313136D01*
X261912D02*
X262100Y312727D01*
Y312591*
X261912Y312182*
X261912D02*
X261537Y311909D01*
X261537D02*
X260975Y311773D01*
X260787*
X260787D02*
X260225Y311909D01*
X259850Y312182*
X259662Y312591*
X259662D02*
Y312727D01*
X259662D02*
X259850Y313136D01*
X260225Y313409*
X260975Y313545*
X261912*
X261912D02*
X262850Y313409D01*
X263412Y313136*
X263412D02*
X263600Y312727D01*
Y312455*
X263412Y312045*
X263412D02*
X263037Y311909D01*
X282309Y352175D02*
X282036Y352550D01*
X281627Y352738*
X281082*
X280673Y352550*
X280400Y352175*
Y351800*
X280536Y351425*
X280673Y351238*
X280945Y351050*
X281764Y350675*
X282036Y350488*
X282173Y350300*
X282309Y349925*
Y349363*
X282036Y348988*
X281627Y348800*
X281082*
X280673Y348988*
X280400Y349363*
X283536Y352738D02*
X284218Y348800D01*
X284900Y352738D02*
X284218Y348800D01*
X284900Y352738D02*
X285582Y348800D01*
X286264Y352738D02*
X285582Y348800D01*
X287627Y351800D02*
Y351988D01*
X287764Y352363*
X287900Y352550*
X288173Y352738*
X288718*
X288991Y352550*
X289127Y352363*
X289264Y351988*
Y351613*
X289127Y351238*
X288855Y350675*
X287491Y348800*
X289400*
X423709Y352275D02*
X423436Y352650D01*
X423027Y352838*
X423027D02*
X422482D01*
X422482D02*
X422073Y352650D01*
X421800Y352275*
Y351900*
X421936Y351525*
X422073Y351338*
X422073D02*
X422345Y351150D01*
X423164Y350775*
X423436Y350588*
X423436D02*
X423573Y350400D01*
X423709Y350025*
Y349463*
X423709D02*
X423436Y349088D01*
X423436D02*
X423027Y348900D01*
X422482*
X422073Y349088*
X422073D02*
X421800Y349463D01*
X424936Y352838D02*
X425618Y348900D01*
X426300Y352838D02*
X425618Y348900D01*
X426300Y352838D02*
X426982Y348900D01*
X427664Y352838D02*
X426982Y348900D01*
X429164Y352838D02*
X430664D01*
X430664D02*
X429845Y351338D01*
X429845D02*
X430255D01*
X430255D02*
X430527Y351150D01*
X430664Y350963*
X430664D02*
X430800Y350400D01*
Y350025*
X430664Y349463*
X430664D02*
X430391Y349088D01*
X430391D02*
X429982Y348900D01*
X429573*
X429164Y349088*
X429164D02*
X429027Y349275D01*
X428891Y349650*
X318662Y305500D02*
X322600D01*
X318662D02*
Y306727D01*
X318662D02*
X318850Y307136D01*
X319037Y307273*
X319037D02*
X319412Y307409D01*
X319412D02*
X319787D01*
X319787D02*
X320162Y307273D01*
X320162D02*
X320350Y307136D01*
X320537Y306727*
X320537D02*
Y305500D01*
Y306455D02*
X322600Y307409D01*
X318662Y310000D02*
X321287Y308636D01*
X321287D02*
Y310682D01*
X318662Y310000D02*
X322600D01*
X318662Y312182D02*
Y313682D01*
X318662D02*
X320162Y312864D01*
X320162D02*
Y313273D01*
X320162D02*
X320350Y313545D01*
X320537Y313682*
X320537D02*
X321100Y313818D01*
X321475*
X322037Y313682*
X322037D02*
X322412Y313409D01*
X322412D02*
X322600Y313000D01*
Y312591*
X322412Y312182*
X322412D02*
X322225Y312045D01*
X321850Y311909*
X315200Y307545D02*
X314825Y307409D01*
X314450Y307136*
X314262Y306864*
X314262D02*
Y306318D01*
X314262D02*
X314450Y306045D01*
X314825Y305773*
X315200Y305636*
X315762Y305500*
X315762D02*
X316700D01*
X317262Y305636*
X317262D02*
X317637Y305773D01*
X317637D02*
X318012Y306045D01*
X318012D02*
X318200Y306318D01*
Y306864*
X318012Y307136*
X318012D02*
X317637Y307409D01*
X317637D02*
X317262Y307545D01*
X314262Y309045D02*
Y310545D01*
X314262D02*
X315762Y309727D01*
X315762D02*
Y310136D01*
X315762D02*
X315950Y310409D01*
X316137Y310545*
X316137D02*
X316700Y310682D01*
X317075*
X317637Y310545*
X317637D02*
X318012Y310273D01*
X318012D02*
X318200Y309864D01*
Y309455*
X318012Y309045*
X318012D02*
X317825Y308909D01*
X317450Y308773*
X315012Y311909D02*
X314825Y312182D01*
X314262Y312591*
X314262D02*
X318200D01*
X264662Y305500D02*
X268600D01*
X264662D02*
Y306727D01*
X264662D02*
X264850Y307136D01*
X265037Y307273*
X265037D02*
X265412Y307409D01*
X265412D02*
X265787D01*
X265787D02*
X266162Y307273D01*
X266162D02*
X266350Y307136D01*
X266537Y306727*
X266537D02*
Y305500D01*
Y306455D02*
X268600Y307409D01*
X265600Y308773D02*
X265412D01*
X265412D02*
X265037Y308909D01*
X265037D02*
X264850Y309045D01*
X264662Y309318*
X264662D02*
Y309864D01*
X264662D02*
X264850Y310136D01*
X265037Y310273*
X265037D02*
X265412Y310409D01*
X265412D02*
X265787D01*
X265787D02*
X266162Y310273D01*
X266162D02*
X266725Y310000D01*
X268600Y308636*
Y310545*
X264662Y313136D02*
X267287Y311773D01*
X267287D02*
Y313818D01*
X264662Y313136D02*
X268600D01*
X256000Y307545D02*
X255625Y307409D01*
X255250Y307136*
X255062Y306864*
X255062D02*
Y306318D01*
X255062D02*
X255250Y306045D01*
X255625Y305773*
X256000Y305636*
X256562Y305500*
X256562D02*
X257500D01*
X258062Y305636*
X258062D02*
X258437Y305773D01*
X258437D02*
X258812Y306045D01*
X258812D02*
X259000Y306318D01*
Y306864*
X258812Y307136*
X258812D02*
X258437Y307409D01*
X258437D02*
X258062Y307545D01*
X256000Y308909D02*
X255812D01*
X255812D02*
X255437Y309045D01*
X255437D02*
X255250Y309182D01*
X255062Y309455*
X255062D02*
Y310000D01*
X255062D02*
X255250Y310273D01*
X255437Y310409*
X255437D02*
X255812Y310545D01*
X255812D02*
X256187D01*
X256187D02*
X256562Y310409D01*
X256562D02*
X257125Y310136D01*
X259000Y308773*
Y310682*
X255625Y313545D02*
X255250Y313409D01*
X255062Y313000*
X255062D02*
Y312727D01*
X255062D02*
X255250Y312318D01*
X255812Y312045*
X255812D02*
X256750Y311909D01*
X257687*
X257687D02*
X258437Y312045D01*
X258437D02*
X258812Y312318D01*
X258812D02*
X259000Y312727D01*
Y312864*
X258812Y313273*
X258812D02*
X258437Y313545D01*
X258437D02*
X257875Y313682D01*
X257687*
X257687D02*
X257125Y313545D01*
X256750Y313273*
X256562Y312864*
X256562D02*
Y312727D01*
X256562D02*
X256750Y312318D01*
X257125Y312045*
X257687Y311909*
X205462Y305500D02*
X209400D01*
X205462D02*
Y306727D01*
X205462D02*
X205650Y307136D01*
X205837Y307273*
X205837D02*
X206212Y307409D01*
X206212D02*
X206587D01*
X206587D02*
X206962Y307273D01*
X206962D02*
X207150Y307136D01*
X207337Y306727*
X207337D02*
Y305500D01*
Y306455D02*
X209400Y307409D01*
X206400Y308773D02*
X206212D01*
X206212D02*
X205837Y308909D01*
X205837D02*
X205650Y309045D01*
X205462Y309318*
X205462D02*
Y309864D01*
X205462D02*
X205650Y310136D01*
X205837Y310273*
X205837D02*
X206212Y310409D01*
X206212D02*
X206587D01*
X206587D02*
X206962Y310273D01*
X206962D02*
X207525Y310000D01*
X209400Y308636*
Y310545*
X206025Y313409D02*
X205650Y313273D01*
X205462Y312864*
X205462D02*
Y312591D01*
X205462D02*
X205650Y312182D01*
X206212Y311909*
X206212D02*
X207150Y311773D01*
X208087*
X208087D02*
X208837Y311909D01*
X208837D02*
X209212Y312182D01*
X209212D02*
X209400Y312591D01*
Y312727*
X209212Y313136*
X209212D02*
X208837Y313409D01*
X208837D02*
X208275Y313545D01*
X208087*
X208087D02*
X207525Y313409D01*
X207150Y313136*
X206962Y312727*
X206962D02*
Y312591D01*
X206962D02*
X207150Y312182D01*
X207525Y311909*
X208087Y311773*
X200662Y305500D02*
X204600D01*
X200662D02*
Y306727D01*
X200662D02*
X200850Y307136D01*
X201037Y307273*
X201037D02*
X201412Y307409D01*
X201412D02*
X201787D01*
X201787D02*
X202162Y307273D01*
X202162D02*
X202350Y307136D01*
X202537Y306727*
X202537D02*
Y305500D01*
Y306455D02*
X204600Y307409D01*
X200662Y308909D02*
Y310409D01*
X200662D02*
X202162Y309591D01*
X202162D02*
Y310000D01*
X202162D02*
X202350Y310273D01*
X202537Y310409*
X202537D02*
X203100Y310545D01*
X203475*
X204037Y310409*
X204037D02*
X204412Y310136D01*
X204412D02*
X204600Y309727D01*
Y309318*
X204412Y308909*
X204412D02*
X204225Y308773D01*
X203850Y308636*
X200662Y312455D02*
X200850Y312045D01*
X201225Y311909*
X201600*
X201975Y312045*
X202162Y312318*
X202162D02*
X202350Y312864D01*
X202537Y313273*
X202537D02*
X202912Y313545D01*
X202912D02*
X203287Y313682D01*
X203287D02*
X203850D01*
X204225Y313545*
X204412Y313409*
X204412D02*
X204600Y313000D01*
Y312455*
X204412Y312045*
X204412D02*
X204225Y311909D01*
X203850Y311773*
X203287*
X203287D02*
X202912Y311909D01*
X202912D02*
X202537Y312182D01*
X202537D02*
X202350Y312591D01*
X202162Y313136*
X202162D02*
X201975Y313409D01*
X201600Y313545*
X201225*
X200850Y313409*
X200662Y313000*
X200662D02*
Y312455D01*
X323462Y305500D02*
X327400D01*
X323462D02*
Y306727D01*
X323462D02*
X323650Y307136D01*
X323837Y307273*
X323837D02*
X324212Y307409D01*
X324212D02*
X324587D01*
X324587D02*
X324962Y307273D01*
X324962D02*
X325150Y307136D01*
X325337Y306727*
X325337D02*
Y305500D01*
Y306455D02*
X327400Y307409D01*
X323462Y308909D02*
Y310409D01*
X323462D02*
X324962Y309591D01*
X324962D02*
Y310000D01*
X324962D02*
X325150Y310273D01*
X325337Y310409*
X325337D02*
X325900Y310545D01*
X326275*
X326837Y310409*
X326837D02*
X327212Y310136D01*
X327212D02*
X327400Y309727D01*
Y309318*
X327212Y308909*
X327212D02*
X327025Y308773D01*
X326650Y308636*
X323462Y312591D02*
X323650Y312182D01*
X324212Y311909*
X324212D02*
X325150Y311773D01*
X325712*
X325712D02*
X326650Y311909D01*
X327212Y312182*
X327212D02*
X327400Y312591D01*
Y312864*
X327212Y313273*
X327212D02*
X326650Y313545D01*
X325712Y313682*
X325712D02*
X325150D01*
X324212Y313545*
X324212D02*
X323650Y313273D01*
X323462Y312864*
X323462D02*
Y312591D01*
X146462Y305200D02*
X150400D01*
X146462D02*
Y306427D01*
X146462D02*
X146650Y306836D01*
X146837Y306973*
X146837D02*
X147212Y307109D01*
X147212D02*
X147587D01*
X147587D02*
X147962Y306973D01*
X147962D02*
X148150Y306836D01*
X148337Y306427*
X148337D02*
Y305200D01*
Y306155D02*
X150400Y307109D01*
X147400Y308473D02*
X147212D01*
X147212D02*
X146837Y308609D01*
X146837D02*
X146650Y308745D01*
X146462Y309018*
X146462D02*
Y309564D01*
X146462D02*
X146650Y309836D01*
X146837Y309973*
X146837D02*
X147212Y310109D01*
X147212D02*
X147587D01*
X147587D02*
X147962Y309973D01*
X147962D02*
X148525Y309700D01*
X150400Y308336*
Y310245*
X147775Y313245D02*
X148337Y313109D01*
X148337D02*
X148712Y312836D01*
X148712D02*
X148900Y312427D01*
Y312291*
X148712Y311882*
X148712D02*
X148337Y311609D01*
X148337D02*
X147775Y311473D01*
X147587*
X147587D02*
X147025Y311609D01*
X146650Y311882*
X146462Y312291*
X146462D02*
Y312427D01*
X146462D02*
X146650Y312836D01*
X147025Y313109*
X147775Y313245*
X148712*
X148712D02*
X149650Y313109D01*
X150212Y312836*
X150212D02*
X150400Y312427D01*
Y312155*
X150212Y311745*
X150212D02*
X149837Y311609D01*
X141662Y305200D02*
X145600D01*
X141662D02*
Y306427D01*
X141662D02*
X141850Y306836D01*
X142037Y306973*
X142037D02*
X142412Y307109D01*
X142412D02*
X142787D01*
X142787D02*
X143162Y306973D01*
X143162D02*
X143350Y306836D01*
X143537Y306427*
X143537D02*
Y305200D01*
Y306155D02*
X145600Y307109D01*
X141662Y309700D02*
X144287Y308336D01*
X144287D02*
Y310382D01*
X141662Y309700D02*
X145600D01*
X141662Y312427D02*
X141850Y312018D01*
X142412Y311745*
X142412D02*
X143350Y311609D01*
X143912*
X143912D02*
X144850Y311745D01*
X145412Y312018*
X145412D02*
X145600Y312427D01*
Y312700*
X145412Y313109*
X145412D02*
X144850Y313382D01*
X143912Y313518*
X143912D02*
X143350D01*
X142412Y313382*
X142412D02*
X141850Y313109D01*
X141662Y312700*
X141662D02*
Y312427D01*
X138000Y307245D02*
X137625Y307109D01*
X137250Y306836*
X137062Y306564*
X137062D02*
Y306018D01*
X137062D02*
X137250Y305745D01*
X137625Y305473*
X138000Y305336*
X138562Y305200*
X138562D02*
X139500D01*
X140062Y305336*
X140062D02*
X140437Y305473D01*
X140437D02*
X140812Y305745D01*
X140812D02*
X141000Y306018D01*
Y306564*
X140812Y306836*
X140812D02*
X140437Y307109D01*
X140437D02*
X140062Y307245D01*
X137062Y308745D02*
Y310245D01*
X137062D02*
X138562Y309427D01*
X138562D02*
Y309836D01*
X138562D02*
X138750Y310109D01*
X138937Y310245*
X138937D02*
X139500Y310382D01*
X139875*
X140437Y310245*
X140437D02*
X140812Y309973D01*
X140812D02*
X141000Y309564D01*
Y309155*
X140812Y308745*
X140812D02*
X140625Y308609D01*
X140250Y308473*
X137062Y312427D02*
X137250Y312018D01*
X137812Y311745*
X137812D02*
X138750Y311609D01*
X139312*
X139312D02*
X140250Y311745D01*
X140812Y312018*
X140812D02*
X141000Y312427D01*
Y312700*
X140812Y313109*
X140812D02*
X140250Y313382D01*
X139312Y313518*
X139312D02*
X138750D01*
X137812Y313382*
X137812D02*
X137250Y313109D01*
X137062Y312700*
X137062D02*
Y312427D01*
X377862Y305500D02*
X381800D01*
X377862D02*
Y306727D01*
X377862D02*
X378050Y307136D01*
X378237Y307273*
X378237D02*
X378612Y307409D01*
X378612D02*
X378987D01*
X378987D02*
X379362Y307273D01*
X379362D02*
X379550Y307136D01*
X379737Y306727*
X379737D02*
Y305500D01*
Y306455D02*
X381800Y307409D01*
X377862Y310000D02*
X380487Y308636D01*
X380487D02*
Y310682D01*
X377862Y310000D02*
X381800D01*
X378800Y312045D02*
X378612D01*
X378612D02*
X378237Y312182D01*
X378237D02*
X378050Y312318D01*
X377862Y312591*
X377862D02*
Y313136D01*
X377862D02*
X378050Y313409D01*
X378237Y313545*
X378237D02*
X378612Y313682D01*
X378612D02*
X378987D01*
X378987D02*
X379362Y313545D01*
X379362D02*
X379925Y313273D01*
X381800Y311909*
Y313818*
X399262Y305500D02*
X403200D01*
X399262D02*
Y306727D01*
X399262D02*
X399450Y307136D01*
X399637Y307273*
X399637D02*
X400012Y307409D01*
X400012D02*
X400387D01*
X400387D02*
X400762Y307273D01*
X400762D02*
X400950Y307136D01*
X401137Y306727*
X401137D02*
Y305500D01*
Y306455D02*
X403200Y307409D01*
X399262Y310000D02*
X401887Y308636D01*
X401887D02*
Y310682D01*
X399262Y310000D02*
X403200D01*
X400012Y311909D02*
X399825Y312182D01*
X399262Y312591*
X399262D02*
X403200D01*
X396000Y307545D02*
X395625Y307409D01*
X395250Y307136*
X395062Y306864*
X395062D02*
Y306318D01*
X395062D02*
X395250Y306045D01*
X395625Y305773*
X396000Y305636*
X396562Y305500*
X396562D02*
X397500D01*
X398062Y305636*
X398062D02*
X398437Y305773D01*
X398437D02*
X398812Y306045D01*
X398812D02*
X399000Y306318D01*
Y306864*
X398812Y307136*
X398812D02*
X398437Y307409D01*
X398437D02*
X398062Y307545D01*
X396000Y308909D02*
X395812D01*
X395812D02*
X395437Y309045D01*
X395437D02*
X395250Y309182D01*
X395062Y309455*
X395062D02*
Y310000D01*
X395062D02*
X395250Y310273D01*
X395437Y310409*
X395437D02*
X395812Y310545D01*
X395812D02*
X396187D01*
X396187D02*
X396562Y310409D01*
X396562D02*
X397125Y310136D01*
X399000Y308773*
Y310682*
X395062Y313818D02*
X399000Y312455D01*
X395062Y311909D02*
Y313818D01*
X374400Y307545D02*
X374025Y307409D01*
X373650Y307136*
X373462Y306864*
X373462D02*
Y306318D01*
X373462D02*
X373650Y306045D01*
X374025Y305773*
X374400Y305636*
X374962Y305500*
X374962D02*
X375900D01*
X376462Y305636*
X376462D02*
X376837Y305773D01*
X376837D02*
X377212Y306045D01*
X377212D02*
X377400Y306318D01*
Y306864*
X377212Y307136*
X377212D02*
X376837Y307409D01*
X376837D02*
X376462Y307545D01*
X374400Y308909D02*
X374212D01*
X374212D02*
X373837Y309045D01*
X373837D02*
X373650Y309182D01*
X373462Y309455*
X373462D02*
Y310000D01*
X373462D02*
X373650Y310273D01*
X373837Y310409*
X373837D02*
X374212Y310545D01*
X374212D02*
X374587D01*
X374587D02*
X374962Y310409D01*
X374962D02*
X375525Y310136D01*
X377400Y308773*
Y310682*
X374775Y313682D02*
X375337Y313545D01*
X375337D02*
X375712Y313273D01*
X375712D02*
X375900Y312864D01*
Y312727*
X375712Y312318*
X375712D02*
X375337Y312045D01*
X375337D02*
X374775Y311909D01*
X374587*
X374587D02*
X374025Y312045D01*
X373650Y312318*
X373462Y312727*
X373462D02*
Y312864D01*
X373462D02*
X373650Y313273D01*
X374025Y313545*
X374775Y313682*
X375712*
X375712D02*
X376650Y313545D01*
X377212Y313273*
X377212D02*
X377400Y312864D01*
Y312591*
X377212Y312182*
X377212D02*
X376837Y312045D01*
X382662Y305500D02*
X386600D01*
X382662D02*
Y306727D01*
X382662D02*
X382850Y307136D01*
X383037Y307273*
X383037D02*
X383412Y307409D01*
X383412D02*
X383787D01*
X383787D02*
X384162Y307273D01*
X384162D02*
X384350Y307136D01*
X384537Y306727*
X384537D02*
Y305500D01*
Y306455D02*
X386600Y307409D01*
X383600Y308773D02*
X383412D01*
X383412D02*
X383037Y308909D01*
X383037D02*
X382850Y309045D01*
X382662Y309318*
X382662D02*
Y309864D01*
X382662D02*
X382850Y310136D01*
X383037Y310273*
X383037D02*
X383412Y310409D01*
X383412D02*
X383787D01*
X383787D02*
X384162Y310273D01*
X384162D02*
X384725Y310000D01*
X386600Y308636*
Y310545*
X382662Y312455D02*
X382850Y312045D01*
X383225Y311909*
X383600*
X383975Y312045*
X384162Y312318*
X384162D02*
X384350Y312864D01*
X384537Y313273*
X384537D02*
X384912Y313545D01*
X384912D02*
X385287Y313682D01*
X385287D02*
X385850D01*
X386225Y313545*
X386412Y313409*
X386412D02*
X386600Y313000D01*
Y312455*
X386412Y312045*
X386412D02*
X386225Y311909D01*
X385850Y311773*
X385287*
X385287D02*
X384912Y311909D01*
X384912D02*
X384537Y312182D01*
X384537D02*
X384350Y312591D01*
X384162Y313136*
X384162D02*
X383975Y313409D01*
X383600Y313545*
X383225*
X382850Y313409*
X382662Y313000*
X382662D02*
Y312455D01*
X404062Y305500D02*
X408000D01*
X404062D02*
Y306727D01*
X404062D02*
X404250Y307136D01*
X404437Y307273*
X404437D02*
X404812Y307409D01*
X404812D02*
X405187D01*
X405187D02*
X405562Y307273D01*
X405562D02*
X405750Y307136D01*
X405937Y306727*
X405937D02*
Y305500D01*
Y306455D02*
X408000Y307409D01*
X405000Y308773D02*
X404812D01*
X404812D02*
X404437Y308909D01*
X404437D02*
X404250Y309045D01*
X404062Y309318*
X404062D02*
Y309864D01*
X404062D02*
X404250Y310136D01*
X404437Y310273*
X404437D02*
X404812Y310409D01*
X404812D02*
X405187D01*
X405187D02*
X405562Y310273D01*
X405562D02*
X406125Y310000D01*
X408000Y308636*
Y310545*
X404062Y313545D02*
Y312182D01*
X404062D02*
X405750Y312045D01*
X405562Y312182*
X405562D02*
X405375Y312591D01*
Y313000*
X405562Y313409*
X405562D02*
X405937Y313682D01*
X405937D02*
X406500Y313818D01*
X406875Y313682*
X407437Y313545*
X407437D02*
X407812Y313273D01*
X407812D02*
X408000Y312864D01*
Y312455*
X407812Y312045*
X407812D02*
X407625Y311909D01*
X407250Y311773*
X387062Y278318D02*
X387250Y278045D01*
X387625Y277773*
X388000Y277636*
X388562Y277500*
X388562D02*
X389500D01*
X390062Y277636*
X390062D02*
X390437Y277773D01*
X390437D02*
X390812Y278045D01*
X390812D02*
X391000Y278318D01*
Y278864*
X390812Y279136*
X390812D02*
X390437Y279409D01*
X390437D02*
X390062Y279545D01*
X390062D02*
X389500Y279682D01*
X388562*
X388562D02*
X388000Y279545D01*
X387625Y279409*
X387250Y279136*
X387062Y278864*
X387062D02*
Y278318D01*
X390250Y278727D02*
X391375Y279545D01*
X387625Y282545D02*
X387250Y282409D01*
X387062Y282000*
X387062D02*
Y281727D01*
X387062D02*
X387250Y281318D01*
X387812Y281045*
X387812D02*
X388750Y280909D01*
X389687*
X389687D02*
X390437Y281045D01*
X390437D02*
X390812Y281318D01*
X390812D02*
X391000Y281727D01*
Y281864*
X390812Y282273*
X390812D02*
X390437Y282545D01*
X390437D02*
X389875Y282682D01*
X389687*
X389687D02*
X389125Y282545D01*
X388750Y282273*
X388562Y281864*
X388562D02*
Y281727D01*
X388562D02*
X388750Y281318D01*
X389125Y281045*
X389687Y280909*
X382062Y214500D02*
X386000D01*
X382062D02*
Y215727D01*
X382250Y216136*
X382437Y216273*
X382812Y216409*
X383187*
X383562Y216273*
X383750Y216136*
X383937Y215727*
Y214500*
Y215455D02*
X386000Y216409D01*
X382062Y219409D02*
Y218045D01*
X383750Y217909*
X383562Y218045*
X383375Y218455*
Y218864*
X383562Y219273*
X383937Y219545*
X384500Y219682*
X384875Y219545*
X385437Y219409*
X385812Y219136*
X386000Y218727*
Y218318*
X385812Y217909*
X385625Y217773*
X385250Y217636*
X382062Y221182D02*
Y222682D01*
X383562Y221864*
Y222273*
X383750Y222545*
X383937Y222682*
X384500Y222818*
X384875*
X385437Y222682*
X385812Y222409*
X386000Y222000*
Y221591*
X385812Y221182*
X385625Y221045*
X385250Y220909*
X388062Y215000D02*
X392000D01*
X388062D02*
Y216227D01*
X388250Y216636*
X388437Y216773*
X388812Y216909*
X389187*
X389562Y216773*
X389750Y216636*
X389937Y216227*
Y215000*
Y215955D02*
X392000Y216909D01*
X388062Y219909D02*
Y218545D01*
X389750Y218409*
X389562Y218545*
X389375Y218955*
Y219364*
X389562Y219773*
X389937Y220045*
X390500Y220182*
X390875Y220045*
X391437Y219909*
X391812Y219636*
X392000Y219227*
Y218818*
X391812Y218409*
X391625Y218273*
X391250Y218136*
X388062Y222773D02*
X390687Y221409D01*
Y223455*
X388062Y222773D02*
X392000D01*
X258000Y184045D02*
X257625Y183909D01*
X257250Y183636*
X257063Y183364*
X257063D02*
Y182818D01*
X257063D02*
X257250Y182545D01*
X257625Y182273*
X258000Y182136*
X258563Y182000*
X258563D02*
X259500D01*
X260063Y182136*
X260063D02*
X260438Y182273D01*
X260438D02*
X260813Y182545D01*
X260813D02*
X261000Y182818D01*
Y183364*
X260813Y183636*
X260813D02*
X260438Y183909D01*
X260438D02*
X260063Y184045D01*
X258000Y185409D02*
X257813D01*
X257813D02*
X257438Y185545D01*
X257438D02*
X257250Y185682D01*
X257063Y185955*
X257063D02*
Y186500D01*
X257063D02*
X257250Y186773D01*
X257438Y186909*
X257438D02*
X257813Y187045D01*
X257813D02*
X258188D01*
X258188D02*
X258563Y186909D01*
X258563D02*
X259125Y186636D01*
X261000Y185273*
Y187182*
X257063Y189773D02*
X259688Y188409D01*
X259688D02*
Y190455D01*
X257063Y189773D02*
X261000D01*
X316000Y143438D02*
Y139500D01*
Y143438D02*
X317227D01*
X317227D02*
X317636Y143250D01*
X317773Y143063*
X317773D02*
X317909Y142688D01*
X317909D02*
Y142313D01*
X317909D02*
X317773Y141938D01*
X317773D02*
X317636Y141750D01*
X317227Y141563*
X317227D02*
X316000D01*
X316955D02*
X317909Y139500D01*
X319409Y143438D02*
X320909D01*
X320909D02*
X320091Y141938D01*
X320091D02*
X320500D01*
X320500D02*
X320773Y141750D01*
X320909Y141563*
X320909D02*
X321045Y141000D01*
Y140625*
X320909Y140063*
X320909D02*
X320636Y139688D01*
X320636D02*
X320227Y139500D01*
X319818*
X319409Y139688*
X319409D02*
X319273Y139875D01*
X319136Y140250*
X323909Y142875D02*
X323773Y143250D01*
X323364Y143438*
X323364D02*
X323091D01*
X323091D02*
X322682Y143250D01*
X322409Y142688*
X322409D02*
X322273Y141750D01*
Y140813*
X322273D02*
X322409Y140063D01*
X322409D02*
X322682Y139688D01*
X322682D02*
X323091Y139500D01*
X323227*
X323636Y139688*
X323636D02*
X323909Y140063D01*
X323909D02*
X324045Y140625D01*
Y140813*
X324045D02*
X323909Y141375D01*
X323636Y141750*
X323227Y141938*
X323227D02*
X323091D01*
X323091D02*
X322682Y141750D01*
X322409Y141375*
X322273Y140813*
X273045Y178000D02*
X272909Y178375D01*
X272636Y178750*
X272364Y178938*
X272364D02*
X271818D01*
X271818D02*
X271545Y178750D01*
X271273Y178375*
X271136Y178000*
X271000Y177438*
X271000D02*
Y176500D01*
X271136Y175938*
X271136D02*
X271273Y175563D01*
X271273D02*
X271545Y175188D01*
X271545D02*
X271818Y175000D01*
X272364*
X272636Y175188*
X272636D02*
X272909Y175563D01*
X272909D02*
X273045Y175938D01*
X275636Y178938D02*
X274273Y176313D01*
X274273D02*
X276318D01*
X275636Y178938D02*
Y175000D01*
X281000Y154938D02*
Y151000D01*
Y154938D02*
X282227D01*
X282636Y154750*
X282773Y154563*
X282909Y154188*
Y153813*
X282773Y153438*
X282636Y153250*
X282227Y153063*
X281000*
X281955D02*
X282909Y151000D01*
X285500Y154938D02*
X284136Y152313D01*
X286182*
X285500Y154938D02*
Y151000D01*
X289318Y154938D02*
X287955Y151000D01*
X287409Y154938D02*
X289318D01*
X135000Y155545D02*
X134625Y155409D01*
X134250Y155136*
X134063Y154864*
X134063D02*
Y154318D01*
X134063D02*
X134250Y154045D01*
X134625Y153773*
X135000Y153636*
X135563Y153500*
X135563D02*
X136500D01*
X137063Y153636*
X137063D02*
X137438Y153773D01*
X137438D02*
X137813Y154045D01*
X137813D02*
X138000Y154318D01*
Y154864*
X137813Y155136*
X137813D02*
X137438Y155409D01*
X137438D02*
X137063Y155545D01*
X134063Y158136D02*
X136688Y156773D01*
X136688D02*
Y158818D01*
X134063Y158136D02*
X138000D01*
X134813Y160045D02*
X134625Y160318D01*
X134063Y160727*
X134063D02*
X138000D01*
X163000Y155938D02*
Y152000D01*
Y155938D02*
X164773D01*
X163000Y154063D02*
X164091D01*
X166000Y155938D02*
Y152000D01*
Y155938D02*
X167227D01*
X167636Y155750*
X167773Y155563*
X167909Y155188*
Y154813*
X167773Y154438*
X167636Y154250*
X167227Y154063*
X166000D02*
X167227D01*
X167636Y153875*
X167773Y153688*
X167909Y153313*
Y152750*
X167773Y152375*
X167636Y152188*
X167227Y152000*
X166000*
X170500Y155938D02*
X169136Y153313D01*
X171182*
X170500Y155938D02*
Y152000D01*
X137000Y127045D02*
X136625Y126909D01*
X136250Y126636*
X136062Y126364*
X136062D02*
Y125818D01*
X136062D02*
X136250Y125545D01*
X136625Y125273*
X137000Y125136*
X137562Y125000*
X137562D02*
X138500D01*
X139062Y125136*
X139062D02*
X139437Y125273D01*
X139437D02*
X139812Y125545D01*
X139812D02*
X140000Y125818D01*
Y126364*
X139812Y126636*
X139812D02*
X139437Y126909D01*
X139437D02*
X139062Y127045D01*
X137000Y128409D02*
X136812D01*
X136812D02*
X136437Y128545D01*
X136437D02*
X136250Y128682D01*
X136062Y128955*
X136062D02*
Y129500D01*
X136062D02*
X136250Y129773D01*
X136437Y129909*
X136437D02*
X136812Y130045D01*
X136812D02*
X137187D01*
X137187D02*
X137562Y129909D01*
X137562D02*
X138125Y129636D01*
X140000Y128273*
Y130182*
X136062Y133182D02*
Y131818D01*
X136062D02*
X137750Y131682D01*
X137562Y131818*
X137562D02*
X137375Y132227D01*
Y132636*
X137562Y133045*
X137562D02*
X137937Y133318D01*
X137937D02*
X138500Y133455D01*
X138875Y133318*
X139437Y133182*
X139437D02*
X139812Y132909D01*
X139812D02*
X140000Y132500D01*
Y132091*
X139812Y131682*
X139812D02*
X139625Y131545D01*
X139250Y131409*
X118864Y188437D02*
Y185437D01*
X118864D02*
X118727Y184875D01*
X118591Y184687*
X118591D02*
X118318Y184500D01*
X118045*
X117773Y184687*
X117773D02*
X117636Y184875D01*
X117500Y185437*
X117500D02*
Y185812D01*
X120091Y187687D02*
X120364Y187875D01*
X120773Y188437*
X120773D02*
Y184500D01*
X123364Y188437D02*
X122000Y185812D01*
X122000D02*
X124045D01*
X123364Y188437D02*
Y184500D01*
X282318Y145438D02*
X282045Y145250D01*
X281773Y144875*
X281636Y144500*
X281500Y143938*
Y143000*
X281636Y142438*
X281773Y142063*
X282045Y141688*
X282318Y141500*
X282864*
X283136Y141688*
X283409Y142063*
X283545Y142438*
X283682Y143000*
Y143938*
X283545Y144500*
X283409Y144875*
X283136Y145250*
X282864Y145438*
X282318*
X282727Y142250D02*
X283545Y141125D01*
X285182Y145438D02*
X286682D01*
X285864Y143938*
X286273*
X286545Y143750*
X286682Y143563*
X286818Y143000*
Y142625*
X286682Y142063*
X286409Y141688*
X286000Y141500*
X285591*
X285182Y141688*
X285045Y141875*
X284909Y142250*
X149409Y197875D02*
X149136Y198250D01*
X148727Y198438*
X148727D02*
X148182D01*
X148182D02*
X147773Y198250D01*
X147500Y197875*
Y197500*
X147636Y197125*
X147773Y196938*
X147773D02*
X148045Y196750D01*
X148864Y196375*
X149136Y196188*
X149136D02*
X149273Y196000D01*
X149409Y195625*
Y195063*
X149409D02*
X149136Y194688D01*
X149136D02*
X148727Y194500D01*
X148182*
X147773Y194688*
X147773D02*
X147500Y195063D01*
X150636Y198438D02*
X151318Y194500D01*
X152000Y198438D02*
X151318Y194500D01*
X152000Y198438D02*
X152682Y194500D01*
X153364Y198438D02*
X152682Y194500D01*
X156364Y197125D02*
X156227Y196563D01*
X156227D02*
X155955Y196188D01*
X155955D02*
X155545Y196000D01*
X155409*
X155000Y196188*
X155000D02*
X154727Y196563D01*
X154727D02*
X154591Y197125D01*
Y197313*
X154591D02*
X154727Y197875D01*
X155000Y198250*
X155409Y198438*
X155409D02*
X155545D01*
X155545D02*
X155955Y198250D01*
X156227Y197875*
X156364Y197125*
Y196188*
X156364D02*
X156227Y195250D01*
X155955Y194688*
X155955D02*
X155545Y194500D01*
X155273*
X154864Y194688*
X154864D02*
X154727Y195063D01*
X347500Y155438D02*
Y151500D01*
Y155438D02*
X348727D01*
X348727D02*
X349136Y155250D01*
X349273Y155063*
X349273D02*
X349409Y154688D01*
X349409D02*
Y154313D01*
X349409D02*
X349273Y153938D01*
X349273D02*
X349136Y153750D01*
X348727Y153563*
X348727D02*
X347500D01*
X348455D02*
X349409Y151500D01*
X350909Y155438D02*
X352409D01*
X352409D02*
X351591Y153938D01*
X351591D02*
X352000D01*
X352000D02*
X352273Y153750D01*
X352409Y153563*
X352409D02*
X352545Y153000D01*
Y152625*
X352409Y152063*
X352409D02*
X352136Y151688D01*
X352136D02*
X351727Y151500D01*
X351318*
X350909Y151688*
X350909D02*
X350773Y151875D01*
X350636Y152250*
X354045Y155438D02*
X355545D01*
X355545D02*
X354727Y153938D01*
X354727D02*
X355136D01*
X355136D02*
X355409Y153750D01*
X355545Y153563*
X355545D02*
X355682Y153000D01*
Y152625*
X355545Y152063*
X355545D02*
X355273Y151688D01*
X355273D02*
X354864Y151500D01*
X354455*
X354045Y151688*
X354045D02*
X353909Y151875D01*
X353773Y152250*
X132000Y195545D02*
X131625Y195409D01*
X131250Y195136*
X131062Y194864*
Y194318*
X131250Y194045*
X131625Y193773*
X132000Y193636*
X132562Y193500*
X133500*
X134062Y193636*
X134437Y193773*
X134812Y194045*
X135000Y194318*
Y194864*
X134812Y195136*
X134437Y195409*
X134062Y195545*
X131062Y197045D02*
Y198545D01*
X132562Y197727*
Y198136*
X132750Y198409*
X132937Y198545*
X133500Y198682*
X133875*
X134437Y198545*
X134812Y198273*
X135000Y197864*
Y197455*
X134812Y197045*
X134625Y196909*
X134250Y196773*
X131062Y201273D02*
X133687Y199909D01*
Y201955*
X131062Y201273D02*
X135000D01*
X312500Y118938D02*
Y116125D01*
X312636Y115563*
X312636D02*
X312909Y115188D01*
X312909D02*
X313318Y115000D01*
X313591*
X314000Y115188*
X314000D02*
X314273Y115563D01*
X314273D02*
X314409Y116125D01*
Y118938*
X315636Y118188D02*
X315909Y118375D01*
X316318Y118938*
X316318D02*
Y115000D01*
X318364Y118938D02*
X317955Y118750D01*
X317682Y118188*
X317682D02*
X317545Y117250D01*
Y116688*
X317545D02*
X317682Y115750D01*
X317955Y115188*
X317955D02*
X318364Y115000D01*
X318636*
X319045Y115188*
X319045D02*
X319318Y115750D01*
X319455Y116688*
X319455D02*
Y117250D01*
X319318Y118188*
X319318D02*
X319045Y118750D01*
X318636Y118938*
X318636D02*
X318364D01*
X474000Y186438D02*
Y182500D01*
Y186438D02*
X474955D01*
X474955D02*
X475364Y186250D01*
X475636Y185875*
X475773Y185500*
X475909Y184938*
X475909D02*
Y184000D01*
X475773Y183438*
X475773D02*
X475636Y183063D01*
X475636D02*
X475364Y182688D01*
X475364D02*
X474955Y182500D01*
X474000*
X477818Y186438D02*
X477409Y186250D01*
X477273Y185875*
Y185500*
X477409Y185125*
X477682Y184938*
X477682D02*
X478227Y184750D01*
X478636Y184563*
X478636D02*
X478909Y184188D01*
X478909D02*
X479045Y183813D01*
X479045D02*
Y183250D01*
X478909Y182875*
X478773Y182688*
X478773D02*
X478364Y182500D01*
X477818*
X477409Y182688*
X477409D02*
X477273Y182875D01*
X477136Y183250*
Y183813*
X477136D02*
X477273Y184188D01*
X477273D02*
X477545Y184563D01*
X477545D02*
X477955Y184750D01*
X478500Y184938*
X478500D02*
X478773Y185125D01*
X478909Y185500*
Y185875*
X478773Y186250*
X478364Y186438*
X478364D02*
X477818D01*
X316045Y185000D02*
X315909Y185375D01*
X315636Y185750*
X315364Y185938*
X315364D02*
X314818D01*
X314818D02*
X314545Y185750D01*
X314273Y185375*
X314136Y185000*
X314000Y184438*
X314000D02*
Y183500D01*
X314136Y182938*
X314136D02*
X314273Y182563D01*
X314273D02*
X314545Y182188D01*
X314545D02*
X314818Y182000D01*
X315364*
X315636Y182188*
X315636D02*
X315909Y182563D01*
X315909D02*
X316045Y182938D01*
X317273Y185188D02*
X317545Y185375D01*
X317955Y185938*
X317955D02*
Y182000D01*
X321091Y185938D02*
X319727Y182000D01*
X319182Y185938D02*
X321091D01*
X294500Y183045D02*
X294125Y182909D01*
X293750Y182636*
X293562Y182364*
X293562D02*
Y181818D01*
X293562D02*
X293750Y181545D01*
X294125Y181273*
X294500Y181136*
X295062Y181000*
X295062D02*
X296000D01*
X296562Y181136*
X296562D02*
X296937Y181273D01*
X296937D02*
X297312Y181545D01*
X297312D02*
X297500Y181818D01*
Y182364*
X297312Y182636*
X297312D02*
X296937Y182909D01*
X296937D02*
X296562Y183045D01*
X294500Y184409D02*
X294312D01*
X294312D02*
X293937Y184545D01*
X293937D02*
X293750Y184682D01*
X293562Y184955*
X293562D02*
Y185500D01*
X293562D02*
X293750Y185773D01*
X293937Y185909*
X293937D02*
X294312Y186045D01*
X294312D02*
X294687D01*
X294687D02*
X295062Y185909D01*
X295062D02*
X295625Y185636D01*
X297500Y184273*
Y186182*
X303545Y184500D02*
X303409Y184875D01*
X303136Y185250*
X302864Y185438*
X302864D02*
X302318D01*
X302318D02*
X302045Y185250D01*
X301773Y184875*
X301636Y184500*
X301500Y183938*
X301500D02*
Y183000D01*
X301636Y182438*
X301636D02*
X301773Y182063D01*
X301773D02*
X302045Y181688D01*
X302045D02*
X302318Y181500D01*
X302864*
X303136Y181688*
X303136D02*
X303409Y182063D01*
X303409D02*
X303545Y182438D01*
X304909Y184500D02*
Y184688D01*
X304909D02*
X305045Y185063D01*
X305045D02*
X305182Y185250D01*
X305455Y185438*
X305455D02*
X306000D01*
X306000D02*
X306273Y185250D01*
X306409Y185063*
X306409D02*
X306545Y184688D01*
X306545D02*
Y184313D01*
X306545D02*
X306409Y183938D01*
X306409D02*
X306136Y183375D01*
X304773Y181500*
X306682*
X308727Y185438D02*
X308318Y185250D01*
X308045Y184688*
X308045D02*
X307909Y183750D01*
Y183188*
X307909D02*
X308045Y182250D01*
X308318Y181688*
X308318D02*
X308727Y181500D01*
X309000*
X309409Y181688*
X309409D02*
X309682Y182250D01*
X309818Y183188*
X309818D02*
Y183750D01*
X309682Y184688*
X309682D02*
X309409Y185250D01*
X309000Y185438*
X309000D02*
X308727D01*
X299500Y221937D02*
Y219125D01*
X299636Y218562*
X299636D02*
X299909Y218187D01*
X299909D02*
X300318Y218000D01*
X300591*
X301000Y218187*
X301000D02*
X301273Y218562D01*
X301273D02*
X301409Y219125D01*
Y221937*
X304409Y220625D02*
X304273Y220062D01*
X304273D02*
X304000Y219687D01*
X304000D02*
X303591Y219500D01*
X303455*
X303045Y219687*
X303045D02*
X302773Y220062D01*
X302773D02*
X302636Y220625D01*
Y220812*
X302636D02*
X302773Y221375D01*
X303045Y221750*
X303455Y221937*
X303455D02*
X303591D01*
X303591D02*
X304000Y221750D01*
X304273Y221375*
X304409Y220625*
Y219687*
X304409D02*
X304273Y218750D01*
X304000Y218187*
X304000D02*
X303591Y218000D01*
X303318*
X302909Y218187*
X302909D02*
X302773Y218562D01*
X327562Y217000D02*
X331500D01*
X327562D02*
Y218227D01*
X327562D02*
X327750Y218636D01*
X327937Y218773*
X327937D02*
X328312Y218909D01*
X328312D02*
X328687D01*
X328687D02*
X329062Y218773D01*
X329062D02*
X329250Y218636D01*
X329437Y218227*
X329437D02*
Y217000D01*
Y217955D02*
X331500Y218909D01*
X328312Y220136D02*
X328125Y220409D01*
X327562Y220818*
X327562D02*
X331500D01*
X328125Y223682D02*
X327750Y223545D01*
X327562Y223136*
X327562D02*
Y222864D01*
X327562D02*
X327750Y222455D01*
X328312Y222182*
X328312D02*
X329250Y222045D01*
X330187*
X330187D02*
X330937Y222182D01*
X330937D02*
X331312Y222455D01*
X331312D02*
X331500Y222864D01*
Y223000*
X331312Y223409*
X331312D02*
X330937Y223682D01*
X330937D02*
X330375Y223818D01*
X330187*
X330187D02*
X329625Y223682D01*
X329250Y223409*
X329062Y223000*
X329062D02*
Y222864D01*
X329062D02*
X329250Y222455D01*
X329625Y222182*
X330187Y222045*
X327562Y208500D02*
X331500D01*
X327562D02*
Y209727D01*
X327562D02*
X327750Y210136D01*
X327937Y210273*
X327937D02*
X328312Y210409D01*
X328312D02*
X328687D01*
X328687D02*
X329062Y210273D01*
X329062D02*
X329250Y210136D01*
X329437Y209727*
X329437D02*
Y208500D01*
Y209455D02*
X331500Y210409D01*
X328312Y211636D02*
X328125Y211909D01*
X327562Y212318*
X327562D02*
X331500D01*
X327562Y215455D02*
X331500Y214091D01*
X327562Y213545D02*
Y215455D01*
X337000Y203938D02*
Y201125D01*
X337136Y200563*
X337136D02*
X337409Y200188D01*
X337409D02*
X337818Y200000D01*
X338091*
X338500Y200188*
X338500D02*
X338773Y200563D01*
X338773D02*
X338909Y201125D01*
Y203938*
X341909D02*
X340545D01*
X340545D02*
X340409Y202250D01*
X340545Y202438*
X340545D02*
X340955Y202625D01*
X341364*
X341773Y202438*
X341773D02*
X342045Y202063D01*
X342045D02*
X342182Y201500D01*
X342045Y201125*
X341909Y200563*
X341909D02*
X341636Y200188D01*
X341636D02*
X341227Y200000D01*
X340818*
X340409Y200188*
X340409D02*
X340273Y200375D01*
X340136Y200750*
X439045Y306000D02*
X438909Y306375D01*
X438636Y306750*
X438364Y306938*
X437818*
X437545Y306750*
X437273Y306375*
X437136Y306000*
X437000Y305438*
Y304500*
X437136Y303938*
X437273Y303563*
X437545Y303188*
X437818Y303000*
X438364*
X438636Y303188*
X438909Y303563*
X439045Y303938*
X441636Y306938D02*
X440273Y304313D01*
X442318*
X441636Y306938D02*
Y303000D01*
X444227Y306938D02*
X443818Y306750D01*
X443682Y306375*
Y306000*
X443818Y305625*
X444091Y305438*
X444636Y305250*
X445045Y305063*
X445318Y304688*
X445455Y304313*
Y303750*
X445318Y303375*
X445182Y303188*
X444773Y303000*
X444227*
X443818Y303188*
X443682Y303375*
X443545Y303750*
Y304313*
X443682Y304688*
X443955Y305063*
X444364Y305250*
X444909Y305438*
X445182Y305625*
X445318Y306000*
Y306375*
X445182Y306750*
X444773Y306938*
X444227*
X438845Y295200D02*
X438709Y295575D01*
X438436Y295950*
X438164Y296138*
X437618*
X437345Y295950*
X437073Y295575*
X436936Y295200*
X436800Y294638*
Y293700*
X436936Y293138*
X437073Y292763*
X437345Y292388*
X437618Y292200*
X438164*
X438436Y292388*
X438709Y292763*
X438845Y293138*
X441436Y296138D02*
X440073Y293513D01*
X442118*
X441436Y296138D02*
Y292200D01*
X445118Y294825D02*
X444982Y294263D01*
X444709Y293888*
X444300Y293700*
X444164*
X443755Y293888*
X443482Y294263*
X443345Y294825*
Y295013*
X443482Y295575*
X443755Y295950*
X444164Y296138*
X444300*
X444709Y295950*
X444982Y295575*
X445118Y294825*
Y293888*
X444982Y292950*
X444709Y292388*
X444300Y292200*
X444027*
X443618Y292388*
X443482Y292763*
X393500Y192938D02*
Y189000D01*
Y192938D02*
X394727D01*
X394727D02*
X395136Y192750D01*
X395273Y192563*
X395273D02*
X395409Y192188D01*
X395409D02*
Y191813D01*
X395409D02*
X395273Y191438D01*
X395273D02*
X395136Y191250D01*
X394727Y191063*
X394727D02*
X393500D01*
X394455D02*
X395409Y189000D01*
X396636Y192188D02*
X396909Y192375D01*
X397318Y192938*
X397318D02*
Y189000D01*
X398682Y192000D02*
Y192188D01*
X398682D02*
X398818Y192563D01*
X398818D02*
X398955Y192750D01*
X399227Y192938*
X399227D02*
X399773D01*
X399773D02*
X400045Y192750D01*
X400182Y192563*
X400182D02*
X400318Y192188D01*
X400318D02*
Y191813D01*
X400318D02*
X400182Y191438D01*
X400182D02*
X399909Y190875D01*
X398545Y189000*
X400455*
X401500Y192938D02*
Y189000D01*
Y192938D02*
X402727D01*
X402727D02*
X403136Y192750D01*
X403273Y192563*
X403273D02*
X403409Y192188D01*
X403409D02*
Y191813D01*
X403409D02*
X403273Y191438D01*
X403273D02*
X403136Y191250D01*
X402727Y191063*
X402727D02*
X401500D01*
X402455D02*
X403409Y189000D01*
X406409Y192938D02*
X405045D01*
X405045D02*
X404909Y191250D01*
X405045Y191438*
X405045D02*
X405455Y191625D01*
X405864*
X406273Y191438*
X406273D02*
X406545Y191063D01*
X406545D02*
X406682Y190500D01*
X406545Y190125*
X406409Y189563*
X406409D02*
X406136Y189188D01*
X406136D02*
X405727Y189000D01*
X405318*
X404909Y189188*
X404909D02*
X404773Y189375D01*
X404636Y189750*
X409682Y192938D02*
X408318D01*
X408318D02*
X408182Y191250D01*
X408318Y191438*
X408318D02*
X408727Y191625D01*
X409136*
X409545Y191438*
X409545D02*
X409818Y191063D01*
X409818D02*
X409955Y190500D01*
X409818Y190125*
X409682Y189563*
X409682D02*
X409409Y189188D01*
X409409D02*
X409000Y189000D01*
X408591*
X408182Y189188*
X408182D02*
X408045Y189375D01*
X407909Y189750*
X371500Y175545D02*
X371125Y175409D01*
X370750Y175136*
X370563Y174864*
X370563D02*
Y174318D01*
X370563D02*
X370750Y174045D01*
X371125Y173773*
X371500Y173636*
X372063Y173500*
X372063D02*
X373000D01*
X373563Y173636*
X373563D02*
X373938Y173773D01*
X373938D02*
X374313Y174045D01*
X374313D02*
X374500Y174318D01*
Y174864*
X374313Y175136*
X374313D02*
X373938Y175409D01*
X373938D02*
X373563Y175545D01*
X371313Y176773D02*
X371125Y177045D01*
X370563Y177455*
X370563D02*
X374500D01*
X370563Y180045D02*
X373188Y178682D01*
X373188D02*
Y180727D01*
X370563Y180045D02*
X374500D01*
X396000Y214545D02*
X395625Y214409D01*
X395250Y214136*
X395062Y213864*
Y213318*
X395250Y213045*
X395625Y212773*
X396000Y212636*
X396562Y212500*
X397500*
X398062Y212636*
X398437Y212773*
X398812Y213045*
X399000Y213318*
Y213864*
X398812Y214136*
X398437Y214409*
X398062Y214545*
X395062Y217136D02*
X397687Y215773D01*
Y217818*
X395062Y217136D02*
X399000D01*
X395062Y220818D02*
Y219455D01*
X396750Y219318*
X396562Y219455*
X396375Y219864*
Y220273*
X396562Y220682*
X396937Y220955*
X397500Y221091*
X397875Y220955*
X398437Y220818*
X398812Y220545*
X399000Y220136*
Y219727*
X398812Y219318*
X398625Y219182*
X398250Y219045*
X383500Y190438D02*
Y186500D01*
Y190438D02*
X384455D01*
X384455D02*
X384864Y190250D01*
X385136Y189875*
X385273Y189500*
X385409Y188938*
X385409D02*
Y188000D01*
X385273Y187438*
X385273D02*
X385136Y187063D01*
X385136D02*
X384864Y186688D01*
X384864D02*
X384455Y186500D01*
X383500*
X386773Y189500D02*
Y189688D01*
X386773D02*
X386909Y190063D01*
X386909D02*
X387045Y190250D01*
X387318Y190438*
X387318D02*
X387864D01*
X387864D02*
X388136Y190250D01*
X388273Y190063*
X388273D02*
X388409Y189688D01*
X388409D02*
Y189313D01*
X388409D02*
X388273Y188938D01*
X388273D02*
X388000Y188375D01*
X386636Y186500*
X388545*
X406500Y112938D02*
Y109000D01*
Y112938D02*
X407727D01*
X407727D02*
X408136Y112750D01*
X408273Y112563*
X408273D02*
X408409Y112188D01*
X408409D02*
Y111813D01*
X408409D02*
X408273Y111438D01*
X408273D02*
X408136Y111250D01*
X407727Y111063*
X407727D02*
X406500D01*
X407455D02*
X408409Y109000D01*
X411409Y111625D02*
X411273Y111063D01*
X411273D02*
X411000Y110688D01*
X411000D02*
X410591Y110500D01*
X410455*
X410045Y110688*
X410045D02*
X409773Y111063D01*
X409773D02*
X409636Y111625D01*
Y111813*
X409636D02*
X409773Y112375D01*
X410045Y112750*
X410455Y112938*
X410455D02*
X410591D01*
X410591D02*
X411000Y112750D01*
X411273Y112375*
X411409Y111625*
Y110688*
X411409D02*
X411273Y109750D01*
X411000Y109188*
X411000D02*
X410591Y109000D01*
X410318*
X409909Y109188*
X409909D02*
X409773Y109563D01*
X432062Y167500D02*
X436000D01*
X432062D02*
Y168455D01*
X432062D02*
X432250Y168864D01*
X432625Y169136*
X433000Y169273*
X433562Y169409*
X433562D02*
X434500D01*
X435062Y169273*
X435062D02*
X435437Y169136D01*
X435437D02*
X435812Y168864D01*
X435812D02*
X436000Y168455D01*
Y167500*
X432062Y172409D02*
Y171045D01*
X432062D02*
X433750Y170909D01*
X433562Y171045*
X433562D02*
X433375Y171455D01*
Y171864*
X433562Y172273*
X433562D02*
X433937Y172545D01*
X433937D02*
X434500Y172682D01*
X434875Y172545*
X435437Y172409*
X435437D02*
X435812Y172136D01*
X435812D02*
X436000Y171727D01*
Y171318*
X435812Y170909*
X435812D02*
X435625Y170773D01*
X435250Y170636*
X328563Y187500D02*
X332500D01*
X328563D02*
Y188727D01*
X328563D02*
X328750Y189136D01*
X328938Y189273*
X328938D02*
X329313Y189409D01*
X329313D02*
X329688D01*
X329688D02*
X330063Y189273D01*
X330063D02*
X330250Y189136D01*
X330438Y188727*
X330438D02*
Y187500D01*
Y188455D02*
X332500Y189409D01*
X329313Y190636D02*
X329125Y190909D01*
X328563Y191318*
X328563D02*
X332500D01*
X328563Y194318D02*
Y192955D01*
X328563D02*
X330250Y192818D01*
X330063Y192955*
X330063D02*
X329875Y193364D01*
Y193773*
X330063Y194182*
X330063D02*
X330438Y194455D01*
X330438D02*
X331000Y194591D01*
X331375Y194455*
X331938Y194318*
X331938D02*
X332313Y194045D01*
X332313D02*
X332500Y193636D01*
Y193227*
X332313Y192818*
X332313D02*
X332125Y192682D01*
X331750Y192545*
X355045Y190000D02*
X354909Y190375D01*
X354636Y190750*
X354364Y190938*
X353818*
X353545Y190750*
X353273Y190375*
X353136Y190000*
X353000Y189438*
Y188500*
X353136Y187938*
X353273Y187563*
X353545Y187188*
X353818Y187000*
X354364*
X354636Y187188*
X354909Y187563*
X355045Y187938*
X356273Y190188D02*
X356545Y190375D01*
X356955Y190938*
Y187000*
X359955Y190938D02*
X358591D01*
X358455Y189250*
X358591Y189438*
X359000Y189625*
X359409*
X359818Y189438*
X360091Y189063*
X360227Y188500*
X360091Y188125*
X359955Y187563*
X359682Y187188*
X359273Y187000*
X358864*
X358455Y187188*
X358318Y187375*
X358182Y187750*
X355545Y182500D02*
X355409Y182875D01*
X355136Y183250*
X354864Y183438*
X354318*
X354045Y183250*
X353773Y182875*
X353636Y182500*
X353500Y181938*
Y181000*
X353636Y180438*
X353773Y180063*
X354045Y179688*
X354318Y179500*
X354864*
X355136Y179688*
X355409Y180063*
X355545Y180438*
X356773Y182688D02*
X357045Y182875D01*
X357455Y183438*
Y179500*
X360318Y182875D02*
X360182Y183250D01*
X359773Y183438*
X359500*
X359091Y183250*
X358818Y182688*
X358682Y181750*
Y180813*
X358818Y180063*
X359091Y179688*
X359500Y179500*
X359636*
X360045Y179688*
X360318Y180063*
X360455Y180625*
Y180813*
X360318Y181375*
X360045Y181750*
X359636Y181938*
X359500*
X359091Y181750*
X358818Y181375*
X358682Y180813*
X341000Y228545D02*
X340625Y228409D01*
X340250Y228136*
X340062Y227864*
Y227318*
X340250Y227045*
X340625Y226773*
X341000Y226636*
X341562Y226500*
X342500*
X343062Y226636*
X343437Y226773*
X343812Y227045*
X344000Y227318*
Y227864*
X343812Y228136*
X343437Y228409*
X343062Y228545*
X340812Y229773D02*
X340625Y230045D01*
X340062Y230455*
X344000*
X340062Y232364D02*
X340250Y231955D01*
X340625Y231818*
X341000*
X341375Y231955*
X341562Y232227*
X341750Y232773*
X341937Y233182*
X342312Y233455*
X342687Y233591*
X343250*
X343625Y233455*
X343812Y233318*
X344000Y232909*
Y232364*
X343812Y231955*
X343625Y231818*
X343250Y231682*
X342687*
X342312Y231818*
X341937Y232091*
X341750Y232500*
X341562Y233045*
X341375Y233318*
X341000Y233455*
X340625*
X340250Y233318*
X340062Y232909*
Y232364*
X348200Y228545D02*
X347825Y228409D01*
X347450Y228136*
X347262Y227864*
Y227318*
X347450Y227045*
X347825Y226773*
X348200Y226636*
X348762Y226500*
X349700*
X350262Y226636*
X350637Y226773*
X351012Y227045*
X351200Y227318*
Y227864*
X351012Y228136*
X350637Y228409*
X350262Y228545*
X348012Y229773D02*
X347825Y230045D01*
X347262Y230455*
X351200*
X348575Y233455D02*
X349137Y233318D01*
X349512Y233045*
X349700Y232636*
Y232500*
X349512Y232091*
X349137Y231818*
X348575Y231682*
X348387*
X347825Y231818*
X347450Y232091*
X347262Y232500*
Y232636*
X347450Y233045*
X347825Y233318*
X348575Y233455*
X349512*
X350450Y233318*
X351012Y233045*
X351200Y232636*
Y232364*
X351012Y231955*
X350637Y231818*
X368000Y191438D02*
Y187500D01*
X369636*
X370864Y190688D02*
X371136Y190875D01*
X371545Y191438*
X371545D02*
Y187500D01*
X363000Y232938D02*
Y229000D01*
Y232938D02*
X363955D01*
X363955D02*
X364364Y232750D01*
X364636Y232375*
X364773Y232000*
X364909Y231438*
X364909D02*
Y230500D01*
X364773Y229938*
X364773D02*
X364636Y229563D01*
X364636D02*
X364364Y229188D01*
X364364D02*
X363955Y229000D01*
X363000*
X367500Y232938D02*
X366136Y230313D01*
X366136D02*
X368182D01*
X367500Y232938D02*
Y229000D01*
X337500Y155437D02*
Y151500D01*
Y155437D02*
X338727D01*
X338727D02*
X339136Y155250D01*
X339273Y155062*
X339273D02*
X339409Y154687D01*
X339409D02*
Y154312D01*
X339409D02*
X339273Y153937D01*
X339273D02*
X339136Y153750D01*
X338727Y153562*
X338727D02*
X337500D01*
X338455D02*
X339409Y151500D01*
X340909Y155437D02*
X342409D01*
X342409D02*
X341591Y153937D01*
X341591D02*
X342000D01*
X342000D02*
X342273Y153750D01*
X342409Y153562*
X342409D02*
X342545Y153000D01*
Y152625*
X342409Y152062*
X342409D02*
X342136Y151687D01*
X342136D02*
X341727Y151500D01*
X341318*
X340909Y151687*
X340909D02*
X340773Y151875D01*
X340636Y152250*
X345682Y155437D02*
X344318Y151500D01*
X343773Y155437D02*
X345682D01*
X361500Y151938D02*
Y148000D01*
Y151938D02*
X362727D01*
X362727D02*
X363136Y151750D01*
X363273Y151563*
X363273D02*
X363409Y151188D01*
X363409D02*
Y150813D01*
X363409D02*
X363273Y150438D01*
X363273D02*
X363136Y150250D01*
X362727Y150063*
X362727D02*
X361500D01*
X362455D02*
X363409Y148000D01*
X366409Y151938D02*
X365045D01*
X365045D02*
X364909Y150250D01*
X365045Y150438*
X365045D02*
X365455Y150625D01*
X365864*
X366273Y150438*
X366273D02*
X366545Y150063D01*
X366545D02*
X366682Y149500D01*
X366545Y149125*
X366409Y148563*
X366409D02*
X366136Y148188D01*
X366136D02*
X365727Y148000D01*
X365318*
X364909Y148188*
X364909D02*
X364773Y148375D01*
X364636Y148750*
X367909Y151188D02*
X368182Y151375D01*
X368591Y151938*
X368591D02*
Y148000D01*
X355062Y142000D02*
X359000D01*
X355062D02*
Y143227D01*
X355250Y143636*
X355437Y143773*
X355812Y143909*
X356187*
X356562Y143773*
X356750Y143636*
X356937Y143227*
Y142000*
Y142955D02*
X359000Y143909D01*
X355062Y145409D02*
Y146909D01*
X356562Y146091*
Y146500*
X356750Y146773*
X356937Y146909*
X357500Y147045*
X357875*
X358437Y146909*
X358812Y146636*
X359000Y146227*
Y145818*
X358812Y145409*
X358625Y145273*
X358250Y145136*
X356000Y148409D02*
X355812D01*
X355437Y148545*
X355250Y148682*
X355062Y148955*
Y149500*
X355250Y149773*
X355437Y149909*
X355812Y150045*
X356187*
X356562Y149909*
X357125Y149636*
X359000Y148273*
Y150182*
X352062Y109000D02*
X356000D01*
X352062D02*
Y110227D01*
X352062D02*
X352250Y110636D01*
X352437Y110773*
X352437D02*
X352812Y110909D01*
X352812D02*
X353187D01*
X353187D02*
X353562Y110773D01*
X353562D02*
X353750Y110636D01*
X353937Y110227*
X353937D02*
Y109000D01*
Y109955D02*
X356000Y110909D01*
X352062Y112409D02*
Y113909D01*
X352062D02*
X353562Y113091D01*
X353562D02*
Y113500D01*
X353562D02*
X353750Y113773D01*
X353937Y113909*
X353937D02*
X354500Y114045D01*
X354875*
X355437Y113909*
X355437D02*
X355812Y113636D01*
X355812D02*
X356000Y113227D01*
Y112818*
X355812Y112409*
X355812D02*
X355625Y112273D01*
X355250Y112136*
X352812Y115273D02*
X352625Y115545D01*
X352062Y115955*
X352062D02*
X356000D01*
X343818Y115938D02*
X343545Y115750D01*
X343273Y115375*
X343136Y115000*
X343000Y114438*
X343000D02*
Y113500D01*
X343136Y112938*
X343136D02*
X343273Y112563D01*
X343273D02*
X343545Y112188D01*
X343545D02*
X343818Y112000D01*
X344364*
X344636Y112188*
X344636D02*
X344909Y112563D01*
X344909D02*
X345045Y112938D01*
X345045D02*
X345182Y113500D01*
Y114438*
X345182D02*
X345045Y115000D01*
X344909Y115375*
X344636Y115750*
X344364Y115938*
X344364D02*
X343818D01*
X344227Y112750D02*
X345045Y111625D01*
X346545Y115000D02*
Y115188D01*
X346545D02*
X346682Y115563D01*
X346682D02*
X346818Y115750D01*
X347091Y115938*
X347091D02*
X347636D01*
X347636D02*
X347909Y115750D01*
X348045Y115563*
X348045D02*
X348182Y115188D01*
X348182D02*
Y114813D01*
X348182D02*
X348045Y114438D01*
X348045D02*
X347773Y113875D01*
X346409Y112000*
X348318*
X391364Y116938D02*
Y113938D01*
X391364D02*
X391227Y113375D01*
X391091Y113188*
X391091D02*
X390818Y113000D01*
X390545*
X390273Y113188*
X390273D02*
X390136Y113375D01*
X390000Y113938*
X390000D02*
Y114313D01*
X392591Y116188D02*
X392864Y116375D01*
X393273Y116938*
X393273D02*
Y113000D01*
X379045Y138500D02*
X378909Y138875D01*
X378636Y139250*
X378364Y139438*
X378364D02*
X377818D01*
X377818D02*
X377545Y139250D01*
X377273Y138875*
X377136Y138500*
X377000Y137938*
X377000D02*
Y137000D01*
X377136Y136438*
X377136D02*
X377273Y136063D01*
X377273D02*
X377545Y135688D01*
X377545D02*
X377818Y135500D01*
X378364*
X378636Y135688*
X378636D02*
X378909Y136063D01*
X378909D02*
X379045Y136438D01*
X380273Y138688D02*
X380545Y138875D01*
X380955Y139438*
X380955D02*
Y135500D01*
X383000Y139438D02*
X382591Y139250D01*
X382318Y138688*
X382318D02*
X382182Y137750D01*
Y137188*
X382182D02*
X382318Y136250D01*
X382591Y135688*
X382591D02*
X383000Y135500D01*
X383273*
X383682Y135688*
X383682D02*
X383955Y136250D01*
X384091Y137188*
X384091D02*
Y137750D01*
X383955Y138688*
X383955D02*
X383682Y139250D01*
X383273Y139438*
X383273D02*
X383000D01*
X365000Y127438D02*
Y123500D01*
Y127438D02*
X365955D01*
X365955D02*
X366364Y127250D01*
X366636Y126875*
X366773Y126500*
X366909Y125938*
X366909D02*
Y125000D01*
X366773Y124438*
X366773D02*
X366636Y124063D01*
X366636D02*
X366364Y123688D01*
X366364D02*
X365955Y123500D01*
X365000*
X368136Y126688D02*
X368409Y126875D01*
X368818Y127438*
X368818D02*
Y123500D01*
X301000Y113045D02*
X300625Y112909D01*
X300250Y112636*
X300062Y112364*
X300062D02*
Y111818D01*
X300062D02*
X300250Y111545D01*
X300625Y111273*
X301000Y111136*
X301562Y111000*
X301562D02*
X302500D01*
X303062Y111136*
X303062D02*
X303437Y111273D01*
X303437D02*
X303812Y111545D01*
X303812D02*
X304000Y111818D01*
Y112364*
X303812Y112636*
X303812D02*
X303437Y112909D01*
X303437D02*
X303062Y113045D01*
X300062Y115636D02*
X302687Y114273D01*
X302687D02*
Y116318D01*
X300062Y115636D02*
X304000D01*
X300062Y118364D02*
X300250Y117955D01*
X300812Y117682*
X300812D02*
X301750Y117545D01*
X302312*
X302312D02*
X303250Y117682D01*
X303812Y117955*
X303812D02*
X304000Y118364D01*
Y118636*
X303812Y119045*
X303812D02*
X303250Y119318D01*
X302312Y119455*
X302312D02*
X301750D01*
X300812Y119318*
X300812D02*
X300250Y119045D01*
X300062Y118636*
X300062D02*
Y118364D01*
X327500Y119938D02*
Y116000D01*
Y119938D02*
X328727D01*
X328727D02*
X329136Y119750D01*
X329273Y119563*
X329273D02*
X329409Y119188D01*
X329409D02*
Y118813D01*
X329409D02*
X329273Y118438D01*
X329273D02*
X329136Y118250D01*
X328727Y118063*
X328727D02*
X327500D01*
X328455D02*
X329409Y116000D01*
X330909Y119938D02*
X332409D01*
X332409D02*
X331591Y118438D01*
X331591D02*
X332000D01*
X332000D02*
X332273Y118250D01*
X332409Y118063*
X332409D02*
X332545Y117500D01*
Y117125*
X332409Y116563*
X332409D02*
X332136Y116188D01*
X332136D02*
X331727Y116000D01*
X331318*
X330909Y116188*
X330909D02*
X330773Y116375D01*
X330636Y116750*
X335545Y119938D02*
X334182D01*
X334182D02*
X334045Y118250D01*
X334182Y118438*
X334182D02*
X334591Y118625D01*
X335000*
X335409Y118438*
X335409D02*
X335682Y118063D01*
X335682D02*
X335818Y117500D01*
X335682Y117125*
X335545Y116563*
X335545D02*
X335273Y116188D01*
X335273D02*
X334864Y116000D01*
X334455*
X334045Y116188*
X334045D02*
X333909Y116375D01*
X333773Y116750*
X327500Y114938D02*
Y111000D01*
Y114938D02*
X328727D01*
X328727D02*
X329136Y114750D01*
X329273Y114563*
X329273D02*
X329409Y114188D01*
X329409D02*
Y113813D01*
X329409D02*
X329273Y113438D01*
X329273D02*
X329136Y113250D01*
X328727Y113063*
X328727D02*
X327500D01*
X328455D02*
X329409Y111000D01*
X330909Y114938D02*
X332409D01*
X332409D02*
X331591Y113438D01*
X331591D02*
X332000D01*
X332000D02*
X332273Y113250D01*
X332409Y113063*
X332409D02*
X332545Y112500D01*
Y112125*
X332409Y111563*
X332409D02*
X332136Y111188D01*
X332136D02*
X331727Y111000D01*
X331318*
X330909Y111188*
X330909D02*
X330773Y111375D01*
X330636Y111750*
X335136Y114938D02*
X333773Y112313D01*
X333773D02*
X335818D01*
X335136Y114938D02*
Y111000D01*
X331818Y139938D02*
X331545Y139750D01*
X331273Y139375*
X331136Y139000*
X331000Y138438*
X331000D02*
Y137500D01*
X331136Y136938*
X331136D02*
X331273Y136563D01*
X331273D02*
X331545Y136188D01*
X331545D02*
X331818Y136000D01*
X332364*
X332636Y136188*
X332636D02*
X332909Y136563D01*
X332909D02*
X333045Y136938D01*
X333045D02*
X333182Y137500D01*
Y138438*
X333182D02*
X333045Y139000D01*
X332909Y139375*
X332636Y139750*
X332364Y139938*
X332364D02*
X331818D01*
X332227Y136750D02*
X333045Y135625D01*
X334409Y139188D02*
X334682Y139375D01*
X335091Y139938*
X335091D02*
Y136000D01*
X402000Y147438D02*
Y144625D01*
X402136Y144063*
X402136D02*
X402409Y143688D01*
X402409D02*
X402818Y143500D01*
X403091*
X403500Y143688*
X403500D02*
X403773Y144063D01*
X403773D02*
X403909Y144625D01*
Y147438*
X405273Y146500D02*
Y146688D01*
X405273D02*
X405409Y147063D01*
X405409D02*
X405545Y147250D01*
X405818Y147438*
X405818D02*
X406364D01*
X406364D02*
X406636Y147250D01*
X406773Y147063*
X406773D02*
X406909Y146688D01*
X406909D02*
Y146313D01*
X406909D02*
X406773Y145938D01*
X406773D02*
X406500Y145375D01*
X405136Y143500*
X407045*
X390045Y159000D02*
X389909Y159375D01*
X389636Y159750*
X389364Y159938*
X389364D02*
X388818D01*
X388818D02*
X388545Y159750D01*
X388273Y159375*
X388136Y159000*
X388000Y158438*
X388000D02*
Y157500D01*
X388136Y156938*
X388136D02*
X388273Y156563D01*
X388273D02*
X388545Y156188D01*
X388545D02*
X388818Y156000D01*
X389364*
X389636Y156188*
X389636D02*
X389909Y156563D01*
X389909D02*
X390045Y156938D01*
X391273Y159188D02*
X391545Y159375D01*
X391955Y159938*
X391955D02*
Y156000D01*
X393318Y159000D02*
Y159188D01*
X393318D02*
X393455Y159563D01*
X393455D02*
X393591Y159750D01*
X393864Y159938*
X393864D02*
X394409D01*
X394409D02*
X394682Y159750D01*
X394818Y159563*
X394818D02*
X394955Y159188D01*
X394955D02*
Y158813D01*
X394955D02*
X394818Y158438D01*
X394818D02*
X394545Y157875D01*
X393182Y156000*
X395091*
X435000Y161438D02*
Y158625D01*
X435136Y158063*
X435136D02*
X435409Y157688D01*
X435409D02*
X435818Y157500D01*
X436091*
X436500Y157688*
X436500D02*
X436773Y158063D01*
X436773D02*
X436909Y158625D01*
Y161438*
X438136Y160688D02*
X438409Y160875D01*
X438818Y161438*
X438818D02*
Y157500D01*
X441409Y161438D02*
X440045Y158813D01*
X440045D02*
X442091D01*
X441409Y161438D02*
Y157500D01*
X444500Y165938D02*
Y162000D01*
Y165938D02*
X445727D01*
X445727D02*
X446136Y165750D01*
X446273Y165563*
X446273D02*
X446409Y165188D01*
X446409D02*
Y164813D01*
X446409D02*
X446273Y164438D01*
X446273D02*
X446136Y164250D01*
X445727Y164063*
X445727D02*
X444500D01*
X445455D02*
X446409Y162000D01*
X448318Y165938D02*
X447909Y165750D01*
X447773Y165375*
Y165000*
X447909Y164625*
X448182Y164438*
X448182D02*
X448727Y164250D01*
X449136Y164063*
X449136D02*
X449409Y163688D01*
X449409D02*
X449545Y163313D01*
X449545D02*
Y162750D01*
X449409Y162375*
X449273Y162188*
X449273D02*
X448864Y162000D01*
X448318*
X447909Y162188*
X447909D02*
X447773Y162375D01*
X447636Y162750*
Y163313*
X447636D02*
X447773Y163688D01*
X447773D02*
X448045Y164063D01*
X448045D02*
X448455Y164250D01*
X449000Y164438*
X449000D02*
X449273Y164625D01*
X449409Y165000*
Y165375*
X449273Y165750*
X448864Y165938*
X448864D02*
X448318D01*
X437500Y141938D02*
Y138000D01*
Y141938D02*
X438727D01*
X438727D02*
X439136Y141750D01*
X439273Y141563*
X439273D02*
X439409Y141188D01*
X439409D02*
Y140813D01*
X439409D02*
X439273Y140438D01*
X439273D02*
X439136Y140250D01*
X438727Y140063*
X438727D02*
X437500D01*
X438455D02*
X439409Y138000D01*
X442545Y141938D02*
X441182Y138000D01*
X440636Y141938D02*
X442545D01*
X424045Y138000D02*
X423909Y138375D01*
X423636Y138750*
X423364Y138938*
X423364D02*
X422818D01*
X422818D02*
X422545Y138750D01*
X422273Y138375*
X422136Y138000*
X422000Y137438*
X422000D02*
Y136500D01*
X422136Y135938*
X422136D02*
X422273Y135563D01*
X422273D02*
X422545Y135188D01*
X422545D02*
X422818Y135000D01*
X423364*
X423636Y135188*
X423636D02*
X423909Y135563D01*
X423909D02*
X424045Y135938D01*
X427045Y137625D02*
X426909Y137063D01*
X426909D02*
X426636Y136688D01*
X426636D02*
X426227Y136500D01*
X426091*
X425682Y136688*
X425682D02*
X425409Y137063D01*
X425409D02*
X425273Y137625D01*
Y137813*
X425273D02*
X425409Y138375D01*
X425682Y138750*
X426091Y138938*
X426091D02*
X426227D01*
X426227D02*
X426636Y138750D01*
X426909Y138375*
X427045Y137625*
Y136688*
X427045D02*
X426909Y135750D01*
X426636Y135188*
X426636D02*
X426227Y135000D01*
X425955*
X425545Y135188*
X425545D02*
X425409Y135563D01*
X136062Y193500D02*
X140000D01*
X136062D02*
Y194727D01*
X136250Y195136*
X136437Y195273*
X136812Y195409*
X137187*
X137562Y195273*
X137750Y195136*
X137937Y194727*
Y193500*
Y194455D02*
X140000Y195409D01*
X137000Y196773D02*
X136812D01*
X136437Y196909*
X136250Y197045*
X136062Y197318*
Y197864*
X136250Y198136*
X136437Y198273*
X136812Y198409*
X137187*
X137562Y198273*
X138125Y198000*
X140000Y196636*
Y198545*
X159500Y187838D02*
Y183900D01*
Y187838D02*
X160727D01*
X160727D02*
X161136Y187650D01*
X161273Y187463*
X161273D02*
X161409Y187088D01*
X161409D02*
Y186713D01*
X161409D02*
X161273Y186338D01*
X161273D02*
X161136Y186150D01*
X160727Y185963*
X160727D02*
X159500D01*
X160455D02*
X161409Y183900D01*
X162636Y187088D02*
X162909Y187275D01*
X163318Y187838*
X163318D02*
Y183900D01*
X165227Y187838D02*
X164818Y187650D01*
X164682Y187275*
Y186900*
X164818Y186525*
X165091Y186338*
X165091D02*
X165636Y186150D01*
X166045Y185963*
X166045D02*
X166318Y185588D01*
X166318D02*
X166455Y185213D01*
X166455D02*
Y184650D01*
X166318Y184275*
X166182Y184088*
X166182D02*
X165773Y183900D01*
X165227*
X164818Y184088*
X164818D02*
X164682Y184275D01*
X164545Y184650*
Y185213*
X164545D02*
X164682Y185588D01*
X164682D02*
X164955Y185963D01*
X164955D02*
X165364Y186150D01*
X165909Y186338*
X165909D02*
X166182Y186525D01*
X166318Y186900*
Y187275*
X166182Y187650*
X165773Y187838*
X165773D02*
X165227D01*
X142000Y195545D02*
X141625Y195409D01*
X141250Y195136*
X141062Y194864*
Y194318*
X141250Y194045*
X141625Y193773*
X142000Y193636*
X142562Y193500*
X143500*
X144062Y193636*
X144437Y193773*
X144812Y194045*
X145000Y194318*
Y194864*
X144812Y195136*
X144437Y195409*
X144062Y195545*
X141812Y196773D02*
X141625Y197045D01*
X141062Y197455*
X145000*
X163545Y162000D02*
X163409Y162375D01*
X163136Y162750*
X162864Y162938*
X162864D02*
X162318D01*
X162318D02*
X162045Y162750D01*
X161773Y162375*
X161636Y162000*
X161500Y161438*
X161500D02*
Y160500D01*
X161636Y159938*
X161636D02*
X161773Y159563D01*
X161773D02*
X162045Y159188D01*
X162045D02*
X162318Y159000D01*
X162864*
X163136Y159188*
X163136D02*
X163409Y159563D01*
X163409D02*
X163545Y159938D01*
X164909Y162000D02*
Y162188D01*
X164909D02*
X165045Y162563D01*
X165045D02*
X165182Y162750D01*
X165455Y162938*
X165455D02*
X166000D01*
X166000D02*
X166273Y162750D01*
X166409Y162563*
X166409D02*
X166545Y162188D01*
X166545D02*
Y161813D01*
X166545D02*
X166409Y161438D01*
X166409D02*
X166136Y160875D01*
X164773Y159000*
X166682*
X168182Y162938D02*
X169682D01*
X169682D02*
X168864Y161438D01*
X168864D02*
X169273D01*
X169273D02*
X169545Y161250D01*
X169682Y161063*
X169682D02*
X169818Y160500D01*
Y160125*
X169682Y159563*
X169682D02*
X169409Y159188D01*
X169409D02*
X169000Y159000D01*
X168591*
X168182Y159188*
X168182D02*
X168045Y159375D01*
X167909Y159750*
X143045Y168500D02*
X142909Y168875D01*
X142636Y169250*
X142364Y169438*
X142364D02*
X141818D01*
X141818D02*
X141545Y169250D01*
X141273Y168875*
X141136Y168500*
X141000Y167938*
X141000D02*
Y167000D01*
X141136Y166438*
X141136D02*
X141273Y166063D01*
X141273D02*
X141545Y165688D01*
X141545D02*
X141818Y165500D01*
X142364*
X142636Y165688*
X142636D02*
X142909Y166063D01*
X142909D02*
X143045Y166438D01*
X144409Y168500D02*
Y168688D01*
X144409D02*
X144545Y169063D01*
X144545D02*
X144682Y169250D01*
X144955Y169438*
X144955D02*
X145500D01*
X145500D02*
X145773Y169250D01*
X145909Y169063*
X145909D02*
X146045Y168688D01*
X146045D02*
Y168313D01*
X146045D02*
X145909Y167938D01*
X145909D02*
X145636Y167375D01*
X144273Y165500*
X146182*
X147409Y168688D02*
X147682Y168875D01*
X148091Y169438*
X148091D02*
Y165500D01*
X143045Y172500D02*
X142909Y172875D01*
X142636Y173250*
X142364Y173438*
X142364D02*
X141818D01*
X141818D02*
X141545Y173250D01*
X141273Y172875*
X141136Y172500*
X141000Y171938*
X141000D02*
Y171000D01*
X141136Y170438*
X141136D02*
X141273Y170063D01*
X141273D02*
X141545Y169688D01*
X141545D02*
X141818Y169500D01*
X142364*
X142636Y169688*
X142636D02*
X142909Y170063D01*
X142909D02*
X143045Y170438D01*
X144409Y172500D02*
Y172688D01*
X144409D02*
X144545Y173063D01*
X144545D02*
X144682Y173250D01*
X144955Y173438*
X144955D02*
X145500D01*
X145500D02*
X145773Y173250D01*
X145909Y173063*
X145909D02*
X146045Y172688D01*
X146045D02*
Y172313D01*
X146045D02*
X145909Y171938D01*
X145909D02*
X145636Y171375D01*
X144273Y169500*
X146182*
X147545Y172500D02*
Y172688D01*
X147545D02*
X147682Y173063D01*
X147682D02*
X147818Y173250D01*
X148091Y173438*
X148091D02*
X148636D01*
X148636D02*
X148909Y173250D01*
X149045Y173063*
X149045D02*
X149182Y172688D01*
X149182D02*
Y172313D01*
X149182D02*
X149045Y171938D01*
X149045D02*
X148773Y171375D01*
X147409Y169500*
X149318*
X159500Y182938D02*
Y179000D01*
Y182938D02*
X160727D01*
X160727D02*
X161136Y182750D01*
X161273Y182563*
X161273D02*
X161409Y182188D01*
X161409D02*
Y181813D01*
X161409D02*
X161273Y181438D01*
X161273D02*
X161136Y181250D01*
X160727Y181063*
X160727D02*
X159500D01*
X160455D02*
X161409Y179000D01*
X162636Y182188D02*
X162909Y182375D01*
X163318Y182938*
X163318D02*
Y179000D01*
X166318Y181625D02*
X166182Y181063D01*
X166182D02*
X165909Y180688D01*
X165909D02*
X165500Y180500D01*
X165364*
X164955Y180688*
X164955D02*
X164682Y181063D01*
X164682D02*
X164545Y181625D01*
Y181813*
X164545D02*
X164682Y182375D01*
X164955Y182750*
X165364Y182938*
X165364D02*
X165500D01*
X165500D02*
X165909Y182750D01*
X166182Y182375*
X166318Y181625*
Y180688*
X166318D02*
X166182Y179750D01*
X165909Y179188*
X165909D02*
X165500Y179000D01*
X165227*
X164818Y179188*
X164818D02*
X164682Y179563D01*
X177000Y172438D02*
Y169625D01*
X177136Y169063*
X177409Y168688*
X177818Y168500*
X178091*
X178500Y168688*
X178773Y169063*
X178909Y169625*
Y172438*
X180818D02*
X180409Y172250D01*
X180273Y171875*
Y171500*
X180409Y171125*
X180682Y170938*
X181227Y170750*
X181636Y170563*
X181909Y170188*
X182045Y169813*
Y169250*
X181909Y168875*
X181773Y168688*
X181364Y168500*
X180818*
X180409Y168688*
X180273Y168875*
X180136Y169250*
Y169813*
X180273Y170188*
X180545Y170563*
X180955Y170750*
X181500Y170938*
X181773Y171125*
X181909Y171500*
Y171875*
X181773Y172250*
X181364Y172438*
X180818*
X187864Y123938D02*
Y120938D01*
X187864D02*
X187727Y120375D01*
X187591Y120188*
X187591D02*
X187318Y120000D01*
X187045*
X186773Y120188*
X186773D02*
X186636Y120375D01*
X186500Y120938*
X186500D02*
Y121313D01*
X189091Y123188D02*
X189364Y123375D01*
X189773Y123938*
X189773D02*
Y120000D01*
X191273Y123938D02*
X192773D01*
X192773D02*
X191955Y122438D01*
X191955D02*
X192364D01*
X192364D02*
X192636Y122250D01*
X192773Y122063*
X192773D02*
X192909Y121500D01*
Y121125*
X192773Y120563*
X192773D02*
X192500Y120188D01*
X192500D02*
X192091Y120000D01*
X191682*
X191273Y120188*
X191273D02*
X191136Y120375D01*
X191000Y120750*
X212562Y141000D02*
X216500D01*
X212562D02*
Y142227D01*
X212562D02*
X212750Y142636D01*
X212937Y142773*
X212937D02*
X213312Y142909D01*
X213312D02*
X213687D01*
X213687D02*
X214062Y142773D01*
X214062D02*
X214250Y142636D01*
X214437Y142227*
X214437D02*
Y141000D01*
Y141955D02*
X216500Y142909D01*
X212562Y145500D02*
X215187Y144136D01*
X215187D02*
Y146182D01*
X212562Y145500D02*
X216500D01*
X213125Y149045D02*
X212750Y148909D01*
X212562Y148500*
X212562D02*
Y148227D01*
X212562D02*
X212750Y147818D01*
X213312Y147545*
X213312D02*
X214250Y147409D01*
X215187*
X215187D02*
X215937Y147545D01*
X215937D02*
X216312Y147818D01*
X216312D02*
X216500Y148227D01*
Y148364*
X216312Y148773*
X216312D02*
X215937Y149045D01*
X215937D02*
X215375Y149182D01*
X215187*
X215187D02*
X214625Y149045D01*
X214250Y148773*
X214062Y148364*
X214062D02*
Y148227D01*
X214062D02*
X214250Y147818D01*
X214625Y147545*
X215187Y147409*
X472500Y170438D02*
Y167625D01*
X472636Y167063*
X472636D02*
X472909Y166688D01*
X472909D02*
X473318Y166500D01*
X473591*
X474000Y166688*
X474000D02*
X474273Y167063D01*
X474273D02*
X474409Y167625D01*
Y170438*
X477000D02*
X475636Y167813D01*
X475636D02*
X477682D01*
X477000Y170438D02*
Y166500D01*
X406062Y287818D02*
X406250Y287545D01*
X406625Y287273*
X407000Y287136*
X407562Y287000*
X407562D02*
X408500D01*
X409062Y287136*
X409062D02*
X409437Y287273D01*
X409437D02*
X409812Y287545D01*
X409812D02*
X410000Y287818D01*
Y288364*
X409812Y288636*
X409812D02*
X409437Y288909D01*
X409437D02*
X409062Y289045D01*
X409062D02*
X408500Y289182D01*
X407562*
X407562D02*
X407000Y289045D01*
X406625Y288909*
X406250Y288636*
X406062Y288364*
X406062D02*
Y287818D01*
X409250Y288227D02*
X410375Y289045D01*
X406062Y292318D02*
X410000Y290955D01*
X406062Y290409D02*
Y292318D01*
X411500Y271938D02*
Y268000D01*
Y271938D02*
X412727D01*
X412727D02*
X413136Y271750D01*
X413273Y271563*
X413273D02*
X413409Y271188D01*
X413409D02*
Y270813D01*
X413409D02*
X413273Y270438D01*
X413273D02*
X413136Y270250D01*
X412727Y270063*
X412727D02*
X411500D01*
X412455D02*
X413409Y268000D01*
X416409Y271938D02*
X415045D01*
X415045D02*
X414909Y270250D01*
X415045Y270438*
X415045D02*
X415455Y270625D01*
X415864*
X416273Y270438*
X416273D02*
X416545Y270063D01*
X416545D02*
X416682Y269500D01*
X416545Y269125*
X416409Y268563*
X416409D02*
X416136Y268188D01*
X416136D02*
X415727Y268000D01*
X415318*
X414909Y268188*
X414909D02*
X414773Y268375D01*
X414636Y268750*
X419545Y271375D02*
X419409Y271750D01*
X419000Y271938*
X419000D02*
X418727D01*
X418727D02*
X418318Y271750D01*
X418045Y271188*
X418045D02*
X417909Y270250D01*
Y269313*
X417909D02*
X418045Y268563D01*
X418045D02*
X418318Y268188D01*
X418318D02*
X418727Y268000D01*
X418864*
X419273Y268188*
X419273D02*
X419545Y268563D01*
X419545D02*
X419682Y269125D01*
Y269313*
X419682D02*
X419545Y269875D01*
X419273Y270250*
X418864Y270438*
X418864D02*
X418727D01*
X418727D02*
X418318Y270250D01*
X418045Y269875*
X417909Y269313*
X436827Y318338D02*
Y314400D01*
Y318338D02*
X438054D01*
X438463Y318150*
X438599Y317963*
X438599D02*
X438736Y317588D01*
Y317213*
X438599Y316838*
X438599D02*
X438463Y316650D01*
X438054Y316463*
X436827*
X437781D02*
X438736Y314400D01*
X441736Y318338D02*
X440372D01*
X440236Y316650*
X440372Y316838*
X440781Y317025*
X441190*
X441599Y316838*
X441599D02*
X441872Y316463D01*
X442009Y315900*
X441872Y315525*
X441736Y314963*
X441463Y314588*
X441054Y314400*
X440645*
X440236Y314588*
X440099Y314775*
X440099D02*
X439963Y315150D01*
X443372Y317400D02*
Y317588D01*
X443509Y317963*
X443645Y318150*
X443918Y318338*
X444463*
X444736Y318150*
X444872Y317963*
X445009Y317588*
Y317213*
X444872Y316838*
X444599Y316275*
X444599D02*
X443236Y314400D01*
X445145*
X437173Y311938D02*
Y308000D01*
Y311938D02*
X438401D01*
X438401D02*
X438810Y311750D01*
X438946Y311563*
X438946D02*
X439082Y311188D01*
X439082D02*
Y310813D01*
X439082D02*
X438946Y310438D01*
X438946D02*
X438810Y310250D01*
X438401Y310063*
X438401D02*
X437173D01*
X438128D02*
X439082Y308000D01*
X442082Y311938D02*
X440719D01*
X440719D02*
X440582Y310250D01*
X440719Y310438*
X440719D02*
X441128Y310625D01*
X441537*
X441946Y310438*
X441946D02*
X442219Y310063D01*
X442219D02*
X442355Y309500D01*
X442219Y309125*
X442082Y308563*
X442082D02*
X441810Y308188D01*
X441810D02*
X441401Y308000D01*
X441401D02*
X440991D01*
X440582Y308188*
X440582D02*
X440446Y308375D01*
X440310Y308750*
X445491Y311938D02*
X444128Y308000D01*
X443582Y311938D02*
X445491D01*
X437000Y300938D02*
Y297000D01*
Y300938D02*
X438227D01*
X438227D02*
X438636Y300750D01*
X438773Y300563*
X438773D02*
X438909Y300188D01*
X438909D02*
Y299813D01*
X438909D02*
X438773Y299438D01*
X438773D02*
X438636Y299250D01*
X438227Y299063*
X438227D02*
X437000D01*
X437955D02*
X438909Y297000D01*
X441500Y300938D02*
X440136Y298313D01*
X440136D02*
X442182D01*
X441500Y300938D02*
Y297000D01*
X444773Y300938D02*
X443409Y298313D01*
X443409D02*
X445455D01*
X444773Y300938D02*
Y297000D01*
X387000Y295545D02*
X386625Y295409D01*
X386250Y295136*
X386062Y294864*
X386062D02*
Y294318D01*
X386062D02*
X386250Y294045D01*
X386625Y293773*
X387000Y293636*
X387562Y293500*
X387562D02*
X388500D01*
X389062Y293636*
X389062D02*
X389437Y293773D01*
X389437D02*
X389812Y294045D01*
X389812D02*
X390000Y294318D01*
Y294864*
X389812Y295136*
X389812D02*
X389437Y295409D01*
X389437D02*
X389062Y295545D01*
X386062Y298136D02*
X388687Y296773D01*
X388687D02*
Y298818D01*
X386062Y298136D02*
X390000D01*
X386625Y301682D02*
X386250Y301545D01*
X386062Y301136*
X386062D02*
Y300864D01*
X386062D02*
X386250Y300455D01*
X386812Y300182*
X386812D02*
X387750Y300045D01*
X388687*
X388687D02*
X389437Y300182D01*
X389437D02*
X389812Y300455D01*
X389812D02*
X390000Y300864D01*
Y301000*
X389812Y301409*
X389812D02*
X389437Y301682D01*
X389437D02*
X388875Y301818D01*
X388687*
X388687D02*
X388125Y301682D01*
X387750Y301409*
X387562Y301000*
X387562D02*
Y300864D01*
X387562D02*
X387750Y300455D01*
X388125Y300182*
X388687Y300045*
X439045Y287500D02*
X438909Y287875D01*
X438636Y288250*
X438364Y288438*
X438364D02*
X437818D01*
X437818D02*
X437545Y288250D01*
X437273Y287875*
X437136Y287500*
X437000Y286938*
X437000D02*
Y286000D01*
X437136Y285438*
X437136D02*
X437273Y285063D01*
X437273D02*
X437545Y284688D01*
X437545D02*
X437818Y284500D01*
X438364*
X438636Y284688*
X438636D02*
X438909Y285063D01*
X438909D02*
X439045Y285438D01*
X441636Y288438D02*
X440273Y285813D01*
X440273D02*
X442318D01*
X441636Y288438D02*
Y284500D01*
X445455Y288438D02*
X444091Y284500D01*
X443545Y288438D02*
X445455D01*
X391063Y293500D02*
X395000D01*
X391063D02*
Y294727D01*
X391063D02*
X391250Y295136D01*
X391438Y295273*
X391438D02*
X391813Y295409D01*
X391813D02*
X392188D01*
X392188D02*
X392563Y295273D01*
X392563D02*
X392750Y295136D01*
X392938Y294727*
X392938D02*
Y293500D01*
Y294455D02*
X395000Y295409D01*
X391813Y296636D02*
X391625Y296909D01*
X391063Y297318*
X391063D02*
X395000D01*
X391063Y298818D02*
Y300318D01*
X391063D02*
X392563Y299500D01*
X392563D02*
Y299909D01*
X392563D02*
X392750Y300182D01*
X392938Y300318*
X392938D02*
X393500Y300455D01*
X393875*
X394438Y300318*
X394438D02*
X394813Y300045D01*
X394813D02*
X395000Y299636D01*
Y299227*
X394813Y298818*
X394813D02*
X394625Y298682D01*
X394250Y298545*
X281000Y160438D02*
Y156500D01*
Y160438D02*
X282227D01*
X282227D02*
X282636Y160250D01*
X282773Y160063*
X282773D02*
X282909Y159688D01*
X282909D02*
Y159313D01*
X282909D02*
X282773Y158938D01*
X282773D02*
X282636Y158750D01*
X282227Y158563*
X282227D02*
X281000D01*
X281955D02*
X282909Y156500D01*
X285500Y160438D02*
X284136Y157813D01*
X284136D02*
X286182D01*
X285500Y160438D02*
Y156500D01*
X288091Y160438D02*
X287682Y160250D01*
X287545Y159875*
Y159500*
X287682Y159125*
X287955Y158938*
X287955D02*
X288500Y158750D01*
X288909Y158563*
X288909D02*
X289182Y158188D01*
X289182D02*
X289318Y157813D01*
X289318D02*
Y157250D01*
X289182Y156875*
X289045Y156688*
X289045D02*
X288636Y156500D01*
X288091*
X287682Y156688*
X287682D02*
X287545Y156875D01*
X287409Y157250*
Y157813*
X287409D02*
X287545Y158188D01*
X287545D02*
X287818Y158563D01*
X287818D02*
X288227Y158750D01*
X288773Y158938*
X288773D02*
X289045Y159125D01*
X289182Y159500*
Y159875*
X289045Y160250*
X288636Y160438*
X288636D02*
X288091D01*
X257000Y138545D02*
X256625Y138409D01*
X256250Y138136*
X256062Y137864*
X256062D02*
Y137318D01*
X256062D02*
X256250Y137045D01*
X256625Y136773*
X257000Y136636*
X257562Y136500*
X257562D02*
X258500D01*
X259062Y136636*
X259062D02*
X259437Y136773D01*
X259437D02*
X259812Y137045D01*
X259812D02*
X260000Y137318D01*
Y137864*
X259812Y138136*
X259812D02*
X259437Y138409D01*
X259437D02*
X259062Y138545D01*
X256062Y141136D02*
X258687Y139773D01*
X258687D02*
Y141818D01*
X256062Y141136D02*
X260000D01*
X256062Y144409D02*
X258687Y143045D01*
X258687D02*
Y145091D01*
X256062Y144409D02*
X260000D01*
X257000Y149545D02*
X256625Y149409D01*
X256250Y149136*
X256063Y148864*
X256063D02*
Y148318D01*
X256063D02*
X256250Y148045D01*
X256625Y147773*
X257000Y147636*
X257563Y147500*
X257563D02*
X258500D01*
X259063Y147636*
X259063D02*
X259438Y147773D01*
X259438D02*
X259813Y148045D01*
X259813D02*
X260000Y148318D01*
Y148864*
X259813Y149136*
X259813D02*
X259438Y149409D01*
X259438D02*
X259063Y149545D01*
X256063Y152136D02*
X258688Y150773D01*
X258688D02*
Y152818D01*
X256063Y152136D02*
X260000D01*
X256063Y154318D02*
Y155818D01*
X256063D02*
X257563Y155000D01*
X257563D02*
Y155409D01*
X257563D02*
X257750Y155682D01*
X257938Y155818*
X257938D02*
X258500Y155955D01*
X258875*
X259438Y155818*
X259438D02*
X259813Y155545D01*
X259813D02*
X260000Y155136D01*
Y154727*
X259813Y154318*
X259813D02*
X259625Y154182D01*
X259250Y154045*
X284500Y218438D02*
Y214500D01*
X286136*
X287500Y217500D02*
Y217688D01*
X287500D02*
X287636Y218063D01*
X287636D02*
X287773Y218250D01*
X288045Y218438*
X288045D02*
X288591D01*
X288591D02*
X288864Y218250D01*
X289000Y218063*
X289000D02*
X289136Y217688D01*
X289136D02*
Y217313D01*
X289136D02*
X289000Y216938D01*
X289000D02*
X288727Y216375D01*
X287364Y214500*
X289273*
X302000Y179938D02*
Y176000D01*
Y179938D02*
X302955D01*
X302955D02*
X303364Y179750D01*
X303636Y179375*
X303773Y179000*
X303909Y178438*
X303909D02*
Y177500D01*
X303773Y176938*
X303773D02*
X303636Y176563D01*
X303636D02*
X303364Y176188D01*
X303364D02*
X302955Y176000D01*
X302000*
X305136Y179188D02*
X305409Y179375D01*
X305818Y179938*
X305818D02*
Y176000D01*
X307864Y179938D02*
X307455Y179750D01*
X307182Y179188*
X307182D02*
X307045Y178250D01*
Y177688*
X307045D02*
X307182Y176750D01*
X307455Y176188*
X307455D02*
X307864Y176000D01*
X308136*
X308545Y176188*
X308545D02*
X308818Y176750D01*
X308955Y177688*
X308955D02*
Y178250D01*
X308818Y179188*
X308818D02*
X308545Y179750D01*
X308136Y179938*
X308136D02*
X307864D01*
X309000Y225938D02*
Y222000D01*
Y225938D02*
X310227D01*
X310227D02*
X310636Y225750D01*
X310773Y225563*
X310773D02*
X310909Y225188D01*
X310909D02*
Y224813D01*
X310909D02*
X310773Y224438D01*
X310773D02*
X310636Y224250D01*
X310227Y224063*
X310227D02*
X309000D01*
X309955D02*
X310909Y222000D01*
X312273Y225000D02*
Y225188D01*
X312273D02*
X312409Y225563D01*
X312409D02*
X312545Y225750D01*
X312818Y225938*
X312818D02*
X313364D01*
X313364D02*
X313636Y225750D01*
X313773Y225563*
X313773D02*
X313909Y225188D01*
X313909D02*
Y224813D01*
X313909D02*
X313773Y224438D01*
X313773D02*
X313500Y223875D01*
X312136Y222000*
X314045*
X315409Y225000D02*
Y225188D01*
X315409D02*
X315545Y225563D01*
X315545D02*
X315682Y225750D01*
X315955Y225938*
X315955D02*
X316500D01*
X316500D02*
X316773Y225750D01*
X316909Y225563*
X316909D02*
X317045Y225188D01*
X317045D02*
Y224813D01*
X317045D02*
X316909Y224438D01*
X316909D02*
X316636Y223875D01*
X315273Y222000*
X317182*
X314000Y179938D02*
Y176000D01*
Y179938D02*
X315227D01*
X315227D02*
X315636Y179750D01*
X315773Y179563*
X315773D02*
X315909Y179188D01*
X315909D02*
Y178813D01*
X315909D02*
X315773Y178438D01*
X315773D02*
X315636Y178250D01*
X315227Y178063*
X315227D02*
X314000D01*
X314955D02*
X315909Y176000D01*
X317273Y179000D02*
Y179188D01*
X317273D02*
X317409Y179563D01*
X317409D02*
X317545Y179750D01*
X317818Y179938*
X317818D02*
X318364D01*
X318364D02*
X318636Y179750D01*
X318773Y179563*
X318773D02*
X318909Y179188D01*
X318909D02*
Y178813D01*
X318909D02*
X318773Y178438D01*
X318773D02*
X318500Y177875D01*
X317136Y176000*
X319045*
X322182Y179938D02*
X320818Y176000D01*
X320273Y179938D02*
X322182D01*
X319562Y215000D02*
X323500D01*
X319562D02*
Y216227D01*
X319750Y216636*
X319937Y216773*
X320312Y216909*
X320687*
X321062Y216773*
X321250Y216636*
X321437Y216227*
Y215000*
Y215955D02*
X323500Y216909D01*
X320500Y218273D02*
X320312D01*
X319937Y218409*
X319750Y218545*
X319562Y218818*
Y219364*
X319750Y219636*
X319937Y219773*
X320312Y219909*
X320687*
X321062Y219773*
X321625Y219500*
X323500Y218136*
Y220045*
X320312Y221273D02*
X320125Y221545D01*
X319562Y221955*
X323500*
X280845Y178000D02*
X280709Y178375D01*
X280436Y178750*
X280164Y178938*
X280164D02*
X279618D01*
X279618D02*
X279345Y178750D01*
X279073Y178375*
X278936Y178000*
X278800Y177438*
X278800D02*
Y176500D01*
X278936Y175938*
X278936D02*
X279073Y175563D01*
X279073D02*
X279345Y175188D01*
X279345D02*
X279618Y175000D01*
X280164*
X280436Y175188*
X280436D02*
X280709Y175563D01*
X280709D02*
X280845Y175938D01*
X282345Y178938D02*
X283845D01*
X283845D02*
X283027Y177438D01*
X283027D02*
X283436D01*
X283436D02*
X283709Y177250D01*
X283845Y177063*
X283845D02*
X283982Y176500D01*
Y176125*
X283845Y175563*
X283845D02*
X283573Y175188D01*
X283573D02*
X283164Y175000D01*
X282755*
X282345Y175188*
X282345D02*
X282209Y175375D01*
X282073Y175750*
X272000Y196938D02*
Y193000D01*
Y196938D02*
X273773D01*
X272000Y195063D02*
X273091D01*
X275000Y196938D02*
Y193000D01*
Y196938D02*
X276227D01*
X276227D02*
X276636Y196750D01*
X276773Y196563*
X276773D02*
X276909Y196188D01*
X276909D02*
Y195813D01*
X276909D02*
X276773Y195438D01*
X276773D02*
X276636Y195250D01*
X276227Y195063*
X275000D02*
X276227D01*
X276227D02*
X276636Y194875D01*
X276773Y194688*
X276773D02*
X276909Y194313D01*
X276909D02*
Y193750D01*
X276773Y193375*
X276636Y193188*
X276636D02*
X276227Y193000D01*
X275000*
X278136Y196188D02*
X278409Y196375D01*
X278818Y196938*
X278818D02*
Y193000D01*
X391000Y186938D02*
Y184125D01*
X391136Y183563*
X391136D02*
X391409Y183188D01*
X391409D02*
X391818Y183000D01*
X392091*
X392500Y183188*
X392500D02*
X392773Y183563D01*
X392773D02*
X392909Y184125D01*
Y186938*
X396045D02*
X394682Y183000D01*
X394136Y186938D02*
X396045D01*
X405500Y187438D02*
Y184625D01*
X405636Y184063*
X405636D02*
X405909Y183688D01*
X405909D02*
X406318Y183500D01*
X406591*
X407000Y183688*
X407000D02*
X407273Y184063D01*
X407273D02*
X407409Y184625D01*
Y187438*
X410273Y186875D02*
X410136Y187250D01*
X409727Y187438*
X409727D02*
X409455D01*
X409455D02*
X409045Y187250D01*
X408773Y186688*
X408773D02*
X408636Y185750D01*
Y184813*
X408636D02*
X408773Y184063D01*
X408773D02*
X409045Y183688D01*
X409045D02*
X409455Y183500D01*
X409591*
X410000Y183688*
X410000D02*
X410273Y184063D01*
X410273D02*
X410409Y184625D01*
Y184813*
X410409D02*
X410273Y185375D01*
X410000Y185750*
X409591Y185938*
X409591D02*
X409455D01*
X409455D02*
X409045Y185750D01*
X408773Y185375*
X408636Y184813*
X438000Y188937D02*
Y185000D01*
Y188937D02*
X438955D01*
X438955D02*
X439364Y188750D01*
X439636Y188375*
X439773Y188000*
X439909Y187437*
X439909D02*
Y186500D01*
X439773Y185937*
X439773D02*
X439636Y185562D01*
X439636D02*
X439364Y185187D01*
X439364D02*
X438955Y185000D01*
X438000*
X441409Y188937D02*
X442909D01*
X442909D02*
X442091Y187437D01*
X442091D02*
X442500D01*
X442500D02*
X442773Y187250D01*
X442909Y187062*
X442909D02*
X443045Y186500D01*
Y186125*
X442909Y185562*
X442909D02*
X442636Y185187D01*
X442636D02*
X442227Y185000D01*
X441818*
X441409Y185187*
X441409D02*
X441273Y185375D01*
X441136Y185750*
X127000Y195545D02*
X126625Y195409D01*
X126250Y195136*
X126062Y194864*
Y194318*
X126250Y194045*
X126625Y193773*
X127000Y193636*
X127562Y193500*
X128500*
X129062Y193636*
X129437Y193773*
X129812Y194045*
X130000Y194318*
Y194864*
X129812Y195136*
X129437Y195409*
X129062Y195545*
X126062Y198545D02*
Y197182D01*
X127750Y197045*
X127562Y197182*
X127375Y197591*
Y198000*
X127562Y198409*
X127937Y198682*
X128500Y198818*
X128875Y198682*
X129437Y198545*
X129812Y198273*
X130000Y197864*
Y197455*
X129812Y197045*
X129625Y196909*
X129250Y196773*
X133500Y178438D02*
Y174500D01*
Y178438D02*
X134727D01*
X134727D02*
X135136Y178250D01*
X135273Y178063*
X135273D02*
X135409Y177688D01*
X135409D02*
Y177313D01*
X135409D02*
X135273Y176938D01*
X135273D02*
X135136Y176750D01*
X134727Y176563*
X134727D02*
X133500D01*
X134455D02*
X135409Y174500D01*
X136773Y177500D02*
Y177688D01*
X136773D02*
X136909Y178063D01*
X136909D02*
X137045Y178250D01*
X137318Y178438*
X137318D02*
X137864D01*
X137864D02*
X138136Y178250D01*
X138273Y178063*
X138273D02*
X138409Y177688D01*
X138409D02*
Y177313D01*
X138409D02*
X138273Y176938D01*
X138273D02*
X138000Y176375D01*
X136636Y174500*
X138545*
X140591Y178438D02*
X140182Y178250D01*
X139909Y177688*
X139909D02*
X139773Y176750D01*
Y176188*
X139773D02*
X139909Y175250D01*
X140182Y174688*
X140182D02*
X140591Y174500D01*
X140864*
X141273Y174688*
X141273D02*
X141545Y175250D01*
X141682Y176188*
X141682D02*
Y176750D01*
X141545Y177688*
X141545D02*
X141273Y178250D01*
X140864Y178438*
X140864D02*
X140591D01*
X400419Y352175D02*
X400147Y352550D01*
X399738Y352738*
X399192*
X398783Y352550*
X398510Y352175*
Y351800*
X398647Y351425*
X398783Y351238*
X399056Y351050*
X399874Y350675*
X400147Y350488*
X400283Y350300*
X400419Y349925*
Y349363*
X400147Y348988*
X399738Y348800*
X399192*
X398783Y348988*
X398510Y349363*
X401647Y352738D02*
X402328Y348800D01*
X403010Y352738D02*
X402328Y348800D01*
X403010Y352738D02*
X403692Y348800D01*
X404374Y352738D02*
X403692Y348800D01*
X407374Y352738D02*
X406010D01*
X405874Y351050*
X406010Y351238*
X406419Y351425*
X406828*
X407238Y351238*
X407510Y350863*
X407647Y350300*
X407510Y349925*
X407374Y349363*
X407101Y348988*
X406692Y348800*
X406283*
X405874Y348988*
X405738Y349175*
X405601Y349550*
X164199Y352175D02*
X163926Y352550D01*
X163517Y352738*
X162972*
X162562Y352550*
X162290Y352175*
Y351800*
X162426Y351425*
X162562Y351238*
X162835Y351050*
X163653Y350675*
X163926Y350488*
X164062Y350300*
X164199Y349925*
Y349363*
X163926Y348988*
X163517Y348800*
X162972*
X162562Y348988*
X162290Y349363*
X165426Y352738D02*
X166108Y348800D01*
X166790Y352738D02*
X166108Y348800D01*
X166790Y352738D02*
X167472Y348800D01*
X168153Y352738D02*
X167472Y348800D01*
X171017Y352175D02*
X170881Y352550D01*
X170472Y352738*
X170199*
X169790Y352550*
X169517Y351988*
X169381Y351050*
Y350113*
X169517Y349363*
X169790Y348988*
X170199Y348800*
X170335*
X170744Y348988*
X171017Y349363*
X171153Y349925*
Y350113*
X171017Y350675*
X170744Y351050*
X170335Y351238*
X170199*
X169790Y351050*
X169517Y350675*
X169381Y350113*
X341364Y352175D02*
X341091Y352550D01*
X340682Y352738*
X340137*
X339728Y352550*
X339455Y352175*
Y351800*
X339591Y351425*
X339728Y351238*
X340001Y351050*
X340819Y350675*
X341091Y350488*
X341228Y350300*
X341364Y349925*
Y349363*
X341091Y348988*
X340682Y348800*
X340137*
X339728Y348988*
X339455Y349363*
X342591Y352738D02*
X343273Y348800D01*
X343955Y352738D02*
X343273Y348800D01*
X343955Y352738D02*
X344637Y348800D01*
X345319Y352738D02*
X344637Y348800D01*
X348455Y352738D02*
X347091Y348800D01*
X346546Y352738D02*
X348455D01*
X223254Y352175D02*
X222981Y352550D01*
X222572Y352738*
X222027*
X221618Y352550*
X221345Y352175*
Y351800*
X221481Y351425*
X221618Y351238*
X221890Y351050*
X222709Y350675*
X222981Y350488*
X223118Y350300*
X223254Y349925*
Y349363*
X222981Y348988*
X222572Y348800*
X222027*
X221618Y348988*
X221345Y349363*
X224481Y352738D02*
X225163Y348800D01*
X225845Y352738D02*
X225163Y348800D01*
X225845Y352738D02*
X226527Y348800D01*
X227209Y352738D02*
X226527Y348800D01*
X229799Y352738D02*
X228436Y350113D01*
X230481*
X229799Y352738D02*
Y348800D01*
X413045Y192000D02*
X412909Y192375D01*
X412636Y192750*
X412364Y192938*
X412364D02*
X411818D01*
X411818D02*
X411545Y192750D01*
X411273Y192375*
X411136Y192000*
X411000Y191438*
X411000D02*
Y190500D01*
X411136Y189938*
X411136D02*
X411273Y189563D01*
X411273D02*
X411545Y189188D01*
X411545D02*
X411818Y189000D01*
X412364*
X412636Y189188*
X412636D02*
X412909Y189563D01*
X412909D02*
X413045Y189938D01*
X415636Y192938D02*
X414273Y190313D01*
X414273D02*
X416318D01*
X415636Y192938D02*
Y189000D01*
X417682Y192000D02*
Y192188D01*
X417682D02*
X417818Y192563D01*
X417818D02*
X417955Y192750D01*
X418227Y192938*
X418227D02*
X418773D01*
X418773D02*
X419045Y192750D01*
X419182Y192563*
X419182D02*
X419318Y192188D01*
X419318D02*
Y191813D01*
X419318D02*
X419182Y191438D01*
X419182D02*
X418909Y190875D01*
X417545Y189000*
X419455*
X423045Y131500D02*
X422909Y131875D01*
X422636Y132250*
X422364Y132438*
X422364D02*
X421818D01*
X421818D02*
X421545Y132250D01*
X421273Y131875*
X421136Y131500*
X421000Y130938*
X421000D02*
Y130000D01*
X421136Y129438*
X421136D02*
X421273Y129063D01*
X421273D02*
X421545Y128688D01*
X421545D02*
X421818Y128500D01*
X422364*
X422636Y128688*
X422636D02*
X422909Y129063D01*
X422909D02*
X423045Y129438D01*
X426182Y132438D02*
X424818Y128500D01*
X424273Y132438D02*
X426182D01*
X443000Y115545D02*
X442625Y115409D01*
X442250Y115136*
X442062Y114864*
X442062D02*
Y114318D01*
X442062D02*
X442250Y114045D01*
X442625Y113773*
X443000Y113636*
X443562Y113500*
X443562D02*
X444500D01*
X445062Y113636*
X445062D02*
X445437Y113773D01*
X445437D02*
X445812Y114045D01*
X445812D02*
X446000Y114318D01*
Y114864*
X445812Y115136*
X445812D02*
X445437Y115409D01*
X445437D02*
X445062Y115545D01*
X442062Y117455D02*
X442250Y117045D01*
X442625Y116909*
X443000*
X443375Y117045*
X443562Y117318*
X443562D02*
X443750Y117864D01*
X443937Y118273*
X443937D02*
X444312Y118545D01*
X444312D02*
X444687Y118682D01*
X444687D02*
X445250D01*
X445625Y118545*
X445812Y118409*
X445812D02*
X446000Y118000D01*
Y117455*
X445812Y117045*
X445812D02*
X445625Y116909D01*
X445250Y116773*
X444687*
X444687D02*
X444312Y116909D01*
X444312D02*
X443937Y117182D01*
X443937D02*
X443750Y117591D01*
X443562Y118136*
X443562D02*
X443375Y118409D01*
X443000Y118545*
X442625*
X442250Y118409*
X442062Y118000*
X442062D02*
Y117455D01*
X429500Y118438D02*
Y114500D01*
Y118438D02*
X431273D01*
X429500Y116563D02*
X430591D01*
X432500Y118438D02*
Y114500D01*
Y118438D02*
X433727D01*
X433727D02*
X434136Y118250D01*
X434273Y118063*
X434273D02*
X434409Y117688D01*
X434409D02*
Y117313D01*
X434409D02*
X434273Y116938D01*
X434273D02*
X434136Y116750D01*
X433727Y116563*
X432500D02*
X433727D01*
X433727D02*
X434136Y116375D01*
X434273Y116188*
X434273D02*
X434409Y115813D01*
X434409D02*
Y115250D01*
X434273Y114875*
X434136Y114688*
X434136D02*
X433727Y114500D01*
X432500*
X435773Y117500D02*
Y117688D01*
X435773D02*
X435909Y118063D01*
X435909D02*
X436045Y118250D01*
X436318Y118438*
X436318D02*
X436864D01*
X436864D02*
X437136Y118250D01*
X437273Y118063*
X437273D02*
X437409Y117688D01*
X437409D02*
Y117313D01*
X437409D02*
X437273Y116938D01*
X437273D02*
X437000Y116375D01*
X435636Y114500*
X437545*
X454000Y186438D02*
Y182500D01*
Y186438D02*
X455227D01*
X455227D02*
X455636Y186250D01*
X455773Y186063*
X455773D02*
X455909Y185688D01*
X455909D02*
Y185313D01*
X455909D02*
X455773Y184938D01*
X455773D02*
X455636Y184750D01*
X455227Y184563*
X455227D02*
X454000D01*
X454955D02*
X455909Y182500D01*
X457136Y185688D02*
X457409Y185875D01*
X457818Y186438*
X457818D02*
Y182500D01*
X459864Y186438D02*
X459455Y186250D01*
X459182Y185688*
X459182D02*
X459045Y184750D01*
Y184188*
X459045D02*
X459182Y183250D01*
X459455Y182688*
X459455D02*
X459864Y182500D01*
X460136*
X460545Y182688*
X460545D02*
X460818Y183250D01*
X460955Y184188*
X460955D02*
Y184750D01*
X460818Y185688*
X460818D02*
X460545Y186250D01*
X460136Y186438*
X460136D02*
X459864D01*
X454000Y181438D02*
Y177500D01*
Y181438D02*
X455227D01*
X455227D02*
X455636Y181250D01*
X455773Y181063*
X455773D02*
X455909Y180688D01*
X455909D02*
Y180313D01*
X455909D02*
X455773Y179938D01*
X455773D02*
X455636Y179750D01*
X455227Y179563*
X455227D02*
X454000D01*
X454955D02*
X455909Y177500D01*
X457136Y180688D02*
X457409Y180875D01*
X457818Y181438*
X457818D02*
Y177500D01*
X459045Y180688D02*
X459318Y180875D01*
X459727Y181438*
X459727D02*
Y177500D01*
X468409Y271875D02*
X468136Y272250D01*
X467727Y272438*
X467727D02*
X467182D01*
X467182D02*
X466773Y272250D01*
X466500Y271875*
Y271500*
X466636Y271125*
X466773Y270938*
X466773D02*
X467045Y270750D01*
X467864Y270375*
X468136Y270188*
X468136D02*
X468273Y270000D01*
X468409Y269625*
Y269063*
X468409D02*
X468136Y268688D01*
X468136D02*
X467727Y268500D01*
X467182*
X466773Y268688*
X466773D02*
X466500Y269063D01*
X469636Y272438D02*
X470318Y268500D01*
X471000Y272438D02*
X470318Y268500D01*
X471000Y272438D02*
X471682Y268500D01*
X472364Y272438D02*
X471682Y268500D01*
X473591Y271688D02*
X473864Y271875D01*
X474273Y272438*
X474273D02*
Y268500D01*
X106273Y178938D02*
X107773D01*
X107773D02*
X106955Y177438D01*
X106955D02*
X107364D01*
X107364D02*
X107636Y177250D01*
X107773Y177063*
X107773D02*
X107909Y176500D01*
Y176125*
X107773Y175563*
X107773D02*
X107500Y175188D01*
X107500D02*
X107091Y175000D01*
X106682*
X106273Y175188*
X106273D02*
X106136Y175375D01*
X106000Y175750*
X109273Y175375D02*
X109136Y175188D01*
X109136D02*
X109273Y175000D01*
X109409Y175188*
X109409D02*
X109273Y175375D01*
X110909Y178938D02*
X112409D01*
X112409D02*
X111591Y177438D01*
X111591D02*
X112000D01*
X112000D02*
X112273Y177250D01*
X112409Y177063*
X112409D02*
X112545Y176500D01*
Y176125*
X112409Y175563*
X112409D02*
X112136Y175188D01*
X112136D02*
X111727Y175000D01*
X111318*
X110909Y175188*
X110909D02*
X110773Y175375D01*
X110636Y175750*
X113773Y178938D02*
X114864Y175000D01*
X115955Y178938D02*
X114864Y175000D01*
X106955Y167938D02*
Y164000D01*
X106000Y167938D02*
X107909D01*
X109136D02*
X111045Y164000D01*
Y167938D02*
X109136Y164000D01*
X112273Y167938D02*
Y164000D01*
Y167938D02*
X113227D01*
X113227D02*
X113636Y167750D01*
X113909Y167375*
X114045Y167000*
X114182Y166438*
X114182D02*
Y165500D01*
X114045Y164938*
X114045D02*
X113909Y164563D01*
X113909D02*
X113636Y164188D01*
X113636D02*
X113227Y164000D01*
X112273*
X106500Y158438D02*
Y154500D01*
Y158438D02*
X107727D01*
X107727D02*
X108136Y158250D01*
X108273Y158063*
X108273D02*
X108409Y157688D01*
X108409D02*
Y157313D01*
X108409D02*
X108273Y156938D01*
X108273D02*
X108136Y156750D01*
X107727Y156563*
X107727D02*
X106500D01*
X107455D02*
X108409Y154500D01*
X109636Y158438D02*
X111545Y154500D01*
Y158438D02*
X109636Y154500D01*
X112773Y158438D02*
Y154500D01*
Y158438D02*
X113727D01*
X113727D02*
X114136Y158250D01*
X114409Y157875*
X114545Y157500*
X114682Y156938*
X114682D02*
Y156000D01*
X114545Y155438*
X114545D02*
X114409Y155063D01*
X114409D02*
X114136Y154688D01*
X114136D02*
X113727Y154500D01*
X112773*
X108545Y147500D02*
X108409Y147875D01*
X108136Y148250*
X107864Y148438*
X107864D02*
X107318D01*
X107318D02*
X107045Y148250D01*
X106773Y147875*
X106636Y147500*
X106500Y146938*
X106500D02*
Y146000D01*
X106636Y145438*
X106636D02*
X106773Y145063D01*
X106773D02*
X107045Y144688D01*
X107045D02*
X107318Y144500D01*
X107864*
X108136Y144688*
X108136D02*
X108409Y145063D01*
X108409D02*
X108545Y145438D01*
X108545D02*
Y146000D01*
X107864D02*
X108545D01*
X109773Y148438D02*
Y144500D01*
Y148438D02*
X111682Y144500D01*
Y148438D02*
Y144500D01*
X112909Y148438D02*
Y144500D01*
Y148438D02*
X113864D01*
X113864D02*
X114273Y148250D01*
X114545Y147875*
X114682Y147500*
X114818Y146938*
X114818D02*
Y146000D01*
X114682Y145438*
X114682D02*
X114545Y145063D01*
X114545D02*
X114273Y144688D01*
X114273D02*
X113864Y144500D01*
X112909*
X364500Y108938D02*
Y105000D01*
Y108938D02*
X365727D01*
X365727D02*
X366136Y108750D01*
X366273Y108563*
X366273D02*
X366409Y108188D01*
X366409D02*
Y107813D01*
X366409D02*
X366273Y107438D01*
X366273D02*
X366136Y107250D01*
X365727Y107063*
X364500D02*
X365727D01*
X365727D02*
X366136Y106875D01*
X366273Y106688*
X366273D02*
X366409Y106313D01*
X366409D02*
Y105750D01*
X366273Y105375*
X366136Y105188*
X366136D02*
X365727Y105000D01*
X364500*
X368727Y108938D02*
X367636Y105000D01*
X368727Y108938D02*
X369818Y105000D01*
X368045Y106313D02*
X369409D01*
X372000Y108938D02*
Y105000D01*
X371045Y108938D02*
X372955D01*
X375409Y108375D02*
Y105000D01*
X374182Y106688D02*
X376636D01*
X384136D02*
X386591D01*
G54D65*
X387700Y113000D02*
Y110800D01*
X372700*
Y112415*
X387700Y117000D02*
Y119200D01*
X372700*
Y117468*
X466427Y324409D02*
X453427D01*
Y277165*
X466427*
X505671Y300787D02*
G03X484023Y328345I-27809J437D01*
G01X483991Y273222D02*
G03X505671Y300772I-6665J27550D01*
G01Y304724D02*
X507427D01*
Y296850*
X505671*
X213091Y115094D02*
Y111594D01*
X212932Y110938*
X212932D02*
X212773Y110719D01*
X212455Y110500*
X212136*
X211818Y110719*
X211659Y110938*
X211659D02*
X211500Y111594D01*
Y112031*
X214682Y114000D02*
Y114219D01*
X214841Y114656*
X215000Y114875*
X215318Y115094*
X215955*
X216273Y114875*
X216432Y114656*
X216591Y114219*
Y113781*
X216432Y113344*
X216114Y112688*
X216114D02*
X214523Y110500D01*
X216750*
G54D66*
X255100Y225800D02*
Y230600D01*
X265700*
Y225800*
X255100*
X266176Y228182D02*
X268538D01*
X267357Y227001D02*
Y229363D01*
X261000Y229800D02*
Y226600D01*
X260600Y228200D02*
X259900D01*
X252843Y212043D02*
Y192357D01*
X233157Y212043D02*
Y192357D01*
X146761Y118398D02*
X144005Y121154D01*
X148729Y118398D02*
X144398Y122729D01*
X150698Y118398D02*
X144398Y124698D01*
X152469Y118398D02*
X144202Y126666D01*
X152666Y119973D02*
X144202Y128438D01*
X152863Y121745D02*
X145973Y128635D01*
X147942Y128831D02*
X152863Y123910D01*
X150304Y128831D02*
X153060Y126076D01*
X144398Y128831D02*
X169398D01*
X161721Y118202D02*
X160343Y119580D01*
X163493Y118202D02*
X160343Y121351D01*
X165658Y118202D02*
X160540Y123320D01*
X167430Y118202D02*
X160540Y125091D01*
X169202Y118398D02*
X160737Y126863D01*
X169202Y120564D02*
X161524Y128241D01*
X169202Y122926D02*
X163887Y128241D01*
X169202Y124894D02*
X165658Y128438D01*
X169202Y127060D02*
X167627Y128635D01*
X488132Y182674D02*
G03X484690Y186122I-3509J-61D01*
G01X484688Y179232D02*
G03X488132Y182677I-87J3531D01*
G01X283984Y107333D02*
X219024D01*
Y129774*
X283984*
Y107333*
X277882Y124853D02*
G03X277882I-788J0D01*
G01X311400Y192000D02*
Y187200D01*
X300800*
Y192000*
X311400*
X300324Y189618D02*
X297962D01*
X299143Y190799D02*
Y188437D01*
X305500Y188000D02*
Y191200D01*
X305900Y189600D02*
X306600D01*
G54D67*
X109458Y216030D02*
X114708D01*
X109458D02*
X114708Y217485D01*
X109458Y218939D02*
X114708Y217485D01*
X109458Y218939D02*
X114708D01*
X109458Y220575D02*
X114708D01*
X109458Y222212D02*
X114708D01*
X109458D02*
X114708Y224757D01*
X109458D02*
X114708D01*
X109458Y226394D02*
X114708D01*
X112458Y228030D02*
Y231303D01*
X109458Y234394D02*
X114708Y232939D01*
X109458Y234394D02*
X114708Y235848D01*
X112958Y233485D02*
Y235303D01*
X109458Y237485D02*
X114708D01*
X109458D02*
X114708Y240030D01*
X109458D02*
X114708D01*
X109458Y242939D02*
X114708D01*
X109458Y241666D02*
Y244212D01*
X112458Y245848D02*
Y249121D01*
X109458Y252030D02*
X114708D01*
X109458Y250757D02*
Y253303D01*
Y254939D02*
X111958Y256394D01*
X114708*
X109458Y257848D02*
X111958Y256394D01*
X109458Y259485D02*
X114708D01*
X109458D02*
Y261121D01*
X109708Y261666*
X109958Y261848*
X110458Y262030*
X111208*
X111708Y261848*
X111958Y261666*
X112208Y261121*
Y259485*
X109458Y263666D02*
X114708D01*
X109458D02*
Y266030D01*
X111958Y263666D02*
Y265121D01*
X114708Y263666D02*
Y266030D01*
X109458Y267666D02*
X114708D01*
X109458D02*
Y269303D01*
X109708Y269848*
X109958Y270030*
X110458Y270212*
X110958*
X111458Y270030*
X111708Y269848*
X111958Y269303*
Y267666D02*
Y269303D01*
X112208Y269848*
X112458Y270030*
X112958Y270212*
X113708*
X114208Y270030*
X114458Y269848*
X114708Y269303*
Y267666*
G54D69*
X233157Y188420D02*
X231189Y190389D01*
Y188420*
X233157*
G54D124*
X356827Y207499D02*
G03X356827I-787J0D01*
G01X435288Y155840D02*
G03X435288I-787J0D01*
G01X387148Y169801D02*
G03X387148I-788J0D01*
G01X401148D02*
G03X401148I-788J0D01*
G54D184*
G01X434297Y202316D02*
Y202686D01*
Y206666D02*
Y207006D01*
Y210986D02*
Y211326D01*
Y215306D02*
Y215646D01*
Y219626D02*
Y219976D01*
Y223946D02*
Y224306D01*
Y228276D02*
Y228616D01*
Y232596D02*
Y232946D01*
Y236926D02*
Y249306D01*
X124843Y209500D02*
Y280366D01*
X126772Y209500D02*
X100039D01*
Y280366*
X126772*
X197992Y209500D02*
X200433D01*
Y213398*
Y276823D02*
Y280366D01*
X197992*
G54D185*
X277756Y339370D02*
X254921D01*
Y359055*
X277756*
Y339370*
X273228Y359055D02*
X259449D01*
Y368110*
X273228*
Y359055*
X271161Y368110D02*
X261516D01*
Y370866*
X271161*
Y368110*
X270276Y370866D02*
X262402D01*
Y374803*
X270276*
Y370866*
X271161Y374803D02*
X261516D01*
Y378740*
X271161*
Y374803*
X454921Y339370D02*
X432087D01*
Y359055*
X454921*
Y339370*
X450394Y359055D02*
X436614D01*
Y368110*
X450394*
Y359055*
X448327Y368110D02*
X438681D01*
Y370866*
X448327*
Y368110*
X447441Y370866D02*
X439567D01*
Y374803*
X447441*
Y370866*
X448327Y374803D02*
X438681D01*
Y378740*
X448327*
Y374803*
X395866Y339370D02*
X373031D01*
Y359055*
X395866*
Y339370*
X391339Y359055D02*
X377559D01*
Y368110*
X391339*
Y359055*
X389272Y368110D02*
X379626D01*
Y370866*
X389272*
Y368110*
X388386Y370866D02*
X380512D01*
Y374803*
X388386*
Y370866*
X389272Y374803D02*
X379626D01*
Y378740*
X389272*
Y374803*
X159646Y339370D02*
X136811D01*
Y359055*
X159646*
Y339370*
X155118Y359055D02*
X141339D01*
Y368110*
X155118*
Y359055*
X153051Y368110D02*
X143406D01*
Y370866*
X153051*
Y368110*
X152165Y370866D02*
X144291D01*
Y374803*
X152165*
Y370866*
X153051Y374803D02*
X143406D01*
Y378740*
X153051*
Y374803*
X336811Y339370D02*
X313976D01*
Y359055*
X336811*
Y339370*
X332283Y359055D02*
X318504D01*
Y368110*
X332283*
Y359055*
X330217Y368110D02*
X320571D01*
Y370866*
X330217*
Y368110*
X329331Y370866D02*
X321457D01*
Y374803*
X329331*
Y370866*
X330217Y374803D02*
X320571D01*
Y378740*
X330217*
Y374803*
X218701Y339370D02*
X195866D01*
Y359055*
X218701*
Y339370*
X214173Y359055D02*
X200394D01*
Y368110*
X214173*
Y359055*
X212106Y368110D02*
X202461D01*
Y370866*
X212106*
Y368110*
X211220Y370866D02*
X203346D01*
Y374803*
X211220*
Y370866*
X212106Y374803D02*
X202461D01*
Y378740*
X212106*
Y374803*
G54D186*
X322198Y119910D02*
G03X322198I-492J0D01*
G01X304187Y215490D02*
G03X304187I-493J0D01*
G54D187*
G01X408247Y125107D02*
G03X408247I-787J0D01*
G54D188*
G01X416712Y120973D02*
G03X416712I-591J0D01*
G54D189*
G01X506427Y303787D02*
Y297787D01*
G74*
X0Y0D02*
M02*
